  0
SECTION
  2
HEADER
  9
$ACADVER
  1
AC1009
  9
$DWGCODEPAGE
  3
ansi_1252
  9
$INSBASE
 10
0.0
 20
0.0
 30
0.0
  9
$EXTMIN
 10
-29.99999999999999
 20
-30.0
 30
-0.0000000000000102
  9
$EXTMAX
 10
175.0000000000001
 20
166.0
 30
0.0000000000000018
  9
$LIMMIN
 10
0.0
 20
0.0
  9
$LIMMAX
 10
420.0
 20
297.0
  9
$ORTHOMODE
 70
     0
  9
$REGENMODE
 70
     1
  9
$FILLMODE
 70
     1
  9
$QTEXTMODE
 70
     0
  9
$MIRRTEXT
 70
     1
  9
$DRAGMODE
 70
     2
  9
$LTSCALE
 40
1.0
  9
$OSMODE
 70
    37
  9
$ATTMODE
 70
     1
  9
$TEXTSIZE
 40
2.5
  9
$TRACEWID
 40
1.0
  9
$TEXTSTYLE
  7
STANDARD
  9
$CLAYER
  8
0
  9
$CELTYPE
  6
BYLAYER
  9
$CECOLOR
 62
   256
  9
$DIMSCALE
 40
1.0
  9
$DIMASZ
 40
2.5
  9
$DIMEXO
 40
0.625
  9
$DIMDLI
 40
3.75
  9
$DIMRND
 40
0.0
  9
$DIMDLE
 40
0.0
  9
$DIMEXE
 40
1.25
  9
$DIMTP
 40
0.0
  9
$DIMTM
 40
0.0
  9
$DIMTXT
 40
2.5
  9
$DIMCEN
 40
2.5
  9
$DIMTSZ
 40
0.0
  9
$DIMTOL
 70
     0
  9
$DIMLIM
 70
     0
  9
$DIMTIH
 70
     1
  9
$DIMTOH
 70
     0
  9
$DIMSE1
 70
     0
  9
$DIMSE2
 70
     0
  9
$DIMTAD
 70
     1
  9
$DIMZIN
 70
     8
  9
$DIMBLK
  1

  9
$DIMASO
 70
     1
  9
$DIMSHO
 70
     1
  9
$DIMPOST
  1
mm
  9
$DIMAPOST
  1

  9
$DIMALT
 70
     0
  9
$DIMALTD
 70
     3
  9
$DIMALTF
 40
0.0393700787401575
  9
$DIMLFAC
 40
1.0
  9
$DIMTOFL
 70
     1
  9
$DIMTVP
 40
0.0
  9
$DIMTIX
 70
     0
  9
$DIMSOXD
 70
     0
  9
$DIMSAH
 70
     0
  9
$DIMBLK1
  1

  9
$DIMBLK2
  1

  9
$DIMSTYLE
  2
ISO-25
  9
$DIMCLRD
 70
     0
  9
$DIMCLRE
 70
     0
  9
$DIMCLRT
 70
     0
  9
$DIMTFAC
 40
1.0
  9
$DIMGAP
 40
0.625
  9
$LUNITS
 70
     2
  9
$LUPREC
 70
     4
  9
$SKETCHINC
 40
1.0
  9
$FILLETRAD
 40
10.0
  9
$AUNITS
 70
     0
  9
$AUPREC
 70
     0
  9
$MENU
  1
.
  9
$ELEVATION
 40
0.0
  9
$PELEVATION
 40
0.0
  9
$THICKNESS
 40
0.0
  9
$LIMCHECK
 70
     0
  9
$CHAMFERA
 40
0.0
  9
$CHAMFERB
 40
0.0
  9
$SKPOLY
 70
     0
  9
$TDCREATE
 40
2458303.443016875
  9
$TDUPDATE
 40
2458303.443017963
  9
$TDINDWG
 40
0.0000000116
  9
$TDUSRTIMER
 40
0.0000000116
  9
$USRTIMER
 70
     1
  9
$ANGBASE
 50
0.0
  9
$ANGDIR
 70
     0
  9
$PDMODE
 70
     0
  9
$PDSIZE
 40
0.0
  9
$PLINEWID
 40
0.0
  9
$COORDS
 70
     1
  9
$SPLFRAME
 70
     0
  9
$SPLINETYPE
 70
     6
  9
$SPLINESEGS
 70
     8
  9
$ATTDIA
 70
     0
  9
$ATTREQ
 70
     1
  9
$HANDLING
 70
     1
  9
$HANDSEED
  5
F5
  9
$SURFTAB1
 70
     6
  9
$SURFTAB2
 70
     6
  9
$SURFTYPE
 70
     6
  9
$SURFU
 70
     6
  9
$SURFV
 70
     6
  9
$UCSNAME
  2

  9
$UCSORG
 10
0.0
 20
0.0
 30
0.0
  9
$UCSXDIR
 10
1.0
 20
0.0
 30
0.0
  9
$UCSYDIR
 10
0.0
 20
1.0
 30
0.0
  9
$PUCSNAME
  2

  9
$PUCSORG
 10
0.0
 20
0.0
 30
0.0
  9
$PUCSXDIR
 10
1.0
 20
0.0
 30
0.0
  9
$PUCSYDIR
 10
0.0
 20
1.0
 30
0.0
  9
$USERI1
 70
     0
  9
$USERI2
 70
     0
  9
$USERI3
 70
     0
  9
$USERI4
 70
     0
  9
$USERI5
 70
     0
  9
$USERR1
 40
0.0
  9
$USERR2
 40
0.0
  9
$USERR3
 40
0.0
  9
$USERR4
 40
0.0
  9
$USERR5
 40
0.0
  9
$WORLDVIEW
 70
     1
  9
$SHADEDGE
 70
     3
  9
$SHADEDIF
 70
    70
  9
$TILEMODE
 70
     1
  9
$MAXACTVP
 70
    64
  9
$PLIMCHECK
 70
     0
  9
$PEXTMIN
 10
1.000000000000000E+20
 20
1.000000000000000E+20
 30
1.000000000000000E+20
  9
$PEXTMAX
 10
-1.000000000000000E+20
 20
-1.000000000000000E+20
 30
-1.000000000000000E+20
  9
$PLIMMIN
 10
0.0
 20
0.0
  9
$PLIMMAX
 10
420.0
 20
297.0
  9
$UNITMODE
 70
     0
  9
$VISRETAIN
 70
     1
  9
$PLINEGEN
 70
     0
  9
$PSLTSCALE
 70
     1
  0
ENDSEC
  0
SECTION
  2
TABLES
  0
TABLE
  2
VPORT
 70
     1
  0
VPORT
  2
*ACTIVE
 70
     0
 10
0.0
 20
0.0
 11
1.0
 21
1.0
 12
72.50000000000003
 22
68.00000000000001
 13
0.0
 23
0.0
 14
10.0
 24
10.0
 15
10.0
 25
10.0
 16
0.0
 26
0.0
 36
1.0
 17
0.0
 27
0.0
 37
0.0
 40
196.0
 41
1.045918367346939
 42
50.0
 43
0.0
 44
0.0
 50
0.0
 51
0.0
 71
     0
 72
   100
 73
     1
 74
     3
 75
     0
 76
     0
 77
     0
 78
     0
  0
ENDTAB
  0
TABLE
  2
LTYPE
 70
     1
  0
LTYPE
  2
CONTINUOUS
 70
     0
  3
Solid line
 72
    65
 73
     0
 40
0.0
  0
ENDTAB
  0
TABLE
  2
LAYER
 70
     1
  0
LAYER
  2
0
 70
     0
 62
   253
  6
CONTINUOUS
  0
ENDTAB
  0
TABLE
  2
STYLE
 70
     1
  0
STYLE
  2
STANDARD
 70
     0
 40
0.0
 41
1.0
 50
0.0
 71
     0
 42
2.5
  3
txt
  4

  0
ENDTAB
  0
TABLE
  2
VIEW
 70
     0
  0
ENDTAB
  0
TABLE
  2
UCS
 70
     0
  0
ENDTAB
  0
TABLE
  2
APPID
 70
     1
  0
APPID
  2
ACAD
 70
     0
  0
ENDTAB
  0
TABLE
  2
DIMSTYLE
 70
     1
  0
DIMSTYLE
  2
ISO-25
 70
     0
  3

  4

  5

  6

  7

 40
1.0
 41
2.5
 42
0.625
 43
3.75
 44
1.25
 45
0.0
 46
0.0
 47
0.0
 48
0.0
140
2.5
141
2.5
142
0.0
143
0.03937007874016
144
1.0
145
0.0
146
1.0
147
0.625
 71
     0
 72
     0
 73
     0
 74
     0
 75
     0
 76
     0
 77
     1
 78
     8
170
     0
171
     3
172
     1
173
     0
174
     0
175
     0
176
     0
177
     0
178
     0
  0
ENDTAB
  0
ENDSEC
  0
SECTION
  2
BLOCKS
  0
BLOCK
  8
0
  2
$MODEL_SPACE
 70
     0
 10
0.0
 20
0.0
 30
0.0
  3
$MODEL_SPACE
  1

  0
ENDBLK
  5
21
  8
0
  0
BLOCK
 67
     1
  8
0
  2
$PAPER_SPACE
 70
     0
 10
0.0
 20
0.0
 30
0.0
  3
$PAPER_SPACE
  1

  0
ENDBLK
  5
1D
 67
     1
  8
0
  0
ENDSEC
  0
SECTION
  2
ENTITIES
  0
LINE
  5
6A
  8
0
 10
-29.99999999999999
 20
151.0
 30
0.0
 11
-29.99999999999999
 21
-14.99999999999999
 31
0.0
  0
LINE
  5
6B
  8
0
 10
-14.99999999999999
 20
-30.0
 30
0.0
 11
160.0
 21
-30.0
 31
0.0
  0
LINE
  5
6C
  8
0
 10
175.0
 20
-15.00000000000001
 30
0.0
 11
175.0
 21
151.0
 31
0.0
  0
LINE
  5
6D
  8
0
 10
160.0
 20
166.0
 30
0.0
 11
-14.99999999999999
 21
166.0
 31
0.0
  0
ARC
  5
6E
  8
0
 10
-14.99999999999998
 20
151.0
 30
0.0
 40
15.0
 50
90.0
 51
180.0
  0
ARC
  5
6F
  8
0
 10
160.0
 20
151.0
 30
0.0
 40
15.0
 50
360.0
 51
90.0
  0
ARC
  5
70
  8
0
 10
160.0
 20
-15.00000000000001
 30
0.0
 40
15.0
 50
270.0
 51
360.0
  0
ARC
  5
71
  8
0
 10
-14.99999999999999
 20
-15.0
 30
0.0
 40
15.0
 50
180.0
 51
270.0
  0
CIRCLE
  5
72
  8
0
 10
-14.51612903225804
 20
151.0
 30
0.0
 40
1.6
  0
CIRCLE
  5
73
  8
0
 10
72.50000000000001
 20
151.0
 30
0.0
 40
1.6
  0
CIRCLE
  5
74
  8
0
 10
159.5161290322581
 20
151.0
 30
0.0
 40
1.6
  0
CIRCLE
  5
75
  8
0
 10
159.5161290322581
 20
-15.00000000000002
 30
0.0
 40
1.6
  0
CIRCLE
  5
76
  8
0
 10
72.50000000000007
 20
-14.99999999999999
 30
0.0
 40
1.6
  0
CIRCLE
  5
77
  8
0
 10
-14.5161290322581
 20
-15.00000000000001
 30
0.0
 40
1.6
  0
CIRCLE
  5
78
  8
0
 10
-14.99999999999998
 20
68.00000000000006
 30
0.0
 40
1.6
  0
CIRCLE
  5
79
  8
0
 10
160.0
 20
68.0
 30
0.0
 40
1.59999999999999
  0
ARC
  5
7A
  8
0
 10
72.50000000000001
 20
68.0
 30
0.0
 40
60.0
 50
4.780191847199186
 51
85.21980815280081
  0
ARC
  5
7B
  8
0
 10
72.5
 20
68.00000000000001
 30
0.0
 40
55.0
 50
5.215908570454094
 51
84.78409142954591
  0
ARC
  5
7C
  8
0
 10
72.5
 20
68.00000000000001
 30
0.0
 40
52.5
 50
5.465023799905844
 51
84.53497620009415
  0
ARC
  5
7D
  8
0
 10
72.50000000000001
 20
68.0
 30
0.0
 40
47.5
 50
6.042328419054135
 51
83.95767158094591
  0
ARC
  5
7E
  8
0
 10
72.50000000000001
 20
68.0
 30
0.0
 40
45.0
 50
6.37937020844288
 51
83.62062979155712
  0
ARC
  5
7F
  8
0
 10
72.50000000000001
 20
68.0
 30
0.0
 40
40.0
 50
7.180755781458336
 51
82.81924421854177
  0
ARC
  5
80
  8
0
 10
72.50000000000001
 20
68.0
 30
0.0
 40
37.5
 50
7.662255660766106
 51
82.33774433923399
  0
ARC
  5
81
  8
0
 10
72.5
 20
68.00000000000001
 30
0.0
 40
32.5
 50
8.849883098429038
 51
81.15011690157095
  0
ARC
  5
82
  8
0
 10
72.5
 20
68.00000000000001
 30
0.0
 40
30.0
 50
9.594068226860434
 51
80.40593177313957
  0
ARC
  5
83
  8
0
 10
72.5
 20
68.00000000000001
 30
0.0
 40
25.0
 50
11.53695903281549
 51
78.4630409671844
  0
ARC
  5
84
  8
0
 10
72.50000000000001
 20
68.0
 30
0.0
 40
22.5
 50
12.8395884069042
 51
77.1604115930959
  0
ARC
  5
85
  8
0
 10
72.50000000000001
 20
68.0
 30
0.0
 40
17.5
 50
16.60154959902025
 51
73.39845040097975
  0
ARC
  5
86
  8
0
 10
72.50000000000001
 20
68.0
 30
0.0
 40
15.0
 50
19.47122063449073
 51
70.52877936550937
  0
ARC
  5
87
  8
0
 10
72.50000000000001
 20
68.0
 30
0.0
 40
10.0
 50
30.00000000000007
 51
60.00000000000004
  0
ARC
  5
88
  8
0
 10
72.50000000000001
 20
68.0
 30
0.0
 40
10.0
 50
300.0
 51
330.0
  0
ARC
  5
89
  8
0
 10
72.50000000000001
 20
68.0
 30
0.0
 40
15.0
 50
289.4712206344907
 51
340.5287793655094
  0
ARC
  5
8A
  8
0
 10
72.50000000000001
 20
68.0
 30
0.0
 40
17.5
 50
286.6015495990202
 51
343.3984504009798
  0
ARC
  5
8B
  8
0
 10
72.50000000000001
 20
68.0
 30
0.0
 40
22.5
 50
282.8395884069041
 51
347.1604115930959
  0
ARC
  5
8C
  8
0
 10
72.5
 20
68.00000000000001
 30
0.0
 40
25.0
 50
281.5369590328156
 51
348.4630409671845
  0
ARC
  5
8D
  8
0
 10
72.5
 20
68.00000000000001
 30
0.0
 40
30.0
 50
279.5940682268605
 51
350.4059317731395
  0
ARC
  5
8E
  8
0
 10
72.5
 20
68.00000000000001
 30
0.0
 40
32.5
 50
278.8498830984291
 51
351.150116901571
  0
ARC
  5
8F
  8
0
 10
72.50000000000001
 20
68.0
 30
0.0
 40
37.5
 50
277.662255660766
 51
352.337744339234
  0
ARC
  5
90
  8
0
 10
72.50000000000001
 20
68.0
 30
0.0
 40
40.0
 50
277.1807557814583
 51
352.8192442185418
  0
ARC
  5
91
  8
0
 10
72.50000000000001
 20
68.0
 30
0.0
 40
45.0
 50
276.3793702084428
 51
353.6206297915572
  0
ARC
  5
92
  8
0
 10
72.50000000000001
 20
68.0
 30
0.0
 40
47.5
 50
276.0423284190541
 51
353.9576715809459
  0
ARC
  5
93
  8
0
 10
72.5
 20
68.00000000000001
 30
0.0
 40
52.5
 50
275.4650237999059
 51
354.534976200094
  0
ARC
  5
94
  8
0
 10
72.5
 20
68.00000000000001
 30
0.0
 40
55.0
 50
275.2159085704541
 51
354.7840914295459
  0
ARC
  5
95
  8
0
 10
72.50000000000001
 20
68.0
 30
0.0
 40
60.0
 50
274.7801918471992
 51
355.2198081528008
  0
ARC
  5
96
  8
0
 10
72.50000000000001
 20
68.0
 30
0.0
 40
60.0
 50
94.78019184719919
 51
175.2198081528008
  0
ARC
  5
97
  8
0
 10
72.50000000000001
 20
68.0
 30
0.0
 40
60.0
 50
184.7801918471992
 51
265.2198081528008
  0
ARC
  5
98
  8
0
 10
72.5
 20
68.00000000000001
 30
0.0
 40
55.0
 50
95.21590857045415
 51
174.7840914295459
  0
ARC
  5
99
  8
0
 10
72.5
 20
68.00000000000001
 30
0.0
 40
55.0
 50
185.2159085704541
 51
264.7840914295459
  0
ARC
  5
9A
  8
0
 10
72.5
 20
68.00000000000001
 30
0.0
 40
52.5
 50
95.46502379990588
 51
174.5349762000941
  0
ARC
  5
9B
  8
0
 10
72.5
 20
68.00000000000001
 30
0.0
 40
52.5
 50
185.4650237999059
 51
264.5349762000941
  0
ARC
  5
9C
  8
0
 10
72.50000000000001
 20
68.0
 30
0.0
 40
47.5
 50
96.04232841905413
 51
173.9576715809459
  0
ARC
  5
9D
  8
0
 10
72.50000000000001
 20
68.0
 30
0.0
 40
47.5
 50
186.0423284190541
 51
263.9576715809459
  0
ARC
  5
9E
  8
0
 10
72.50000000000001
 20
68.0
 30
0.0
 40
45.0
 50
96.37937020844285
 51
173.6206297915572
  0
ARC
  5
9F
  8
0
 10
72.50000000000001
 20
68.0
 30
0.0
 40
45.0
 50
186.3793702084428
 51
263.6206297915572
  0
ARC
  5
A0
  8
0
 10
72.50000000000001
 20
68.0
 30
0.0
 40
40.0
 50
97.18075578145829
 51
172.8192442185417
  0
ARC
  5
A1
  8
0
 10
72.50000000000001
 20
68.0
 30
0.0
 40
40.0
 50
187.1807557814583
 51
262.8192442185417
  0
ARC
  5
A2
  8
0
 10
72.50000000000001
 20
68.0
 30
0.0
 40
37.5
 50
97.66225566076608
 51
172.3377443392339
  0
ARC
  5
A3
  8
0
 10
72.50000000000001
 20
68.0
 30
0.0
 40
37.5
 50
187.6622556607661
 51
262.337744339234
  0
ARC
  5
A4
  8
0
 10
72.5
 20
68.00000000000001
 30
0.0
 40
32.5
 50
98.84988309842905
 51
171.150116901571
  0
ARC
  5
A5
  8
0
 10
72.5
 20
68.00000000000001
 30
0.0
 40
32.5
 50
188.849883098429
 51
261.150116901571
  0
ARC
  5
A6
  8
0
 10
72.5
 20
68.00000000000001
 30
0.0
 40
30.0
 50
99.59406822686044
 51
170.4059317731395
  0
ARC
  5
A7
  8
0
 10
72.5
 20
68.00000000000001
 30
0.0
 40
30.0
 50
189.5940682268605
 51
260.4059317731396
  0
ARC
  5
A8
  8
0
 10
72.5
 20
68.00000000000001
 30
0.0
 40
25.0
 50
101.5369590328155
 51
168.4630409671845
  0
ARC
  5
A9
  8
0
 10
72.5
 20
68.00000000000001
 30
0.0
 40
25.0
 50
191.5369590328155
 51
258.4630409671846
  0
ARC
  5
AA
  8
0
 10
72.50000000000001
 20
68.0
 30
0.0
 40
22.5
 50
102.8395884069042
 51
167.1604115930958
  0
ARC
  5
AB
  8
0
 10
72.50000000000001
 20
68.0
 30
0.0
 40
22.5
 50
192.8395884069041
 51
257.1604115930959
  0
ARC
  5
AC
  8
0
 10
72.50000000000001
 20
68.0
 30
0.0
 40
17.5
 50
106.6015495990203
 51
163.3984504009797
  0
ARC
  5
AD
  8
0
 10
72.50000000000001
 20
68.0
 30
0.0
 40
17.5
 50
196.6015495990202
 51
253.3984504009798
  0
ARC
  5
AE
  8
0
 10
72.50000000000001
 20
68.0
 30
0.0
 40
15.0
 50
109.4712206344907
 51
160.5287793655093
  0
ARC
  5
AF
  8
0
 10
72.50000000000001
 20
68.0
 30
0.0
 40
15.0
 50
199.4712206344906
 51
250.5287793655093
  0
ARC
  5
B0
  8
0
 10
72.50000000000001
 20
68.0
 30
0.0
 40
10.0
 50
120.0
 51
149.9999999999999
  0
ARC
  5
B1
  8
0
 10
72.50000000000001
 20
68.0
 30
0.0
 40
10.0
 50
210.0
 51
240.0
  0
LINE
  5
B2
  8
0
 10
17.72774424948337
 20
73.00000000000003
 30
0.0
 11
12.70869628449304
 21
73.00000000000003
 31
0.0
  0
LINE
  5
B3
  8
0
 10
25.26389093077206
 20
73.00000000000003
 30
0.0
 11
20.23863759908282
 21
73.00000000000003
 31
0.0
  0
LINE
  5
B4
  8
0
 10
32.81373033403115
 20
73.00000000000003
 30
0.0
 11
27.77864045000422
 21
73.00000000000003
 31
0.0
  0
LINE
  5
B5
  8
0
 10
40.38691855333717
 20
73.00000000000003
 30
0.0
 11
35.33482813170374
 21
73.00000000000003
 31
0.0
  0
LINE
  5
B6
  8
0
 10
48.00510257216821
 20
73.00000000000003
 30
0.0
 11
42.91960108450192
 21
73.00000000000003
 31
0.0
  0
LINE
  5
B7
  8
0
 10
55.72949016875159
 20
73.00000000000003
 30
0.0
 11
50.56258903151971
 21
73.00000000000003
 31
0.0
  0
LINE
  5
B8
  8
0
 10
63.83974596215564
 20
73.00000000000003
 30
0.0
 11
58.35786437626907
 21
73.00000000000003
 31
0.0
  0
LINE
  5
B9
  8
0
 10
58.35786437626906
 20
63.00000000000001
 30
0.0
 11
63.83974596215563
 21
63.00000000000001
 31
0.0
  0
LINE
  5
BA
  8
0
 10
50.5625890315197
 20
63.00000000000001
 30
0.0
 11
55.72949016875158
 21
63.00000000000001
 31
0.0
  0
LINE
  5
BB
  8
0
 10
42.91960108450192
 20
63.00000000000001
 30
0.0
 11
48.00510257216821
 21
63.00000000000001
 31
0.0
  0
LINE
  5
BC
  8
0
 10
35.33482813170374
 20
63.00000000000001
 30
0.0
 11
40.38691855333717
 21
63.00000000000001
 31
0.0
  0
LINE
  5
BD
  8
0
 10
27.77864045000422
 20
63.00000000000001
 30
0.0
 11
32.81373033403115
 21
63.00000000000001
 31
0.0
  0
LINE
  5
BE
  8
0
 10
12.70869628449302
 20
63.00000000000001
 30
0.0
 11
17.72774424948338
 21
63.00000000000001
 31
0.0
  0
LINE
  5
BF
  8
0
 10
20.23863759908282
 20
63.00000000000001
 30
0.0
 11
25.26389093077205
 21
63.00000000000001
 31
0.0
  0
LINE
  5
C0
  8
0
 10
67.5
 20
127.791303715507
 30
0.0
 11
67.5
 21
122.7722557505166
 31
0.0
  0
LINE
  5
C1
  8
0
 10
67.5
 20
120.2613624009172
 30
0.0
 11
67.5
 21
115.236109069228
 31
0.0
  0
LINE
  5
C2
  8
0
 10
67.5
 20
112.7213595499958
 30
0.0
 11
67.5
 21
107.6862696659689
 31
0.0
  0
LINE
  5
C3
  8
0
 10
67.5
 20
105.1651718682963
 30
0.0
 11
67.5
 21
100.1130814466628
 31
0.0
  0
LINE
  5
C4
  8
0
 10
67.5
 20
97.58039891549811
 30
0.0
 11
67.5
 21
92.4948974278318
 31
0.0
  0
LINE
  5
C5
  8
0
 10
67.5
 20
89.93741096848031
 30
0.0
 11
67.5
 21
84.77050983124842
 31
0.0
  0
LINE
  5
C6
  8
0
 10
67.5
 20
82.14213562373097
 30
0.0
 11
67.5
 21
76.6602540378444
 31
0.0
  0
LINE
  5
C7
  8
0
 10
77.50000000000001
 20
82.14213562373097
 30
0.0
 11
77.50000000000001
 21
76.6602540378444
 31
0.0
  0
LINE
  5
C8
  8
0
 10
77.50000000000001
 20
89.93741096848031
 30
0.0
 11
77.50000000000001
 21
84.77050983124842
 31
0.0
  0
LINE
  5
C9
  8
0
 10
77.50000000000001
 20
97.5803989154981
 30
0.0
 11
77.50000000000001
 21
92.49489742783179
 31
0.0
  0
LINE
  5
CA
  8
0
 10
77.50000000000001
 20
105.1651718682963
 30
0.0
 11
77.50000000000001
 21
100.1130814466628
 31
0.0
  0
LINE
  5
CB
  8
0
 10
77.50000000000001
 20
112.7213595499958
 30
0.0
 11
77.50000000000001
 21
107.6862696659689
 31
0.0
  0
LINE
  5
CC
  8
0
 10
77.50000000000001
 20
127.791303715507
 30
0.0
 11
77.50000000000001
 21
122.7722557505166
 31
0.0
  0
LINE
  5
CD
  8
0
 10
77.50000000000001
 20
120.2613624009172
 30
0.0
 11
77.50000000000001
 21
115.236109069228
 31
0.0
  0
LINE
  5
CE
  8
0
 10
132.291303715507
 20
73.00000000000003
 30
0.0
 11
127.2722557505166
 21
73.00000000000003
 31
0.0
  0
LINE
  5
CF
  8
0
 10
124.7613624009172
 20
73.00000000000003
 30
0.0
 11
119.736109069228
 21
73.00000000000003
 31
0.0
  0
LINE
  5
D0
  8
0
 10
117.2213595499958
 20
73.00000000000003
 30
0.0
 11
112.1862696659689
 21
73.00000000000003
 31
0.0
  0
LINE
  5
D1
  8
0
 10
109.6651718682963
 20
73.00000000000003
 30
0.0
 11
104.6130814466628
 21
73.00000000000003
 31
0.0
  0
LINE
  5
D2
  8
0
 10
102.0803989154981
 20
73.00000000000003
 30
0.0
 11
96.99489742783177
 21
73.00000000000003
 31
0.0
  0
LINE
  5
D3
  8
0
 10
94.43741096848031
 20
73.00000000000003
 30
0.0
 11
89.27050983124843
 21
73.00000000000003
 31
0.0
  0
LINE
  5
D4
  8
0
 10
86.64213562373095
 20
73.00000000000003
 30
0.0
 11
81.16025403784438
 21
73.00000000000003
 31
0.0
  0
LINE
  5
D5
  8
0
 10
81.1602540378444
 20
63.00000000000001
 30
0.0
 11
86.64213562373097
 21
63.00000000000001
 31
0.0
  0
LINE
  5
D6
  8
0
 10
89.27050983124843
 20
63.00000000000001
 30
0.0
 11
94.43741096848032
 21
63.00000000000001
 31
0.0
  0
LINE
  5
D7
  8
0
 10
96.99489742783177
 20
63.00000000000001
 30
0.0
 11
102.0803989154981
 21
63.00000000000001
 31
0.0
  0
LINE
  5
D8
  8
0
 10
104.6130814466628
 20
63.00000000000001
 30
0.0
 11
109.6651718682963
 21
63.00000000000001
 31
0.0
  0
LINE
  5
D9
  8
0
 10
112.1862696659689
 20
63.00000000000001
 30
0.0
 11
117.2213595499958
 21
63.00000000000001
 31
0.0
  0
LINE
  5
DA
  8
0
 10
119.736109069228
 20
63.00000000000001
 30
0.0
 11
124.7613624009172
 21
63.00000000000001
 31
0.0
  0
LINE
  5
DB
  8
0
 10
127.2722557505166
 20
63.00000000000001
 30
0.0
 11
132.291303715507
 21
63.00000000000001
 31
0.0
  0
LINE
  5
DC
  8
0
 10
77.50000000000001
 20
13.22774424948342
 30
0.0
 11
77.50000000000001
 21
8.208696284492998
 31
0.0
  0
LINE
  5
DD
  8
0
 10
77.50000000000001
 20
20.76389093077205
 30
0.0
 11
77.50000000000001
 21
15.73863759908284
 31
0.0
  0
LINE
  5
DE
  8
0
 10
77.50000000000001
 20
28.31373033403114
 30
0.0
 11
77.50000000000001
 21
23.27864045000421
 31
0.0
  0
LINE
  5
DF
  8
0
 10
77.50000000000001
 20
35.8869185533372
 30
0.0
 11
77.50000000000001
 21
30.83482813170374
 31
0.0
  0
LINE
  5
E0
  8
0
 10
77.50000000000001
 20
43.50510257216825
 30
0.0
 11
77.50000000000001
 21
38.41960108450194
 31
0.0
  0
LINE
  5
E1
  8
0
 10
77.50000000000001
 20
59.33974596215562
 30
0.0
 11
77.50000000000001
 21
53.85786437626905
 31
0.0
  0
LINE
  5
E2
  8
0
 10
77.50000000000001
 20
51.22949016875158
 30
0.0
 11
77.50000000000001
 21
46.06258903151971
 31
0.0
  0
LINE
  5
E3
  8
0
 10
67.5
 20
59.33974596215562
 30
0.0
 11
67.5
 21
53.85786437626905
 31
0.0
  0
LINE
  5
E4
  8
0
 10
67.5
 20
51.22949016875158
 30
0.0
 11
67.5
 21
46.06258903151971
 31
0.0
  0
LINE
  5
E5
  8
0
 10
67.5
 20
43.50510257216823
 30
0.0
 11
67.5
 21
38.41960108450193
 31
0.0
  0
LINE
  5
E6
  8
0
 10
67.5
 20
35.8869185533372
 30
0.0
 11
67.5
 21
30.83482813170374
 31
0.0
  0
LINE
  5
E7
  8
0
 10
67.5
 20
28.31373033403114
 30
0.0
 11
67.5
 21
23.27864045000421
 31
0.0
  0
LINE
  5
E8
  8
0
 10
67.5
 20
20.76389093077205
 30
0.0
 11
67.5
 21
15.73863759908284
 31
0.0
  0
LINE
  5
E9
  8
0
 10
67.5
 20
13.2277442494834
 30
0.0
 11
67.5
 21
8.208696284492998
 31
0.0
  0
ENDSEC
  0
EOF
