  0
SECTION
  2
HEADER
  9
$ACADVER
  1
AC1009
  9
$DWGCODEPAGE
  3
ansi_1252
  9
$INSBASE
 10
0.0
 20
0.0
 30
0.0
  9
$EXTMIN
 10
-0.0000000000000121
 20
-0.0000000000000286
 30
-0.000000000000038
  9
$EXTMAX
 10
810.0
 20
620.0
 30
0.0
  9
$LIMMIN
 10
0.0
 20
0.0
  9
$LIMMAX
 10
420.0
 20
297.0
  9
$ORTHOMODE
 70
     0
  9
$REGENMODE
 70
     1
  9
$FILLMODE
 70
     1
  9
$QTEXTMODE
 70
     0
  9
$MIRRTEXT
 70
     1
  9
$DRAGMODE
 70
     2
  9
$LTSCALE
 40
1.0
  9
$OSMODE
 70
    37
  9
$ATTMODE
 70
     1
  9
$TEXTSIZE
 40
2.5
  9
$TRACEWID
 40
1.0
  9
$TEXTSTYLE
  7
STANDARD
  9
$CLAYER
  8
0
  9
$CELTYPE
  6
BYLAYER
  9
$CECOLOR
 62
   256
  9
$DIMSCALE
 40
1.0
  9
$DIMASZ
 40
2.5
  9
$DIMEXO
 40
0.625
  9
$DIMDLI
 40
3.75
  9
$DIMRND
 40
0.0
  9
$DIMDLE
 40
0.0
  9
$DIMEXE
 40
1.25
  9
$DIMTP
 40
0.0
  9
$DIMTM
 40
0.0
  9
$DIMTXT
 40
2.5
  9
$DIMCEN
 40
2.5
  9
$DIMTSZ
 40
0.0
  9
$DIMTOL
 70
     0
  9
$DIMLIM
 70
     0
  9
$DIMTIH
 70
     1
  9
$DIMTOH
 70
     0
  9
$DIMSE1
 70
     0
  9
$DIMSE2
 70
     0
  9
$DIMTAD
 70
     1
  9
$DIMZIN
 70
     8
  9
$DIMBLK
  1

  9
$DIMASO
 70
     1
  9
$DIMSHO
 70
     1
  9
$DIMPOST
  1
mm
  9
$DIMAPOST
  1

  9
$DIMALT
 70
     0
  9
$DIMALTD
 70
     3
  9
$DIMALTF
 40
0.0393700787401575
  9
$DIMLFAC
 40
1.0
  9
$DIMTOFL
 70
     1
  9
$DIMTVP
 40
0.0
  9
$DIMTIX
 70
     0
  9
$DIMSOXD
 70
     0
  9
$DIMSAH
 70
     0
  9
$DIMBLK1
  1

  9
$DIMBLK2
  1

  9
$DIMSTYLE
  2
ISO-25
  9
$DIMCLRD
 70
     0
  9
$DIMCLRE
 70
     0
  9
$DIMCLRT
 70
     0
  9
$DIMTFAC
 40
1.0
  9
$DIMGAP
 40
0.625
  9
$LUNITS
 70
     2
  9
$LUPREC
 70
     4
  9
$SKETCHINC
 40
1.0
  9
$FILLETRAD
 40
10.0
  9
$AUNITS
 70
     0
  9
$AUPREC
 70
     0
  9
$MENU
  1
.
  9
$ELEVATION
 40
0.0
  9
$PELEVATION
 40
0.0
  9
$THICKNESS
 40
0.0
  9
$LIMCHECK
 70
     0
  9
$CHAMFERA
 40
0.0
  9
$CHAMFERB
 40
0.0
  9
$SKPOLY
 70
     0
  9
$TDCREATE
 40
2458316.399639595
  9
$TDUPDATE
 40
2458316.399643218
  9
$TDINDWG
 40
0.0000000116
  9
$TDUSRTIMER
 40
0.0000000116
  9
$USRTIMER
 70
     1
  9
$ANGBASE
 50
0.0
  9
$ANGDIR
 70
     0
  9
$PDMODE
 70
     0
  9
$PDSIZE
 40
0.0
  9
$PLINEWID
 40
0.0
  9
$COORDS
 70
     1
  9
$SPLFRAME
 70
     0
  9
$SPLINETYPE
 70
     6
  9
$SPLINESEGS
 70
     8
  9
$ATTDIA
 70
     0
  9
$ATTREQ
 70
     1
  9
$HANDLING
 70
     1
  9
$HANDSEED
  5
151
  9
$SURFTAB1
 70
     6
  9
$SURFTAB2
 70
     6
  9
$SURFTYPE
 70
     6
  9
$SURFU
 70
     6
  9
$SURFV
 70
     6
  9
$UCSNAME
  2

  9
$UCSORG
 10
0.0
 20
0.0
 30
0.0
  9
$UCSXDIR
 10
1.0
 20
0.0
 30
0.0
  9
$UCSYDIR
 10
0.0
 20
1.0
 30
0.0
  9
$PUCSNAME
  2

  9
$PUCSORG
 10
0.0
 20
0.0
 30
0.0
  9
$PUCSXDIR
 10
1.0
 20
0.0
 30
0.0
  9
$PUCSYDIR
 10
0.0
 20
1.0
 30
0.0
  9
$USERI1
 70
     0
  9
$USERI2
 70
     0
  9
$USERI3
 70
     0
  9
$USERI4
 70
     0
  9
$USERI5
 70
     0
  9
$USERR1
 40
0.0
  9
$USERR2
 40
0.0
  9
$USERR3
 40
0.0
  9
$USERR4
 40
0.0
  9
$USERR5
 40
0.0
  9
$WORLDVIEW
 70
     1
  9
$SHADEDGE
 70
     3
  9
$SHADEDIF
 70
    70
  9
$TILEMODE
 70
     1
  9
$MAXACTVP
 70
    64
  9
$PLIMCHECK
 70
     0
  9
$PEXTMIN
 10
1.000000000000000E+20
 20
1.000000000000000E+20
 30
1.000000000000000E+20
  9
$PEXTMAX
 10
-1.000000000000000E+20
 20
-1.000000000000000E+20
 30
-1.000000000000000E+20
  9
$PLIMMIN
 10
0.0
 20
0.0
  9
$PLIMMAX
 10
420.0
 20
297.0
  9
$UNITMODE
 70
     0
  9
$VISRETAIN
 70
     1
  9
$PLINEGEN
 70
     0
  9
$PSLTSCALE
 70
     1
  0
ENDSEC
  0
SECTION
  2
TABLES
  0
TABLE
  2
VPORT
 70
     1
  0
VPORT
  2
*ACTIVE
 70
     0
 10
0.0
 20
0.0
 11
1.0
 21
1.0
 12
405.0
 22
310.0
 13
0.0
 23
0.0
 14
10.0
 24
10.0
 15
10.0
 25
10.0
 16
0.0
 26
0.0
 36
1.0
 17
0.0
 27
0.0
 37
0.0
 40
620.0
 41
1.306451612903226
 42
50.0
 43
0.0
 44
0.0
 50
0.0
 51
0.0
 71
     0
 72
   100
 73
     1
 74
     3
 75
     0
 76
     0
 77
     0
 78
     0
  0
ENDTAB
  0
TABLE
  2
LTYPE
 70
     1
  0
LTYPE
  2
CONTINUOUS
 70
     0
  3
Solid line
 72
    65
 73
     0
 40
0.0
  0
ENDTAB
  0
TABLE
  2
LAYER
 70
     2
  0
LAYER
  2
0
 70
     0
 62
     7
  6
CONTINUOUS
  0
LAYER
  2
DEFPOINTS
 70
     0
 62
     7
  6
CONTINUOUS
  0
ENDTAB
  0
TABLE
  2
STYLE
 70
     2
  0
STYLE
  2
STANDARD
 70
     0
 40
0.0
 41
1.0
 50
0.0
 71
     0
 42
2.5
  3
txt
  4

  0
STYLE
  2
SPACECLAIM_ASME_CB
 70
     0
 40
0.0
 41
1.0
 50
0.0
 71
     0
 42
2.5
  3
SpaceClaim ASME.ttf
  4

  0
ENDTAB
  0
TABLE
  2
VIEW
 70
     0
  0
ENDTAB
  0
TABLE
  2
UCS
 70
     0
  0
ENDTAB
  0
TABLE
  2
APPID
 70
     1
  0
APPID
  2
ACAD
 70
     0
  0
ENDTAB
  0
TABLE
  2
DIMSTYLE
 70
     2
  0
DIMSTYLE
  2
ISO-25
 70
     0
  3

  4

  5

  6

  7

 40
1.0
 41
2.5
 42
0.625
 43
3.75
 44
1.25
 45
0.0
 46
0.0
 47
0.0
 48
0.0
140
2.5
141
2.5
142
0.0
143
0.03937007874016
144
1.0
145
0.0
146
1.0
147
0.625
 71
     0
 72
     0
 73
     0
 74
     0
 75
     0
 76
     0
 77
     1
 78
     8
170
     0
171
     3
172
     1
173
     0
174
     0
175
     0
176
     0
177
     0
178
     0
  0
DIMSTYLE
  2
SPACECLAIM_ASME_CB
 70
     0
  3

  4

  5

  6

  7

 40
1.0
 41
0.18
 42
0.0625
 43
0.38
 44
0.18
 45
0.0
 46
0.0
 47
0.0
 48
0.0
140
0.18
141
0.09
142
0.0
143
25.4
144
1.0
145
0.0
146
1.0
147
0.09
 71
     0
 72
     0
 73
     1
 74
     1
 75
     0
 76
     0
 77
     0
 78
     0
170
     0
171
     2
172
     0
173
     0
174
     0
175
     0
176
     0
177
     0
178
     0
  0
ENDTAB
  0
ENDSEC
  0
SECTION
  2
BLOCKS
  0
BLOCK
  8
0
  2
$MODEL_SPACE
 70
     0
 10
0.0
 20
0.0
 30
0.0
  3
$MODEL_SPACE
  1

  0
ENDBLK
  5
21
  8
0
  0
BLOCK
 67
     1
  8
0
  2
$PAPER_SPACE
 70
     0
 10
0.0
 20
0.0
 30
0.0
  3
$PAPER_SPACE
  1

  0
ENDBLK
  5
1D
 67
     1
  8
0
  0
BLOCK
  8
0
  2
*D1
 70
     1
 10
0.0
 20
0.0
 30
0.0
  3
*D1
  1

  0
LINE
  5
72
  8
0
 62
     7
 10
795.0
 20
619.9375
 30
0.0
 11
795.0
 21
324.0258929548937
 31
0.0
  0
LINE
  5
73
  8
0
 62
     7
 10
795.0
 20
0.0624999999999779
 30
0.0
 11
795.0
 21
324.3858929548937
 31
0.0
  0
LINE
  5
74
  8
0
 62
     7
 10
795.0
 20
324.2058929548937
 30
0.0
 11
845.0
 21
324.2058929548937
 31
0.0
  0
LINE
  5
75
  8
0
 62
     7
 10
770.0
 20
324.2058929548937
 30
0.0
 11
745.0
 21
324.2058929548937
 31
0.0
  0
LINE
  5
76
  8
0
 62
     7
 10
820.0
 20
324.2058929548937
 30
0.0
 11
845.0
 21
324.2058929548937
 31
0.0
  0
SOLID
  5
77
  8
0
 62
     7
 10
770.0
 20
320.039226288227
 30
0.0
 11
770.0
 21
328.3725596215604
 31
0.0
 12
795.0
 22
324.2058929548937
 32
0.0
 13
795.0
 23
324.2058929548937
 33
0.0
  0
SOLID
  5
78
  8
0
 62
     7
 10
820.0
 20
328.3725596215604
 30
0.0
 11
820.0
 21
320.039226288227
 31
0.0
 12
795.0
 22
324.2058929548937
 32
0.0
 13
795.0
 23
324.2058929548937
 33
0.0
  0
TEXT
  5
79
  8
0
  6
CONTINUOUS
 62
     7
 10
843.2900000000001
 20
315.2058929548937
 30
0.0
 40
18.0
  1
0mm
  7
SPACECLAIM_ASME_CB
  0
POINT
  5
7A
  8
DEFPOINTS
 62
     0
 10
795.0
 20
620.0
 30
0.0
  0
POINT
  5
7B
  8
DEFPOINTS
 62
     0
 10
795.0
 20
-0.0000000000000221
 30
0.0
  0
POINT
  5
7C
  8
DEFPOINTS
 62
     0
 10
795.0
 20
324.2058929548937
 30
0.0
  0
ENDBLK
  5
71
  8
0
  0
BLOCK
  8
0
  2
*D2
 70
     1
 10
0.0
 20
0.0
 30
0.0
  3
*D2
  1

  0
LINE
  5
82
  8
0
 62
     7
 10
15.00000000000014
 20
605.0625
 30
0.0
 11
15.00000000000015
 21
675.891861930035
 31
0.0
  0
LINE
  5
83
  8
0
 62
     7
 10
15.00000000000003
 20
620.0625
 30
0.0
 11
15.00000000000004
 21
675.891861930035
 31
0.0
  0
LINE
  5
84
  8
0
 62
     7
 10
15.00000000000004
 20
675.7118619300351
 30
0.0
 11
-34.99999999999996
 21
675.7118619300351
 31
0.0
  0
LINE
  5
85
  8
0
 62
     7
 10
40.00000000000015
 20
675.7118619300351
 30
0.0
 11
65.00000000000014
 21
675.7118619300351
 31
0.0
  0
LINE
  5
86
  8
0
 62
     7
 10
-9.999999999999964
 20
675.7118619300351
 30
0.0
 11
-34.99999999999996
 21
675.7118619300351
 31
0.0
  0
SOLID
  5
87
  8
0
 62
     7
 10
40.00000000000015
 20
679.8785285967017
 30
0.0
 11
40.00000000000015
 21
671.5451952633684
 31
0.0
 12
15.00000000000015
 22
675.7118619300351
 32
0.0
 13
15.00000000000015
 23
675.7118619300351
 33
0.0
  0
SOLID
  5
88
  8
0
 62
     7
 10
-9.999999999999964
 20
671.5451952633684
 30
0.0
 11
-9.999999999999964
 21
679.8785285967017
 31
0.0
 12
15.00000000000004
 22
675.7118619300351
 32
0.0
 13
15.00000000000004
 23
675.7118619300351
 33
0.0
  0
TEXT
  5
89
  8
0
  6
CONTINUOUS
 62
     7
 10
-78.28999999999996
 20
666.7118619300351
 30
0.0
 40
18.0
  1
0mm
  7
SPACECLAIM_ASME_CB
  0
POINT
  5
8A
  8
DEFPOINTS
 62
     0
 10
15.00000000000014
 20
605.0
 30
0.0
  0
POINT
  5
8B
  8
DEFPOINTS
 62
     0
 10
15.00000000000003
 20
620.0
 30
0.0
  0
POINT
  5
8C
  8
DEFPOINTS
 62
     0
 10
15.00000000000004
 20
675.7118619300351
 30
0.0
  0
ENDBLK
  5
81
  8
0
  0
BLOCK
  8
0
  2
*D3
 70
     1
 10
0.0
 20
0.0
 30
0.0
  3
*D3
  1

  0
LINE
  5
92
  8
0
 62
     7
 10
15.00000000000001
 20
14.93750000000001
 30
0.0
 11
15.00000000000001
 21
-58.44634203539969
 31
0.0
  0
LINE
  5
93
  8
0
 62
     7
 10
15.00000000000001
 20
-0.0625000000000004
 30
0.0
 11
15.00000000000001
 21
-58.44634203539969
 31
0.0
  0
LINE
  5
94
  8
0
 62
     7
 10
15.00000000000001
 20
-58.26634203539969
 30
0.0
 11
65.00000000000001
 21
-58.26634203539969
 31
0.0
  0
LINE
  5
95
  8
0
 62
     7
 10
-9.999999999999986
 20
-58.26634203539969
 30
0.0
 11
-34.99999999999999
 21
-58.26634203539969
 31
0.0
  0
LINE
  5
96
  8
0
 62
     7
 10
40.00000000000001
 20
-58.26634203539969
 30
0.0
 11
65.00000000000001
 21
-58.26634203539969
 31
0.0
  0
SOLID
  5
97
  8
0
 62
     7
 10
-9.999999999999986
 20
-62.43300870206635
 30
0.0
 11
-9.999999999999986
 21
-54.09967536873302
 31
0.0
 12
15.00000000000001
 22
-58.26634203539969
 32
0.0
 13
15.00000000000001
 23
-58.26634203539969
 33
0.0
  0
SOLID
  5
98
  8
0
 62
     7
 10
40.00000000000001
 20
-54.09967536873302
 30
0.0
 11
40.00000000000001
 21
-62.43300870206635
 31
0.0
 12
15.00000000000001
 22
-58.26634203539969
 32
0.0
 13
15.00000000000001
 23
-58.26634203539969
 33
0.0
  0
TEXT
  5
99
  8
0
  6
CONTINUOUS
 62
     7
 10
63.29000000000002
 20
-67.26634203539969
 30
0.0
 40
18.0
  1
0mm
  7
SPACECLAIM_ASME_CB
  0
POINT
  5
9A
  8
DEFPOINTS
 62
     0
 10
15.00000000000001
 20
15.00000000000001
 30
0.0
  0
POINT
  5
9B
  8
DEFPOINTS
 62
     0
 10
15.00000000000001
 20
-0.0000000000000004
 30
0.0
  0
POINT
  5
9C
  8
DEFPOINTS
 62
     0
 10
15.00000000000001
 20
-58.26634203539969
 30
0.0
  0
ENDBLK
  5
91
  8
0
  0
BLOCK
  8
0
  2
*D4
 70
     1
 10
0.0
 20
0.0
 30
0.0
  3
*D4
  1

  0
LINE
  5
A2
  8
0
 62
     7
 10
760.3378983858115
 20
208.8333033091251
 30
0.0
 11
785.3378983858115
 21
208.8333033091251
 31
0.0
  0
LINE
  5
A3
  8
0
 62
     7
 10
785.3378983858115
 20
208.8333033091251
 30
0.0
 11
785.3378983858115
 21
308.1888588091251
 31
0.0
  0
LINE
  5
A4
  8
0
 62
     7
 10
809.9375
 20
308.1888588091251
 30
0.0
 11
785.1578983858116
 21
308.1888588091251
 31
0.0
  0
LINE
  5
A5
  8
0
 62
     7
 10
794.9375
 20
308.1888588091251
 30
0.0
 11
785.1578983858116
 21
308.1888588091251
 31
0.0
  0
LINE
  5
A6
  8
0
 62
     7
 10
785.3378983858115
 20
283.1888588091251
 30
0.0
 11
785.3378983858115
 21
258.1888588091251
 31
0.0
  0
SOLID
  5
A7
  8
0
 62
     7
 10
781.1712317191449
 20
333.1888588091251
 30
0.0
 11
789.5045650524781
 21
333.1888588091251
 31
0.0
 12
785.3378983858115
 22
308.1888588091251
 32
0.0
 13
785.3378983858115
 23
308.1888588091251
 33
0.0
  0
SOLID
  5
A8
  8
0
 62
     7
 10
789.5045650524781
 20
283.1888588091251
 30
0.0
 11
781.1712317191449
 21
283.1888588091251
 31
0.0
 12
785.3378983858115
 22
308.1888588091251
 32
0.0
 13
785.3378983858115
 23
308.1888588091251
 33
0.0
  0
TEXT
  5
A9
  8
0
  6
CONTINUOUS
 62
     7
 10
717.0478983858114
 20
199.8333033091251
 30
0.0
 40
18.0
  1
0mm
  7
SPACECLAIM_ASME_CB
  0
POINT
  5
AA
  8
DEFPOINTS
 62
     0
 10
810.0
 20
308.1888588091251
 30
0.0
  0
POINT
  5
AB
  8
DEFPOINTS
 62
     0
 10
795.0
 20
308.1888588091251
 30
0.0
  0
POINT
  5
AC
  8
DEFPOINTS
 62
     0
 10
785.3378983858115
 20
308.1888588091251
 30
0.0
  0
ENDBLK
  5
A1
  8
0
  0
BLOCK
  8
0
  2
*D5
 70
     1
 10
0.0
 20
0.0
 30
0.0
  3
*D5
  1

  0
LINE
  5
B2
  8
0
 62
     7
 10
378.0
 20
451.9375
 30
0.0
 11
378.0000000000001
 21
384.7984163225046
 31
0.0
  0
LINE
  5
B3
  8
0
 62
     7
 10
555.7528498851851
 20
576.9375
 30
0.0
 11
555.7528498851852
 21
384.7984163225046
 31
0.0
  0
LINE
  5
B4
  8
0
 62
     7
 10
353.0000000000001
 20
384.9784163225046
 30
0.0
 11
328.0000000000001
 21
384.9784163225046
 31
0.0
  0
LINE
  5
B5
  8
0
 62
     7
 10
580.7528498851852
 20
384.9784163225046
 30
0.0
 11
605.7528498851852
 21
384.9784163225046
 31
0.0
  0
SOLID
  5
B6
  8
0
 62
     7
 10
353.0000000000001
 20
380.811749655838
 30
0.0
 11
353.0000000000001
 21
389.1450829891713
 31
0.0
 12
378.0000000000001
 22
384.9784163225046
 32
0.0
 13
378.0000000000001
 23
384.9784163225046
 33
0.0
  0
SOLID
  5
B7
  8
0
 62
     7
 10
580.7528498851852
 20
389.1450829891713
 30
0.0
 11
580.7528498851852
 21
380.811749655838
 31
0.0
 12
555.7528498851852
 22
384.9784163225046
 32
0.0
 13
555.7528498851852
 23
384.9784163225046
 33
0.0
  0
TEXT
  5
B8
  8
0
  6
CONTINUOUS
 62
     7
 10
497.4058498851849
 20
377.8144163225047
 30
0.0
 40
18.0
  1
177,753mm
  7
SPACECLAIM_ASME_CB
  0
POINT
  5
B9
  8
DEFPOINTS
 62
     0
 10
378.0
 20
452.0
 30
0.0
  0
POINT
  5
BA
  8
DEFPOINTS
 62
     0
 10
555.7528498851851
 20
577.0
 30
0.0
  0
POINT
  5
BB
  8
DEFPOINTS
 62
     0
 10
555.7528498851852
 20
384.9784163225046
 30
0.0
  0
ENDBLK
  5
B1
  8
0
  0
BLOCK
  8
0
  2
*D6
 70
     1
 10
0.0
 20
0.0
 30
0.0
  3
*D6
  1

  0
LINE
  5
C1
  8
0
 62
     7
 10
350.0000000000001
 20
43.06250000000006
 30
0.0
 11
350.0000000000001
 21
245.119034160302
 31
0.0
  0
LINE
  5
C2
  8
0
 62
     7
 10
378.0
 20
168.0625
 30
0.0
 11
378.0
 21
245.119034160302
 31
0.0
  0
LINE
  5
C3
  8
0
 62
     7
 10
378.0
 20
244.939034160302
 30
0.0
 11
525.252629688794
 21
244.939034160302
 31
0.0
  0
LINE
  5
C4
  8
0
 62
     7
 10
325.0000000000001
 20
244.939034160302
 30
0.0
 11
300.0000000000001
 21
244.939034160302
 31
0.0
  0
LINE
  5
C5
  8
0
 62
     7
 10
403.0
 20
244.939034160302
 30
0.0
 11
428.0
 21
244.939034160302
 31
0.0
  0
SOLID
  5
C6
  8
0
 62
     7
 10
325.0000000000001
 20
240.7723674936354
 30
0.0
 11
325.0000000000001
 21
249.1057008269687
 31
0.0
 12
350.0000000000001
 22
244.939034160302
 32
0.0
 13
350.0000000000001
 23
244.939034160302
 33
0.0
  0
SOLID
  5
C7
  8
0
 62
     7
 10
403.0
 20
249.1057008269687
 30
0.0
 11
403.0
 21
240.7723674936354
 31
0.0
 12
378.0
 22
244.939034160302
 32
0.0
 13
378.0
 23
244.939034160302
 33
0.0
  0
TEXT
  5
C8
  8
0
  6
CONTINUOUS
 62
     7
 10
523.5606296887939
 20
235.939034160302
 30
0.0
 40
18.0
  1
28mm
  7
SPACECLAIM_ASME_CB
  0
POINT
  5
C9
  8
DEFPOINTS
 62
     0
 10
350.0000000000001
 20
43.00000000000006
 30
0.0
  0
POINT
  5
CA
  8
DEFPOINTS
 62
     0
 10
378.0
 20
168.0
 30
0.0
  0
POINT
  5
CB
  8
DEFPOINTS
 62
     0
 10
377.9999999999999
 20
244.939034160302
 30
0.0
  0
ENDBLK
  5
C0
  8
0
  0
BLOCK
  8
0
  2
*D7
 70
     1
 10
0.0
 20
0.0
 30
0.0
  3
*D7
  1

  0
LINE
  5
D1
  8
0
 62
     7
 10
430.3869949829796
 20
-58.06732199078265
 30
0.0
 11
455.3869949829796
 21
-58.06732199078265
 31
0.0
  0
LINE
  5
D2
  8
0
 62
     7
 10
455.3869949829796
 20
-58.06732199078265
 30
0.0
 11
455.3869949829796
 21
14.99999999999999
 31
0.0
  0
LINE
  5
D3
  8
0
 62
     7
 10
0.0625000000000004
 20
15.00000000000001
 30
0.0
 11
455.5669949829796
 21
14.99999999999999
 31
0.0
  0
LINE
  5
D4
  8
0
 62
     7
 10
809.9375
 20
14.99999999999999
 30
0.0
 11
455.2069949829796
 21
15.00000000000001
 31
0.0
  0
LINE
  5
D5
  8
0
 62
     7
 10
455.3869949829796
 20
40.00000000000001
 30
0.0
 11
455.3869949829796
 21
65.00000000000001
 31
0.0
  0
SOLID
  5
D6
  8
0
 62
     7
 10
459.5536616496462
 20
-10.00000000000001
 30
0.0
 11
451.2203283163129
 21
-10.00000000000001
 31
0.0
 12
455.3869949829796
 22
14.99999999999999
 32
0.0
 13
455.3869949829796
 23
14.99999999999999
 33
0.0
  0
SOLID
  5
D7
  8
0
 62
     7
 10
451.2203283163129
 20
40.00000000000001
 30
0.0
 11
459.5536616496462
 21
40.00000000000001
 31
0.0
 12
455.3869949829796
 22
15.00000000000001
 32
0.0
 13
455.3869949829796
 23
15.00000000000001
 33
0.0
  0
TEXT
  5
D8
  8
0
  6
CONTINUOUS
 62
     7
 10
387.0969949829796
 20
-67.06732199078265
 30
0.0
 40
18.0
  1
0mm
  7
SPACECLAIM_ASME_CB
  0
POINT
  5
D9
  8
DEFPOINTS
 62
     0
 10
0.0000000000000004
 20
15.00000000000001
 30
0.0
  0
POINT
  5
DA
  8
DEFPOINTS
 62
     0
 10
810.0
 20
14.99999999999999
 30
0.0
  0
POINT
  5
DB
  8
DEFPOINTS
 62
     0
 10
455.3869949829796
 20
15.00000000000001
 30
0.0
  0
ENDBLK
  5
D0
  8
0
  0
BLOCK
  8
0
  2
*D8
 70
     1
 10
0.0
 20
0.0
 30
0.0
  3
*D8
  1

  0
LINE
  5
E1
  8
0
 62
     7
 10
380.7629999999999
 20
676.5806441618017
 30
0.0
 11
355.7629999999999
 21
676.5806441618017
 31
0.0
  0
LINE
  5
E2
  8
0
 62
     7
 10
355.7629999999999
 20
676.5806441618017
 30
0.0
 11
355.7629999999999
 21
605.0
 31
0.0
  0
LINE
  5
E3
  8
0
 62
     7
 10
794.9375
 20
605.0
 30
0.0
 11
355.5829999999999
 21
605.0
 31
0.0
  0
LINE
  5
E4
  8
0
 62
     7
 10
15.06250000000003
 20
605.0
 30
0.0
 11
355.9429999999999
 21
605.0
 31
0.0
  0
LINE
  5
E5
  8
0
 62
     7
 10
355.7629999999999
 20
580.0
 30
0.0
 11
355.7629999999999
 21
555.0
 31
0.0
  0
SOLID
  5
E6
  8
0
 62
     7
 10
351.5963333333332
 20
630.0
 30
0.0
 11
359.9296666666666
 21
630.0
 31
0.0
 12
355.7629999999999
 22
605.0
 32
0.0
 13
355.7629999999999
 23
605.0
 33
0.0
  0
SOLID
  5
E7
  8
0
 62
     7
 10
359.9296666666666
 20
580.0
 30
0.0
 11
351.5963333333332
 21
580.0
 31
0.0
 12
355.7629999999999
 22
605.0
 32
0.0
 13
355.7629999999999
 23
605.0
 33
0.0
  0
TEXT
  5
E8
  8
0
  6
CONTINUOUS
 62
     7
 10
379.0529999999999
 20
667.5806441618017
 30
0.0
 40
18.0
  1
0mm
  7
SPACECLAIM_ASME_CB
  0
POINT
  5
E9
  8
DEFPOINTS
 62
     0
 10
795.0
 20
605.0
 30
0.0
  0
POINT
  5
EA
  8
DEFPOINTS
 62
     0
 10
15.00000000000003
 20
605.0
 30
0.0
  0
POINT
  5
EB
  8
DEFPOINTS
 62
     0
 10
355.7629999999999
 20
605.0
 30
0.0
  0
ENDBLK
  5
E0
  8
0
  0
BLOCK
  8
0
  2
*D9
 70
     1
 10
0.0
 20
0.0
 30
0.0
  3
*D9
  1

  0
LINE
  5
F1
  8
0
 62
     7
 10
15.00000000000003
 20
576.9375
 30
0.0
 11
15.00000000000003
 21
325.7023505218729
 31
0.0
  0
LINE
  5
F2
  8
0
 62
     7
 10
15.00000000000001
 20
43.0625
 30
0.0
 11
15.00000000000001
 21
326.0623505218729
 31
0.0
  0
LINE
  5
F3
  8
0
 62
     7
 10
15.00000000000003
 20
325.8823505218729
 30
0.0
 11
65.00000000000001
 21
325.8823505218729
 31
0.0
  0
LINE
  5
F4
  8
0
 62
     7
 10
-9.999999999999972
 20
325.8823505218729
 30
0.0
 11
-34.99999999999997
 21
325.8823505218729
 31
0.0
  0
LINE
  5
F5
  8
0
 62
     7
 10
40.00000000000001
 20
325.8823505218729
 30
0.0
 11
65.00000000000001
 21
325.8823505218729
 31
0.0
  0
SOLID
  5
F6
  8
0
 62
     7
 10
-9.999999999999972
 20
321.7156838552062
 30
0.0
 11
-9.999999999999972
 21
330.0490171885396
 31
0.0
 12
15.00000000000003
 22
325.8823505218729
 32
0.0
 13
15.00000000000003
 23
325.8823505218729
 33
0.0
  0
SOLID
  5
F7
  8
0
 62
     7
 10
40.00000000000001
 20
330.0490171885396
 30
0.0
 11
40.00000000000001
 21
321.7156838552062
 31
0.0
 12
15.00000000000001
 22
325.8823505218729
 32
0.0
 13
15.00000000000001
 23
325.8823505218729
 33
0.0
  0
TEXT
  5
F8
  8
0
  6
CONTINUOUS
 62
     7
 10
21.71000000000002
 20
316.8823505218729
 30
0.0
 40
18.0
  1
0mm
  7
SPACECLAIM_ASME_CB
  0
POINT
  5
F9
  8
DEFPOINTS
 62
     0
 10
15.00000000000003
 20
577.0
 30
0.0
  0
POINT
  5
FA
  8
DEFPOINTS
 62
     0
 10
15.00000000000001
 20
43.0
 30
0.0
  0
POINT
  5
FB
  8
DEFPOINTS
 62
     0
 10
15.00000000000001
 20
325.8823505218729
 30
0.0
  0
ENDBLK
  5
F0
  8
0
  0
BLOCK
  8
0
  2
*D10
 70
     1
 10
0.0
 20
0.0
 30
0.0
  3
*D10
  1

  0
LINE
  5
101
  8
0
 62
     7
 10
172.2630000000001
 20
519.4214545266019
 30
0.0
 11
147.2630000000001
 21
519.4214545266019
 31
0.0
  0
LINE
  5
102
  8
0
 62
     7
 10
147.2630000000001
 20
519.4214545266019
 30
0.0
 11
147.2630000000001
 21
519.421454526602
 31
0.0
  0
LINE
  5
103
  8
0
 62
     7
 10
43.06250000000002
 20
519.421454526602
 30
0.0
 11
147.4430000000002
 21
519.421454526602
 31
0.0
  0
LINE
  5
104
  8
0
 62
     7
 10
349.9375000000001
 20
519.421454526602
 30
0.0
 11
147.0830000000001
 21
519.421454526602
 31
0.0
  0
LINE
  5
105
  8
0
 62
     7
 10
147.2630000000001
 20
544.421454526602
 30
0.0
 11
147.2630000000001
 21
569.421454526602
 31
0.0
  0
SOLID
  5
106
  8
0
 62
     7
 10
151.4296666666668
 20
494.421454526602
 30
0.0
 11
143.0963333333335
 21
494.421454526602
 31
0.0
 12
147.2630000000001
 22
519.421454526602
 32
0.0
 13
147.2630000000001
 23
519.421454526602
 33
0.0
  0
SOLID
  5
107
  8
0
 62
     7
 10
143.0963333333335
 20
544.421454526602
 30
0.0
 11
151.4296666666668
 21
544.421454526602
 31
0.0
 12
147.2630000000001
 22
519.421454526602
 32
0.0
 13
147.2630000000001
 23
519.421454526602
 33
0.0
  0
TEXT
  5
108
  8
0
  6
CONTINUOUS
 62
     7
 10
170.5530000000001
 20
510.4214545266019
 30
0.0
 40
18.0
  1
0mm
  7
SPACECLAIM_ASME_CB
  0
POINT
  5
109
  8
DEFPOINTS
 62
     0
 10
43.00000000000002
 20
519.421454526602
 30
0.0
  0
POINT
  5
10A
  8
DEFPOINTS
 62
     0
 10
350.0000000000001
 20
519.421454526602
 30
0.0
  0
POINT
  5
10B
  8
DEFPOINTS
 62
     0
 10
147.2630000000001
 20
519.421454526602
 30
0.0
  0
ENDBLK
  5
100
  8
0
  0
BLOCK
  8
0
  2
*D11
 70
     1
 10
0.0
 20
0.0
 30
0.0
  3
*D11
  1

  0
LINE
  5
111
  8
0
 62
     7
 10
172.2630000000001
 20
107.3352000242687
 30
0.0
 11
147.2630000000001
 21
107.3352000242687
 31
0.0
  0
LINE
  5
112
  8
0
 62
     7
 10
147.2630000000001
 20
107.3352000242687
 30
0.0
 11
147.2630000000001
 21
107.3352000242687
 31
0.0
  0
LINE
  5
113
  8
0
 62
     7
 10
349.9375000000001
 20
107.3352000242686
 30
0.0
 11
147.0830000000001
 21
107.3352000242686
 31
0.0
  0
LINE
  5
114
  8
0
 62
     7
 10
43.06250000000001
 20
107.3352000242687
 30
0.0
 11
147.4430000000001
 21
107.3352000242687
 31
0.0
  0
LINE
  5
115
  8
0
 62
     7
 10
147.2630000000001
 20
82.33520002426867
 30
0.0
 11
147.2630000000001
 21
57.33520002426867
 31
0.0
  0
SOLID
  5
116
  8
0
 62
     7
 10
143.0963333333335
 20
132.3352000242686
 30
0.0
 11
151.4296666666668
 21
132.3352000242686
 31
0.0
 12
147.2630000000001
 22
107.3352000242686
 32
0.0
 13
147.2630000000001
 23
107.3352000242686
 33
0.0
  0
SOLID
  5
117
  8
0
 62
     7
 10
151.4296666666668
 20
82.33520002426867
 30
0.0
 11
143.0963333333335
 21
82.33520002426867
 31
0.0
 12
147.2630000000001
 22
107.3352000242687
 32
0.0
 13
147.2630000000001
 23
107.3352000242687
 33
0.0
  0
TEXT
  5
118
  8
0
  6
CONTINUOUS
 62
     7
 10
170.5530000000001
 20
98.33520002426874
 30
0.0
 40
18.0
  1
0mm
  7
SPACECLAIM_ASME_CB
  0
POINT
  5
119
  8
DEFPOINTS
 62
     0
 10
350.0000000000001
 20
107.3352000242686
 30
0.0
  0
POINT
  5
11A
  8
DEFPOINTS
 62
     0
 10
43.00000000000001
 20
107.3352000242687
 30
0.0
  0
POINT
  5
11B
  8
DEFPOINTS
 62
     0
 10
147.2630000000001
 20
107.3352000242687
 30
0.0
  0
ENDBLK
  5
110
  8
0
  0
ENDSEC
  0
SECTION
  2
ENTITIES
  0
DIMENSION
  5
6A
  8
0
 62
     7
  2
*D1
 10
795.0
 20
324.2058929548937
 30
-0.0000000000000199
 11
865.7900000000001
 21
324.2058929548937
 31
-0.0000000000000199
 70
   160
  1
{\fSpaceClaim ASME CB|b0|i0;<>}
  3
SPACECLAIM_ASME_CB
 13
795.0
 23
620.0
 33
-0.000000000000038
 14
795.0
 24
-0.0000000000000221
 34
0.0
1001
ACAD
1000
DSTYLE
1002
{
1070
   270
1070
     2
1070
     7
1000

1070
     6
1000

1070
   144
1040
1.0
1070
     4
1000
in
1070
   273
1070
     2
1070
   277
1070
     2
1070
   284
1070
     8
1070
   285
1070
     0
1070
    78
1070
     8
1070
   171
1070
     3
1070
   274
1070
     3
1070
   278
1070
    44
1070
    74
1070
     1
1070
   174
1070
     1
1070
    77
1070
     0
1070
    41
1040
25.0
1070
   173
1070
     1
1070
   140
1040
18.0
1070
   178
1070
     7
1070
   177
1070
     7
1070
   176
1070
     7
1070
   179
1070
     1
1070
   143
1040
0.0393700787401575
1070
   286
1070
     8
1070
   271
1070
     3
1070
     3
1000
mm
1070
   272
1070
     3
1070
    73
1070
     1
1002
}
  0
DIMENSION
  5
7D
  8
0
 62
     7
  2
*D2
 10
15.00000000000004
 20
675.7118619300351
 30
-0.0000000000000414
 11
-55.78999999999996
 21
675.7118619300351
 31
-0.0000000000000414
 70
   160
  1
{\fSpaceClaim ASME CB|b0|i0;<>}
  3
SPACECLAIM_ASME_CB
 13
15.00000000000014
 23
605.0
 33
-0.000000000000037
 14
15.00000000000003
 24
620.0
 34
-0.000000000000038
 50
180.0
1001
ACAD
1000
DSTYLE
1002
{
1070
   270
1070
     2
1070
     7
1000

1070
     6
1000

1070
   144
1040
1.0
1070
     4
1000
in
1070
   273
1070
     2
1070
   277
1070
     2
1070
   284
1070
     8
1070
   285
1070
     0
1070
    78
1070
     8
1070
   171
1070
     3
1070
   274
1070
     3
1070
   278
1070
    44
1070
    74
1070
     1
1070
   174
1070
     1
1070
    77
1070
     0
1070
    41
1040
25.0
1070
   173
1070
     1
1070
   140
1040
18.0
1070
   178
1070
     7
1070
   177
1070
     7
1070
   176
1070
     7
1070
   179
1070
     1
1070
   143
1040
0.0393700787401575
1070
   286
1070
     8
1070
   271
1070
     3
1070
     3
1000
mm
1070
   272
1070
     3
1070
    73
1070
     1
1002
}
  0
DIMENSION
  5
8D
  8
0
 62
     7
  2
*D3
 10
15.00000000000001
 20
-58.26634203539969
 30
0.0000000000000036
 11
85.79000000000002
 21
-58.26634203539969
 31
0.0000000000000036
 70
   160
  1
{\fSpaceClaim ASME CB|b0|i0;<>}
  3
SPACECLAIM_ASME_CB
 13
15.00000000000001
 23
15.00000000000001
 33
-0.0000000000000009
 14
15.00000000000001
 24
-0.0000000000000004
 34
0.0
1001
ACAD
1000
DSTYLE
1002
{
1070
   270
1070
     2
1070
     7
1000

1070
     6
1000

1070
   144
1040
1.0
1070
     4
1000
in
1070
   273
1070
     2
1070
   277
1070
     2
1070
   284
1070
     8
1070
   285
1070
     0
1070
    78
1070
     8
1070
   171
1070
     3
1070
   274
1070
     3
1070
   278
1070
    44
1070
    74
1070
     1
1070
   174
1070
     1
1070
    77
1070
     0
1070
    41
1040
25.0
1070
   173
1070
     1
1070
   140
1040
18.0
1070
   178
1070
     7
1070
   177
1070
     7
1070
   176
1070
     7
1070
   179
1070
     1
1070
   143
1040
0.0393700787401575
1070
   286
1070
     8
1070
   271
1070
     3
1070
     3
1000
mm
1070
   272
1070
     3
1070
    73
1070
     1
1002
}
  0
DIMENSION
  5
9D
  8
0
 62
     7
  2
*D4
 10
785.3378983858115
 20
308.1888588091251
 30
-0.0000000000000128
 11
739.5478983858114
 21
208.8333033091251
 31
-0.0000000000000128
 70
   160
  1
{\fSpaceClaim ASME CB|b0|i0;<>}
  3
SPACECLAIM_ASME_CB
 13
810.0
 23
308.1888588091251
 33
-0.0000000000000189
 14
795.0
 24
308.1888588091251
 34
-0.0000000000000189
 50
-90.0
1001
ACAD
1000
DSTYLE
1002
{
1070
   270
1070
     2
1070
     7
1000

1070
     6
1000

1070
   144
1040
1.0
1070
     4
1000
in
1070
   273
1070
     2
1070
   277
1070
     2
1070
   284
1070
     8
1070
   285
1070
     0
1070
    78
1070
     8
1070
   171
1070
     3
1070
   274
1070
     3
1070
   278
1070
    44
1070
    74
1070
     1
1070
   174
1070
     1
1070
    77
1070
     0
1070
    41
1040
25.0
1070
   173
1070
     1
1070
   140
1040
18.0
1070
   178
1070
     7
1070
   177
1070
     7
1070
   176
1070
     7
1070
   179
1070
     1
1070
   143
1040
0.0393700787401575
1070
   286
1070
     8
1070
   271
1070
     3
1070
     3
1000
mm
1070
   272
1070
     3
1070
    73
1070
     1
1002
}
  0
DIMENSION
  5
AD
  8
0
 62
     7
  2
*D5
 10
555.7528498851852
 20
384.9784163225046
 30
-0.0000000000000236
 11
552.3058498851849
 21
384.9784163225046
 31
-0.0000000000000236
 70
   160
  1
{\fSpaceClaim ASME CB|b0|i0;<>}
  3
SPACECLAIM_ASME_CB
 13
378.0
 23
452.0
 33
-0.0000000000000277
 14
555.7528498851851
 24
577.0
 34
-0.0000000000000353
 50
-180.0
1001
ACAD
1000
DSTYLE
1002
{
1070
   270
1070
     2
1070
     7
1000

1070
     6
1000

1070
   144
1040
1.0
1070
     4
1000
in
1070
   273
1070
     2
1070
   277
1070
     2
1070
   284
1070
     8
1070
   285
1070
     0
1070
    78
1070
     8
1070
   171
1070
     3
1070
   274
1070
     3
1070
   278
1070
    44
1070
    74
1070
     1
1070
   174
1070
     1
1070
    77
1070
     0
1070
    41
1040
25.0
1070
   173
1070
     1
1070
   140
1040
18.0
1070
   178
1070
     7
1070
   177
1070
     7
1070
   176
1070
     7
1070
   179
1070
     1
1070
   143
1040
0.0393700787401575
1070
   286
1070
     8
1070
   271
1070
     3
1070
     3
1000
mm
1070
   272
1070
     3
1070
    73
1070
     1
1002
}
  0
DIMENSION
  5
BC
  8
0
 62
     7
  2
*D6
 10
378.0
 20
244.939034160302
 30
-0.000000000000015
 11
552.351629688794
 21
244.939034160302
 31
-0.000000000000015
 70
   160
  1
{\fSpaceClaim ASME CB|b0|i0;<>}
  3
SPACECLAIM_ASME_CB
 13
350.0000000000001
 23
43.00000000000006
 33
-0.0000000000000026
 14
378.0
 24
168.0
 34
-0.0000000000000103
 50
-180.0
1001
ACAD
1000
DSTYLE
1002
{
1070
   270
1070
     2
1070
     7
1000

1070
     6
1000

1070
   144
1040
1.0
1070
     4
1000
in
1070
   273
1070
     2
1070
   277
1070
     2
1070
   284
1070
     8
1070
   285
1070
     0
1070
    78
1070
     8
1070
   171
1070
     3
1070
   274
1070
     3
1070
   278
1070
    44
1070
    74
1070
     1
1070
   174
1070
     1
1070
    77
1070
     0
1070
    41
1040
25.0
1070
   173
1070
     1
1070
   140
1040
18.0
1070
   178
1070
     7
1070
   177
1070
     7
1070
   176
1070
     7
1070
   179
1070
     1
1070
   143
1040
0.0393700787401575
1070
   286
1070
     8
1070
   271
1070
     3
1070
     3
1000
mm
1070
   272
1070
     3
1070
    73
1070
     1
1002
}
  0
DIMENSION
  5
CC
  8
0
 62
     7
  2
*D7
 10
455.3869949829796
 20
15.00000000000001
 30
0.0000000000000036
 11
409.5969949829796
 21
-58.06732199078265
 31
0.0000000000000036
 70
   160
  1
{\fSpaceClaim ASME CB|b0|i0;<>}
  3
SPACECLAIM_ASME_CB
 13
0.0000000000000004
 23
15.00000000000001
 33
-0.0000000000000009
 14
810.0
 24
14.99999999999999
 34
-0.0000000000000009
 50
90.0
1001
ACAD
1000
DSTYLE
1002
{
1070
   270
1070
     2
1070
     7
1000

1070
     6
1000

1070
   144
1040
1.0
1070
     4
1000
in
1070
   273
1070
     2
1070
   277
1070
     2
1070
   284
1070
     8
1070
   285
1070
     0
1070
    78
1070
     8
1070
   171
1070
     3
1070
   274
1070
     3
1070
   278
1070
    44
1070
    74
1070
     1
1070
   174
1070
     1
1070
    77
1070
     0
1070
    41
1040
25.0
1070
   173
1070
     1
1070
   140
1040
18.0
1070
   178
1070
     7
1070
   177
1070
     7
1070
   176
1070
     7
1070
   179
1070
     1
1070
   143
1040
0.0393700787401575
1070
   286
1070
     8
1070
   271
1070
     3
1070
     3
1000
mm
1070
   272
1070
     3
1070
    73
1070
     1
1002
}
  0
DIMENSION
  5
DC
  8
0
 62
     7
  2
*D8
 10
355.7629999999999
 20
605.0
 30
-0.0000000000000414
 11
401.5529999999999
 21
676.5806441618017
 31
-0.0000000000000414
 70
   160
  1
{\fSpaceClaim ASME CB|b0|i0;<>}
  3
SPACECLAIM_ASME_CB
 13
795.0
 23
605.0
 33
-0.000000000000037
 14
15.00000000000003
 24
605.0
 34
-0.000000000000037
 50
-90.0
1001
ACAD
1000
DSTYLE
1002
{
1070
   270
1070
     2
1070
     7
1000

1070
     6
1000

1070
   144
1040
1.0
1070
     4
1000
in
1070
   273
1070
     2
1070
   277
1070
     2
1070
   284
1070
     8
1070
   285
1070
     0
1070
    78
1070
     8
1070
   171
1070
     3
1070
   274
1070
     3
1070
   278
1070
    44
1070
    74
1070
     1
1070
   174
1070
     1
1070
    77
1070
     0
1070
    41
1040
25.0
1070
   173
1070
     1
1070
   140
1040
18.0
1070
   178
1070
     7
1070
   177
1070
     7
1070
   176
1070
     7
1070
   179
1070
     1
1070
   143
1040
0.0393700787401575
1070
   286
1070
     8
1070
   271
1070
     3
1070
     3
1000
mm
1070
   272
1070
     3
1070
    73
1070
     1
1002
}
  0
DIMENSION
  5
EC
  8
0
 62
     7
  2
*D9
 10
15.00000000000001
 20
325.8823505218729
 30
-0.00000000000002
 11
44.21000000000002
 21
325.8823505218729
 31
-0.00000000000002
 70
   160
  1
{\fSpaceClaim ASME CB|b0|i0;<>}
  3
SPACECLAIM_ASME_CB
 13
15.00000000000003
 23
577.0
 33
-0.0000000000000353
 14
15.00000000000001
 24
43.0
 34
-0.0000000000000026
1001
ACAD
1000
DSTYLE
1002
{
1070
   270
1070
     2
1070
     7
1000

1070
     6
1000

1070
   144
1040
1.0
1070
     4
1000
in
1070
   273
1070
     2
1070
   277
1070
     2
1070
   284
1070
     8
1070
   285
1070
     0
1070
    78
1070
     8
1070
   171
1070
     3
1070
   274
1070
     3
1070
   278
1070
    44
1070
    74
1070
     1
1070
   174
1070
     1
1070
    77
1070
     0
1070
    41
1040
25.0
1070
   173
1070
     1
1070
   140
1040
18.0
1070
   178
1070
     7
1070
   177
1070
     7
1070
   176
1070
     7
1070
   179
1070
     1
1070
   143
1040
0.0393700787401575
1070
   286
1070
     8
1070
   271
1070
     3
1070
     3
1000
mm
1070
   272
1070
     3
1070
    73
1070
     1
1002
}
  0
DIMENSION
  5
FC
  8
0
 62
     7
  2
*D10
 10
147.2630000000001
 20
519.421454526602
 30
-0.0000000000000318
 11
193.0530000000001
 21
519.4214545266019
 31
-0.0000000000000318
 70
   160
  1
{\fSpaceClaim ASME CB|b0|i0;<>}
  3
SPACECLAIM_ASME_CB
 13
43.00000000000002
 23
519.421454526602
 33
-0.0000000000000318
 14
350.0000000000001
 24
519.421454526602
 34
-0.0000000000000318
 50
90.0
1001
ACAD
1000
DSTYLE
1002
{
1070
   270
1070
     2
1070
     7
1000

1070
     6
1000

1070
   144
1040
1.0
1070
     4
1000
in
1070
   273
1070
     2
1070
   277
1070
     2
1070
   284
1070
     8
1070
   285
1070
     0
1070
    78
1070
     8
1070
   171
1070
     3
1070
   274
1070
     3
1070
   278
1070
    44
1070
    74
1070
     1
1070
   174
1070
     1
1070
    77
1070
     0
1070
    41
1040
25.0
1070
   173
1070
     1
1070
   140
1040
18.0
1070
   178
1070
     7
1070
   177
1070
     7
1070
   176
1070
     7
1070
   179
1070
     1
1070
   143
1040
0.0393700787401575
1070
   286
1070
     8
1070
   271
1070
     3
1070
     3
1000
mm
1070
   272
1070
     3
1070
    73
1070
     1
1002
}
  0
DIMENSION
  5
10C
  8
0
 62
     7
  2
*D11
 10
147.2630000000001
 20
107.3352000242687
 30
-0.0000000000000066
 11
193.0530000000001
 21
107.3352000242687
 31
-0.0000000000000066
 70
   160
  1
{\fSpaceClaim ASME CB|b0|i0;<>}
  3
SPACECLAIM_ASME_CB
 13
350.0000000000001
 23
107.3352000242686
 33
-0.0000000000000066
 14
43.00000000000001
 24
107.3352000242687
 34
-0.0000000000000066
 50
-90.0
1001
ACAD
1000
DSTYLE
1002
{
1070
   270
1070
     2
1070
     7
1000

1070
     6
1000

1070
   144
1040
1.0
1070
     4
1000
in
1070
   273
1070
     2
1070
   277
1070
     2
1070
   284
1070
     8
1070
   285
1070
     0
1070
    78
1070
     8
1070
   171
1070
     3
1070
   274
1070
     3
1070
   278
1070
    44
1070
    74
1070
     1
1070
   174
1070
     1
1070
    77
1070
     0
1070
    41
1040
25.0
1070
   173
1070
     1
1070
   140
1040
18.0
1070
   178
1070
     7
1070
   177
1070
     7
1070
   176
1070
     7
1070
   179
1070
     1
1070
   143
1040
0.0393700787401575
1070
   286
1070
     8
1070
   271
1070
     3
1070
     3
1000
mm
1070
   272
1070
     3
1070
    73
1070
     1
1002
}
  0
LINE
  5
11C
  8
0
 10
0.0000000000000004
 20
15.00000000000001
 30
0.0
 11
0.0000000000000168
 21
605.0
 31
0.0
  0
LINE
  5
11D
  8
0
 10
15.00000000000002
 20
620.0
 30
0.0
 11
795.0
 21
620.0
 31
0.0
  0
LINE
  5
11E
  8
0
 10
810.0
 20
605.0
 30
0.0
 11
810.0
 21
15.00000000000001
 31
0.0
  0
LINE
  5
11F
  8
0
 10
795.0
 20
-0.0000000000000221
 30
0.0
 11
15.00000000000001
 21
-0.0000000000000004
 31
0.0
  0
LINE
  5
120
  8
0
 10
0.0000000000000172
 20
620.0
 30
0.0
 11
0.0000000000000168
 21
605.0
 31
0.0
  0
LINE
  5
121
  8
0
 10
15.00000000000002
 20
620.0
 30
0.0
 11
0.0000000000000173
 21
620.0
 31
0.0
  0
LINE
  5
122
  8
0
 10
810.0
 20
620.0
 30
0.0
 11
810.0
 21
605.0
 31
0.0
  0
LINE
  5
123
  8
0
 10
795.0
 20
620.0
 30
0.0
 11
810.0
 21
620.0
 31
0.0
  0
LINE
  5
124
  8
0
 10
810.0
 20
-0.0000000000000286
 30
0.0
 11
810.0
 21
14.99999999999999
 31
0.0
  0
LINE
  5
125
  8
0
 10
795.0
 20
-0.0000000000000281
 30
0.0
 11
810.0
 21
-0.0000000000000286
 31
0.0
  0
LINE
  5
126
  8
0
 10
-0.0000000000000121
 20
0.0
 30
0.0
 11
-0.0000000000000117
 21
15.00000000000001
 31
0.0
  0
LINE
  5
127
  8
0
 10
15.00000000000001
 20
-0.0000000000000004
 30
0.0
 11
-0.0000000000000121
 21
0.0
 31
0.0
  0
LINE
  5
128
  8
0
 62
     7
 10
15.00000000000001
 20
577.0
 30
0.0
 11
15.0
 21
43.00000000000004
 31
0.0
  0
LINE
  5
129
  8
0
 62
     7
 10
43.0
 20
15.00000000000001
 30
0.0
 11
767.0
 21
14.99999999999999
 31
0.0
  0
LINE
  5
12A
  8
0
 62
     7
 10
795.0
 20
43.00000000000006
 30
0.0
 11
795.0
 21
577.0
 31
0.0
  0
LINE
  5
12B
  8
0
 62
     7
 10
767.0
 20
605.0
 30
0.0
 11
42.99999999999948
 21
605.0
 31
0.0
  0
LINE
  5
12C
  8
0
 62
     7
 10
15.00000000000003
 20
605.0
 30
0.0
 11
15.00000000000003
 21
577.0
 31
0.0
  0
LINE
  5
12D
  8
0
 62
     7
 10
15.00000000000003
 20
577.0
 30
0.0
 11
43.00000000000002
 21
577.0
 31
0.0
  0
LINE
  5
12E
  8
0
 62
     7
 10
43.00000000000016
 20
605.0
 30
0.0
 11
15.00000000000014
 21
605.0
 31
0.0
  0
LINE
  5
12F
  8
0
 62
     7
 10
795.0
 20
605.0
 30
0.0
 11
795.0
 21
577.0
 31
0.0
  0
LINE
  5
130
  8
0
 62
     7
 10
795.0
 20
577.0
 30
0.0
 11
766.9999999999999
 21
577.0
 31
0.0
  0
LINE
  5
131
  8
0
 62
     7
 10
766.9999999999999
 20
605.0
 30
0.0
 11
795.0
 21
605.0
 31
0.0
  0
LINE
  5
132
  8
0
 62
     7
 10
795.0
 20
14.99999999999999
 30
0.0
 11
795.0
 21
43.00000000000006
 31
0.0
  0
LINE
  5
133
  8
0
 62
     7
 10
795.0
 20
43.00000000000006
 30
0.0
 11
767.0
 21
43.00000000000006
 31
0.0
  0
LINE
  5
134
  8
0
 62
     7
 10
767.0
 20
14.99999999999999
 30
0.0
 11
795.0
 21
14.99999999999999
 31
0.0
  0
LINE
  5
135
  8
0
 10
15.00000000000001
 20
15.00000000000001
 30
0.0
 11
15.00000000000001
 21
43.0
 31
0.0
  0
LINE
  5
136
  8
0
 62
     7
 10
15.00000000000001
 20
43.0
 30
0.0
 11
43.0
 21
43.0
 31
0.0
  0
LINE
  5
137
  8
0
 62
     7
 10
43.0
 20
15.00000000000001
 30
0.0
 11
15.00000000000001
 21
15.00000000000001
 31
0.0
  0
LINE
  5
138
  8
0
 62
     7
 10
43.00000000000002
 20
577.0
 30
0.0
 11
43.00000000000001
 21
43.00000000000004
 31
0.0
  0
LINE
  5
139
  8
0
 62
     7
 10
767.0
 20
43.00000000000006
 30
0.0
 11
767.0
 21
577.0
 31
0.0
  0
LINE
  5
13A
  8
0
 62
     7
 10
350.0000000000001
 20
577.0
 30
0.0
 11
350.0000000000001
 21
452.0
 31
0.0
  0
LINE
  5
13B
  8
0
 62
     7
 10
350.0000000000001
 20
452.0
 30
0.0
 11
378.0
 21
452.0
 31
0.0
  0
LINE
  5
13C
  8
0
 62
     7
 10
378.0
 20
452.0
 30
0.0
 11
378.0
 21
577.0
 31
0.0
  0
LINE
  5
13D
  8
0
 62
     7
 10
378.0
 20
577.0
 30
0.0
 11
350.0000000000001
 21
577.0
 31
0.0
  0
LINE
  5
13E
  8
0
 62
     7
 10
350.0000000000001
 20
43.00000000000005
 30
0.0
 11
350.0000000000001
 21
168.0
 31
0.0
  0
LINE
  5
13F
  8
0
 62
     7
 10
350.0000000000001
 20
168.0
 30
0.0
 11
378.0
 21
168.0
 31
0.0
  0
LINE
  5
140
  8
0
 62
     7
 10
378.0
 20
168.0
 30
0.0
 11
378.0
 21
43.00000000000006
 31
0.0
  0
LINE
  5
141
  8
0
 62
     7
 10
767.0
 20
577.0
 30
0.0
 11
378.0
 21
577.0
 31
0.0
  0
LINE
  5
142
  8
0
 62
     7
 10
350.0000000000001
 20
577.0
 30
0.0
 11
43.00000000000004
 21
577.0
 31
0.0
  0
LINE
  5
143
  8
0
 62
     7
 10
43.00000000000001
 20
43.00000000000004
 30
0.0
 11
350.0000000000001
 21
43.00000000000005
 31
0.0
  0
LINE
  5
144
  8
0
 62
     7
 10
378.0
 20
43.00000000000004
 30
0.0
 11
767.0
 21
43.00000000000005
 31
0.0
  0
LINE
  5
145
  8
0
 62
     7
 10
350.0000000000001
 20
43.00000000000005
 30
0.0
 11
378.0
 21
43.00000000000006
 31
0.0
  0
ENDSEC
  0
EOF
