  0
SECTION
  2
HEADER
  9
$ACADVER
  1
AC1009
  9
$DWGCODEPAGE
  3
ansi_1252
  9
$INSBASE
 10
0.0
 20
0.0
 30
0.0
  9
$EXTMIN
 10
-0.0000000000000121
 20
-0.0000000000000286
 30
-0.000000000000038
  9
$EXTMAX
 10
810.0
 20
620.0
 30
0.0
  9
$LIMMIN
 10
0.0
 20
0.0
  9
$LIMMAX
 10
420.0
 20
297.0
  9
$ORTHOMODE
 70
     0
  9
$REGENMODE
 70
     1
  9
$FILLMODE
 70
     1
  9
$QTEXTMODE
 70
     0
  9
$MIRRTEXT
 70
     1
  9
$DRAGMODE
 70
     2
  9
$LTSCALE
 40
1.0
  9
$OSMODE
 70
    37
  9
$ATTMODE
 70
     1
  9
$TEXTSIZE
 40
2.5
  9
$TRACEWID
 40
1.0
  9
$TEXTSTYLE
  7
STANDARD
  9
$CLAYER
  8
0
  9
$CELTYPE
  6
BYLAYER
  9
$CECOLOR
 62
   256
  9
$DIMSCALE
 40
1.0
  9
$DIMASZ
 40
2.5
  9
$DIMEXO
 40
0.625
  9
$DIMDLI
 40
3.75
  9
$DIMRND
 40
0.0
  9
$DIMDLE
 40
0.0
  9
$DIMEXE
 40
1.25
  9
$DIMTP
 40
0.0
  9
$DIMTM
 40
0.0
  9
$DIMTXT
 40
2.5
  9
$DIMCEN
 40
2.5
  9
$DIMTSZ
 40
0.0
  9
$DIMTOL
 70
     0
  9
$DIMLIM
 70
     0
  9
$DIMTIH
 70
     1
  9
$DIMTOH
 70
     0
  9
$DIMSE1
 70
     0
  9
$DIMSE2
 70
     0
  9
$DIMTAD
 70
     1
  9
$DIMZIN
 70
     8
  9
$DIMBLK
  1

  9
$DIMASO
 70
     1
  9
$DIMSHO
 70
     1
  9
$DIMPOST
  1
mm
  9
$DIMAPOST
  1

  9
$DIMALT
 70
     0
  9
$DIMALTD
 70
     3
  9
$DIMALTF
 40
0.0393700787401575
  9
$DIMLFAC
 40
1.0
  9
$DIMTOFL
 70
     1
  9
$DIMTVP
 40
0.0
  9
$DIMTIX
 70
     0
  9
$DIMSOXD
 70
     0
  9
$DIMSAH
 70
     0
  9
$DIMBLK1
  1

  9
$DIMBLK2
  1

  9
$DIMSTYLE
  2
ISO-25
  9
$DIMCLRD
 70
     0
  9
$DIMCLRE
 70
     0
  9
$DIMCLRT
 70
     0
  9
$DIMTFAC
 40
1.0
  9
$DIMGAP
 40
0.625
  9
$LUNITS
 70
     2
  9
$LUPREC
 70
     4
  9
$SKETCHINC
 40
1.0
  9
$FILLETRAD
 40
10.0
  9
$AUNITS
 70
     0
  9
$AUPREC
 70
     0
  9
$MENU
  1
.
  9
$ELEVATION
 40
0.0
  9
$PELEVATION
 40
0.0
  9
$THICKNESS
 40
0.0
  9
$LIMCHECK
 70
     0
  9
$CHAMFERA
 40
0.0
  9
$CHAMFERB
 40
0.0
  9
$SKPOLY
 70
     0
  9
$TDCREATE
 40
2458316.420242407
  9
$TDUPDATE
 40
2458316.420243565
  9
$TDINDWG
 40
0.0000000116
  9
$TDUSRTIMER
 40
0.0000000116
  9
$USRTIMER
 70
     1
  9
$ANGBASE
 50
0.0
  9
$ANGDIR
 70
     0
  9
$PDMODE
 70
     0
  9
$PDSIZE
 40
0.0
  9
$PLINEWID
 40
0.0
  9
$COORDS
 70
     1
  9
$SPLFRAME
 70
     0
  9
$SPLINETYPE
 70
     6
  9
$SPLINESEGS
 70
     8
  9
$ATTDIA
 70
     0
  9
$ATTREQ
 70
     1
  9
$HANDLING
 70
     1
  9
$HANDSEED
  5
157
  9
$SURFTAB1
 70
     6
  9
$SURFTAB2
 70
     6
  9
$SURFTYPE
 70
     6
  9
$SURFU
 70
     6
  9
$SURFV
 70
     6
  9
$UCSNAME
  2

  9
$UCSORG
 10
0.0
 20
0.0
 30
0.0
  9
$UCSXDIR
 10
1.0
 20
0.0
 30
0.0
  9
$UCSYDIR
 10
0.0
 20
1.0
 30
0.0
  9
$PUCSNAME
  2

  9
$PUCSORG
 10
0.0
 20
0.0
 30
0.0
  9
$PUCSXDIR
 10
1.0
 20
0.0
 30
0.0
  9
$PUCSYDIR
 10
0.0
 20
1.0
 30
0.0
  9
$USERI1
 70
     0
  9
$USERI2
 70
     0
  9
$USERI3
 70
     0
  9
$USERI4
 70
     0
  9
$USERI5
 70
     0
  9
$USERR1
 40
0.0
  9
$USERR2
 40
0.0
  9
$USERR3
 40
0.0
  9
$USERR4
 40
0.0
  9
$USERR5
 40
0.0
  9
$WORLDVIEW
 70
     1
  9
$SHADEDGE
 70
     3
  9
$SHADEDIF
 70
    70
  9
$TILEMODE
 70
     1
  9
$MAXACTVP
 70
    64
  9
$PLIMCHECK
 70
     0
  9
$PEXTMIN
 10
1.000000000000000E+20
 20
1.000000000000000E+20
 30
1.000000000000000E+20
  9
$PEXTMAX
 10
-1.000000000000000E+20
 20
-1.000000000000000E+20
 30
-1.000000000000000E+20
  9
$PLIMMIN
 10
0.0
 20
0.0
  9
$PLIMMAX
 10
420.0
 20
297.0
  9
$UNITMODE
 70
     0
  9
$VISRETAIN
 70
     1
  9
$PLINEGEN
 70
     0
  9
$PSLTSCALE
 70
     1
  0
ENDSEC
  0
SECTION
  2
TABLES
  0
TABLE
  2
VPORT
 70
     1
  0
VPORT
  2
*ACTIVE
 70
     0
 10
0.0
 20
0.0
 11
1.0
 21
1.0
 12
405.0
 22
310.0
 13
0.0
 23
0.0
 14
10.0
 24
10.0
 15
10.0
 25
10.0
 16
0.0
 26
0.0
 36
1.0
 17
0.0
 27
0.0
 37
0.0
 40
620.0
 41
1.306451612903226
 42
50.0
 43
0.0
 44
0.0
 50
0.0
 51
0.0
 71
     0
 72
   100
 73
     1
 74
     3
 75
     0
 76
     0
 77
     0
 78
     0
  0
ENDTAB
  0
TABLE
  2
LTYPE
 70
     1
  0
LTYPE
  2
CONTINUOUS
 70
     0
  3
Solid line
 72
    65
 73
     0
 40
0.0
  0
ENDTAB
  0
TABLE
  2
LAYER
 70
     2
  0
LAYER
  2
0
 70
     0
 62
     7
  6
CONTINUOUS
  0
LAYER
  2
DEFPOINTS
 70
     0
 62
     7
  6
CONTINUOUS
  0
ENDTAB
  0
TABLE
  2
STYLE
 70
     2
  0
STYLE
  2
STANDARD
 70
     0
 40
0.0
 41
1.0
 50
0.0
 71
     0
 42
2.5
  3
txt
  4

  0
STYLE
  2
SPACECLAIM_ASME_CB
 70
     0
 40
0.0
 41
1.0
 50
0.0
 71
     0
 42
2.5
  3
SpaceClaim ASME.ttf
  4

  0
ENDTAB
  0
TABLE
  2
VIEW
 70
     0
  0
ENDTAB
  0
TABLE
  2
UCS
 70
     0
  0
ENDTAB
  0
TABLE
  2
APPID
 70
     1
  0
APPID
  2
ACAD
 70
     0
  0
ENDTAB
  0
TABLE
  2
DIMSTYLE
 70
     2
  0
DIMSTYLE
  2
ISO-25
 70
     0
  3

  4

  5

  6

  7

 40
1.0
 41
2.5
 42
0.625
 43
3.75
 44
1.25
 45
0.0
 46
0.0
 47
0.0
 48
0.0
140
2.5
141
2.5
142
0.0
143
0.03937007874016
144
1.0
145
0.0
146
1.0
147
0.625
 71
     0
 72
     0
 73
     0
 74
     0
 75
     0
 76
     0
 77
     1
 78
     8
170
     0
171
     3
172
     1
173
     0
174
     0
175
     0
176
     0
177
     0
178
     0
  0
DIMSTYLE
  2
SPACECLAIM_ASME_CB
 70
     0
  3

  4

  5

  6

  7

 40
1.0
 41
0.18
 42
0.0625
 43
0.38
 44
0.18
 45
0.0
 46
0.0
 47
0.0
 48
0.0
140
0.18
141
0.09
142
0.0
143
25.4
144
1.0
145
0.0
146
1.0
147
0.09
 71
     0
 72
     0
 73
     1
 74
     1
 75
     0
 76
     0
 77
     0
 78
     0
170
     0
171
     2
172
     0
173
     0
174
     0
175
     0
176
     0
177
     0
178
     0
  0
ENDTAB
  0
ENDSEC
  0
SECTION
  2
BLOCKS
  0
BLOCK
  8
0
  2
$MODEL_SPACE
 70
     0
 10
0.0
 20
0.0
 30
0.0
  3
$MODEL_SPACE
  1

  0
ENDBLK
  5
21
  8
0
  0
BLOCK
 67
     1
  8
0
  2
$PAPER_SPACE
 70
     0
 10
0.0
 20
0.0
 30
0.0
  3
$PAPER_SPACE
  1

  0
ENDBLK
  5
1D
 67
     1
  8
0
  0
BLOCK
  8
0
  2
*D1
 70
     1
 10
0.0
 20
0.0
 30
0.0
  3
*D1
  1

  0
LINE
  5
72
  8
0
 62
     7
 10
0.0000000000000172
 20
619.9375
 30
0.0
 11
0.0000000000000178
 21
324.0258929548937
 31
0.0
  0
LINE
  5
73
  8
0
 62
     7
 10
0.0
 20
0.0624999999999939
 30
0.0
 11
0.0
 21
324.3858929548937
 31
0.0
  0
LINE
  5
74
  8
0
 62
     7
 10
0.0000000000000178
 20
324.2058929548937
 30
0.0
 11
50.0
 21
324.2058929548937
 31
0.0
  0
LINE
  5
75
  8
0
 62
     7
 10
-24.99999999999998
 20
324.2058929548937
 30
0.0
 11
-49.99999999999999
 21
324.2058929548937
 31
0.0
  0
LINE
  5
76
  8
0
 62
     7
 10
25.0
 20
324.2058929548937
 30
0.0
 11
50.0
 21
324.2058929548937
 31
0.0
  0
SOLID
  5
77
  8
0
 62
     7
 10
-24.99999999999998
 20
320.039226288227
 30
0.0
 11
-24.99999999999998
 21
328.3725596215604
 31
0.0
 12
0.0000000000000178
 22
324.2058929548937
 32
0.0
 13
0.0000000000000178
 23
324.2058929548937
 33
0.0
  0
SOLID
  5
78
  8
0
 62
     7
 10
25.0
 20
328.3725596215604
 30
0.0
 11
25.0
 21
320.039226288227
 31
0.0
 12
0.0
 22
324.2058929548937
 32
0.0
 13
0.0
 23
324.2058929548937
 33
0.0
  0
TEXT
  5
79
  8
0
  6
CONTINUOUS
 62
     7
 10
6.710000000000002
 20
315.2058929548937
 30
0.0
 40
18.0
  1
0mm
  7
SPACECLAIM_ASME_CB
  0
POINT
  5
7A
  8
DEFPOINTS
 62
     0
 10
0.0000000000000172
 20
620.0
 30
0.0
  0
POINT
  5
7B
  8
DEFPOINTS
 62
     0
 10
0.0
 20
-0.0000000000000061
 30
0.0
  0
POINT
  5
7C
  8
DEFPOINTS
 62
     0
 10
0.0
 20
324.2058929548937
 30
0.0
  0
ENDBLK
  5
71
  8
0
  0
BLOCK
  8
0
  2
*D2
 70
     1
 10
0.0
 20
0.0
 30
0.0
  3
*D2
  1

  0
LINE
  5
82
  8
0
 62
     7
 10
760.3378983858115
 20
208.7412113841651
 30
0.0
 11
785.3378983858115
 21
208.7412113841651
 31
0.0
  0
LINE
  5
83
  8
0
 62
     7
 10
785.3378983858115
 20
208.7412113841651
 30
0.0
 11
785.3378983858115
 21
308.0967668841653
 31
0.0
  0
LINE
  5
84
  8
0
 62
     7
 10
809.9375
 20
308.0967668841653
 30
0.0
 11
785.1578983858116
 21
308.0967668841653
 31
0.0
  0
LINE
  5
85
  8
0
 62
     7
 10
794.9375
 20
308.0967668841653
 30
0.0
 11
785.1578983858116
 21
308.0967668841653
 31
0.0
  0
LINE
  5
86
  8
0
 62
     7
 10
785.3378983858115
 20
283.0967668841653
 30
0.0
 11
785.3378983858115
 21
258.0967668841653
 31
0.0
  0
SOLID
  5
87
  8
0
 62
     7
 10
781.1712317191449
 20
333.0967668841653
 30
0.0
 11
789.5045650524781
 21
333.0967668841653
 31
0.0
 12
785.3378983858115
 22
308.0967668841653
 32
0.0
 13
785.3378983858115
 23
308.0967668841653
 33
0.0
  0
SOLID
  5
88
  8
0
 62
     7
 10
789.5045650524781
 20
283.0967668841653
 30
0.0
 11
781.1712317191449
 21
283.0967668841653
 31
0.0
 12
785.3378983858115
 22
308.0967668841653
 32
0.0
 13
785.3378983858115
 23
308.0967668841653
 33
0.0
  0
TEXT
  5
89
  8
0
  6
CONTINUOUS
 62
     7
 10
717.0478983858114
 20
199.7412113841651
 30
0.0
 40
18.0
  1
0mm
  7
SPACECLAIM_ASME_CB
  0
POINT
  5
8A
  8
DEFPOINTS
 62
     0
 10
810.0
 20
308.0967668841653
 30
0.0
  0
POINT
  5
8B
  8
DEFPOINTS
 62
     0
 10
795.0
 20
308.0967668841653
 30
0.0
  0
POINT
  5
8C
  8
DEFPOINTS
 62
     0
 10
785.3378983858115
 20
308.0967668841653
 30
0.0
  0
ENDBLK
  5
81
  8
0
  0
BLOCK
  8
0
  2
*D3
 70
     1
 10
0.0
 20
0.0
 30
0.0
  3
*D3
  1

  0
LINE
  5
92
  8
0
 62
     7
 10
603.3814249537926
 20
576.9375
 30
0.0
 11
603.3814249537926
 21
320.5490421692201
 31
0.0
  0
LINE
  5
93
  8
0
 62
     7
 10
603.3814249537926
 20
43.06250000000005
 30
0.0
 11
603.3814249537926
 21
320.9090421692201
 31
0.0
  0
LINE
  5
94
  8
0
 62
     7
 10
603.3814249537926
 20
320.7290421692201
 30
0.0
 11
653.3814249537926
 21
320.7290421692201
 31
0.0
  0
LINE
  5
95
  8
0
 62
     7
 10
578.3814249537926
 20
320.7290421692201
 30
0.0
 11
553.3814249537926
 21
320.7290421692201
 31
0.0
  0
LINE
  5
96
  8
0
 62
     7
 10
628.3814249537926
 20
320.7290421692201
 30
0.0
 11
653.3814249537926
 21
320.7290421692201
 31
0.0
  0
SOLID
  5
97
  8
0
 62
     7
 10
578.3814249537926
 20
316.5623755025534
 30
0.0
 11
578.3814249537926
 21
324.8957088358868
 31
0.0
 12
603.3814249537926
 22
320.7290421692201
 32
0.0
 13
603.3814249537926
 23
320.7290421692201
 33
0.0
  0
SOLID
  5
98
  8
0
 62
     7
 10
628.3814249537926
 20
324.8957088358868
 30
0.0
 11
628.3814249537926
 21
316.5623755025534
 31
0.0
 12
603.3814249537926
 22
320.7290421692201
 32
0.0
 13
603.3814249537926
 23
320.7290421692201
 33
0.0
  0
TEXT
  5
99
  8
0
  6
CONTINUOUS
 62
     7
 10
651.6714249537927
 20
311.7290421692201
 30
0.0
 40
18.0
  1
0mm
  7
SPACECLAIM_ASME_CB
  0
POINT
  5
9A
  8
DEFPOINTS
 62
     0
 10
603.3814249537926
 20
577.0
 30
0.0
  0
POINT
  5
9B
  8
DEFPOINTS
 62
     0
 10
603.3814249537926
 20
43.00000000000005
 30
0.0
  0
POINT
  5
9C
  8
DEFPOINTS
 62
     0
 10
603.3814249537926
 20
320.7290421692201
 30
0.0
  0
ENDBLK
  5
91
  8
0
  0
BLOCK
  8
0
  2
*D4
 70
     1
 10
0.0
 20
0.0
 30
0.0
  3
*D4
  1

  0
LINE
  5
A2
  8
0
 62
     7
 10
393.6567387521782
 20
398.0667898386974
 30
0.0
 11
418.6567387521782
 21
398.0667898386974
 31
0.0
  0
LINE
  5
A3
  8
0
 62
     7
 10
418.6567387521782
 20
398.0667898386974
 30
0.0
 11
418.6567387521782
 21
577.0
 31
0.0
  0
LINE
  5
A4
  8
0
 62
     7
 10
335.0625
 20
577.0
 30
0.0
 11
418.8367387521782
 21
577.0
 31
0.0
  0
LINE
  5
A5
  8
0
 62
     7
 10
350.0625000000001
 20
577.0
 30
0.0
 11
418.8367387521782
 21
577.0
 31
0.0
  0
LINE
  5
A6
  8
0
 62
     7
 10
418.6567387521782
 20
602.0
 30
0.0
 11
418.6567387521782
 21
627.0
 31
0.0
  0
SOLID
  5
A7
  8
0
 62
     7
 10
422.8234054188449
 20
552.0
 30
0.0
 11
414.4900720855115
 21
552.0
 31
0.0
 12
418.6567387521782
 22
577.0
 32
0.0
 13
418.6567387521782
 23
577.0
 33
0.0
  0
SOLID
  5
A8
  8
0
 62
     7
 10
414.4900720855115
 20
602.0
 30
0.0
 11
422.8234054188449
 21
602.0
 31
0.0
 12
418.6567387521782
 22
577.0
 32
0.0
 13
418.6567387521782
 23
577.0
 33
0.0
  0
TEXT
  5
A9
  8
0
  6
CONTINUOUS
 62
     7
 10
350.3667387521782
 20
389.0667898386974
 30
0.0
 40
18.0
  1
0mm
  7
SPACECLAIM_ASME_CB
  0
POINT
  5
AA
  8
DEFPOINTS
 62
     0
 10
335.0
 20
577.0
 30
0.0
  0
POINT
  5
AB
  8
DEFPOINTS
 62
     0
 10
350.0000000000001
 20
577.0
 30
0.0
  0
POINT
  5
AC
  8
DEFPOINTS
 62
     0
 10
418.6567387521782
 20
577.0
 30
0.0
  0
ENDBLK
  5
A1
  8
0
  0
BLOCK
  8
0
  2
*D5
 70
     1
 10
0.0
 20
0.0
 30
0.0
  3
*D5
  1

  0
LINE
  5
B2
  8
0
 62
     7
 10
15.00000000000002
 20
604.9375
 30
0.0
 11
15.00000000000002
 21
323.8199999999999
 31
0.0
  0
LINE
  5
B3
  8
0
 62
     7
 10
15.00000000000001
 20
43.0625
 30
0.0
 11
15.00000000000001
 21
324.1799999999999
 31
0.0
  0
LINE
  5
B4
  8
0
 62
     7
 10
15.00000000000002
 20
323.9999999999999
 30
0.0
 11
65.00000000000001
 21
323.9999999999999
 31
0.0
  0
LINE
  5
B5
  8
0
 62
     7
 10
-9.999999999999982
 20
323.9999999999999
 30
0.0
 11
-34.99999999999999
 21
323.9999999999999
 31
0.0
  0
LINE
  5
B6
  8
0
 62
     7
 10
40.00000000000001
 20
323.9999999999999
 30
0.0
 11
65.00000000000001
 21
323.9999999999999
 31
0.0
  0
SOLID
  5
B7
  8
0
 62
     7
 10
-9.999999999999982
 20
319.8333333333333
 30
0.0
 11
-9.999999999999982
 21
328.1666666666666
 31
0.0
 12
15.00000000000002
 22
323.9999999999999
 32
0.0
 13
15.00000000000002
 23
323.9999999999999
 33
0.0
  0
SOLID
  5
B8
  8
0
 62
     7
 10
40.00000000000001
 20
328.1666666666666
 30
0.0
 11
40.00000000000001
 21
319.8333333333333
 31
0.0
 12
15.00000000000001
 22
323.9999999999999
 32
0.0
 13
15.00000000000001
 23
323.9999999999999
 33
0.0
  0
TEXT
  5
B9
  8
0
  6
CONTINUOUS
 62
     7
 10
21.71000000000002
 20
314.9999999999999
 30
0.0
 40
18.0
  1
0mm
  7
SPACECLAIM_ASME_CB
  0
POINT
  5
BA
  8
DEFPOINTS
 62
     0
 10
15.00000000000002
 20
605.0
 30
0.0
  0
POINT
  5
BB
  8
DEFPOINTS
 62
     0
 10
15.00000000000001
 20
43.0
 30
0.0
  0
POINT
  5
BC
  8
DEFPOINTS
 62
     0
 10
15.00000000000001
 20
323.9999999999999
 30
0.0
  0
ENDBLK
  5
B1
  8
0
  0
BLOCK
  8
0
  2
*D6
 70
     1
 10
0.0
 20
0.0
 30
0.0
  3
*D6
  1

  0
LINE
  5
C2
  8
0
 62
     7
 10
178.8319030780368
 20
93.00000000000009
 30
0.0
 11
153.8319030780368
 21
93.00000000000009
 31
0.0
  0
LINE
  5
C3
  8
0
 62
     7
 10
153.8319030780368
 20
93.00000000000009
 30
0.0
 11
153.8319030780368
 21
43.00000000000009
 31
0.0
  0
LINE
  5
C4
  8
0
 62
     7
 10
43.06250000000001
 20
43.0
 30
0.0
 11
154.0119030780368
 21
42.99999999999997
 31
0.0
  0
LINE
  5
C5
  8
0
 62
     7
 10
334.9375
 20
43.00000000000004
 30
0.0
 11
153.6519030780368
 21
43.00000000000009
 31
0.0
  0
LINE
  5
C6
  8
0
 62
     7
 10
153.8319030780368
 20
17.99999999999997
 30
0.0
 11
153.8319030780368
 21
-7.000000000000028
 31
0.0
  0
SOLID
  5
C7
  8
0
 62
     7
 10
157.9985697447034
 20
17.99999999999997
 30
0.0
 11
149.6652364113701
 21
17.99999999999997
 31
0.0
 12
153.8319030780368
 22
42.99999999999997
 32
0.0
 13
153.8319030780368
 23
42.99999999999997
 33
0.0
  0
SOLID
  5
C8
  8
0
 62
     7
 10
149.6652364113701
 20
68.00000000000009
 30
0.0
 11
157.9985697447034
 21
68.00000000000009
 31
0.0
 12
153.8319030780368
 22
43.00000000000009
 32
0.0
 13
153.8319030780368
 23
43.00000000000009
 33
0.0
  0
TEXT
  5
C9
  8
0
  6
CONTINUOUS
 62
     7
 10
177.1219030780368
 20
84.00000000000009
 30
0.0
 40
18.0
  1
0mm
  7
SPACECLAIM_ASME_CB
  0
POINT
  5
CA
  8
DEFPOINTS
 62
     0
 10
43.00000000000001
 20
43.0
 30
0.0
  0
POINT
  5
CB
  8
DEFPOINTS
 62
     0
 10
335.0
 20
43.00000000000004
 30
0.0
  0
POINT
  5
CC
  8
DEFPOINTS
 62
     0
 10
153.8319030780368
 20
43.00000000000009
 30
0.0
  0
ENDBLK
  5
C1
  8
0
  0
BLOCK
  8
0
  2
*D7
 70
     1
 10
0.0
 20
0.0
 30
0.0
  3
*D7
  1

  0
LINE
  5
D2
  8
0
 62
     7
 10
218.6322326173958
 20
525.007237478632
 30
0.0
 11
243.6322326173958
 21
525.007237478632
 31
0.0
  0
LINE
  5
D3
  8
0
 62
     7
 10
243.6322326173958
 20
525.007237478632
 30
0.0
 11
243.6322326173958
 21
577.0
 31
0.0
  0
LINE
  5
D4
  8
0
 62
     7
 10
43.06250000000005
 20
577.0
 30
0.0
 11
243.8122326173958
 21
577.0
 31
0.0
  0
LINE
  5
D5
  8
0
 62
     7
 10
334.9375
 20
577.0
 30
0.0
 11
243.4522326173958
 21
577.0
 31
0.0
  0
LINE
  5
D6
  8
0
 62
     7
 10
243.6322326173958
 20
602.0
 30
0.0
 11
243.6322326173958
 21
627.0
 31
0.0
  0
SOLID
  5
D7
  8
0
 62
     7
 10
247.7988992840625
 20
552.0
 30
0.0
 11
239.4655659507291
 21
552.0
 31
0.0
 12
243.6322326173958
 22
577.0
 32
0.0
 13
243.6322326173958
 23
577.0
 33
0.0
  0
SOLID
  5
D8
  8
0
 62
     7
 10
239.4655659507291
 20
602.0
 30
0.0
 11
247.7988992840625
 21
602.0
 31
0.0
 12
243.6322326173958
 22
577.0
 32
0.0
 13
243.6322326173958
 23
577.0
 33
0.0
  0
TEXT
  5
D9
  8
0
  6
CONTINUOUS
 62
     7
 10
175.3422326173958
 20
516.007237478632
 30
0.0
 40
18.0
  1
0mm
  7
SPACECLAIM_ASME_CB
  0
POINT
  5
DA
  8
DEFPOINTS
 62
     0
 10
43.00000000000005
 20
577.0
 30
0.0
  0
POINT
  5
DB
  8
DEFPOINTS
 62
     0
 10
335.0
 20
577.0
 30
0.0
  0
POINT
  5
DC
  8
DEFPOINTS
 62
     0
 10
243.6322326173958
 20
577.0
 30
0.0
  0
ENDBLK
  5
D1
  8
0
  0
BLOCK
  8
0
  2
*D8
 70
     1
 10
0.0
 20
0.0
 30
0.0
  3
*D8
  1

  0
LINE
  5
E2
  8
0
 62
     7
 10
575.8429999999996
 20
525.007237478632
 30
0.0
 11
600.8429999999996
 21
525.007237478632
 31
0.0
  0
LINE
  5
E3
  8
0
 62
     7
 10
600.8429999999996
 20
525.007237478632
 30
0.0
 11
600.8429999999996
 21
577.0
 31
0.0
  0
LINE
  5
E4
  8
0
 62
     7
 10
350.0625000000001
 20
577.0
 30
0.0
 11
601.0229999999996
 21
577.0
 31
0.0
  0
LINE
  5
E5
  8
0
 62
     7
 10
766.9375000000001
 20
577.0
 30
0.0
 11
600.6629999999997
 21
577.0
 31
0.0
  0
LINE
  5
E6
  8
0
 62
     7
 10
600.8429999999996
 20
602.0
 30
0.0
 11
600.8429999999996
 21
627.0
 31
0.0
  0
SOLID
  5
E7
  8
0
 62
     7
 10
605.0096666666662
 20
552.0
 30
0.0
 11
596.676333333333
 21
552.0
 31
0.0
 12
600.8429999999996
 22
577.0
 32
0.0
 13
600.8429999999996
 23
577.0
 33
0.0
  0
SOLID
  5
E8
  8
0
 62
     7
 10
596.676333333333
 20
602.0
 30
0.0
 11
605.0096666666662
 21
602.0
 31
0.0
 12
600.8429999999996
 22
577.0
 32
0.0
 13
600.8429999999996
 23
577.0
 33
0.0
  0
TEXT
  5
E9
  8
0
  6
CONTINUOUS
 62
     7
 10
532.5529999999995
 20
516.007237478632
 30
0.0
 40
18.0
  1
0mm
  7
SPACECLAIM_ASME_CB
  0
POINT
  5
EA
  8
DEFPOINTS
 62
     0
 10
350.0000000000001
 20
577.0
 30
0.0
  0
POINT
  5
EB
  8
DEFPOINTS
 62
     0
 10
767.0000000000001
 20
577.0
 30
0.0
  0
POINT
  5
EC
  8
DEFPOINTS
 62
     0
 10
600.8429999999996
 20
577.0
 30
0.0
  0
ENDBLK
  5
E1
  8
0
  0
BLOCK
  8
0
  2
*D9
 70
     1
 10
0.0
 20
0.0
 30
0.0
  3
*D9
  1

  0
LINE
  5
F2
  8
0
 62
     7
 10
527.647313363663
 20
-6.999999999999943
 30
0.0
 11
502.647313363663
 21
-6.999999999999943
 31
0.0
  0
LINE
  5
F3
  8
0
 62
     7
 10
502.647313363663
 20
-6.999999999999943
 30
0.0
 11
502.647313363663
 21
43.00000000000004
 31
0.0
  0
LINE
  5
F4
  8
0
 62
     7
 10
766.9375
 20
43.00000000000006
 30
0.0
 11
502.467313363663
 21
43.00000000000004
 31
0.0
  0
LINE
  5
F5
  8
0
 62
     7
 10
378.0625000000002
 20
43.00000000000004
 30
0.0
 11
502.827313363663
 21
43.00000000000006
 31
0.0
  0
LINE
  5
F6
  8
0
 62
     7
 10
502.647313363663
 20
18.00000000000006
 30
0.0
 11
502.647313363663
 21
-6.999999999999943
 31
0.0
  0
SOLID
  5
F7
  8
0
 62
     7
 10
498.4806466969963
 20
68.00000000000003
 30
0.0
 11
506.8139800303297
 21
68.00000000000003
 31
0.0
 12
502.647313363663
 22
43.00000000000004
 32
0.0
 13
502.647313363663
 23
43.00000000000004
 33
0.0
  0
SOLID
  5
F8
  8
0
 62
     7
 10
506.8139800303297
 20
18.00000000000006
 30
0.0
 11
498.4806466969963
 21
18.00000000000006
 31
0.0
 12
502.647313363663
 22
43.00000000000006
 32
0.0
 13
502.647313363663
 23
43.00000000000006
 33
0.0
  0
TEXT
  5
F9
  8
0
  6
CONTINUOUS
 62
     7
 10
525.9373133636631
 20
-15.99999999999994
 30
0.0
 40
18.0
  1
0mm
  7
SPACECLAIM_ASME_CB
  0
POINT
  5
FA
  8
DEFPOINTS
 62
     0
 10
767.0
 20
43.00000000000006
 30
0.0
  0
POINT
  5
FB
  8
DEFPOINTS
 62
     0
 10
378.0000000000002
 20
43.00000000000004
 30
0.0
  0
POINT
  5
FC
  8
DEFPOINTS
 62
     0
 10
594.2273133636631
 20
43.00000000000006
 30
0.0
  0
ENDBLK
  5
F1
  8
0
  0
BLOCK
  8
0
  2
*D10
 70
     1
 10
0.0
 20
0.0
 30
0.0
  3
*D10
  1

  0
LINE
  5
102
  8
0
 62
     7
 10
332.2630000000003
 20
29.52699222083181
 30
0.0
 11
307.2630000000003
 21
29.52699222083181
 31
0.0
  0
LINE
  5
103
  8
0
 62
     7
 10
307.2630000000003
 20
29.52699222083181
 30
0.0
 11
307.2630000000003
 21
29.52699222083179
 31
0.0
  0
LINE
  5
104
  8
0
 62
     7
 10
334.9375
 20
29.52699222083178
 30
0.0
 11
307.0830000000003
 21
29.52699222083178
 31
0.0
  0
LINE
  5
105
  8
0
 62
     7
 10
377.9375000000002
 20
29.52699222083178
 30
0.0
 11
307.0830000000003
 21
29.52699222083179
 31
0.0
  0
LINE
  5
106
  8
0
 62
     7
 10
307.2630000000003
 20
54.52699222083179
 30
0.0
 11
307.2630000000003
 21
79.52699222083179
 31
0.0
  0
SOLID
  5
107
  8
0
 62
     7
 10
311.4296666666669
 20
4.526992220831783
 30
0.0
 11
303.0963333333336
 21
4.526992220831783
 31
0.0
 12
307.2630000000003
 22
29.52699222083178
 32
0.0
 13
307.2630000000003
 23
29.52699222083178
 33
0.0
  0
SOLID
  5
108
  8
0
 62
     7
 10
303.0963333333336
 20
54.52699222083179
 30
0.0
 11
311.4296666666669
 21
54.52699222083179
 31
0.0
 12
307.2630000000003
 22
29.52699222083179
 32
0.0
 13
307.2630000000003
 23
29.52699222083179
 33
0.0
  0
TEXT
  5
109
  8
0
  6
CONTINUOUS
 62
     7
 10
330.5530000000002
 20
20.52699222083181
 30
0.0
 40
18.0
  1
0mm
  7
SPACECLAIM_ASME_CB
  0
POINT
  5
10A
  8
DEFPOINTS
 62
     0
 10
335.0
 20
29.52699222083178
 30
0.0
  0
POINT
  5
10B
  8
DEFPOINTS
 62
     0
 10
378.0000000000002
 20
29.52699222083178
 30
0.0
  0
POINT
  5
10C
  8
DEFPOINTS
 62
     0
 10
307.2630000000003
 20
29.52699222083179
 30
0.0
  0
ENDBLK
  5
101
  8
0
  0
BLOCK
  8
0
  2
*D11
 70
     1
 10
0.0
 20
0.0
 30
0.0
  3
*D11
  1

  0
LINE
  5
112
  8
0
 62
     7
 10
766.9999999999999
 20
604.9375
 30
0.0
 11
766.9999999999999
 21
538.1337239195268
 31
0.0
  0
LINE
  5
113
  8
0
 62
     7
 10
810.0
 20
619.9375
 30
0.0
 11
810.0
 21
538.1337239195268
 31
0.0
  0
LINE
  5
114
  8
0
 62
     7
 10
810.0
 20
538.3137239195268
 30
0.0
 11
860.0
 21
538.3137239195268
 31
0.0
  0
LINE
  5
115
  8
0
 62
     7
 10
741.9999999999999
 20
538.3137239195268
 30
0.0
 11
716.9999999999999
 21
538.3137239195268
 31
0.0
  0
LINE
  5
116
  8
0
 62
     7
 10
835.0
 20
538.3137239195268
 30
0.0
 11
860.0
 21
538.3137239195268
 31
0.0
  0
SOLID
  5
117
  8
0
 62
     7
 10
741.9999999999999
 20
534.1470572528601
 30
0.0
 11
741.9999999999999
 21
542.4803905861934
 31
0.0
 12
766.9999999999999
 22
538.3137239195268
 32
0.0
 13
766.9999999999999
 23
538.3137239195268
 33
0.0
  0
SOLID
  5
118
  8
0
 62
     7
 10
835.0
 20
542.4803905861934
 30
0.0
 11
835.0
 21
534.1470572528601
 31
0.0
 12
810.0
 22
538.3137239195268
 32
0.0
 13
810.0
 23
538.3137239195268
 33
0.0
  0
TEXT
  5
119
  8
0
  6
CONTINUOUS
 62
     7
 10
858.38
 20
529.3137239195266
 30
0.0
 40
18.0
  1
43mm
  7
SPACECLAIM_ASME_CB
  0
POINT
  5
11A
  8
DEFPOINTS
 62
     0
 10
766.9999999999999
 20
605.0
 30
0.0
  0
POINT
  5
11B
  8
DEFPOINTS
 62
     0
 10
810.0
 20
620.0
 30
0.0
  0
POINT
  5
11C
  8
DEFPOINTS
 62
     0
 10
810.0
 20
538.3137239195268
 30
0.0
  0
ENDBLK
  5
111
  8
0
  0
BLOCK
  8
0
  2
*D12
 70
     1
 10
0.0
 20
0.0
 30
0.0
  3
*D12
  1

  0
LINE
  5
122
  8
0
 62
     7
 10
352.3497729905293
 20
670.0
 30
0.0
 11
327.3497729905293
 21
670.0
 31
0.0
  0
LINE
  5
123
  8
0
 62
     7
 10
327.3497729905293
 20
670.0
 30
0.0
 11
327.3497729905293
 21
620.0
 31
0.0
  0
LINE
  5
124
  8
0
 62
     7
 10
0.0625000000000051
 20
620.0
 30
0.0
 11
327.5297729905294
 21
620.0
 31
0.0
  0
LINE
  5
125
  8
0
 62
     7
 10
809.9375
 20
620.0
 30
0.0
 11
327.1697729905293
 21
620.0
 31
0.0
  0
LINE
  5
126
  8
0
 62
     7
 10
327.3497729905293
 20
645.0
 30
0.0
 11
327.3497729905293
 21
670.0
 31
0.0
  0
SOLID
  5
127
  8
0
 62
     7
 10
331.516439657196
 20
595.0
 30
0.0
 11
323.1831063238627
 21
595.0
 31
0.0
 12
327.3497729905293
 22
620.0
 32
0.0
 13
327.3497729905293
 23
620.0
 33
0.0
  0
SOLID
  5
128
  8
0
 62
     7
 10
323.1831063238627
 20
645.0
 30
0.0
 11
331.516439657196
 21
645.0
 31
0.0
 12
327.3497729905293
 22
620.0
 32
0.0
 13
327.3497729905293
 23
620.0
 33
0.0
  0
TEXT
  5
129
  8
0
  6
CONTINUOUS
 62
     7
 10
350.6397729905293
 20
661.0
 30
0.0
 40
18.0
  1
0mm
  7
SPACECLAIM_ASME_CB
  0
POINT
  5
12A
  8
DEFPOINTS
 62
     0
 10
0.0000000000000051
 20
620.0
 30
0.0
  0
POINT
  5
12B
  8
DEFPOINTS
 62
     0
 10
810.0
 20
620.0
 30
0.0
  0
POINT
  5
12C
  8
DEFPOINTS
 62
     0
 10
327.3497729905293
 20
620.0
 30
0.0
  0
ENDBLK
  5
121
  8
0
  0
ENDSEC
  0
SECTION
  2
ENTITIES
  0
DIMENSION
  5
6A
  8
0
 62
     7
  2
*D1
 10
0.0
 20
324.2058929548937
 30
-0.0000000000000199
 11
29.21
 21
324.2058929548937
 31
-0.0000000000000199
 70
   160
  1
{\fSpaceClaim ASME CB|b0|i0;<>}
  3
SPACECLAIM_ASME_CB
 13
0.0000000000000172
 23
620.0
 33
-0.000000000000038
 14
0.0
 24
-0.0000000000000061
 34
0.0
1001
ACAD
1000
DSTYLE
1002
{
1070
   270
1070
     2
1070
     7
1000

1070
     6
1000

1070
   144
1040
1.0
1070
     4
1000
in
1070
   273
1070
     2
1070
   277
1070
     2
1070
   284
1070
     8
1070
   285
1070
     0
1070
    78
1070
     8
1070
   171
1070
     3
1070
   274
1070
     3
1070
   278
1070
    44
1070
    74
1070
     1
1070
   174
1070
     1
1070
    77
1070
     0
1070
    41
1040
25.0
1070
   173
1070
     1
1070
   140
1040
18.0
1070
   178
1070
     7
1070
   177
1070
     7
1070
   176
1070
     7
1070
   179
1070
     1
1070
   143
1040
0.0393700787401575
1070
   286
1070
     8
1070
   271
1070
     3
1070
     3
1000
mm
1070
   272
1070
     3
1070
    73
1070
     1
1002
}
  0
DIMENSION
  5
7D
  8
0
 62
     7
  2
*D2
 10
785.3378983858115
 20
308.0967668841653
 30
-0.0000000000000128
 11
739.5478983858114
 21
208.7412113841651
 31
-0.0000000000000128
 70
   160
  1
{\fSpaceClaim ASME CB|b0|i0;<>}
  3
SPACECLAIM_ASME_CB
 13
810.0
 23
308.0967668841653
 33
-0.0000000000000189
 14
795.0
 24
308.0967668841653
 34
-0.0000000000000189
 50
-90.0
1001
ACAD
1000
DSTYLE
1002
{
1070
   270
1070
     2
1070
     7
1000

1070
     6
1000

1070
   144
1040
1.0
1070
     4
1000
in
1070
   273
1070
     2
1070
   277
1070
     2
1070
   284
1070
     8
1070
   285
1070
     0
1070
    78
1070
     8
1070
   171
1070
     3
1070
   274
1070
     3
1070
   278
1070
    44
1070
    74
1070
     1
1070
   174
1070
     1
1070
    77
1070
     0
1070
    41
1040
25.0
1070
   173
1070
     1
1070
   140
1040
18.0
1070
   178
1070
     7
1070
   177
1070
     7
1070
   176
1070
     7
1070
   179
1070
     1
1070
   143
1040
0.0393700787401575
1070
   286
1070
     8
1070
   271
1070
     3
1070
     3
1000
mm
1070
   272
1070
     3
1070
    73
1070
     1
1002
}
  0
DIMENSION
  5
8D
  8
0
 62
     7
  2
*D3
 10
603.3814249537926
 20
320.7290421692201
 30
-0.0000000000000196
 11
674.1714249537927
 21
320.7290421692201
 31
-0.0000000000000196
 70
   160
  1
{\fSpaceClaim ASME CB|b0|i0;<>}
  3
SPACECLAIM_ASME_CB
 13
603.3814249537926
 23
577.0
 33
-0.0000000000000353
 14
603.3814249537926
 24
43.00000000000005
 34
-0.0000000000000026
1001
ACAD
1000
DSTYLE
1002
{
1070
   270
1070
     2
1070
     7
1000

1070
     6
1000

1070
   144
1040
1.0
1070
     4
1000
in
1070
   273
1070
     2
1070
   277
1070
     2
1070
   284
1070
     8
1070
   285
1070
     0
1070
    78
1070
     8
1070
   171
1070
     3
1070
   274
1070
     3
1070
   278
1070
    44
1070
    74
1070
     1
1070
   174
1070
     1
1070
    77
1070
     0
1070
    41
1040
25.0
1070
   173
1070
     1
1070
   140
1040
18.0
1070
   178
1070
     7
1070
   177
1070
     7
1070
   176
1070
     7
1070
   179
1070
     1
1070
   143
1040
0.0393700787401575
1070
   286
1070
     8
1070
   271
1070
     3
1070
     3
1000
mm
1070
   272
1070
     3
1070
    73
1070
     1
1002
}
  0
DIMENSION
  5
9D
  8
0
 62
     7
  2
*D4
 10
418.6567387521782
 20
577.0
 30
-0.0000000000000244
 11
372.8667387521782
 21
398.0667898386974
 31
-0.0000000000000244
 70
   160
  1
{\fSpaceClaim ASME CB|b0|i0;<>}
  3
SPACECLAIM_ASME_CB
 13
335.0
 23
577.0
 33
-0.0000000000000353
 14
350.0000000000001
 24
577.0
 34
-0.0000000000000353
 50
90.0
1001
ACAD
1000
DSTYLE
1002
{
1070
   270
1070
     2
1070
     7
1000

1070
     6
1000

1070
   144
1040
1.0
1070
     4
1000
in
1070
   273
1070
     2
1070
   277
1070
     2
1070
   284
1070
     8
1070
   285
1070
     0
1070
    78
1070
     8
1070
   171
1070
     3
1070
   274
1070
     3
1070
   278
1070
    44
1070
    74
1070
     1
1070
   174
1070
     1
1070
    77
1070
     0
1070
    41
1040
25.0
1070
   173
1070
     1
1070
   140
1040
18.0
1070
   178
1070
     7
1070
   177
1070
     7
1070
   176
1070
     7
1070
   179
1070
     1
1070
   143
1040
0.0393700787401575
1070
   286
1070
     8
1070
   271
1070
     3
1070
     3
1000
mm
1070
   272
1070
     3
1070
    73
1070
     1
1002
}
  0
DIMENSION
  5
AD
  8
0
 62
     7
  2
*D5
 10
15.00000000000001
 20
323.9999999999999
 30
-0.0000000000000198
 11
44.21000000000002
 21
323.9999999999999
 31
-0.0000000000000198
 70
   160
  1
{\fSpaceClaim ASME CB|b0|i0;<>}
  3
SPACECLAIM_ASME_CB
 13
15.00000000000002
 23
605.0
 33
-0.000000000000037
 14
15.00000000000001
 24
43.0
 34
-0.0000000000000026
1001
ACAD
1000
DSTYLE
1002
{
1070
   270
1070
     2
1070
     7
1000

1070
     6
1000

1070
   144
1040
1.0
1070
     4
1000
in
1070
   273
1070
     2
1070
   277
1070
     2
1070
   284
1070
     8
1070
   285
1070
     0
1070
    78
1070
     8
1070
   171
1070
     3
1070
   274
1070
     3
1070
   278
1070
    44
1070
    74
1070
     1
1070
   174
1070
     1
1070
    77
1070
     0
1070
    41
1040
25.0
1070
   173
1070
     1
1070
   140
1040
18.0
1070
   178
1070
     7
1070
   177
1070
     7
1070
   176
1070
     7
1070
   179
1070
     1
1070
   143
1040
0.0393700787401575
1070
   286
1070
     8
1070
   271
1070
     3
1070
     3
1000
mm
1070
   272
1070
     3
1070
    73
1070
     1
1002
}
  0
DIMENSION
  5
BD
  8
0
 62
     7
  2
*D6
 10
153.8319030780368
 20
43.00000000000009
 30
-0.0000000000000055
 11
199.6219030780368
 21
93.00000000000009
 31
-0.0000000000000055
 70
   160
  1
{\fSpaceClaim ASME CB|b0|i0;<>}
  3
SPACECLAIM_ASME_CB
 13
43.00000000000001
 23
43.0
 33
-0.0000000000000026
 14
335.0
 24
43.00000000000004
 34
-0.0000000000000026
 50
89.99999999999999
1001
ACAD
1000
DSTYLE
1002
{
1070
   270
1070
     2
1070
     7
1000

1070
     6
1000

1070
   144
1040
1.0
1070
     4
1000
in
1070
   273
1070
     2
1070
   277
1070
     2
1070
   284
1070
     8
1070
   285
1070
     0
1070
    78
1070
     8
1070
   171
1070
     3
1070
   274
1070
     3
1070
   278
1070
    44
1070
    74
1070
     1
1070
   174
1070
     1
1070
    77
1070
     0
1070
    41
1040
25.0
1070
   173
1070
     1
1070
   140
1040
18.0
1070
   178
1070
     7
1070
   177
1070
     7
1070
   176
1070
     7
1070
   179
1070
     1
1070
   143
1040
0.0393700787401575
1070
   286
1070
     8
1070
   271
1070
     3
1070
     3
1000
mm
1070
   272
1070
     3
1070
    73
1070
     1
1002
}
  0
DIMENSION
  5
CD
  8
0
 62
     7
  2
*D7
 10
243.6322326173958
 20
577.0
 30
-0.0000000000000321
 11
197.8422326173958
 21
525.007237478632
 31
-0.0000000000000321
 70
   160
  1
{\fSpaceClaim ASME CB|b0|i0;<>}
  3
SPACECLAIM_ASME_CB
 13
43.00000000000005
 23
577.0
 33
-0.0000000000000353
 14
335.0
 24
577.0
 34
-0.0000000000000353
 50
90.0
1001
ACAD
1000
DSTYLE
1002
{
1070
   270
1070
     2
1070
     7
1000

1070
     6
1000

1070
   144
1040
1.0
1070
     4
1000
in
1070
   273
1070
     2
1070
   277
1070
     2
1070
   284
1070
     8
1070
   285
1070
     0
1070
    78
1070
     8
1070
   171
1070
     3
1070
   274
1070
     3
1070
   278
1070
    44
1070
    74
1070
     1
1070
   174
1070
     1
1070
    77
1070
     0
1070
    41
1040
25.0
1070
   173
1070
     1
1070
   140
1040
18.0
1070
   178
1070
     7
1070
   177
1070
     7
1070
   176
1070
     7
1070
   179
1070
     1
1070
   143
1040
0.0393700787401575
1070
   286
1070
     8
1070
   271
1070
     3
1070
     3
1000
mm
1070
   272
1070
     3
1070
    73
1070
     1
1002
}
  0
DIMENSION
  5
DD
  8
0
 62
     7
  2
*D8
 10
600.8429999999996
 20
577.0
 30
-0.0000000000000321
 11
555.0529999999995
 21
525.007237478632
 31
-0.0000000000000321
 70
   160
  1
{\fSpaceClaim ASME CB|b0|i0;<>}
  3
SPACECLAIM_ASME_CB
 13
350.0000000000001
 23
577.0
 33
-0.0000000000000353
 14
767.0000000000001
 24
577.0
 34
-0.0000000000000353
 50
90.0
1001
ACAD
1000
DSTYLE
1002
{
1070
   270
1070
     2
1070
     7
1000

1070
     6
1000

1070
   144
1040
1.0
1070
     4
1000
in
1070
   273
1070
     2
1070
   277
1070
     2
1070
   284
1070
     8
1070
   285
1070
     0
1070
    78
1070
     8
1070
   171
1070
     3
1070
   274
1070
     3
1070
   278
1070
    44
1070
    74
1070
     1
1070
   174
1070
     1
1070
    77
1070
     0
1070
    41
1040
25.0
1070
   173
1070
     1
1070
   140
1040
18.0
1070
   178
1070
     7
1070
   177
1070
     7
1070
   176
1070
     7
1070
   179
1070
     1
1070
   143
1040
0.0393700787401575
1070
   286
1070
     8
1070
   271
1070
     3
1070
     3
1000
mm
1070
   272
1070
     3
1070
    73
1070
     1
1002
}
  0
DIMENSION
  5
ED
  8
0
 62
     7
  2
*D9
 10
502.647313363663
 20
43.00000000000006
 30
-0.0000000000000056
 11
548.4373133636631
 21
-6.999999999999943
 31
-0.0000000000000056
 70
   160
  1
{\fSpaceClaim ASME CB|b0|i0;<>}
  3
SPACECLAIM_ASME_CB
 13
767.0
 23
43.00000000000006
 33
-0.0000000000000026
 14
378.0000000000002
 24
43.00000000000004
 34
-0.0000000000000026
 50
-90.0
1001
ACAD
1000
DSTYLE
1002
{
1070
   270
1070
     2
1070
     7
1000

1070
     6
1000

1070
   144
1040
1.0
1070
     4
1000
in
1070
   273
1070
     2
1070
   277
1070
     2
1070
   284
1070
     8
1070
   285
1070
     0
1070
    78
1070
     8
1070
   171
1070
     3
1070
   274
1070
     3
1070
   278
1070
    44
1070
    74
1070
     1
1070
   174
1070
     1
1070
    77
1070
     0
1070
    41
1040
25.0
1070
   173
1070
     1
1070
   140
1040
18.0
1070
   178
1070
     7
1070
   177
1070
     7
1070
   176
1070
     7
1070
   179
1070
     1
1070
   143
1040
0.0393700787401575
1070
   286
1070
     8
1070
   271
1070
     3
1070
     3
1000
mm
1070
   272
1070
     3
1070
    73
1070
     1
1002
}
  0
DIMENSION
  5
FD
  8
0
 62
     7
  2
*D10
 10
307.2630000000003
 20
29.52699222083179
 30
-0.0000000000000018
 11
353.0530000000002
 21
29.52699222083181
 31
-0.0000000000000018
 70
   160
  1
{\fSpaceClaim ASME CB|b0|i0;<>}
  3
SPACECLAIM_ASME_CB
 13
335.0
 23
29.52699222083178
 33
-0.0000000000000018
 14
378.0000000000002
 24
29.52699222083178
 34
-0.0000000000000018
 50
90.0
1001
ACAD
1000
DSTYLE
1002
{
1070
   270
1070
     2
1070
     7
1000

1070
     6
1000

1070
   144
1040
1.0
1070
     4
1000
in
1070
   273
1070
     2
1070
   277
1070
     2
1070
   284
1070
     8
1070
   285
1070
     0
1070
    78
1070
     8
1070
   171
1070
     3
1070
   274
1070
     3
1070
   278
1070
    44
1070
    74
1070
     1
1070
   174
1070
     1
1070
    77
1070
     0
1070
    41
1040
25.0
1070
   173
1070
     1
1070
   140
1040
18.0
1070
   178
1070
     7
1070
   177
1070
     7
1070
   176
1070
     7
1070
   179
1070
     1
1070
   143
1040
0.0393700787401575
1070
   286
1070
     8
1070
   271
1070
     3
1070
     3
1000
mm
1070
   272
1070
     3
1070
    73
1070
     1
1002
}
  0
DIMENSION
  5
10D
  8
0
 62
     7
  2
*D11
 10
810.0
 20
538.3137239195268
 30
-0.000000000000033
 11
887.135
 21
538.3137239195268
 31
-0.000000000000033
 70
   160
  1
{\fSpaceClaim ASME CB|b0|i0;<>}
  3
SPACECLAIM_ASME_CB
 13
766.9999999999999
 23
605.0
 33
-0.000000000000037
 14
810.0
 24
620.0
 34
-0.000000000000038
 50
-180.0
1001
ACAD
1000
DSTYLE
1002
{
1070
   270
1070
     2
1070
     7
1000

1070
     6
1000

1070
   144
1040
1.0
1070
     4
1000
in
1070
   273
1070
     2
1070
   277
1070
     2
1070
   284
1070
     8
1070
   285
1070
     0
1070
    78
1070
     8
1070
   171
1070
     3
1070
   274
1070
     3
1070
   278
1070
    44
1070
    74
1070
     1
1070
   174
1070
     1
1070
    77
1070
     0
1070
    41
1040
25.0
1070
   173
1070
     1
1070
   140
1040
18.0
1070
   178
1070
     7
1070
   177
1070
     7
1070
   176
1070
     7
1070
   179
1070
     1
1070
   143
1040
0.0393700787401575
1070
   286
1070
     8
1070
   271
1070
     3
1070
     3
1000
mm
1070
   272
1070
     3
1070
    73
1070
     1
1002
}
  0
DIMENSION
  5
11D
  8
0
 62
     7
  2
*D12
 10
327.3497729905293
 20
620.0
 30
-0.0000000000000404
 11
373.1397729905293
 21
670.0
 31
-0.0000000000000404
 70
   160
  1
{\fSpaceClaim ASME CB|b0|i0;<>}
  3
SPACECLAIM_ASME_CB
 13
0.0000000000000051
 23
620.0
 33
-0.000000000000038
 14
810.0
 24
620.0
 34
-0.000000000000038
 50
90.0
1001
ACAD
1000
DSTYLE
1002
{
1070
   270
1070
     2
1070
     7
1000

1070
     6
1000

1070
   144
1040
1.0
1070
     4
1000
in
1070
   273
1070
     2
1070
   277
1070
     2
1070
   284
1070
     8
1070
   285
1070
     0
1070
    78
1070
     8
1070
   171
1070
     3
1070
   274
1070
     3
1070
   278
1070
    44
1070
    74
1070
     1
1070
   174
1070
     1
1070
    77
1070
     0
1070
    41
1040
25.0
1070
   173
1070
     1
1070
   140
1040
18.0
1070
   178
1070
     7
1070
   177
1070
     7
1070
   176
1070
     7
1070
   179
1070
     1
1070
   143
1040
0.0393700787401575
1070
   286
1070
     8
1070
   271
1070
     3
1070
     3
1000
mm
1070
   272
1070
     3
1070
    73
1070
     1
1002
}
  0
LINE
  5
12D
  8
0
 62
     7
 10
350.0000000000001
 20
605.0
 30
0.0
 11
766.9999999999999
 21
605.0
 31
0.0
  0
LINE
  5
12E
  8
0
 62
     7
 10
350.0000000000001
 20
577.0
 30
0.0
 11
350.0000000000001
 21
605.0
 31
0.0
  0
LINE
  5
12F
  8
0
 62
     7
 10
767.0000000000001
 20
577.0
 30
0.0
 11
350.0000000000001
 21
577.0
 31
0.0
  0
LINE
  5
130
  8
0
 62
     7
 10
795.0
 20
43.00000000000006
 30
0.0
 11
767.0
 21
43.00000000000006
 31
0.0
  0
LINE
  5
131
  8
0
 62
     7
 10
795.0
 20
577.0
 30
0.0
 11
795.0
 21
43.00000000000004
 31
0.0
  0
LINE
  5
132
  8
0
 62
     7
 10
767.0
 20
43.00000000000006
 30
0.0
 11
767.0
 21
577.0
 31
0.0
  0
LINE
  5
133
  8
0
 62
     7
 10
378.0000000000002
 20
43.00000000000004
 30
0.0
 11
767.0
 21
43.00000000000005
 31
0.0
  0
LINE
  5
134
  8
0
 62
     7
 10
767.0
 20
14.99999999999999
 30
0.0
 11
378.0000000000002
 21
15.0
 31
0.0
  0
LINE
  5
135
  8
0
 62
     7
 10
335.0
 20
577.0
 30
0.0
 11
43.00000000000004
 21
577.0
 31
0.0
  0
LINE
  5
136
  8
0
 62
     7
 10
335.0
 20
605.0
 30
0.0
 11
335.0
 21
577.0
 31
0.0
  0
LINE
  5
137
  8
0
 62
     7
 10
43.00000000000005
 20
605.0
 30
0.0
 11
335.0
 21
605.0
 31
0.0
  0
LINE
  5
138
  8
0
 62
     7
 10
43.00000000000001
 20
43.0
 30
0.0
 11
15.00000000000001
 21
43.0
 31
0.0
  0
LINE
  5
139
  8
0
 62
     7
 10
43.00000000000002
 20
577.0
 30
0.0
 11
43.00000000000001
 21
43.00000000000004
 31
0.0
  0
LINE
  5
13A
  8
0
 62
     7
 10
15.0
 20
43.00000000000004
 30
0.0
 11
15.00000000000002
 21
577.0
 31
0.0
  0
LINE
  5
13B
  8
0
 62
     7
 10
335.0
 20
15.00000000000001
 30
0.0
 11
42.99999999999999
 21
15.00000000000001
 31
0.0
  0
LINE
  5
13C
  8
0
 62
     7
 10
335.0
 20
43.00000000000004
 30
0.0
 11
335.0
 21
15.00000000000001
 31
0.0
  0
LINE
  5
13D
  8
0
 62
     7
 10
43.00000000000001
 20
43.00000000000004
 30
0.0
 11
335.0000000000001
 21
43.00000000000004
 31
0.0
  0
LINE
  5
13E
  8
0
 10
-0.0000000000000121
 20
0.0
 30
0.0
 11
0.0000000000000051
 21
620.0
 31
0.0
  0
LINE
  5
13F
  8
0
 10
0.0
 20
-0.0000000000000061
 30
0.0
 11
810.0
 21
-0.0000000000000286
 31
0.0
  0
LINE
  5
140
  8
0
 10
810.0
 20
620.0
 30
0.0
 11
810.0
 21
0.0
 31
0.0
  0
LINE
  5
141
  8
0
 10
810.0
 20
620.0
 30
0.0
 11
0.0
 21
620.0
 31
0.0
  0
LINE
  5
142
  8
0
 62
     7
 10
378.0000000000002
 20
15.0
 30
0.0
 11
378.0000000000002
 21
43.00000000000005
 31
0.0
  0
LINE
  5
143
  8
0
 62
     7
 10
43.00000000000001
 20
43.0
 30
0.0
 11
43.0
 21
15.00000000000001
 31
0.0
  0
LINE
  5
144
  8
0
 62
     7
 10
767.0
 20
43.00000000000006
 30
0.0
 11
767.0
 21
14.99999999999999
 31
0.0
  0
LINE
  5
145
  8
0
 62
     7
 10
15.00000000000001
 20
577.0
 30
0.0
 11
15.00000000000001
 21
605.0
 31
0.0
  0
LINE
  5
146
  8
0
 62
     7
 10
43.00000000000005
 20
605.0
 30
0.0
 11
15.00000000000001
 21
605.0
 31
0.0
  0
LINE
  5
147
  8
0
 62
     7
 10
766.9999999999999
 20
605.0
 30
0.0
 11
795.0
 21
605.0
 31
0.0
  0
LINE
  5
148
  8
0
 62
     7
 10
795.0
 20
605.0
 30
0.0
 11
795.0
 21
577.0
 31
0.0
  0
LINE
  5
149
  8
0
 62
     7
 10
43.00000000000005
 20
577.0
 30
0.0
 11
43.00000000000005
 21
605.0
 31
0.0
  0
LINE
  5
14A
  8
0
 62
     7
 10
767.0000000000001
 20
577.0
 30
0.0
 11
767.0000000000001
 21
605.0
 31
0.0
  0
CIRCLE
  5
14B
  8
0
 10
113.0
 20
540.0
 30
0.0
 40
50.0
  0
ENDSEC
  0
EOF
