  0
SECTION
  2
HEADER
  9
$ACADVER
  1
AC1009
  9
$DWGCODEPAGE
  3
ansi_1252
  9
$INSBASE
 10
0.0
 20
0.0
 30
0.0
  9
$EXTMIN
 10
0.0
 20
-0.0000000000000234
 30
-0.0000000000000272
  9
$EXTMAX
 10
590.0
 20
445.0
 30
0.0
  9
$LIMMIN
 10
0.0
 20
0.0
  9
$LIMMAX
 10
420.0
 20
297.0
  9
$ORTHOMODE
 70
     0
  9
$REGENMODE
 70
     1
  9
$FILLMODE
 70
     1
  9
$QTEXTMODE
 70
     0
  9
$MIRRTEXT
 70
     1
  9
$DRAGMODE
 70
     2
  9
$LTSCALE
 40
1.0
  9
$OSMODE
 70
    37
  9
$ATTMODE
 70
     1
  9
$TEXTSIZE
 40
2.5
  9
$TRACEWID
 40
1.0
  9
$TEXTSTYLE
  7
STANDARD
  9
$CLAYER
  8
0
  9
$CELTYPE
  6
BYLAYER
  9
$CECOLOR
 62
   256
  9
$DIMSCALE
 40
1.0
  9
$DIMASZ
 40
2.5
  9
$DIMEXO
 40
0.625
  9
$DIMDLI
 40
3.75
  9
$DIMRND
 40
0.0
  9
$DIMDLE
 40
0.0
  9
$DIMEXE
 40
1.25
  9
$DIMTP
 40
0.0
  9
$DIMTM
 40
0.0
  9
$DIMTXT
 40
2.5
  9
$DIMCEN
 40
2.5
  9
$DIMTSZ
 40
0.0
  9
$DIMTOL
 70
     0
  9
$DIMLIM
 70
     0
  9
$DIMTIH
 70
     1
  9
$DIMTOH
 70
     0
  9
$DIMSE1
 70
     0
  9
$DIMSE2
 70
     0
  9
$DIMTAD
 70
     1
  9
$DIMZIN
 70
     8
  9
$DIMBLK
  1

  9
$DIMASO
 70
     1
  9
$DIMSHO
 70
     1
  9
$DIMPOST
  1
mm
  9
$DIMAPOST
  1

  9
$DIMALT
 70
     0
  9
$DIMALTD
 70
     3
  9
$DIMALTF
 40
0.0393700787401575
  9
$DIMLFAC
 40
1.0
  9
$DIMTOFL
 70
     1
  9
$DIMTVP
 40
0.0
  9
$DIMTIX
 70
     0
  9
$DIMSOXD
 70
     0
  9
$DIMSAH
 70
     0
  9
$DIMBLK1
  1

  9
$DIMBLK2
  1

  9
$DIMSTYLE
  2
ISO-25
  9
$DIMCLRD
 70
     0
  9
$DIMCLRE
 70
     0
  9
$DIMCLRT
 70
     0
  9
$DIMTFAC
 40
1.0
  9
$DIMGAP
 40
0.625
  9
$LUNITS
 70
     2
  9
$LUPREC
 70
     4
  9
$SKETCHINC
 40
1.0
  9
$FILLETRAD
 40
10.0
  9
$AUNITS
 70
     0
  9
$AUPREC
 70
     0
  9
$MENU
  1
.
  9
$ELEVATION
 40
0.0
  9
$PELEVATION
 40
0.0
  9
$THICKNESS
 40
0.0
  9
$LIMCHECK
 70
     0
  9
$CHAMFERA
 40
0.0
  9
$CHAMFERB
 40
0.0
  9
$SKPOLY
 70
     0
  9
$TDCREATE
 40
2458316.441989386
  9
$TDUPDATE
 40
2458316.441990289
  9
$TDINDWG
 40
0.0000000116
  9
$TDUSRTIMER
 40
0.0000000116
  9
$USRTIMER
 70
     1
  9
$ANGBASE
 50
0.0
  9
$ANGDIR
 70
     0
  9
$PDMODE
 70
     0
  9
$PDSIZE
 40
0.0
  9
$PLINEWID
 40
0.0
  9
$COORDS
 70
     1
  9
$SPLFRAME
 70
     0
  9
$SPLINETYPE
 70
     6
  9
$SPLINESEGS
 70
     8
  9
$ATTDIA
 70
     0
  9
$ATTREQ
 70
     1
  9
$HANDLING
 70
     1
  9
$HANDSEED
  5
131
  9
$SURFTAB1
 70
     6
  9
$SURFTAB2
 70
     6
  9
$SURFTYPE
 70
     6
  9
$SURFU
 70
     6
  9
$SURFV
 70
     6
  9
$UCSNAME
  2

  9
$UCSORG
 10
0.0
 20
0.0
 30
0.0
  9
$UCSXDIR
 10
1.0
 20
0.0
 30
0.0
  9
$UCSYDIR
 10
0.0
 20
1.0
 30
0.0
  9
$PUCSNAME
  2

  9
$PUCSORG
 10
0.0
 20
0.0
 30
0.0
  9
$PUCSXDIR
 10
1.0
 20
0.0
 30
0.0
  9
$PUCSYDIR
 10
0.0
 20
1.0
 30
0.0
  9
$USERI1
 70
     0
  9
$USERI2
 70
     0
  9
$USERI3
 70
     0
  9
$USERI4
 70
     0
  9
$USERI5
 70
     0
  9
$USERR1
 40
0.0
  9
$USERR2
 40
0.0
  9
$USERR3
 40
0.0
  9
$USERR4
 40
0.0
  9
$USERR5
 40
0.0
  9
$WORLDVIEW
 70
     1
  9
$SHADEDGE
 70
     3
  9
$SHADEDIF
 70
    70
  9
$TILEMODE
 70
     1
  9
$MAXACTVP
 70
    64
  9
$PLIMCHECK
 70
     0
  9
$PEXTMIN
 10
1.000000000000000E+20
 20
1.000000000000000E+20
 30
1.000000000000000E+20
  9
$PEXTMAX
 10
-1.000000000000000E+20
 20
-1.000000000000000E+20
 30
-1.000000000000000E+20
  9
$PLIMMIN
 10
0.0
 20
0.0
  9
$PLIMMAX
 10
420.0
 20
297.0
  9
$UNITMODE
 70
     0
  9
$VISRETAIN
 70
     1
  9
$PLINEGEN
 70
     0
  9
$PSLTSCALE
 70
     1
  0
ENDSEC
  0
SECTION
  2
TABLES
  0
TABLE
  2
VPORT
 70
     1
  0
VPORT
  2
*ACTIVE
 70
     0
 10
0.0
 20
0.0
 11
1.0
 21
1.0
 12
295.0
 22
222.5
 13
0.0
 23
0.0
 14
10.0
 24
10.0
 15
10.0
 25
10.0
 16
0.0
 26
0.0
 36
1.0
 17
0.0
 27
0.0
 37
0.0
 40
445.0
 41
1.325842696629213
 42
50.0
 43
0.0
 44
0.0
 50
0.0
 51
0.0
 71
     0
 72
   100
 73
     1
 74
     3
 75
     0
 76
     0
 77
     0
 78
     0
  0
ENDTAB
  0
TABLE
  2
LTYPE
 70
     1
  0
LTYPE
  2
CONTINUOUS
 70
     0
  3
Solid line
 72
    65
 73
     0
 40
0.0
  0
ENDTAB
  0
TABLE
  2
LAYER
 70
     2
  0
LAYER
  2
0
 70
     0
 62
     7
  6
CONTINUOUS
  0
LAYER
  2
DEFPOINTS
 70
     0
 62
     7
  6
CONTINUOUS
  0
ENDTAB
  0
TABLE
  2
STYLE
 70
     2
  0
STYLE
  2
STANDARD
 70
     0
 40
0.0
 41
1.0
 50
0.0
 71
     0
 42
2.5
  3
txt
  4

  0
STYLE
  2
SPACECLAIM_ASME_CB
 70
     0
 40
0.0
 41
1.0
 50
0.0
 71
     0
 42
2.5
  3
SpaceClaim ASME.ttf
  4

  0
ENDTAB
  0
TABLE
  2
VIEW
 70
     0
  0
ENDTAB
  0
TABLE
  2
UCS
 70
     0
  0
ENDTAB
  0
TABLE
  2
APPID
 70
     1
  0
APPID
  2
ACAD
 70
     0
  0
ENDTAB
  0
TABLE
  2
DIMSTYLE
 70
     2
  0
DIMSTYLE
  2
ISO-25
 70
     0
  3

  4

  5

  6

  7

 40
1.0
 41
2.5
 42
0.625
 43
3.75
 44
1.25
 45
0.0
 46
0.0
 47
0.0
 48
0.0
140
2.5
141
2.5
142
0.0
143
0.03937007874016
144
1.0
145
0.0
146
1.0
147
0.625
 71
     0
 72
     0
 73
     0
 74
     0
 75
     0
 76
     0
 77
     1
 78
     8
170
     0
171
     3
172
     1
173
     0
174
     0
175
     0
176
     0
177
     0
178
     0
  0
DIMSTYLE
  2
SPACECLAIM_ASME_CB
 70
     0
  3

  4

  5

  6

  7

 40
1.0
 41
0.18
 42
0.0625
 43
0.38
 44
0.18
 45
0.0
 46
0.0
 47
0.0
 48
0.0
140
0.18
141
0.09
142
0.0
143
25.4
144
1.0
145
0.0
146
1.0
147
0.09
 71
     0
 72
     0
 73
     1
 74
     1
 75
     0
 76
     0
 77
     0
 78
     0
170
     0
171
     2
172
     0
173
     0
174
     0
175
     0
176
     0
177
     0
178
     0
  0
ENDTAB
  0
ENDSEC
  0
SECTION
  2
BLOCKS
  0
BLOCK
  8
0
  2
$MODEL_SPACE
 70
     0
 10
0.0
 20
0.0
 30
0.0
  3
$MODEL_SPACE
  1

  0
ENDBLK
  5
21
  8
0
  0
BLOCK
 67
     1
  8
0
  2
$PAPER_SPACE
 70
     0
 10
0.0
 20
0.0
 30
0.0
  3
$PAPER_SPACE
  1

  0
ENDBLK
  5
1D
 67
     1
  8
0
  0
BLOCK
  8
0
  2
*D1
 70
     1
 10
0.0
 20
0.0
 30
0.0
  3
*D1
  1

  0
LINE
  5
72
  8
0
 62
     7
 10
311.2980736424432
 20
105.8498203497684
 30
0.0
 11
276.0133275257959
 21
105.8498203497684
 31
0.0
  0
LINE
  5
73
  8
0
 62
     7
 10
276.0133275257959
 20
105.8498203497684
 30
0.0
 11
354.0069506128867
 21
185.6659071536053
 31
0.0
  0
LINE
  5
74
  8
0
 62
     7
 10
425.9930493871132
 20
259.3340928463948
 30
0.0
 11
417.2568723514061
 21
250.3937790487261
 31
0.0
  0
LINE
  5
75
  8
0
 62
     7
 10
434.7292264228203
 20
268.2744066440634
 30
0.0
 11
452.2015804942345
 21
286.1550342394007
 31
0.0
  0
TEXT
  5
76
  8
0
  6
CONTINUOUS
 62
     7
 10
311.3880736424431
 20
101.3588203497684
 30
0.0
 40
9.0
  1
Ø128mm
  7
SPACECLAIM_ASME_CB
  0
LINE
  5
77
  8
0
 62
     7
 10
434.7292264228203
 20
268.2744066440634
 30
0.0
 11
345.2707735771796
 21
176.7255933559366
 31
0.0
  0
SOLID
  5
78
  8
0
 62
     7
 10
427.4831016867246
 20
257.8780633404436
 30
0.0
 11
424.5029970875018
 21
260.7901223523459
 31
0.0
 12
434.7292264228203
 22
268.2744066440634
 32
0.0
 13
434.7292264228203
 23
268.2744066440634
 33
0.0
  0
SOLID
  5
79
  8
0
 62
     7
 10
352.5168983132753
 20
187.1219366595565
 30
0.0
 11
355.4970029124981
 21
184.2098776476541
 31
0.0
 12
345.2707735771796
 22
176.7255933559366
 32
0.0
 13
345.2707735771796
 23
176.7255933559366
 33
0.0
  0
POINT
  5
7A
  8
DEFPOINTS
 62
     0
 10
345.2707735771796
 20
176.7255933559366
 30
0.0
  0
POINT
  5
7B
  8
DEFPOINTS
 62
     0
 10
434.7292264228203
 20
268.2744066440634
 30
0.0
  0
ENDBLK
  5
71
  8
0
  0
BLOCK
  8
0
  2
*D2
 70
     1
 10
0.0
 20
0.0
 30
0.0
  3
*D2
  1

  0
LINE
  5
81
  8
0
 62
     7
 10
28.00000000000007
 20
444.9375
 30
0.0
 11
28.00000000000007
 21
232.489063770305
 31
0.0
  0
LINE
  5
82
  8
0
 62
     7
 10
0.0
 20
0.0625
 30
0.0
 11
0.0
 21
232.849063770305
 31
0.0
  0
LINE
  5
83
  8
0
 62
     7
 10
0.0
 20
232.669063770305
 30
0.0
 11
-31.54357584725784
 21
232.669063770305
 31
0.0
  0
LINE
  5
84
  8
0
 62
     7
 10
15.50000000000007
 20
232.669063770305
 30
0.0
 11
12.5
 21
232.669063770305
 31
0.0
  0
SOLID
  5
85
  8
0
 62
     7
 10
15.50000000000007
 20
230.5857304369717
 30
0.0
 11
15.50000000000007
 21
234.7523971036383
 31
0.0
 12
28.00000000000007
 22
232.669063770305
 32
0.0
 13
28.00000000000007
 23
232.669063770305
 33
0.0
  0
SOLID
  5
86
  8
0
 62
     7
 10
12.5
 20
234.7523971036383
 30
0.0
 11
12.5
 21
230.5857304369717
 31
0.0
 12
0.0
 22
232.669063770305
 32
0.0
 13
0.0
 23
232.669063770305
 33
0.0
  0
TEXT
  5
87
  8
0
  6
CONTINUOUS
 62
     7
 10
-59.53357584725784
 20
228.169063770305
 30
0.0
 40
9.0
  1
28mm
  7
SPACECLAIM_ASME_CB
  0
POINT
  5
88
  8
DEFPOINTS
 62
     0
 10
28.00000000000007
 20
445.0
 30
0.0
  0
POINT
  5
89
  8
DEFPOINTS
 62
     0
 10
0.0
 20
0.0
 30
0.0
  0
POINT
  5
8A
  8
DEFPOINTS
 62
     0
 10
0.0
 20
232.669063770305
 30
0.0
  0
ENDBLK
  5
80
  8
0
  0
BLOCK
  8
0
  2
*D3
 70
     1
 10
0.0
 20
0.0
 30
0.0
  3
*D3
  1

  0
LINE
  5
90
  8
0
 62
     7
 10
306.9061922819025
 20
497.8203368703283
 30
0.0
 11
294.4061922819025
 21
497.8203368703283
 31
0.0
  0
LINE
  5
91
  8
0
 62
     7
 10
294.4061922819025
 20
497.8203368703283
 30
0.0
 11
294.4061922819025
 21
417.0
 31
0.0
  0
LINE
  5
92
  8
0
 62
     7
 10
0.0625000000000116
 20
417.0
 30
0.0
 11
294.5861922819025
 21
417.0
 31
0.0
  0
LINE
  5
93
  8
0
 62
     7
 10
589.9375
 20
417.0
 30
0.0
 11
294.2261922819025
 21
417.0
 31
0.0
  0
LINE
  5
94
  8
0
 62
     7
 10
294.4061922819025
 20
429.5
 30
0.0
 11
294.4061922819025
 21
442.0
 31
0.0
  0
SOLID
  5
95
  8
0
 62
     7
 10
296.4895256152358
 20
404.5
 30
0.0
 11
292.3228589485692
 21
404.5
 31
0.0
 12
294.4061922819025
 22
417.0
 32
0.0
 13
294.4061922819025
 23
417.0
 33
0.0
  0
SOLID
  5
96
  8
0
 62
     7
 10
292.3228589485692
 20
429.5
 30
0.0
 11
296.4895256152358
 21
429.5
 31
0.0
 12
294.4061922819025
 22
417.0
 32
0.0
 13
294.4061922819025
 23
417.0
 33
0.0
  0
TEXT
  5
97
  8
0
  6
CONTINUOUS
 62
     7
 10
306.0961922819025
 20
493.3203368703283
 30
0.0
 40
9.0
  1
0mm
  7
SPACECLAIM_ASME_CB
  0
POINT
  5
98
  8
DEFPOINTS
 62
     0
 10
0.0000000000000116
 20
417.0
 30
0.0
  0
POINT
  5
99
  8
DEFPOINTS
 62
     0
 10
590.0
 20
417.0
 30
0.0
  0
POINT
  5
9A
  8
DEFPOINTS
 62
     0
 10
294.4061922819025
 20
417.0000000000001
 30
0.0
  0
ENDBLK
  5
8F
  8
0
  0
BLOCK
  8
0
  2
*D4
 70
     1
 10
0.0
 20
0.0
 30
0.0
  3
*D4
  1

  0
LINE
  5
A0
  8
0
 62
     7
 10
550.9665
 20
378.7158170015571
 30
0.0
 11
563.4665
 21
378.7158170015571
 31
0.0
  0
LINE
  5
A1
  8
0
 62
     7
 10
563.4665
 20
378.7158170015571
 30
0.0
 11
563.4665
 21
417.0
 31
0.0
  0
LINE
  5
A2
  8
0
 62
     7
 10
589.9375
 20
417.0
 30
0.0
 11
563.2865
 21
417.0
 31
0.0
  0
LINE
  5
A3
  8
0
 62
     7
 10
490.0625
 20
431.0
 30
0.0
 11
563.6465
 21
431.0
 31
0.0
  0
LINE
  5
A4
  8
0
 62
     7
 10
563.4665
 20
443.5
 30
0.0
 11
563.4665
 21
456.0
 31
0.0
  0
SOLID
  5
A5
  8
0
 62
     7
 10
565.5498333333334
 20
404.5
 30
0.0
 11
561.3831666666666
 21
404.5
 31
0.0
 12
563.4665
 22
417.0
 32
0.0
 13
563.4665
 23
417.0
 33
0.0
  0
SOLID
  5
A6
  8
0
 62
     7
 10
561.3831666666666
 20
443.5
 30
0.0
 11
565.5498333333334
 21
443.5
 31
0.0
 12
563.4665
 22
431.0
 32
0.0
 13
563.4665
 23
431.0
 33
0.0
  0
TEXT
  5
A7
  8
0
  6
CONTINUOUS
 62
     7
 10
524.7764999999999
 20
374.2158170015571
 30
0.0
 40
9.0
  1
14mm
  7
SPACECLAIM_ASME_CB
  0
POINT
  5
A8
  8
DEFPOINTS
 62
     0
 10
590.0
 20
417.0
 30
0.0
  0
POINT
  5
A9
  8
DEFPOINTS
 62
     0
 10
490.0
 20
431.0
 30
0.0
  0
POINT
  5
AA
  8
DEFPOINTS
 62
     0
 10
563.4665
 20
431.0
 30
0.0
  0
ENDBLK
  5
9F
  8
0
  0
BLOCK
  8
0
  2
*D5
 70
     1
 10
0.0
 20
0.0
 30
0.0
  3
*D5
  1

  0
LINE
  5
B0
  8
0
 62
     7
 10
490.0
 20
430.9375
 30
0.0
 11
490.0
 21
392.7082010774021
 31
0.0
  0
LINE
  5
B1
  8
0
 62
     7
 10
490.0
 20
444.9375
 30
0.0
 11
490.0
 21
392.7082010774021
 31
0.0
  0
LINE
  5
B2
  8
0
 62
     7
 10
490.0
 20
392.8882010774021
 30
0.0
 11
465.0
 21
392.8882010774021
 31
0.0
  0
LINE
  5
B3
  8
0
 62
     7
 10
502.5
 20
392.8882010774021
 30
0.0
 11
515.0
 21
392.8882010774021
 31
0.0
  0
LINE
  5
B4
  8
0
 62
     7
 10
477.5
 20
392.8882010774021
 30
0.0
 11
465.0
 21
392.8882010774021
 31
0.0
  0
SOLID
  5
B5
  8
0
 62
     7
 10
502.5
 20
394.9715344107354
 30
0.0
 11
502.5
 21
390.8048677440688
 31
0.0
 12
490.0
 22
392.8882010774021
 32
0.0
 13
490.0
 23
392.8882010774021
 33
0.0
  0
SOLID
  5
B6
  8
0
 62
     7
 10
477.5
 20
390.8048677440688
 30
0.0
 11
477.5
 21
394.9715344107354
 31
0.0
 12
490.0
 22
392.8882010774021
 32
0.0
 13
490.0
 23
392.8882010774021
 33
0.0
  0
TEXT
  5
B7
  8
0
  6
CONTINUOUS
 62
     7
 10
443.31
 20
388.3882010774021
 30
0.0
 40
9.0
  1
0mm
  7
SPACECLAIM_ASME_CB
  0
POINT
  5
B8
  8
DEFPOINTS
 62
     0
 10
490.0
 20
431.0
 30
0.0
  0
POINT
  5
B9
  8
DEFPOINTS
 62
     0
 10
490.0
 20
445.0
 30
0.0
  0
POINT
  5
BA
  8
DEFPOINTS
 62
     0
 10
490.0
 20
392.8882010774021
 30
0.0
  0
ENDBLK
  5
AF
  8
0
  0
BLOCK
  8
0
  2
*D6
 70
     1
 10
0.0
 20
0.0
 30
0.0
  3
*D6
  1

  0
LINE
  5
C0
  8
0
 62
     7
 10
440.8820348937255
 20
355.1018174360762
 30
0.0
 11
453.3820348937255
 21
355.1018174360762
 31
0.0
  0
LINE
  5
C1
  8
0
 62
     7
 10
453.3820348937255
 20
355.1018174360762
 30
0.0
 11
493.9107894775851
 21
439.1059068377332
 31
0.0
  0
LINE
  5
C2
  8
0
 62
     7
 10
486.0892105224149
 20
422.8940931622668
 30
0.0
 11
480.6575584702134
 21
411.6358892209707
 31
0.0
  0
LINE
  5
C3
  8
0
 62
     7
 10
491.5208625746164
 20
434.1522971035629
 30
0.0
 11
502.3841666790194
 21
456.6687049861551
 31
0.0
  0
TEXT
  5
C4
  8
0
  6
CONTINUOUS
 62
     7
 10
411.9920348937256
 20
350.6198174360762
 30
0.0
 40
9.0
  1
Ø7mm
  7
SPACECLAIM_ASME_CB
  0
LINE
  5
C5
  8
0
 62
     7
 10
491.5208625746164
 20
434.1522971035629
 30
0.0
 11
488.4791374253836
 21
427.8477028964371
 31
0.0
  0
SOLID
  5
C6
  8
0
 62
     7
 10
487.9655778459642
 20
421.9888178202332
 30
0.0
 11
484.2128431988655
 21
423.7993685043004
 31
0.0
 12
491.5208625746164
 22
434.1522971035629
 32
0.0
 13
491.5208625746164
 23
434.1522971035629
 33
0.0
  0
SOLID
  5
C7
  8
0
 62
     7
 10
492.0344221540357
 20
440.0111821797668
 30
0.0
 11
495.7871568011344
 21
438.2006314956996
 31
0.0
 12
488.4791374253836
 22
427.8477028964371
 32
0.0
 13
488.4791374253836
 23
427.8477028964371
 33
0.0
  0
POINT
  5
C8
  8
DEFPOINTS
 62
     0
 10
488.4791374253836
 20
427.8477028964371
 30
0.0
  0
POINT
  5
C9
  8
DEFPOINTS
 62
     0
 10
491.5208625746164
 20
434.1522971035629
 30
0.0
  0
ENDBLK
  5
BF
  8
0
  0
BLOCK
  8
0
  2
*D7
 70
     1
 10
0.0
 20
0.0
 30
0.0
  3
*D7
  1

  0
LINE
  5
CF
  8
0
 62
     7
 10
589.9375
 20
43.63904395759004
 30
0.0
 11
538.0965
 21
43.63904395759003
 31
0.0
  0
LINE
  5
D0
  8
0
 62
     7
 10
490.0625
 20
13.99999999999998
 30
0.0
 11
538.4564999999999
 21
13.99999999999998
 31
0.0
  0
LINE
  5
D1
  8
0
 62
     7
 10
538.2764999999999
 20
56.13904395759003
 30
0.0
 11
538.2764999999999
 21
68.63904395759003
 31
0.0
  0
LINE
  5
D2
  8
0
 62
     7
 10
538.2764999999999
 20
1.499999999999982
 30
0.0
 11
538.2764999999999
 21
-11.00000000000002
 31
0.0
  0
SOLID
  5
D3
  8
0
 62
     7
 10
536.1931666666666
 20
56.13904395759003
 30
0.0
 11
540.3598333333333
 21
56.13904395759003
 31
0.0
 12
538.2764999999999
 22
43.63904395759003
 32
0.0
 13
538.2764999999999
 23
43.63904395759003
 33
0.0
  0
SOLID
  5
D4
  8
0
 62
     7
 10
540.3598333333333
 20
1.499999999999982
 30
0.0
 11
536.1931666666666
 21
1.499999999999982
 31
0.0
 12
538.2764999999999
 22
13.99999999999998
 32
0.0
 13
538.2764999999999
 23
13.99999999999998
 33
0.0
  0
TEXT
  5
D5
  8
0
  6
CONTINUOUS
 62
     7
 10
513.081
 20
40.05704395759003
 30
0.0
 40
9.0
  1
29,639mm
  7
SPACECLAIM_ASME_CB
  0
POINT
  5
D6
  8
DEFPOINTS
 62
     0
 10
590.0
 20
43.63904395759004
 30
0.0
  0
POINT
  5
D7
  8
DEFPOINTS
 62
     0
 10
490.0
 20
13.99999999999998
 30
0.0
  0
POINT
  5
D8
  8
DEFPOINTS
 62
     0
 10
538.2764999999999
 20
13.99999999999998
 30
0.0
  0
ENDBLK
  5
CE
  8
0
  0
BLOCK
  8
0
  2
*D8
 70
     1
 10
0.0
 20
0.0
 30
0.0
  3
*D8
  1

  0
LINE
  5
DE
  8
0
 62
     7
 10
490.0
 20
0.0624999999999801
 30
0.0
 11
490.0
 21
55.31948183871248
 31
0.0
  0
LINE
  5
DF
  8
0
 62
     7
 10
490.0
 20
14.06249999999998
 30
0.0
 11
490.0
 21
55.31948183871248
 31
0.0
  0
LINE
  5
E0
  8
0
 62
     7
 10
490.0
 20
55.13948183871248
 30
0.0
 11
465.0
 21
55.13948183871248
 31
0.0
  0
LINE
  5
E1
  8
0
 62
     7
 10
502.5
 20
55.13948183871248
 30
0.0
 11
515.0
 21
55.13948183871248
 31
0.0
  0
LINE
  5
E2
  8
0
 62
     7
 10
477.5
 20
55.13948183871248
 30
0.0
 11
465.0
 21
55.13948183871248
 31
0.0
  0
SOLID
  5
E3
  8
0
 62
     7
 10
502.5
 20
57.22281517204581
 30
0.0
 11
502.5
 21
53.05614850537914
 31
0.0
 12
490.0
 22
55.13948183871248
 32
0.0
 13
490.0
 23
55.13948183871248
 33
0.0
  0
SOLID
  5
E4
  8
0
 62
     7
 10
477.5
 20
53.05614850537914
 30
0.0
 11
477.5
 21
57.22281517204581
 31
0.0
 12
490.0
 22
55.13948183871248
 32
0.0
 13
490.0
 23
55.13948183871248
 33
0.0
  0
TEXT
  5
E5
  8
0
  6
CONTINUOUS
 62
     7
 10
443.31
 20
50.63948183871248
 30
0.0
 40
9.0
  1
0mm
  7
SPACECLAIM_ASME_CB
  0
POINT
  5
E6
  8
DEFPOINTS
 62
     0
 10
490.0
 20
-0.0000000000000199
 30
0.0
  0
POINT
  5
E7
  8
DEFPOINTS
 62
     0
 10
490.0
 20
13.99999999999998
 30
0.0
  0
POINT
  5
E8
  8
DEFPOINTS
 62
     0
 10
490.0
 20
55.13948183871248
 30
0.0
  0
ENDBLK
  5
DD
  8
0
  0
BLOCK
  8
0
  2
*D9
 70
     1
 10
0.0
 20
0.0
 30
0.0
  3
*D9
  1

  0
LINE
  5
EE
  8
0
 62
     7
 10
435.9574884211795
 20
93.09565775051277
 30
0.0
 11
448.4574884211795
 21
93.09565775051277
 31
0.0
  0
LINE
  5
EF
  8
0
 62
     7
 10
448.4574884211795
 20
93.09565775051277
 30
0.0
 11
494.1848705332175
 21
6.032135880914595
 31
0.0
  0
LINE
  5
F0
  8
0
 62
     7
 10
485.8151294667825
 20
21.96786411908536
 30
0.0
 11
480.0028092817583
 21
33.03434206225951
 31
0.0
  0
LINE
  5
F1
  8
0
 62
     7
 10
491.6274496518068
 20
10.90138617591121
 30
0.0
 11
503.2520900218552
 21
-11.23156971043708
 31
0.0
  0
TEXT
  5
F2
  8
0
  6
CONTINUOUS
 62
     7
 10
407.0674884211796
 20
88.61365775051277
 30
0.0
 40
9.0
  1
Ø7mm
  7
SPACECLAIM_ASME_CB
  0
LINE
  5
F3
  8
0
 62
     7
 10
491.6274496518068
 20
10.90138617591121
 30
0.0
 11
488.3725503481932
 21
17.09861382408874
 31
0.0
  0
SOLID
  5
F4
  8
0
 62
     7
 10
483.9707164762535
 20
20.99914408824799
 30
0.0
 11
487.6595424573115
 21
22.93658414992273
 31
0.0
 12
491.6274496518068
 22
10.90138617591121
 32
0.0
 13
491.6274496518068
 23
10.90138617591121
 33
0.0
  0
SOLID
  5
F5
  8
0
 62
     7
 10
496.0292835237465
 20
7.000855911751966
 30
0.0
 11
492.3404575426885
 21
5.063415850077224
 31
0.0
 12
488.3725503481932
 22
17.09861382408874
 32
0.0
 13
488.3725503481932
 23
17.09861382408874
 33
0.0
  0
POINT
  5
F6
  8
DEFPOINTS
 62
     0
 10
488.3725503481932
 20
17.09861382408874
 30
0.0
  0
POINT
  5
F7
  8
DEFPOINTS
 62
     0
 10
491.6274496518068
 20
10.90138617591121
 30
0.0
  0
ENDBLK
  5
ED
  8
0
  0
BLOCK
  8
0
  2
*D10
 70
     1
 10
0.0
 20
0.0
 30
0.0
  3
*D10
  1

  0
LINE
  5
FD
  8
0
 62
     7
 10
0.062500000000011
 20
396.4840309965361
 30
0.0
 11
12.45650000000004
 21
396.4840309965361
 31
0.0
  0
LINE
  5
FE
  8
0
 62
     7
 10
27.93750000000006
 20
417.0
 30
0.0
 11
12.09650000000004
 21
417.0
 31
0.0
  0
LINE
  5
FF
  8
0
 62
     7
 10
12.27650000000003
 20
383.9840309965361
 30
0.0
 11
12.27650000000003
 21
371.4840309965361
 31
0.0
  0
LINE
  5
100
  8
0
 62
     7
 10
12.27650000000004
 20
429.5
 30
0.0
 11
12.27650000000004
 21
442.0
 31
0.0
  0
SOLID
  5
101
  8
0
 62
     7
 10
14.35983333333337
 20
383.9840309965361
 30
0.0
 11
10.1931666666667
 21
383.9840309965361
 31
0.0
 12
12.27650000000004
 22
396.4840309965361
 32
0.0
 13
12.27650000000004
 23
396.4840309965361
 33
0.0
  0
SOLID
  5
102
  8
0
 62
     7
 10
10.19316666666671
 20
429.5
 30
0.0
 11
14.35983333333337
 21
429.5
 31
0.0
 12
12.27650000000004
 22
417.0
 32
0.0
 13
12.27650000000004
 23
417.0
 33
0.0
  0
TEXT
  5
103
  8
0
  6
CONTINUOUS
 62
     7
 10
-12.01899999999997
 20
392.9020309965362
 30
0.0
 40
9.0
  1
20,516mm
  7
SPACECLAIM_ASME_CB
  0
POINT
  5
104
  8
DEFPOINTS
 62
     0
 10
0.000000000000011
 20
396.4840309965361
 30
0.0
  0
POINT
  5
105
  8
DEFPOINTS
 62
     0
 10
28.00000000000006
 20
417.0
 30
0.0
  0
POINT
  5
106
  8
DEFPOINTS
 62
     0
 10
12.27650000000004
 20
417.0
 30
0.0
  0
ENDBLK
  5
FC
  8
0
  0
BLOCK
  8
0
  2
*D11
 70
     1
 10
0.0
 20
0.0
 30
0.0
  3
*D11
  1

  0
LINE
  5
10C
  8
0
 62
     7
 10
28.00000000000006
 20
416.9375
 30
0.0
 11
28.00000000000006
 21
376.0843577108701
 31
0.0
  0
LINE
  5
10D
  8
0
 62
     7
 10
80.2485991883151
 20
444.9375
 30
0.0
 11
80.2485991883151
 21
376.0843577108701
 31
0.0
  0
LINE
  5
10E
  8
0
 62
     7
 10
15.50000000000006
 20
376.2643577108701
 30
0.0
 11
3.000000000000057
 21
376.2643577108701
 31
0.0
  0
LINE
  5
10F
  8
0
 62
     7
 10
92.7485991883151
 20
376.2643577108701
 30
0.0
 11
105.2485991883151
 21
376.2643577108701
 31
0.0
  0
SOLID
  5
110
  8
0
 62
     7
 10
15.50000000000006
 20
374.1810243775368
 30
0.0
 11
15.50000000000006
 21
378.3476910442034
 31
0.0
 12
28.00000000000006
 22
376.2643577108701
 32
0.0
 13
28.00000000000006
 23
376.2643577108701
 33
0.0
  0
SOLID
  5
111
  8
0
 62
     7
 10
92.7485991883151
 20
378.3476910442034
 30
0.0
 11
92.7485991883151
 21
374.1810243775368
 31
0.0
 12
80.2485991883151
 22
376.2643577108701
 32
0.0
 13
80.2485991883151
 23
376.2643577108701
 33
0.0
  0
TEXT
  5
112
  8
0
  6
CONTINUOUS
 62
     7
 10
53.32509918831513
 20
372.6823577108701
 30
0.0
 40
9.0
  1
52,249mm
  7
SPACECLAIM_ASME_CB
  0
POINT
  5
113
  8
DEFPOINTS
 62
     0
 10
28.00000000000006
 20
417.0
 30
0.0
  0
POINT
  5
114
  8
DEFPOINTS
 62
     0
 10
80.2485991883151
 20
445.0
 30
0.0
  0
POINT
  5
115
  8
DEFPOINTS
 62
     0
 10
80.24859918831511
 20
376.2643577108701
 30
0.0
  0
ENDBLK
  5
10B
  8
0
  0
ENDSEC
  0
SECTION
  2
ENTITIES
  0
DIMENSION
  5
6A
  8
0
 62
     7
  2
*D1
 10
434.7292264228203
 20
268.2744066440634
 30
-0.0000000000000164
 11
331.1880736424432
 21
105.8498203497684
 31
-0.0000000000000065
 70
   163
  1
{\fSpaceClaim ASME CB|b0|i0;<>}
  3
SPACECLAIM_ASME_CB
 15
345.2707735771796
 25
176.7255933559366
 35
-0.0000000000000108
 40
0.0
1001
ACAD
1000
DSTYLE
1002
{
1070
   270
1070
     2
1070
     7
1000

1070
     6
1000

1070
   144
1040
1.0
1070
     4
1000
in
1070
   273
1070
     2
1070
   277
1070
     2
1070
   284
1070
     8
1070
   285
1070
     0
1070
    78
1070
     8
1070
   171
1070
     3
1070
   274
1070
     3
1070
   278
1070
    44
1070
    74
1070
     1
1070
   174
1070
     1
1070
    77
1070
     0
1070
    41
1040
12.5
1070
   173
1070
     1
1070
   140
1040
9.0
1070
   178
1070
     7
1070
   177
1070
     7
1070
   176
1070
     7
1070
   172
1070
     1
1070
   141
1040
0.0
1070
   179
1070
     1
1070
   143
1040
0.0393700787401575
1070
   286
1070
     8
1070
   271
1070
     3
1070
     3
1000
mm
1070
   272
1070
     3
1070
    73
1070
     1
1002
}
  0
DIMENSION
  5
7C
  8
0
 62
     7
  2
*D2
 10
0.0
 20
232.669063770305
 30
-0.0000000000000142
 11
-45.13807584725784
 21
232.669063770305
 31
-0.0000000000000142
 70
   160
  1
{\fSpaceClaim ASME CB|b0|i0;<>}
  3
SPACECLAIM_ASME_CB
 13
28.00000000000007
 23
445.0
 33
-0.0000000000000272
 14
0.0
 24
0.0
 34
0.0
1001
ACAD
1000
DSTYLE
1002
{
1070
   270
1070
     2
1070
     7
1000

1070
     6
1000

1070
   144
1040
1.0
1070
     4
1000
in
1070
   273
1070
     2
1070
   277
1070
     2
1070
   284
1070
     8
1070
   285
1070
     0
1070
    78
1070
     8
1070
   171
1070
     3
1070
   274
1070
     3
1070
   278
1070
    44
1070
    74
1070
     1
1070
   174
1070
     1
1070
    77
1070
     0
1070
    41
1040
12.5
1070
   173
1070
     1
1070
   140
1040
9.0
1070
   178
1070
     7
1070
   177
1070
     7
1070
   176
1070
     7
1070
   179
1070
     1
1070
   143
1040
0.0393700787401575
1070
   286
1070
     8
1070
   271
1070
     3
1070
     3
1000
mm
1070
   272
1070
     3
1070
    73
1070
     1
1002
}
  0
DIMENSION
  5
8B
  8
0
 62
     7
  2
*D3
 10
294.4061922819025
 20
417.0
 30
-0.0000000000000305
 11
317.3461922819025
 21
497.8203368703283
 31
-0.0000000000000305
 70
   160
  1
{\fSpaceClaim ASME CB|b0|i0;<>}
  3
SPACECLAIM_ASME_CB
 13
0.0000000000000116
 23
417.0
 33
-0.0000000000000255
 14
590.0
 24
417.0
 34
-0.0000000000000255
 50
90.0
1001
ACAD
1000
DSTYLE
1002
{
1070
   270
1070
     2
1070
     7
1000

1070
     6
1000

1070
   144
1040
1.0
1070
     4
1000
in
1070
   273
1070
     2
1070
   277
1070
     2
1070
   284
1070
     8
1070
   285
1070
     0
1070
    78
1070
     8
1070
   171
1070
     3
1070
   274
1070
     3
1070
   278
1070
    44
1070
    74
1070
     1
1070
   174
1070
     1
1070
    77
1070
     0
1070
    41
1040
12.5
1070
   173
1070
     1
1070
   140
1040
9.0
1070
   178
1070
     7
1070
   177
1070
     7
1070
   176
1070
     7
1070
   179
1070
     1
1070
   143
1040
0.0393700787401575
1070
   286
1070
     8
1070
   271
1070
     3
1070
     3
1000
mm
1070
   272
1070
     3
1070
    73
1070
     1
1002
}
  0
DIMENSION
  5
9B
  8
0
 62
     7
  2
*D4
 10
563.4665
 20
431.0
 30
-0.0000000000000232
 11
538.2764999999999
 21
378.7158170015571
 31
-0.0000000000000232
 70
   160
  1
{\fSpaceClaim ASME CB|b0|i0;<>}
  3
SPACECLAIM_ASME_CB
 13
590.0
 23
417.0
 33
-0.0000000000000255
 14
490.0
 24
431.0
 34
-0.0000000000000264
 50
-90.0
1001
ACAD
1000
DSTYLE
1002
{
1070
   270
1070
     2
1070
     7
1000

1070
     6
1000

1070
   144
1040
1.0
1070
     4
1000
in
1070
   273
1070
     2
1070
   277
1070
     2
1070
   284
1070
     8
1070
   285
1070
     0
1070
    78
1070
     8
1070
   171
1070
     3
1070
   274
1070
     3
1070
   278
1070
    44
1070
    74
1070
     1
1070
   174
1070
     1
1070
    77
1070
     0
1070
    41
1040
12.5
1070
   173
1070
     1
1070
   140
1040
9.0
1070
   178
1070
     7
1070
   177
1070
     7
1070
   176
1070
     7
1070
   179
1070
     1
1070
   143
1040
0.0393700787401575
1070
   286
1070
     8
1070
   271
1070
     3
1070
     3
1000
mm
1070
   272
1070
     3
1070
    73
1070
     1
1002
}
  0
DIMENSION
  5
AB
  8
0
 62
     7
  2
*D5
 10
490.0
 20
392.8882010774021
 30
-0.0000000000000241
 11
454.56
 21
392.8882010774021
 31
-0.0000000000000241
 70
   160
  1
{\fSpaceClaim ASME CB|b0|i0;<>}
  3
SPACECLAIM_ASME_CB
 13
490.0
 23
431.0
 33
-0.0000000000000264
 14
490.0
 24
445.0
 34
-0.0000000000000272
 50
180.0
1001
ACAD
1000
DSTYLE
1002
{
1070
   270
1070
     2
1070
     7
1000

1070
     6
1000

1070
   144
1040
1.0
1070
     4
1000
in
1070
   273
1070
     2
1070
   277
1070
     2
1070
   284
1070
     8
1070
   285
1070
     0
1070
    78
1070
     8
1070
   171
1070
     3
1070
   274
1070
     3
1070
   278
1070
    44
1070
    74
1070
     1
1070
   174
1070
     1
1070
    77
1070
     0
1070
    41
1040
12.5
1070
   173
1070
     1
1070
   140
1040
9.0
1070
   178
1070
     7
1070
   177
1070
     7
1070
   176
1070
     7
1070
   179
1070
     1
1070
   143
1040
0.0393700787401575
1070
   286
1070
     8
1070
   271
1070
     3
1070
     3
1000
mm
1070
   272
1070
     3
1070
    73
1070
     1
1002
}
  0
DIMENSION
  5
BB
  8
0
 62
     7
  2
*D6
 10
491.5208625746164
 20
434.1522971035629
 30
-0.0000000000000266
 11
426.3920348937256
 21
355.1018174360762
 31
-0.0000000000000217
 70
   163
  1
{\fSpaceClaim ASME CB|b0|i0;<>}
  3
SPACECLAIM_ASME_CB
 15
488.4791374253836
 25
427.8477028964371
 35
-0.0000000000000262
 40
0.0
1001
ACAD
1000
DSTYLE
1002
{
1070
   270
1070
     2
1070
     7
1000

1070
     6
1000

1070
   144
1040
1.0
1070
     4
1000
in
1070
   273
1070
     2
1070
   277
1070
     2
1070
   284
1070
     8
1070
   285
1070
     0
1070
    78
1070
     8
1070
   171
1070
     3
1070
   274
1070
     3
1070
   278
1070
    44
1070
    74
1070
     1
1070
   174
1070
     1
1070
    77
1070
     0
1070
    41
1040
12.5
1070
   173
1070
     1
1070
   140
1040
9.0
1070
   178
1070
     7
1070
   177
1070
     7
1070
   176
1070
     7
1070
   172
1070
     1
1070
   141
1040
0.0
1070
   179
1070
     1
1070
   143
1040
0.0393700787401575
1070
   286
1070
     8
1070
   271
1070
     3
1070
     3
1000
mm
1070
   272
1070
     3
1070
    73
1070
     1
1002
}
  0
DIMENSION
  5
CA
  8
0
 62
     7
  2
*D7
 10
538.2764999999999
 20
13.99999999999998
 30
-0.0000000000000027
 11
538.2764999999999
 21
43.63904395759003
 31
-0.0000000000000027
 70
   160
  1
{\fSpaceClaim ASME CB|b0|i0;<>}
  3
SPACECLAIM_ASME_CB
 13
590.0
 23
43.63904395759004
 33
-0.0000000000000027
 14
490.0
 24
13.99999999999998
 34
-0.0000000000000009
 50
-90.0
1001
ACAD
1000
DSTYLE
1002
{
1070
   270
1070
     2
1070
     7
1000

1070
     6
1000

1070
   144
1040
1.0
1070
     4
1000
in
1070
   273
1070
     2
1070
   277
1070
     2
1070
   284
1070
     8
1070
   285
1070
     0
1070
    78
1070
     8
1070
   171
1070
     3
1070
   274
1070
     3
1070
   278
1070
    44
1070
    74
1070
     1
1070
   174
1070
     1
1070
    77
1070
     0
1070
    41
1040
12.5
1070
   173
1070
     1
1070
   140
1040
9.0
1070
   178
1070
     7
1070
   177
1070
     7
1070
   176
1070
     7
1070
   179
1070
     1
1070
   143
1040
0.0393700787401575
1070
   286
1070
     8
1070
   271
1070
     3
1070
     3
1000
mm
1070
   272
1070
     3
1070
    73
1070
     1
1002
}
  0
DIMENSION
  5
D9
  8
0
 62
     7
  2
*D8
 10
490.0
 20
55.13948183871248
 30
-0.0000000000000034
 11
454.56
 21
55.13948183871248
 31
-0.0000000000000034
 70
   160
  1
{\fSpaceClaim ASME CB|b0|i0;<>}
  3
SPACECLAIM_ASME_CB
 13
490.0
 23
-0.0000000000000199
 33
0.0
 14
490.0
 24
13.99999999999998
 34
-0.0000000000000009
 50
180.0
1001
ACAD
1000
DSTYLE
1002
{
1070
   270
1070
     2
1070
     7
1000

1070
     6
1000

1070
   144
1040
1.0
1070
     4
1000
in
1070
   273
1070
     2
1070
   277
1070
     2
1070
   284
1070
     8
1070
   285
1070
     0
1070
    78
1070
     8
1070
   171
1070
     3
1070
   274
1070
     3
1070
   278
1070
    44
1070
    74
1070
     1
1070
   174
1070
     1
1070
    77
1070
     0
1070
    41
1040
12.5
1070
   173
1070
     1
1070
   140
1040
9.0
1070
   178
1070
     7
1070
   177
1070
     7
1070
   176
1070
     7
1070
   179
1070
     1
1070
   143
1040
0.0393700787401575
1070
   286
1070
     8
1070
   271
1070
     3
1070
     3
1000
mm
1070
   272
1070
     3
1070
    73
1070
     1
1002
}
  0
DIMENSION
  5
E9
  8
0
 62
     7
  2
*D9
 10
491.6274496518068
 20
10.90138617591121
 30
-0.0000000000000007
 11
421.4674884211796
 21
93.09565775051277
 31
-0.0000000000000057
 70
   163
  1
{\fSpaceClaim ASME CB|b0|i0;<>}
  3
SPACECLAIM_ASME_CB
 15
488.3725503481932
 25
17.09861382408874
 35
-0.000000000000001
 40
0.0
1001
ACAD
1000
DSTYLE
1002
{
1070
   270
1070
     2
1070
     7
1000

1070
     6
1000

1070
   144
1040
1.0
1070
     4
1000
in
1070
   273
1070
     2
1070
   277
1070
     2
1070
   284
1070
     8
1070
   285
1070
     0
1070
    78
1070
     8
1070
   171
1070
     3
1070
   274
1070
     3
1070
   278
1070
    44
1070
    74
1070
     1
1070
   174
1070
     1
1070
    77
1070
     0
1070
    41
1040
12.5
1070
   173
1070
     1
1070
   140
1040
9.0
1070
   178
1070
     7
1070
   177
1070
     7
1070
   176
1070
     7
1070
   172
1070
     1
1070
   141
1040
0.0
1070
   179
1070
     1
1070
   143
1040
0.0393700787401575
1070
   286
1070
     8
1070
   271
1070
     3
1070
     3
1000
mm
1070
   272
1070
     3
1070
    73
1070
     1
1002
}
  0
DIMENSION
  5
F8
  8
0
 62
     7
  2
*D10
 10
12.27650000000004
 20
417.0
 30
-0.0000000000000243
 11
12.27650000000004
 21
396.4840309965361
 31
-0.0000000000000243
 70
   160
  1
{\fSpaceClaim ASME CB|b0|i0;<>}
  3
SPACECLAIM_ASME_CB
 13
0.000000000000011
 23
396.4840309965361
 33
-0.0000000000000243
 14
28.00000000000006
 24
417.0
 34
-0.0000000000000255
 50
90.0
1001
ACAD
1000
DSTYLE
1002
{
1070
   270
1070
     2
1070
     7
1000

1070
     6
1000

1070
   144
1040
1.0
1070
     4
1000
in
1070
   273
1070
     2
1070
   277
1070
     2
1070
   284
1070
     8
1070
   285
1070
     0
1070
    78
1070
     8
1070
   171
1070
     3
1070
   274
1070
     3
1070
   278
1070
    44
1070
    74
1070
     1
1070
   174
1070
     1
1070
    77
1070
     0
1070
    41
1040
12.5
1070
   173
1070
     1
1070
   140
1040
9.0
1070
   178
1070
     7
1070
   177
1070
     7
1070
   176
1070
     7
1070
   179
1070
     1
1070
   143
1040
0.0393700787401575
1070
   286
1070
     8
1070
   271
1070
     3
1070
     3
1000
mm
1070
   272
1070
     3
1070
    73
1070
     1
1002
}
  0
DIMENSION
  5
107
  8
0
 62
     7
  2
*D11
 10
80.2485991883151
 20
376.2643577108701
 30
-0.000000000000023
 11
78.52509918831512
 21
376.2643577108701
 31
-0.000000000000023
 70
   160
  1
{\fSpaceClaim ASME CB|b0|i0;<>}
  3
SPACECLAIM_ASME_CB
 13
28.00000000000006
 23
417.0
 33
-0.0000000000000255
 14
80.2485991883151
 24
445.0
 34
-0.0000000000000272
 50
-180.0
1001
ACAD
1000
DSTYLE
1002
{
1070
   270
1070
     2
1070
     7
1000

1070
     6
1000

1070
   144
1040
1.0
1070
     4
1000
in
1070
   273
1070
     2
1070
   277
1070
     2
1070
   284
1070
     8
1070
   285
1070
     0
1070
    78
1070
     8
1070
   171
1070
     3
1070
   274
1070
     3
1070
   278
1070
    44
1070
    74
1070
     1
1070
   174
1070
     1
1070
    77
1070
     0
1070
    41
1040
12.5
1070
   173
1070
     1
1070
   140
1040
9.0
1070
   178
1070
     7
1070
   177
1070
     7
1070
   176
1070
     7
1070
   179
1070
     1
1070
   143
1040
0.0393700787401575
1070
   286
1070
     8
1070
   271
1070
     3
1070
     3
1000
mm
1070
   272
1070
     3
1070
    73
1070
     1
1002
}
  0
LINE
  5
116
  8
0
 10
0.0
 20
0.0
 30
0.0
 11
0.0000000000000116
 21
417.0
 31
0.0
  0
LINE
  5
117
  8
0
 10
28.00000000000006
 20
445.0
 30
0.0
 11
390.0000000000001
 21
445.0
 31
0.0
  0
LINE
  5
118
  8
0
 10
389.9999999999999
 20
-0.0000000000000108
 30
0.0
 11
0.0
 21
0.0
 31
0.0
  0
LINE
  5
119
  8
0
 10
490.0
 20
-0.0000000000000199
 30
0.0
 11
389.9999999999999
 21
-0.0000000000000234
 31
0.0
  0
LINE
  5
11A
  8
0
 10
389.9999999999999
 20
445.0
 30
0.0
 11
490.0
 21
445.0
 31
0.0
  0
CIRCLE
  5
11B
  8
0
 10
389.9999999999999
 20
222.5
 30
0.0
 40
64.0
  0
LINE
  5
11C
  8
0
 10
590.0
 20
417.0
 30
0.0
 11
590.0
 21
14.00000000000001
 31
0.0
  0
LINE
  5
11D
  8
0
 10
562.0
 20
445.0
 30
0.0
 11
490.0
 21
445.0
 31
0.0
  0
LINE
  5
11E
  8
0
 10
590.0
 20
13.99999999999998
 30
0.0
 11
590.0
 21
-0.0000000000000226
 31
0.0
  0
LINE
  5
11F
  8
0
 10
590.0
 20
-0.0000000000000226
 30
0.0
 11
490.0
 21
-0.0000000000000199
 31
0.0
  0
CIRCLE
  5
120
  8
0
 10
490.0
 20
431.0
 30
0.0
 40
3.5
  0
CIRCLE
  5
121
  8
0
 10
490.0
 20
13.99999999999998
 30
0.0
 40
3.5
  0
LINE
  5
122
  8
0
 10
0.0000000000000116
 20
417.0
 30
0.0
 11
28.00000000000006
 21
417.0
 31
0.0
  0
LINE
  5
123
  8
0
 10
28.00000000000006
 20
417.0
 30
0.0
 11
28.00000000000006
 21
445.0
 31
0.0
  0
LINE
  5
124
  8
0
 10
590.0
 20
417.0
 30
0.0
 11
562.0
 21
417.0
 31
0.0
  0
LINE
  5
125
  8
0
 10
562.0
 20
417.0
 30
0.0
 11
562.0
 21
445.0
 31
0.0
  0
ENDSEC
  0
EOF
