  0
SECTION
  2
HEADER
  9
$ACADVER
  1
AC1009
  9
$DWGCODEPAGE
  3
ansi_1252
  9
$INSBASE
 10
0.0
 20
0.0
 30
0.0
  9
$EXTMIN
 10
0.0
 20
-0.0000000000000124
 30
-0.0000000000000211
  9
$EXTMAX
 10
445.0
 20
345.0
 30
0.0
  9
$LIMMIN
 10
0.0
 20
0.0
  9
$LIMMAX
 10
420.0
 20
297.0
  9
$ORTHOMODE
 70
     0
  9
$REGENMODE
 70
     1
  9
$FILLMODE
 70
     1
  9
$QTEXTMODE
 70
     0
  9
$MIRRTEXT
 70
     1
  9
$DRAGMODE
 70
     2
  9
$LTSCALE
 40
1.0
  9
$OSMODE
 70
    37
  9
$ATTMODE
 70
     1
  9
$TEXTSIZE
 40
2.5
  9
$TRACEWID
 40
1.0
  9
$TEXTSTYLE
  7
STANDARD
  9
$CLAYER
  8
0
  9
$CELTYPE
  6
BYLAYER
  9
$CECOLOR
 62
   256
  9
$DIMSCALE
 40
1.0
  9
$DIMASZ
 40
2.5
  9
$DIMEXO
 40
0.625
  9
$DIMDLI
 40
3.75
  9
$DIMRND
 40
0.0
  9
$DIMDLE
 40
0.0
  9
$DIMEXE
 40
1.25
  9
$DIMTP
 40
0.0
  9
$DIMTM
 40
0.0
  9
$DIMTXT
 40
2.5
  9
$DIMCEN
 40
2.5
  9
$DIMTSZ
 40
0.0
  9
$DIMTOL
 70
     0
  9
$DIMLIM
 70
     0
  9
$DIMTIH
 70
     1
  9
$DIMTOH
 70
     0
  9
$DIMSE1
 70
     0
  9
$DIMSE2
 70
     0
  9
$DIMTAD
 70
     1
  9
$DIMZIN
 70
     8
  9
$DIMBLK
  1

  9
$DIMASO
 70
     1
  9
$DIMSHO
 70
     1
  9
$DIMPOST
  1
mm
  9
$DIMAPOST
  1

  9
$DIMALT
 70
     0
  9
$DIMALTD
 70
     3
  9
$DIMALTF
 40
0.0393700787401575
  9
$DIMLFAC
 40
1.0
  9
$DIMTOFL
 70
     1
  9
$DIMTVP
 40
0.0
  9
$DIMTIX
 70
     0
  9
$DIMSOXD
 70
     0
  9
$DIMSAH
 70
     0
  9
$DIMBLK1
  1

  9
$DIMBLK2
  1

  9
$DIMSTYLE
  2
ISO-25
  9
$DIMCLRD
 70
     0
  9
$DIMCLRE
 70
     0
  9
$DIMCLRT
 70
     0
  9
$DIMTFAC
 40
1.0
  9
$DIMGAP
 40
0.625
  9
$LUNITS
 70
     2
  9
$LUPREC
 70
     4
  9
$SKETCHINC
 40
1.0
  9
$FILLETRAD
 40
10.0
  9
$AUNITS
 70
     0
  9
$AUPREC
 70
     0
  9
$MENU
  1
.
  9
$ELEVATION
 40
0.0
  9
$PELEVATION
 40
0.0
  9
$THICKNESS
 40
0.0
  9
$LIMCHECK
 70
     0
  9
$CHAMFERA
 40
0.0
  9
$CHAMFERB
 40
0.0
  9
$SKPOLY
 70
     0
  9
$TDCREATE
 40
2458316.450228588
  9
$TDUPDATE
 40
2458316.45022941
  9
$TDINDWG
 40
0.0000000116
  9
$TDUSRTIMER
 40
0.0000000116
  9
$USRTIMER
 70
     1
  9
$ANGBASE
 50
0.0
  9
$ANGDIR
 70
     0
  9
$PDMODE
 70
     0
  9
$PDSIZE
 40
0.0
  9
$PLINEWID
 40
0.0
  9
$COORDS
 70
     1
  9
$SPLFRAME
 70
     0
  9
$SPLINETYPE
 70
     6
  9
$SPLINESEGS
 70
     8
  9
$ATTDIA
 70
     0
  9
$ATTREQ
 70
     1
  9
$HANDLING
 70
     1
  9
$HANDSEED
  5
162
  9
$SURFTAB1
 70
     6
  9
$SURFTAB2
 70
     6
  9
$SURFTYPE
 70
     6
  9
$SURFU
 70
     6
  9
$SURFV
 70
     6
  9
$UCSNAME
  2

  9
$UCSORG
 10
0.0
 20
0.0
 30
0.0
  9
$UCSXDIR
 10
1.0
 20
0.0
 30
0.0
  9
$UCSYDIR
 10
0.0
 20
1.0
 30
0.0
  9
$PUCSNAME
  2

  9
$PUCSORG
 10
0.0
 20
0.0
 30
0.0
  9
$PUCSXDIR
 10
1.0
 20
0.0
 30
0.0
  9
$PUCSYDIR
 10
0.0
 20
1.0
 30
0.0
  9
$USERI1
 70
     0
  9
$USERI2
 70
     0
  9
$USERI3
 70
     0
  9
$USERI4
 70
     0
  9
$USERI5
 70
     0
  9
$USERR1
 40
0.0
  9
$USERR2
 40
0.0
  9
$USERR3
 40
0.0
  9
$USERR4
 40
0.0
  9
$USERR5
 40
0.0
  9
$WORLDVIEW
 70
     1
  9
$SHADEDGE
 70
     3
  9
$SHADEDIF
 70
    70
  9
$TILEMODE
 70
     1
  9
$MAXACTVP
 70
    64
  9
$PLIMCHECK
 70
     0
  9
$PEXTMIN
 10
1.000000000000000E+20
 20
1.000000000000000E+20
 30
1.000000000000000E+20
  9
$PEXTMAX
 10
-1.000000000000000E+20
 20
-1.000000000000000E+20
 30
-1.000000000000000E+20
  9
$PLIMMIN
 10
0.0
 20
0.0
  9
$PLIMMAX
 10
420.0
 20
297.0
  9
$UNITMODE
 70
     0
  9
$VISRETAIN
 70
     1
  9
$PLINEGEN
 70
     0
  9
$PSLTSCALE
 70
     1
  0
ENDSEC
  0
SECTION
  2
TABLES
  0
TABLE
  2
VPORT
 70
     1
  0
VPORT
  2
*ACTIVE
 70
     0
 10
0.0
 20
0.0
 11
1.0
 21
1.0
 12
222.5
 22
172.5
 13
0.0
 23
0.0
 14
10.0
 24
10.0
 15
10.0
 25
10.0
 16
0.0
 26
0.0
 36
1.0
 17
0.0
 27
0.0
 37
0.0
 40
345.0
 41
1.289855072463768
 42
50.0
 43
0.0
 44
0.0
 50
0.0
 51
0.0
 71
     0
 72
   100
 73
     1
 74
     3
 75
     0
 76
     0
 77
     0
 78
     0
  0
ENDTAB
  0
TABLE
  2
LTYPE
 70
     1
  0
LTYPE
  2
CONTINUOUS
 70
     0
  3
Solid line
 72
    65
 73
     0
 40
0.0
  0
ENDTAB
  0
TABLE
  2
LAYER
 70
     2
  0
LAYER
  2
0
 70
     0
 62
     7
  6
CONTINUOUS
  0
LAYER
  2
DEFPOINTS
 70
     0
 62
     7
  6
CONTINUOUS
  0
ENDTAB
  0
TABLE
  2
STYLE
 70
     2
  0
STYLE
  2
STANDARD
 70
     0
 40
0.0
 41
1.0
 50
0.0
 71
     0
 42
2.5
  3
txt
  4

  0
STYLE
  2
SPACECLAIM_ASME_CB
 70
     0
 40
0.0
 41
1.0
 50
0.0
 71
     0
 42
2.5
  3
SpaceClaim ASME.ttf
  4

  0
ENDTAB
  0
TABLE
  2
VIEW
 70
     0
  0
ENDTAB
  0
TABLE
  2
UCS
 70
     0
  0
ENDTAB
  0
TABLE
  2
APPID
 70
     1
  0
APPID
  2
ACAD
 70
     0
  0
ENDTAB
  0
TABLE
  2
DIMSTYLE
 70
     2
  0
DIMSTYLE
  2
ISO-25
 70
     0
  3

  4

  5

  6

  7

 40
1.0
 41
2.5
 42
0.625
 43
3.75
 44
1.25
 45
0.0
 46
0.0
 47
0.0
 48
0.0
140
2.5
141
2.5
142
0.0
143
0.03937007874016
144
1.0
145
0.0
146
1.0
147
0.625
 71
     0
 72
     0
 73
     0
 74
     0
 75
     0
 76
     0
 77
     1
 78
     8
170
     0
171
     3
172
     1
173
     0
174
     0
175
     0
176
     0
177
     0
178
     0
  0
DIMSTYLE
  2
SPACECLAIM_ASME_CB
 70
     0
  3

  4

  5

  6

  7

 40
1.0
 41
0.18
 42
0.0625
 43
0.38
 44
0.18
 45
0.0
 46
0.0
 47
0.0
 48
0.0
140
0.18
141
0.09
142
0.0
143
25.4
144
1.0
145
0.0
146
1.0
147
0.09
 71
     0
 72
     0
 73
     1
 74
     1
 75
     0
 76
     0
 77
     0
 78
     0
170
     0
171
     2
172
     0
173
     0
174
     0
175
     0
176
     0
177
     0
178
     0
  0
ENDTAB
  0
ENDSEC
  0
SECTION
  2
BLOCKS
  0
BLOCK
  8
0
  2
$MODEL_SPACE
 70
     0
 10
0.0
 20
0.0
 30
0.0
  3
$MODEL_SPACE
  1

  0
ENDBLK
  5
21
  8
0
  0
BLOCK
 67
     1
  8
0
  2
$PAPER_SPACE
 70
     0
 10
0.0
 20
0.0
 30
0.0
  3
$PAPER_SPACE
  1

  0
ENDBLK
  5
1D
 67
     1
  8
0
  0
BLOCK
  8
0
  2
*D1
 70
     1
 10
0.0
 20
0.0
 30
0.0
  3
*D1
  1

  0
LINE
  5
72
  8
0
 62
     7
 10
0.0000000000000096
 20
344.9375
 30
0.0
 11
0.0000000000000089
 21
177.6937129015454
 31
0.0
  0
LINE
  5
73
  8
0
 62
     7
 10
0.0
 20
0.0625
 30
0.0
 11
0.0
 21
178.0537129015454
 31
0.0
  0
LINE
  5
74
  8
0
 62
     7
 10
0.0000000000000089
 20
177.8737129015454
 30
0.0
 11
25.0
 21
177.8737129015454
 31
0.0
  0
LINE
  5
75
  8
0
 62
     7
 10
-12.49999999999999
 20
177.8737129015454
 30
0.0
 11
-24.99999999999999
 21
177.8737129015454
 31
0.0
  0
LINE
  5
76
  8
0
 62
     7
 10
12.5
 20
177.8737129015454
 30
0.0
 11
25.0
 21
177.8737129015454
 31
0.0
  0
SOLID
  5
77
  8
0
 62
     7
 10
-12.49999999999999
 20
175.7903795682121
 30
0.0
 11
-12.49999999999999
 21
179.9570462348788
 31
0.0
 12
0.0000000000000089
 22
177.8737129015454
 32
0.0
 13
0.0000000000000089
 23
177.8737129015454
 33
0.0
  0
SOLID
  5
78
  8
0
 62
     7
 10
12.5
 20
179.9570462348788
 30
0.0
 11
12.5
 21
175.7903795682121
 31
0.0
 12
0.0
 22
177.8737129015454
 32
0.0
 13
0.0
 23
177.8737129015454
 33
0.0
  0
TEXT
  5
79
  8
0
  6
CONTINUOUS
 62
     7
 10
3.310000000000003
 20
173.3737129015454
 30
0.0
 40
9.0
  1
0mm
  7
SPACECLAIM_ASME_CB
  0
POINT
  5
7A
  8
DEFPOINTS
 62
     0
 10
0.0000000000000096
 20
345.0
 30
0.0
  0
POINT
  5
7B
  8
DEFPOINTS
 62
     0
 10
0.0
 20
0.0
 30
0.0
  0
POINT
  5
7C
  8
DEFPOINTS
 62
     0
 10
0.0
 20
177.8737129015454
 30
0.0
  0
ENDBLK
  5
71
  8
0
  0
BLOCK
  8
0
  2
*D2
 70
     1
 10
0.0
 20
0.0
 30
0.0
  3
*D2
  1

  0
LINE
  5
82
  8
0
 62
     7
 10
204.594177296718
 20
374.0038596101495
 30
0.0
 11
192.094177296718
 21
374.0038596101495
 31
0.0
  0
LINE
  5
83
  8
0
 62
     7
 10
192.094177296718
 20
374.0038596101495
 30
0.0
 11
192.094177296718
 21
345.0
 31
0.0
  0
LINE
  5
84
  8
0
 62
     7
 10
0.0625000000000096
 20
345.0
 30
0.0
 11
192.274177296718
 21
345.0
 31
0.0
  0
LINE
  5
85
  8
0
 62
     7
 10
444.9375
 20
345.0
 30
0.0
 11
191.914177296718
 21
345.0
 31
0.0
  0
LINE
  5
86
  8
0
 62
     7
 10
192.094177296718
 20
357.5
 30
0.0
 11
192.094177296718
 21
370.0
 31
0.0
  0
SOLID
  5
87
  8
0
 62
     7
 10
194.1775106300513
 20
332.5
 30
0.0
 11
190.0108439633846
 21
332.5
 31
0.0
 12
192.094177296718
 22
345.0
 32
0.0
 13
192.094177296718
 23
345.0
 33
0.0
  0
SOLID
  5
88
  8
0
 62
     7
 10
190.0108439633846
 20
357.5
 30
0.0
 11
194.1775106300513
 21
357.5
 31
0.0
 12
192.094177296718
 22
345.0
 32
0.0
 13
192.094177296718
 23
345.0
 33
0.0
  0
TEXT
  5
89
  8
0
  6
CONTINUOUS
 62
     7
 10
203.784177296718
 20
369.5038596101495
 30
0.0
 40
9.0
  1
0mm
  7
SPACECLAIM_ASME_CB
  0
POINT
  5
8A
  8
DEFPOINTS
 62
     0
 10
0.0000000000000096
 20
345.0
 30
0.0
  0
POINT
  5
8B
  8
DEFPOINTS
 62
     0
 10
445.0
 20
345.0
 30
0.0
  0
POINT
  5
8C
  8
DEFPOINTS
 62
     0
 10
192.094177296718
 20
345.0
 30
0.0
  0
ENDBLK
  5
81
  8
0
  0
BLOCK
  8
0
  2
*D3
 70
     1
 10
0.0
 20
0.0
 30
0.0
  3
*D3
  1

  0
LINE
  5
92
  8
0
 62
     7
 10
222.5
 20
89.9375
 30
0.0
 11
222.5
 21
53.85001592836169
 31
0.0
  0
LINE
  5
93
  8
0
 62
     7
 10
300.206005300108
 20
0.0624999999999917
 30
0.0
 11
300.206005300108
 21
54.21001592836169
 31
0.0
  0
LINE
  5
94
  8
0
 62
     7
 10
210.0
 20
54.03001592836169
 30
0.0
 11
197.5
 21
54.03001592836169
 31
0.0
  0
LINE
  5
95
  8
0
 62
     7
 10
312.706005300108
 20
54.03001592836169
 30
0.0
 11
325.206005300108
 21
54.03001592836169
 31
0.0
  0
SOLID
  5
96
  8
0
 62
     7
 10
210.0
 20
51.94668259502836
 30
0.0
 11
210.0
 21
56.11334926169503
 31
0.0
 12
222.5
 22
54.03001592836169
 32
0.0
 13
222.5
 23
54.03001592836169
 33
0.0
  0
SOLID
  5
97
  8
0
 62
     7
 10
312.706005300108
 20
56.11334926169503
 30
0.0
 11
312.706005300108
 21
51.94668259502836
 31
0.0
 12
300.206005300108
 22
54.03001592836169
 32
0.0
 13
300.206005300108
 23
54.03001592836169
 33
0.0
  0
TEXT
  5
98
  8
0
  6
CONTINUOUS
 62
     7
 10
273.282505300108
 20
50.44801592836169
 30
0.0
 40
9.0
  1
77,706mm
  7
SPACECLAIM_ASME_CB
  0
POINT
  5
99
  8
DEFPOINTS
 62
     0
 10
222.5
 20
90.0
 30
0.0
  0
POINT
  5
9A
  8
DEFPOINTS
 62
     0
 10
300.206005300108
 20
-0.0000000000000083
 30
0.0
  0
POINT
  5
9B
  8
DEFPOINTS
 62
     0
 10
300.206005300108
 20
54.03001592836169
 30
0.0
  0
ENDBLK
  5
91
  8
0
  0
BLOCK
  8
0
  2
*D4
 70
     1
 10
0.0
 20
0.0
 30
0.0
  3
*D4
  1

  0
LINE
  5
A1
  8
0
 62
     7
 10
276.3825822920326
 20
195.174603668991
 30
0.0
 11
302.5144573385111
 21
195.174603668991
 31
0.0
  0
LINE
  5
A2
  8
0
 62
     7
 10
302.5144573385111
 20
195.174603668991
 30
0.0
 11
245.205325813637
 21
119.8449020721562
 31
0.0
  0
LINE
  5
A3
  8
0
 62
     7
 10
199.794674186363
 20
60.15509792784383
 30
0.0
 11
207.363116124242
 21
70.10339861856255
 31
0.0
  0
LINE
  5
A4
  8
0
 62
     7
 10
192.226232248484
 20
50.20679723712512
 30
0.0
 11
177.089348372726
 21
30.31019585568768
 31
0.0
  0
TEXT
  5
A5
  8
0
  6
CONTINUOUS
 62
     7
 10
236.6925822920326
 20
190.683603668991
 30
0.0
 40
9.0
  1
Ø100mm
  7
SPACECLAIM_ASME_CB
  0
LINE
  5
A6
  8
0
 62
     7
 10
192.226232248484
 20
50.20679723712512
 30
0.0
 11
252.7737677515159
 21
129.7932027628749
 31
0.0
  0
SOLID
  5
A7
  8
0
 62
     7
 10
198.1366240712432
 20
61.41650491749033
 30
0.0
 11
201.4527243014828
 21
58.89369093819734
 31
0.0
 12
192.226232248484
 22
50.20679723712512
 32
0.0
 13
192.226232248484
 23
50.20679723712512
 33
0.0
  0
SOLID
  5
A8
  8
0
 62
     7
 10
246.8633759287567
 20
118.5834950825097
 30
0.0
 11
243.5472756985172
 21
121.1063090618027
 31
0.0
 12
252.7737677515159
 22
129.7932027628749
 32
0.0
 13
252.7737677515159
 23
129.7932027628749
 33
0.0
  0
POINT
  5
A9
  8
DEFPOINTS
 62
     0
 10
252.7737677515159
 20
129.7932027628749
 30
0.0
  0
POINT
  5
AA
  8
DEFPOINTS
 62
     0
 10
192.226232248484
 20
50.20679723712512
 30
0.0
  0
ENDBLK
  5
A0
  8
0
  0
BLOCK
  8
0
  2
*D5
 70
     1
 10
0.0
 20
0.0
 30
0.0
  3
*D5
  1

  0
LINE
  5
B0
  8
0
 62
     7
 10
14.00000000000001
 20
270.0624999999999
 30
0.0
 11
14.0
 21
307.6799999999999
 31
0.0
  0
LINE
  5
B1
  8
0
 62
     7
 10
14.00000000000002
 20
344.9375
 30
0.0
 11
14.00000000000003
 21
307.3199999999999
 31
0.0
  0
LINE
  5
B2
  8
0
 62
     7
 10
14.00000000000003
 20
307.4999999999999
 30
0.0
 11
39.0
 21
307.4999999999999
 31
0.0
  0
LINE
  5
B3
  8
0
 62
     7
 10
26.5
 20
307.4999999999999
 30
0.0
 11
39.0
 21
307.4999999999999
 31
0.0
  0
LINE
  5
B4
  8
0
 62
     7
 10
1.500000000000027
 20
307.4999999999999
 30
0.0
 11
-10.99999999999997
 21
307.4999999999999
 31
0.0
  0
SOLID
  5
B5
  8
0
 62
     7
 10
26.5
 20
309.5833333333333
 30
0.0
 11
26.5
 21
305.4166666666666
 31
0.0
 12
14.0
 22
307.4999999999999
 32
0.0
 13
14.0
 23
307.4999999999999
 33
0.0
  0
SOLID
  5
B6
  8
0
 62
     7
 10
1.500000000000027
 20
305.4166666666666
 30
0.0
 11
1.500000000000026
 21
309.5833333333333
 31
0.0
 12
14.00000000000003
 22
307.4999999999999
 32
0.0
 13
14.00000000000003
 23
307.4999999999999
 33
0.0
  0
TEXT
  5
B7
  8
0
  6
CONTINUOUS
 62
     7
 10
17.31
 20
302.9999999999999
 30
0.0
 40
9.0
  1
0mm
  7
SPACECLAIM_ASME_CB
  0
POINT
  5
B8
  8
DEFPOINTS
 62
     0
 10
14.00000000000001
 20
269.9999999999999
 30
0.0
  0
POINT
  5
B9
  8
DEFPOINTS
 62
     0
 10
14.00000000000002
 20
345.0
 30
0.0
  0
POINT
  5
BA
  8
DEFPOINTS
 62
     0
 10
14.00000000000003
 20
307.4999999999999
 30
0.0
  0
ENDBLK
  5
AF
  8
0
  0
BLOCK
  8
0
  2
*D6
 70
     1
 10
0.0
 20
0.0
 30
0.0
  3
*D6
  1

  0
LINE
  5
C0
  8
0
 62
     7
 10
38.55554295247359
 20
204.0223877726362
 30
0.0
 11
69.36100127750306
 21
204.0223877726362
 31
0.0
  0
LINE
  5
C1
  8
0
 62
     7
 10
69.36100127750306
 20
204.0223877726362
 30
0.0
 11
8.214959883612922
 21
276.8944405756952
 31
0.0
  0
LINE
  5
C2
  8
0
 62
     7
 10
19.78504011638709
 20
263.1055594243048
 30
0.0
 11
27.81981805581358
 21
253.529947513617
 31
0.0
  0
LINE
  5
C3
  8
0
 62
     7
 10
11.75026217696059
 20
272.6811713349925
 30
0.0
 11
-4.319293701892411
 21
291.8323951563681
 31
0.0
  0
TEXT
  5
C4
  8
0
  6
CONTINUOUS
 62
     7
 10
9.665542952473592
 20
199.5403877726361
 30
0.0
 40
9.0
  1
Ø7mm
  7
SPACECLAIM_ASME_CB
  0
LINE
  5
C5
  8
0
 62
     7
 10
11.75026217696059
 20
272.6811713349925
 30
0.0
 11
16.24973782303942
 21
267.3188286650074
 31
0.0
  0
SOLID
  5
C6
  8
0
 62
     7
 10
21.38097543483505
 20
264.4446890808758
 30
0.0
 11
18.18910479793913
 21
261.7664297677337
 31
0.0
 12
11.75026217696059
 22
272.6811713349925
 32
0.0
 13
11.75026217696059
 23
272.6811713349925
 33
0.0
  0
SOLID
  5
C7
  8
0
 62
     7
 10
6.619024565164962
 20
275.5553109191241
 30
0.0
 11
9.810895202060882
 21
278.2335702322662
 31
0.0
 12
16.24973782303942
 22
267.3188286650074
 32
0.0
 13
16.24973782303942
 23
267.3188286650074
 33
0.0
  0
POINT
  5
C8
  8
DEFPOINTS
 62
     0
 10
16.24973782303942
 20
267.3188286650074
 30
0.0
  0
POINT
  5
C9
  8
DEFPOINTS
 62
     0
 10
11.75026217696059
 20
272.6811713349925
 30
0.0
  0
ENDBLK
  5
BF
  8
0
  0
BLOCK
  8
0
  2
*D7
 70
     1
 10
0.0
 20
0.0
 30
0.0
  3
*D7
  1

  0
LINE
  5
CF
  8
0
 62
     7
 10
431.0
 20
344.9375
 30
0.0
 11
431.0
 21
307.3199999999999
 31
0.0
  0
LINE
  5
D0
  8
0
 62
     7
 10
431.0
 20
270.0624999999999
 30
0.0
 11
431.0
 21
307.6799999999999
 31
0.0
  0
LINE
  5
D1
  8
0
 62
     7
 10
431.0
 20
307.4999999999999
 30
0.0
 11
456.0
 21
307.4999999999999
 31
0.0
  0
LINE
  5
D2
  8
0
 62
     7
 10
418.5
 20
307.4999999999999
 30
0.0
 11
406.0
 21
307.4999999999999
 31
0.0
  0
LINE
  5
D3
  8
0
 62
     7
 10
443.5
 20
307.4999999999999
 30
0.0
 11
456.0
 21
307.4999999999999
 31
0.0
  0
SOLID
  5
D4
  8
0
 62
     7
 10
418.5
 20
305.4166666666666
 30
0.0
 11
418.5
 21
309.5833333333333
 31
0.0
 12
431.0
 22
307.4999999999999
 32
0.0
 13
431.0
 23
307.4999999999999
 33
0.0
  0
SOLID
  5
D5
  8
0
 62
     7
 10
443.5
 20
309.5833333333333
 30
0.0
 11
443.5
 21
305.4166666666666
 31
0.0
 12
431.0
 22
307.4999999999999
 32
0.0
 13
431.0
 23
307.4999999999999
 33
0.0
  0
TEXT
  5
D6
  8
0
  6
CONTINUOUS
 62
     7
 10
455.19
 20
302.9999999999999
 30
0.0
 40
9.0
  1
0mm
  7
SPACECLAIM_ASME_CB
  0
POINT
  5
D7
  8
DEFPOINTS
 62
     0
 10
431.0
 20
345.0
 30
0.0
  0
POINT
  5
D8
  8
DEFPOINTS
 62
     0
 10
431.0
 20
269.9999999999999
 30
0.0
  0
POINT
  5
D9
  8
DEFPOINTS
 62
     0
 10
431.0
 20
307.4999999999999
 30
0.0
  0
ENDBLK
  5
CE
  8
0
  0
BLOCK
  8
0
  2
*D8
 70
     1
 10
0.0
 20
0.0
 30
0.0
  3
*D8
  1

  0
LINE
  5
DF
  8
0
 62
     7
 10
431.6443859849545
 20
0.062499999999988
 30
0.0
 11
431.6443859849545
 21
37.67999999999999
 31
0.0
  0
LINE
  5
E0
  8
0
 62
     7
 10
431.0
 20
74.93749999999999
 30
0.0
 11
431.0
 21
37.31999999999999
 31
0.0
  0
LINE
  5
E1
  8
0
 62
     7
 10
431.0
 20
37.49999999999999
 30
0.0
 11
451.1608859849545
 21
37.49999999999999
 31
0.0
  0
LINE
  5
E2
  8
0
 62
     7
 10
444.1443859849545
 20
37.49999999999999
 30
0.0
 11
456.6443859849545
 21
37.49999999999999
 31
0.0
  0
LINE
  5
E3
  8
0
 62
     7
 10
418.5
 20
37.49999999999999
 30
0.0
 11
406.0
 21
37.49999999999999
 31
0.0
  0
SOLID
  5
E4
  8
0
 62
     7
 10
444.1443859849545
 20
39.58333333333332
 30
0.0
 11
444.1443859849545
 21
35.41666666666665
 31
0.0
 12
431.6443859849545
 22
37.49999999999999
 32
0.0
 13
431.6443859849545
 23
37.49999999999999
 33
0.0
  0
SOLID
  5
E5
  8
0
 62
     7
 10
418.5
 20
35.41666666666665
 30
0.0
 11
418.5
 21
39.58333333333332
 31
0.0
 12
431.0
 22
37.49999999999999
 32
0.0
 13
431.0
 23
37.49999999999999
 33
0.0
  0
TEXT
  5
E6
  8
0
  6
CONTINUOUS
 62
     7
 10
407.8708859849546
 20
33.91799999999999
 30
0.0
 40
9.0
  1
0,644mm
  7
SPACECLAIM_ASME_CB
  0
POINT
  5
E7
  8
DEFPOINTS
 62
     0
 10
431.6443859849545
 20
-0.000000000000012
 30
0.0
  0
POINT
  5
E8
  8
DEFPOINTS
 62
     0
 10
431.0
 20
74.99999999999999
 30
0.0
  0
POINT
  5
E9
  8
DEFPOINTS
 62
     0
 10
431.0
 20
37.49999999999999
 30
0.0
  0
ENDBLK
  5
DE
  8
0
  0
BLOCK
  8
0
  2
*D9
 70
     1
 10
0.0
 20
0.0
 30
0.0
  3
*D9
  1

  0
LINE
  5
EF
  8
0
 62
     7
 10
14.0
 20
74.9375
 30
0.0
 11
14.0
 21
40.30752753879538
 31
0.0
  0
LINE
  5
F0
  8
0
 62
     7
 10
14.0
 20
0.0624999999999996
 30
0.0
 11
14.0
 21
40.66752753879538
 31
0.0
  0
LINE
  5
F1
  8
0
 62
     7
 10
14.0
 20
40.48752753879538
 30
0.0
 11
39.0
 21
40.48752753879538
 31
0.0
  0
LINE
  5
F2
  8
0
 62
     7
 10
1.500000000000002
 20
40.48752753879538
 30
0.0
 11
-11.0
 21
40.48752753879538
 31
0.0
  0
LINE
  5
F3
  8
0
 62
     7
 10
26.5
 20
40.48752753879538
 30
0.0
 11
39.0
 21
40.48752753879538
 31
0.0
  0
SOLID
  5
F4
  8
0
 62
     7
 10
1.500000000000002
 20
38.40419420546204
 30
0.0
 11
1.500000000000002
 21
42.57086087212871
 31
0.0
 12
14.0
 22
40.48752753879538
 32
0.0
 13
14.0
 23
40.48752753879538
 33
0.0
  0
SOLID
  5
F5
  8
0
 62
     7
 10
26.5
 20
42.57086087212871
 30
0.0
 11
26.5
 21
38.40419420546204
 31
0.0
 12
14.0
 22
40.48752753879538
 32
0.0
 13
14.0
 23
40.48752753879538
 33
0.0
  0
TEXT
  5
F6
  8
0
  6
CONTINUOUS
 62
     7
 10
17.31
 20
35.98752753879538
 30
0.0
 40
9.0
  1
0mm
  7
SPACECLAIM_ASME_CB
  0
POINT
  5
F7
  8
DEFPOINTS
 62
     0
 10
14.0
 20
75.0
 30
0.0
  0
POINT
  5
F8
  8
DEFPOINTS
 62
     0
 10
14.0
 20
-0.0000000000000004
 30
0.0
  0
POINT
  5
F9
  8
DEFPOINTS
 62
     0
 10
14.0
 20
40.48752753879538
 30
0.0
  0
ENDBLK
  5
EE
  8
0
  0
BLOCK
  8
0
  2
*D10
 70
     1
 10
0.0
 20
0.0
 30
0.0
  3
*D10
  1

  0
LINE
  5
FF
  8
0
 62
     7
 10
405.3320437425059
 20
207.0136530333382
 30
0.0
 11
377.1502070884172
 21
207.0136530333382
 31
0.0
  0
LINE
  5
100
  8
0
 62
     7
 10
377.1502070884172
 20
207.0136530333382
 30
0.0
 11
436.8484460805408
 21
276.8407366886182
 31
0.0
  0
LINE
  5
101
  8
0
 62
     7
 10
425.1515539194592
 20
263.1592633113818
 30
0.0
 11
417.0287121409303
 21
253.6582401327454
 31
0.0
  0
LINE
  5
102
  8
0
 62
     7
 10
433.2743956979881
 20
272.6602864900182
 30
0.0
 11
449.5200792550459
 21
291.6623328472909
 31
0.0
  0
TEXT
  5
103
  8
0
  6
CONTINUOUS
 62
     7
 10
405.4220437425059
 20
202.5316530333381
 30
0.0
 40
9.0
  1
Ø7mm
  7
SPACECLAIM_ASME_CB
  0
LINE
  5
104
  8
0
 62
     7
 10
433.2743956979881
 20
272.6602864900182
 30
0.0
 11
428.7256043020119
 21
267.3397135099818
 31
0.0
  0
SOLID
  5
105
  8
0
 62
     7
 10
426.7350577825653
 20
261.8054563482936
 30
0.0
 11
423.5680500563532
 21
264.51307027447
 31
0.0
 12
433.2743956979881
 22
272.6602864900182
 32
0.0
 13
433.2743956979881
 23
272.6602864900182
 33
0.0
  0
SOLID
  5
106
  8
0
 62
     7
 10
435.2649422174347
 20
278.1945436517063
 30
0.0
 11
438.4319499436468
 21
275.48692972553
 31
0.0
 12
428.7256043020119
 22
267.3397135099818
 32
0.0
 13
428.7256043020119
 23
267.3397135099818
 33
0.0
  0
POINT
  5
107
  8
DEFPOINTS
 62
     0
 10
428.7256043020119
 20
267.3397135099818
 30
0.0
  0
POINT
  5
108
  8
DEFPOINTS
 62
     0
 10
433.2743956979881
 20
272.6602864900182
 30
0.0
  0
ENDBLK
  5
FE
  8
0
  0
BLOCK
  8
0
  2
*D11
 70
     1
 10
0.0
 20
0.0
 30
0.0
  3
*D11
  1

  0
LINE
  5
10E
  8
0
 62
     7
 10
403.0287990205442
 20
139.631822089015
 30
0.0
 11
371.1826994930851
 21
139.631822089015
 31
0.0
  0
LINE
  5
10F
  8
0
 62
     7
 10
371.1826994930851
 20
139.631822089015
 30
0.0
 11
437.1131876333391
 21
68.39477956767601
 31
0.0
  0
LINE
  5
110
  8
0
 62
     7
 10
424.8868123666609
 20
81.60522043232396
 30
0.0
 11
416.3962739870233
 21
90.7791376994406
 31
0.0
  0
LINE
  5
111
  8
0
 62
     7
 10
433.3773507462985
 20
72.43130316520732
 30
0.0
 11
450.3584275055737
 21
54.08346863097405
 31
0.0
  0
TEXT
  5
112
  8
0
  6
CONTINUOUS
 62
     7
 10
403.1187990205441
 20
135.1498220890149
 30
0.0
 40
9.0
  1
Ø7mm
  7
SPACECLAIM_ASME_CB
  0
LINE
  5
113
  8
0
 62
     7
 10
433.3773507462985
 20
72.43130316520732
 30
0.0
 11
428.6226492537015
 21
77.56869683479265
 31
0.0
  0
SOLID
  5
114
  8
0
 62
     7
 10
423.3578261554748
 20
80.19013070238437
 30
0.0
 11
426.4157985778471
 21
83.02031016226356
 31
0.0
 12
433.3773507462985
 22
72.43130316520732
 32
0.0
 13
433.3773507462985
 23
72.43130316520732
 33
0.0
  0
SOLID
  5
115
  8
0
 62
     7
 10
438.6421738445252
 20
69.8098692976156
 30
0.0
 11
435.5842014221529
 21
66.97968983773642
 31
0.0
 12
428.6226492537015
 22
77.56869683479265
 32
0.0
 13
428.6226492537015
 23
77.56869683479265
 33
0.0
  0
POINT
  5
116
  8
DEFPOINTS
 62
     0
 10
428.6226492537015
 20
77.56869683479265
 30
0.0
  0
POINT
  5
117
  8
DEFPOINTS
 62
     0
 10
433.3773507462985
 20
72.43130316520732
 30
0.0
  0
ENDBLK
  5
10D
  8
0
  0
BLOCK
  8
0
  2
*D12
 70
     1
 10
0.0
 20
0.0
 30
0.0
  3
*D12
  1

  0
LINE
  5
11D
  8
0
 62
     7
 10
38.47876812840812
 20
140.2607850707815
 30
0.0
 11
71.32778769483201
 21
140.2607850707815
 31
0.0
  0
LINE
  5
11E
  8
0
 62
     7
 10
71.32778769483201
 20
140.2607850707815
 30
0.0
 11
8.060289828270985
 21
68.23835500223068
 31
0.0
  0
LINE
  5
11F
  8
0
 62
     7
 10
19.93971017172902
 20
81.76164499776932
 30
0.0
 11
28.18930763246377
 21
91.15281860578227
 31
0.0
  0
LINE
  5
120
  8
0
 62
     7
 10
11.69011271099427
 20
72.37047138975637
 30
0.0
 11
-4.809082210475223
 21
53.58812417373049
 31
0.0
  0
TEXT
  5
121
  8
0
  6
CONTINUOUS
 62
     7
 10
9.588768128408125
 20
135.7787850707815
 30
0.0
 40
9.0
  1
Ø7mm
  7
SPACECLAIM_ASME_CB
  0
LINE
  5
122
  8
0
 62
     7
 10
11.69011271099427
 20
72.37047138975637
 30
0.0
 11
16.30988728900573
 21
77.62952861024363
 31
0.0
  0
SOLID
  5
123
  8
0
 62
     7
 10
18.37451457039353
 20
83.13657790789178
 30
0.0
 11
21.50490577306451
 21
80.38671208764687
 31
0.0
 12
11.69011271099427
 22
72.37047138975637
 32
0.0
 13
11.69011271099427
 23
72.37047138975637
 33
0.0
  0
SOLID
  5
124
  8
0
 62
     7
 10
9.625485429606476
 20
66.86342209210822
 30
0.0
 11
6.495094226935494
 21
69.61328791235313
 31
0.0
 12
16.30988728900573
 22
77.62952861024363
 32
0.0
 13
16.30988728900573
 23
77.62952861024363
 33
0.0
  0
POINT
  5
125
  8
DEFPOINTS
 62
     0
 10
16.30988728900573
 20
77.62952861024363
 30
0.0
  0
POINT
  5
126
  8
DEFPOINTS
 62
     0
 10
11.69011271099427
 20
72.37047138975637
 30
0.0
  0
ENDBLK
  5
11C
  8
0
  0
BLOCK
  8
0
  2
*D13
 70
     1
 10
0.0
 20
0.0
 30
0.0
  3
*D13
  1

  0
LINE
  5
12C
  8
0
 62
     7
 10
59.40627696161815
 20
220.309213989723
 30
0.0
 11
71.90627696161815
 21
220.309213989723
 31
0.0
  0
LINE
  5
12D
  8
0
 62
     7
 10
71.90627696161815
 20
220.309213989723
 30
0.0
 11
71.90627696161815
 21
269.9999999999999
 31
0.0
  0
LINE
  5
12E
  8
0
 62
     7
 10
0.0625000000000075
 20
269.9999999999999
 30
0.0
 11
72.08627696161815
 21
269.9999999999999
 31
0.0
  0
LINE
  5
12F
  8
0
 62
     7
 10
14.06250000000001
 20
269.9999999999999
 30
0.0
 11
72.08627696161815
 21
269.9999999999999
 31
0.0
  0
LINE
  5
130
  8
0
 62
     7
 10
71.90627696161815
 20
282.4999999999999
 30
0.0
 11
71.90627696161815
 21
294.9999999999999
 31
0.0
  0
SOLID
  5
131
  8
0
 62
     7
 10
73.98961029495148
 20
257.4999999999999
 30
0.0
 11
69.82294362828482
 21
257.4999999999999
 31
0.0
 12
71.90627696161815
 22
269.9999999999999
 32
0.0
 13
71.90627696161815
 23
269.9999999999999
 33
0.0
  0
SOLID
  5
132
  8
0
 62
     7
 10
69.82294362828482
 20
282.4999999999999
 30
0.0
 11
73.98961029495148
 21
282.4999999999999
 31
0.0
 12
71.90627696161815
 22
269.9999999999999
 32
0.0
 13
71.90627696161815
 23
269.9999999999999
 33
0.0
  0
TEXT
  5
133
  8
0
  6
CONTINUOUS
 62
     7
 10
37.71627696161814
 20
215.809213989723
 30
0.0
 40
9.0
  1
0mm
  7
SPACECLAIM_ASME_CB
  0
POINT
  5
134
  8
DEFPOINTS
 62
     0
 10
0.0000000000000075
 20
269.9999999999999
 30
0.0
  0
POINT
  5
135
  8
DEFPOINTS
 62
     0
 10
14.00000000000001
 20
269.9999999999999
 30
0.0
  0
POINT
  5
136
  8
DEFPOINTS
 62
     0
 10
71.90627696161815
 20
269.9999999999999
 30
0.0
  0
ENDBLK
  5
12B
  8
0
  0
BLOCK
  8
0
  2
*D14
 70
     1
 10
0.0
 20
0.0
 30
0.0
  3
*D14
  1

  0
LINE
  5
13C
  8
0
 62
     7
 10
152.4387989043305
 20
89.0835086752172
 30
0.0
 11
164.9387989043305
 21
89.0835086752172
 31
0.0
  0
LINE
  5
13D
  8
0
 62
     7
 10
164.9387989043305
 20
89.0835086752172
 30
0.0
 11
164.9387989043305
 21
89.08350867521722
 31
0.0
  0
LINE
  5
13E
  8
0
 62
     7
 10
222.4375
 20
90.0
 30
0.0
 11
164.7587989043305
 21
90.0
 31
0.0
  0
LINE
  5
13F
  8
0
 62
     7
 10
0.0625000000000025
 20
89.08350867521722
 30
0.0
 11
165.1187989043305
 21
89.08350867521722
 31
0.0
  0
LINE
  5
140
  8
0
 62
     7
 10
164.9387989043305
 20
102.5
 30
0.0
 11
164.9387989043305
 21
115.0
 31
0.0
  0
SOLID
  5
141
  8
0
 62
     7
 10
162.8554655709971
 20
102.5
 30
0.0
 11
167.0221322376638
 21
102.5
 31
0.0
 12
164.9387989043305
 22
90.0
 32
0.0
 13
164.9387989043305
 23
90.0
 33
0.0
  0
SOLID
  5
142
  8
0
 62
     7
 10
167.0221322376638
 20
76.58350867521722
 30
0.0
 11
162.8554655709971
 21
76.58350867521722
 31
0.0
 12
164.9387989043305
 22
89.08350867521722
 32
0.0
 13
164.9387989043305
 23
89.08350867521722
 33
0.0
  0
TEXT
  5
143
  8
0
  6
CONTINUOUS
 62
     7
 10
110.9487989043305
 20
85.5015086752172
 30
0.0
 40
9.0
  1
0,916mm
  7
SPACECLAIM_ASME_CB
  0
POINT
  5
144
  8
DEFPOINTS
 62
     0
 10
222.5
 20
90.0
 30
0.0
  0
POINT
  5
145
  8
DEFPOINTS
 62
     0
 10
0.0000000000000025
 20
89.08350867521722
 30
0.0
  0
POINT
  5
146
  8
DEFPOINTS
 62
     0
 10
164.9387989043305
 20
89.08350867521723
 30
0.0
  0
ENDBLK
  5
13B
  8
0
  0
ENDSEC
  0
SECTION
  2
ENTITIES
  0
DIMENSION
  5
6A
  8
0
 62
     7
  2
*D1
 10
0.0
 20
177.8737129015454
 30
-0.0000000000000109
 11
14.56
 21
177.8737129015454
 31
-0.0000000000000109
 70
   160
  1
{\fSpaceClaim ASME CB|b0|i0;<>}
  3
SPACECLAIM_ASME_CB
 13
0.0000000000000096
 23
345.0
 33
-0.0000000000000211
 14
0.0
 24
0.0
 34
0.0
1001
ACAD
1000
DSTYLE
1002
{
1070
   270
1070
     2
1070
     7
1000

1070
     6
1000

1070
   144
1040
1.0
1070
     4
1000
in
1070
   273
1070
     2
1070
   277
1070
     2
1070
   284
1070
     8
1070
   285
1070
     0
1070
    78
1070
     8
1070
   171
1070
     3
1070
   274
1070
     3
1070
   278
1070
    44
1070
    74
1070
     1
1070
   174
1070
     1
1070
    77
1070
     0
1070
    41
1040
12.5
1070
   173
1070
     1
1070
   140
1040
9.0
1070
   178
1070
     7
1070
   177
1070
     7
1070
   176
1070
     7
1070
   179
1070
     1
1070
   143
1040
0.0393700787401575
1070
   286
1070
     8
1070
   271
1070
     3
1070
     3
1000
mm
1070
   272
1070
     3
1070
    73
1070
     1
1002
}
  0
DIMENSION
  5
7D
  8
0
 62
     7
  2
*D2
 10
192.094177296718
 20
345.0
 30
-0.0000000000000229
 11
215.034177296718
 21
374.0038596101495
 31
-0.0000000000000229
 70
   160
  1
{\fSpaceClaim ASME CB|b0|i0;<>}
  3
SPACECLAIM_ASME_CB
 13
0.0000000000000096
 23
345.0
 33
-0.0000000000000211
 14
445.0
 24
345.0
 34
-0.0000000000000211
 50
90.0
1001
ACAD
1000
DSTYLE
1002
{
1070
   270
1070
     2
1070
     7
1000

1070
     6
1000

1070
   144
1040
1.0
1070
     4
1000
in
1070
   273
1070
     2
1070
   277
1070
     2
1070
   284
1070
     8
1070
   285
1070
     0
1070
    78
1070
     8
1070
   171
1070
     3
1070
   274
1070
     3
1070
   278
1070
    44
1070
    74
1070
     1
1070
   174
1070
     1
1070
    77
1070
     0
1070
    41
1040
12.5
1070
   173
1070
     1
1070
   140
1040
9.0
1070
   178
1070
     7
1070
   177
1070
     7
1070
   176
1070
     7
1070
   179
1070
     1
1070
   143
1040
0.0393700787401575
1070
   286
1070
     8
1070
   271
1070
     3
1070
     3
1000
mm
1070
   272
1070
     3
1070
    73
1070
     1
1002
}
  0
DIMENSION
  5
8D
  8
0
 62
     7
  2
*D3
 10
300.206005300108
 20
54.03001592836169
 30
-0.0000000000000033
 11
298.482505300108
 21
54.03001592836169
 31
-0.0000000000000033
 70
   160
  1
{\fSpaceClaim ASME CB|b0|i0;<>}
  3
SPACECLAIM_ASME_CB
 13
222.5
 23
90.0
 33
-0.0000000000000055
 14
300.206005300108
 24
-0.0000000000000083
 34
0.0
1001
ACAD
1000
DSTYLE
1002
{
1070
   270
1070
     2
1070
     7
1000

1070
     6
1000

1070
   144
1040
1.0
1070
     4
1000
in
1070
   273
1070
     2
1070
   277
1070
     2
1070
   284
1070
     8
1070
   285
1070
     0
1070
    78
1070
     8
1070
   171
1070
     3
1070
   274
1070
     3
1070
   278
1070
    44
1070
    74
1070
     1
1070
   174
1070
     1
1070
    77
1070
     0
1070
    41
1040
12.5
1070
   173
1070
     1
1070
   140
1040
9.0
1070
   178
1070
     7
1070
   177
1070
     7
1070
   176
1070
     7
1070
   179
1070
     1
1070
   143
1040
0.0393700787401575
1070
   286
1070
     8
1070
   271
1070
     3
1070
     3
1000
mm
1070
   272
1070
     3
1070
    73
1070
     1
1002
}
  0
DIMENSION
  5
9C
  8
0
 62
     7
  2
*D4
 10
192.226232248484
 20
50.20679723712512
 30
-0.0000000000000031
 11
256.4925822920326
 21
195.174603668991
 31
-0.000000000000012
 70
   163
  1
{\fSpaceClaim ASME CB|b0|i0;<>}
  3
SPACECLAIM_ASME_CB
 15
252.7737677515159
 25
129.7932027628749
 35
-0.0000000000000079
 40
0.0
1001
ACAD
1000
DSTYLE
1002
{
1070
   270
1070
     2
1070
     7
1000

1070
     6
1000

1070
   144
1040
1.0
1070
     4
1000
in
1070
   273
1070
     2
1070
   277
1070
     2
1070
   284
1070
     8
1070
   285
1070
     0
1070
    78
1070
     8
1070
   171
1070
     3
1070
   274
1070
     3
1070
   278
1070
    44
1070
    74
1070
     1
1070
   174
1070
     1
1070
    77
1070
     0
1070
    41
1040
12.5
1070
   173
1070
     1
1070
   140
1040
9.0
1070
   178
1070
     7
1070
   177
1070
     7
1070
   176
1070
     7
1070
   172
1070
     1
1070
   141
1040
0.0
1070
   179
1070
     1
1070
   143
1040
0.0393700787401575
1070
   286
1070
     8
1070
   271
1070
     3
1070
     3
1000
mm
1070
   272
1070
     3
1070
    73
1070
     1
1002
}
  0
DIMENSION
  5
AB
  8
0
 62
     7
  2
*D5
 10
14.00000000000003
 20
307.4999999999999
 30
-0.0000000000000188
 11
28.56
 21
307.4999999999999
 31
-0.0000000000000188
 70
   160
  1
{\fSpaceClaim ASME CB|b0|i0;<>}
  3
SPACECLAIM_ASME_CB
 13
14.00000000000001
 23
269.9999999999999
 33
-0.0000000000000165
 14
14.00000000000002
 24
345.0
 34
-0.0000000000000211
 50
-180.0
1001
ACAD
1000
DSTYLE
1002
{
1070
   270
1070
     2
1070
     7
1000

1070
     6
1000

1070
   144
1040
1.0
1070
     4
1000
in
1070
   273
1070
     2
1070
   277
1070
     2
1070
   284
1070
     8
1070
   285
1070
     0
1070
    78
1070
     8
1070
   171
1070
     3
1070
   274
1070
     3
1070
   278
1070
    44
1070
    74
1070
     1
1070
   174
1070
     1
1070
    77
1070
     0
1070
    41
1040
12.5
1070
   173
1070
     1
1070
   140
1040
9.0
1070
   178
1070
     7
1070
   177
1070
     7
1070
   176
1070
     7
1070
   179
1070
     1
1070
   143
1040
0.0393700787401575
1070
   286
1070
     8
1070
   271
1070
     3
1070
     3
1000
mm
1070
   272
1070
     3
1070
    73
1070
     1
1002
}
  0
DIMENSION
  5
BB
  8
0
 62
     7
  2
*D6
 10
11.75026217696059
 20
272.6811713349925
 30
-0.0000000000000167
 11
24.06554295247359
 21
204.0223877726362
 31
-0.0000000000000125
 70
   163
  1
{\fSpaceClaim ASME CB|b0|i0;<>}
  3
SPACECLAIM_ASME_CB
 15
16.24973782303942
 25
267.3188286650074
 35
-0.0000000000000164
 40
0.0
1001
ACAD
1000
DSTYLE
1002
{
1070
   270
1070
     2
1070
     7
1000

1070
     6
1000

1070
   144
1040
1.0
1070
     4
1000
in
1070
   273
1070
     2
1070
   277
1070
     2
1070
   284
1070
     8
1070
   285
1070
     0
1070
    78
1070
     8
1070
   171
1070
     3
1070
   274
1070
     3
1070
   278
1070
    44
1070
    74
1070
     1
1070
   174
1070
     1
1070
    77
1070
     0
1070
    41
1040
12.5
1070
   173
1070
     1
1070
   140
1040
9.0
1070
   178
1070
     7
1070
   177
1070
     7
1070
   176
1070
     7
1070
   172
1070
     1
1070
   141
1040
0.0
1070
   179
1070
     1
1070
   143
1040
0.0393700787401575
1070
   286
1070
     8
1070
   271
1070
     3
1070
     3
1000
mm
1070
   272
1070
     3
1070
    73
1070
     1
1002
}
  0
DIMENSION
  5
CA
  8
0
 62
     7
  2
*D7
 10
431.0
 20
307.4999999999999
 30
-0.0000000000000188
 11
466.44
 21
307.4999999999999
 31
-0.0000000000000188
 70
   160
  1
{\fSpaceClaim ASME CB|b0|i0;<>}
  3
SPACECLAIM_ASME_CB
 13
431.0
 23
345.0
 33
-0.0000000000000211
 14
431.0
 24
269.9999999999999
 34
-0.0000000000000165
1001
ACAD
1000
DSTYLE
1002
{
1070
   270
1070
     2
1070
     7
1000

1070
     6
1000

1070
   144
1040
1.0
1070
     4
1000
in
1070
   273
1070
     2
1070
   277
1070
     2
1070
   284
1070
     8
1070
   285
1070
     0
1070
    78
1070
     8
1070
   171
1070
     3
1070
   274
1070
     3
1070
   278
1070
    44
1070
    74
1070
     1
1070
   174
1070
     1
1070
    77
1070
     0
1070
    41
1040
12.5
1070
   173
1070
     1
1070
   140
1040
9.0
1070
   178
1070
     7
1070
   177
1070
     7
1070
   176
1070
     7
1070
   179
1070
     1
1070
   143
1040
0.0393700787401575
1070
   286
1070
     8
1070
   271
1070
     3
1070
     3
1000
mm
1070
   272
1070
     3
1070
    73
1070
     1
1002
}
  0
DIMENSION
  5
DA
  8
0
 62
     7
  2
*D8
 10
431.0
 20
37.49999999999999
 30
-0.0000000000000023
 11
429.9208859849545
 21
37.49999999999999
 31
-0.0000000000000023
 70
   160
  1
{\fSpaceClaim ASME CB|b0|i0;<>}
  3
SPACECLAIM_ASME_CB
 13
431.6443859849545
 23
-0.000000000000012
 33
0.0
 14
431.0
 24
74.99999999999999
 34
-0.0000000000000046
 50
180.0
1001
ACAD
1000
DSTYLE
1002
{
1070
   270
1070
     2
1070
     7
1000

1070
     6
1000

1070
   144
1040
1.0
1070
     4
1000
in
1070
   273
1070
     2
1070
   277
1070
     2
1070
   284
1070
     8
1070
   285
1070
     0
1070
    78
1070
     8
1070
   171
1070
     3
1070
   274
1070
     3
1070
   278
1070
    44
1070
    74
1070
     1
1070
   174
1070
     1
1070
    77
1070
     0
1070
    41
1040
12.5
1070
   173
1070
     1
1070
   140
1040
9.0
1070
   178
1070
     7
1070
   177
1070
     7
1070
   176
1070
     7
1070
   179
1070
     1
1070
   143
1040
0.0393700787401575
1070
   286
1070
     8
1070
   271
1070
     3
1070
     3
1000
mm
1070
   272
1070
     3
1070
    73
1070
     1
1002
}
  0
DIMENSION
  5
EA
  8
0
 62
     7
  2
*D9
 10
14.0
 20
40.48752753879538
 30
-0.0000000000000025
 11
28.56
 21
40.48752753879538
 31
-0.0000000000000025
 70
   160
  1
{\fSpaceClaim ASME CB|b0|i0;<>}
  3
SPACECLAIM_ASME_CB
 13
14.0
 23
75.0
 33
-0.0000000000000046
 14
14.0
 24
-0.0000000000000004
 34
0.0
1001
ACAD
1000
DSTYLE
1002
{
1070
   270
1070
     2
1070
     7
1000

1070
     6
1000

1070
   144
1040
1.0
1070
     4
1000
in
1070
   273
1070
     2
1070
   277
1070
     2
1070
   284
1070
     8
1070
   285
1070
     0
1070
    78
1070
     8
1070
   171
1070
     3
1070
   274
1070
     3
1070
   278
1070
    44
1070
    74
1070
     1
1070
   174
1070
     1
1070
    77
1070
     0
1070
    41
1040
12.5
1070
   173
1070
     1
1070
   140
1040
9.0
1070
   178
1070
     7
1070
   177
1070
     7
1070
   176
1070
     7
1070
   179
1070
     1
1070
   143
1040
0.0393700787401575
1070
   286
1070
     8
1070
   271
1070
     3
1070
     3
1000
mm
1070
   272
1070
     3
1070
    73
1070
     1
1002
}
  0
DIMENSION
  5
FA
  8
0
 62
     7
  2
*D10
 10
433.2743956979881
 20
272.6602864900182
 30
-0.0000000000000167
 11
419.8220437425059
 21
207.0136530333382
 31
-0.0000000000000127
 70
   163
  1
{\fSpaceClaim ASME CB|b0|i0;<>}
  3
SPACECLAIM_ASME_CB
 15
428.7256043020119
 25
267.3397135099818
 35
-0.0000000000000164
 40
0.0
1001
ACAD
1000
DSTYLE
1002
{
1070
   270
1070
     2
1070
     7
1000

1070
     6
1000

1070
   144
1040
1.0
1070
     4
1000
in
1070
   273
1070
     2
1070
   277
1070
     2
1070
   284
1070
     8
1070
   285
1070
     0
1070
    78
1070
     8
1070
   171
1070
     3
1070
   274
1070
     3
1070
   278
1070
    44
1070
    74
1070
     1
1070
   174
1070
     1
1070
    77
1070
     0
1070
    41
1040
12.5
1070
   173
1070
     1
1070
   140
1040
9.0
1070
   178
1070
     7
1070
   177
1070
     7
1070
   176
1070
     7
1070
   172
1070
     1
1070
   141
1040
0.0
1070
   179
1070
     1
1070
   143
1040
0.0393700787401575
1070
   286
1070
     8
1070
   271
1070
     3
1070
     3
1000
mm
1070
   272
1070
     3
1070
    73
1070
     1
1002
}
  0
DIMENSION
  5
109
  8
0
 62
     7
  2
*D11
 10
433.3773507462985
 20
72.43130316520732
 30
-0.0000000000000044
 11
417.5187990205441
 21
139.631822089015
 31
-0.0000000000000085
 70
   163
  1
{\fSpaceClaim ASME CB|b0|i0;<>}
  3
SPACECLAIM_ASME_CB
 15
428.6226492537015
 25
77.56869683479265
 35
-0.0000000000000047
 40
0.0
1001
ACAD
1000
DSTYLE
1002
{
1070
   270
1070
     2
1070
     7
1000

1070
     6
1000

1070
   144
1040
1.0
1070
     4
1000
in
1070
   273
1070
     2
1070
   277
1070
     2
1070
   284
1070
     8
1070
   285
1070
     0
1070
    78
1070
     8
1070
   171
1070
     3
1070
   274
1070
     3
1070
   278
1070
    44
1070
    74
1070
     1
1070
   174
1070
     1
1070
    77
1070
     0
1070
    41
1040
12.5
1070
   173
1070
     1
1070
   140
1040
9.0
1070
   178
1070
     7
1070
   177
1070
     7
1070
   176
1070
     7
1070
   172
1070
     1
1070
   141
1040
0.0
1070
   179
1070
     1
1070
   143
1040
0.0393700787401575
1070
   286
1070
     8
1070
   271
1070
     3
1070
     3
1000
mm
1070
   272
1070
     3
1070
    73
1070
     1
1002
}
  0
DIMENSION
  5
118
  8
0
 62
     7
  2
*D12
 10
11.69011271099427
 20
72.37047138975637
 30
-0.0000000000000044
 11
23.98876812840813
 21
140.2607850707815
 31
-0.0000000000000086
 70
   163
  1
{\fSpaceClaim ASME CB|b0|i0;<>}
  3
SPACECLAIM_ASME_CB
 15
16.30988728900573
 25
77.62952861024363
 35
-0.0000000000000048
 40
0.0
1001
ACAD
1000
DSTYLE
1002
{
1070
   270
1070
     2
1070
     7
1000

1070
     6
1000

1070
   144
1040
1.0
1070
     4
1000
in
1070
   273
1070
     2
1070
   277
1070
     2
1070
   284
1070
     8
1070
   285
1070
     0
1070
    78
1070
     8
1070
   171
1070
     3
1070
   274
1070
     3
1070
   278
1070
    44
1070
    74
1070
     1
1070
   174
1070
     1
1070
    77
1070
     0
1070
    41
1040
12.5
1070
   173
1070
     1
1070
   140
1040
9.0
1070
   178
1070
     7
1070
   177
1070
     7
1070
   176
1070
     7
1070
   172
1070
     1
1070
   141
1040
0.0
1070
   179
1070
     1
1070
   143
1040
0.0393700787401575
1070
   286
1070
     8
1070
   271
1070
     3
1070
     3
1000
mm
1070
   272
1070
     3
1070
    73
1070
     1
1002
}
  0
DIMENSION
  5
127
  8
0
 62
     7
  2
*D13
 10
71.90627696161815
 20
269.9999999999999
 30
-0.0000000000000135
 11
48.96627696161814
 21
220.309213989723
 31
-0.0000000000000135
 70
   160
  1
{\fSpaceClaim ASME CB|b0|i0;<>}
  3
SPACECLAIM_ASME_CB
 13
0.0000000000000075
 23
269.9999999999999
 33
-0.0000000000000165
 14
14.00000000000001
 24
269.9999999999999
 34
-0.0000000000000165
 50
90.0
1001
ACAD
1000
DSTYLE
1002
{
1070
   270
1070
     2
1070
     7
1000

1070
     6
1000

1070
   144
1040
1.0
1070
     4
1000
in
1070
   273
1070
     2
1070
   277
1070
     2
1070
   284
1070
     8
1070
   285
1070
     0
1070
    78
1070
     8
1070
   171
1070
     3
1070
   274
1070
     3
1070
   278
1070
    44
1070
    74
1070
     1
1070
   174
1070
     1
1070
    77
1070
     0
1070
    41
1040
12.5
1070
   173
1070
     1
1070
   140
1040
9.0
1070
   178
1070
     7
1070
   177
1070
     7
1070
   176
1070
     7
1070
   179
1070
     1
1070
   143
1040
0.0393700787401575
1070
   286
1070
     8
1070
   271
1070
     3
1070
     3
1000
mm
1070
   272
1070
     3
1070
    73
1070
     1
1002
}
  0
DIMENSION
  5
137
  8
0
 62
     7
  2
*D14
 10
164.9387989043305
 20
89.08350867521722
 30
-0.0000000000000055
 11
132.0987989043305
 21
89.0835086752172
 31
-0.0000000000000055
 70
   160
  1
{\fSpaceClaim ASME CB|b0|i0;<>}
  3
SPACECLAIM_ASME_CB
 13
222.5
 23
90.0
 33
-0.0000000000000055
 14
0.0000000000000025
 24
89.08350867521722
 34
-0.0000000000000055
 50
-90.0
1001
ACAD
1000
DSTYLE
1002
{
1070
   270
1070
     2
1070
     7
1000

1070
     6
1000

1070
   144
1040
1.0
1070
     4
1000
in
1070
   273
1070
     2
1070
   277
1070
     2
1070
   284
1070
     8
1070
   285
1070
     0
1070
    78
1070
     8
1070
   171
1070
     3
1070
   274
1070
     3
1070
   278
1070
    44
1070
    74
1070
     1
1070
   174
1070
     1
1070
    77
1070
     0
1070
    41
1040
12.5
1070
   173
1070
     1
1070
   140
1040
9.0
1070
   178
1070
     7
1070
   177
1070
     7
1070
   176
1070
     7
1070
   179
1070
     1
1070
   143
1040
0.0393700787401575
1070
   286
1070
     8
1070
   271
1070
     3
1070
     3
1000
mm
1070
   272
1070
     3
1070
    73
1070
     1
1002
}
  0
CIRCLE
  5
147
  8
0
 10
222.5
 20
90.0
 30
0.0
 40
50.0
  0
LINE
  5
148
  8
0
 10
0.0000000000000075
 20
269.9999999999999
 30
0.0
 11
0.0000000000000021
 21
75.00000000000001
 31
0.0
  0
LINE
  5
149
  8
0
 10
0.0
 20
0.0
 30
0.0
 11
14.0
 21
-0.0000000000000004
 31
0.0
  0
LINE
  5
14A
  8
0
 10
445.0
 20
269.9999999999999
 30
0.0
 11
445.0
 21
75.00000000000001
 31
0.0
  0
LINE
  5
14B
  8
0
 10
0.0000000000000096
 20
345.0
 30
0.0
 11
0.0000000000000075
 21
269.9999999999999
 31
0.0
  0
LINE
  5
14C
  8
0
 10
445.0
 20
269.9999999999999
 30
0.0
 11
445.0
 21
345.0
 31
0.0
  0
LINE
  5
14D
  8
0
 10
431.0
 20
345.0
 30
0.0
 11
14.00000000000001
 21
345.0
 31
0.0
  0
LINE
  5
14E
  8
0
 10
0.0
 20
0.0
 30
0.0
 11
0.0000000000000021
 21
75.0
 31
0.0
  0
LINE
  5
14F
  8
0
 10
445.0
 20
74.99999999999999
 30
0.0
 11
445.0
 21
-0.0000000000000139
 31
0.0
  0
LINE
  5
150
  8
0
 10
445.0
 20
-0.0000000000000124
 30
0.0
 11
0.0
 21
0.0
 31
0.0
  0
CIRCLE
  5
151
  8
0
 10
14.00000000000001
 20
269.9999999999999
 30
0.0
 40
3.5
  0
CIRCLE
  5
152
  8
0
 10
431.0
 20
269.9999999999999
 30
0.0
 40
3.500000000000003
  0
CIRCLE
  5
153
  8
0
 10
431.0
 20
74.99999999999999
 30
0.0
 40
3.500000000000003
  0
CIRCLE
  5
154
  8
0
 10
14.0
 20
75.0
 30
0.0
 40
3.500000000000001
  0
LINE
  5
155
  8
0
 10
0.0000000000000096
 20
345.0
 30
0.0
 11
14.00000000000001
 21
345.0
 31
0.0
  0
LINE
  5
156
  8
0
 10
431.0
 20
345.0
 30
0.0
 11
445.0
 21
345.0
 31
0.0
  0
ENDSEC
  0
EOF
