  0
SECTION
  2
HEADER
  9
$ACADVER
  1
AC1009
  9
$DWGCODEPAGE
  3
ansi_1252
  9
$INSBASE
 10
0.0
 20
0.0
 30
0.0
  9
$EXTMIN
 10
0.0
 20
-0.0000000000000225
 30
-0.0000000000000429
  9
$EXTMAX
 10
810.0
 20
700.0
 30
0.0
  9
$LIMMIN
 10
0.0
 20
0.0
  9
$LIMMAX
 10
420.0
 20
297.0
  9
$ORTHOMODE
 70
     0
  9
$REGENMODE
 70
     1
  9
$FILLMODE
 70
     1
  9
$QTEXTMODE
 70
     0
  9
$MIRRTEXT
 70
     1
  9
$DRAGMODE
 70
     2
  9
$LTSCALE
 40
1.0
  9
$OSMODE
 70
    37
  9
$ATTMODE
 70
     1
  9
$TEXTSIZE
 40
2.5
  9
$TRACEWID
 40
1.0
  9
$TEXTSTYLE
  7
STANDARD
  9
$CLAYER
  8
0
  9
$CELTYPE
  6
BYLAYER
  9
$CECOLOR
 62
   256
  9
$DIMSCALE
 40
1.0
  9
$DIMASZ
 40
2.5
  9
$DIMEXO
 40
0.625
  9
$DIMDLI
 40
3.75
  9
$DIMRND
 40
0.0
  9
$DIMDLE
 40
0.0
  9
$DIMEXE
 40
1.25
  9
$DIMTP
 40
0.0
  9
$DIMTM
 40
0.0
  9
$DIMTXT
 40
2.5
  9
$DIMCEN
 40
2.5
  9
$DIMTSZ
 40
0.0
  9
$DIMTOL
 70
     0
  9
$DIMLIM
 70
     0
  9
$DIMTIH
 70
     1
  9
$DIMTOH
 70
     0
  9
$DIMSE1
 70
     0
  9
$DIMSE2
 70
     0
  9
$DIMTAD
 70
     1
  9
$DIMZIN
 70
     8
  9
$DIMBLK
  1

  9
$DIMASO
 70
     1
  9
$DIMSHO
 70
     1
  9
$DIMPOST
  1
mm
  9
$DIMAPOST
  1

  9
$DIMALT
 70
     0
  9
$DIMALTD
 70
     3
  9
$DIMALTF
 40
0.0393700787401575
  9
$DIMLFAC
 40
1.0
  9
$DIMTOFL
 70
     1
  9
$DIMTVP
 40
0.0
  9
$DIMTIX
 70
     0
  9
$DIMSOXD
 70
     0
  9
$DIMSAH
 70
     0
  9
$DIMBLK1
  1

  9
$DIMBLK2
  1

  9
$DIMSTYLE
  2
ISO-25
  9
$DIMCLRD
 70
     0
  9
$DIMCLRE
 70
     0
  9
$DIMCLRT
 70
     0
  9
$DIMTFAC
 40
1.0
  9
$DIMGAP
 40
0.625
  9
$LUNITS
 70
     2
  9
$LUPREC
 70
     4
  9
$SKETCHINC
 40
1.0
  9
$FILLETRAD
 40
10.0
  9
$AUNITS
 70
     0
  9
$AUPREC
 70
     0
  9
$MENU
  1
.
  9
$ELEVATION
 40
0.0
  9
$PELEVATION
 40
0.0
  9
$THICKNESS
 40
0.0
  9
$LIMCHECK
 70
     0
  9
$CHAMFERA
 40
0.0
  9
$CHAMFERB
 40
0.0
  9
$SKPOLY
 70
     0
  9
$TDCREATE
 40
2458317.629867639
  9
$TDUPDATE
 40
2458317.629871076
  9
$TDINDWG
 40
0.0000000116
  9
$TDUSRTIMER
 40
0.0000000116
  9
$USRTIMER
 70
     1
  9
$ANGBASE
 50
0.0
  9
$ANGDIR
 70
     0
  9
$PDMODE
 70
     0
  9
$PDSIZE
 40
0.0
  9
$PLINEWID
 40
0.0
  9
$COORDS
 70
     1
  9
$SPLFRAME
 70
     0
  9
$SPLINETYPE
 70
     6
  9
$SPLINESEGS
 70
     8
  9
$ATTDIA
 70
     0
  9
$ATTREQ
 70
     1
  9
$HANDLING
 70
     1
  9
$HANDSEED
  5
12A
  9
$SURFTAB1
 70
     6
  9
$SURFTAB2
 70
     6
  9
$SURFTYPE
 70
     6
  9
$SURFU
 70
     6
  9
$SURFV
 70
     6
  9
$UCSNAME
  2

  9
$UCSORG
 10
0.0
 20
0.0
 30
0.0
  9
$UCSXDIR
 10
1.0
 20
0.0
 30
0.0
  9
$UCSYDIR
 10
0.0
 20
1.0
 30
0.0
  9
$PUCSNAME
  2

  9
$PUCSORG
 10
0.0
 20
0.0
 30
0.0
  9
$PUCSXDIR
 10
1.0
 20
0.0
 30
0.0
  9
$PUCSYDIR
 10
0.0
 20
1.0
 30
0.0
  9
$USERI1
 70
     0
  9
$USERI2
 70
     0
  9
$USERI3
 70
     0
  9
$USERI4
 70
     0
  9
$USERI5
 70
     0
  9
$USERR1
 40
0.0
  9
$USERR2
 40
0.0
  9
$USERR3
 40
0.0
  9
$USERR4
 40
0.0
  9
$USERR5
 40
0.0
  9
$WORLDVIEW
 70
     1
  9
$SHADEDGE
 70
     3
  9
$SHADEDIF
 70
    70
  9
$TILEMODE
 70
     1
  9
$MAXACTVP
 70
    64
  9
$PLIMCHECK
 70
     0
  9
$PEXTMIN
 10
1.000000000000000E+20
 20
1.000000000000000E+20
 30
1.000000000000000E+20
  9
$PEXTMAX
 10
-1.000000000000000E+20
 20
-1.000000000000000E+20
 30
-1.000000000000000E+20
  9
$PLIMMIN
 10
0.0
 20
0.0
  9
$PLIMMAX
 10
420.0
 20
297.0
  9
$UNITMODE
 70
     0
  9
$VISRETAIN
 70
     1
  9
$PLINEGEN
 70
     0
  9
$PSLTSCALE
 70
     1
  0
ENDSEC
  0
SECTION
  2
TABLES
  0
TABLE
  2
VPORT
 70
     1
  0
VPORT
  2
*ACTIVE
 70
     0
 10
0.0
 20
0.0
 11
1.0
 21
1.0
 12
405.0
 22
350.0
 13
0.0
 23
0.0
 14
10.0
 24
10.0
 15
10.0
 25
10.0
 16
0.0
 26
0.0
 36
1.0
 17
0.0
 27
0.0
 37
0.0
 40
700.0
 41
1.157142857142857
 42
50.0
 43
0.0
 44
0.0
 50
0.0
 51
0.0
 71
     0
 72
   100
 73
     1
 74
     3
 75
     0
 76
     0
 77
     0
 78
     0
  0
ENDTAB
  0
TABLE
  2
LTYPE
 70
     1
  0
LTYPE
  2
CONTINUOUS
 70
     0
  3
Solid line
 72
    65
 73
     0
 40
0.0
  0
ENDTAB
  0
TABLE
  2
LAYER
 70
     2
  0
LAYER
  2
0
 70
     0
 62
     7
  6
CONTINUOUS
  0
LAYER
  2
DEFPOINTS
 70
     0
 62
     7
  6
CONTINUOUS
  0
ENDTAB
  0
TABLE
  2
STYLE
 70
     2
  0
STYLE
  2
STANDARD
 70
     0
 40
0.0
 41
1.0
 50
0.0
 71
     0
 42
2.5
  3
txt
  4

  0
STYLE
  2
SPACECLAIM_ASME_CB
 70
     0
 40
0.0
 41
1.0
 50
0.0
 71
     0
 42
2.5
  3
SpaceClaim ASME.ttf
  4

  0
ENDTAB
  0
TABLE
  2
VIEW
 70
     0
  0
ENDTAB
  0
TABLE
  2
UCS
 70
     0
  0
ENDTAB
  0
TABLE
  2
APPID
 70
     1
  0
APPID
  2
ACAD
 70
     0
  0
ENDTAB
  0
TABLE
  2
DIMSTYLE
 70
     2
  0
DIMSTYLE
  2
ISO-25
 70
     0
  3

  4

  5

  6

  7

 40
1.0
 41
2.5
 42
0.625
 43
3.75
 44
1.25
 45
0.0
 46
0.0
 47
0.0
 48
0.0
140
2.5
141
2.5
142
0.0
143
0.03937007874016
144
1.0
145
0.0
146
1.0
147
0.625
 71
     0
 72
     0
 73
     0
 74
     0
 75
     0
 76
     0
 77
     1
 78
     8
170
     0
171
     3
172
     1
173
     0
174
     0
175
     0
176
     0
177
     0
178
     0
  0
DIMSTYLE
  2
SPACECLAIM_ASME_CB
 70
     0
  3

  4

  5

  6

  7

 40
1.0
 41
0.18
 42
0.0625
 43
0.38
 44
0.18
 45
0.0
 46
0.0
 47
0.0
 48
0.0
140
0.18
141
0.09
142
0.0
143
25.4
144
1.0
145
0.0
146
1.0
147
0.09
 71
     0
 72
     0
 73
     1
 74
     1
 75
     0
 76
     0
 77
     0
 78
     0
170
     0
171
     2
172
     0
173
     0
174
     0
175
     0
176
     0
177
     0
178
     0
  0
ENDTAB
  0
ENDSEC
  0
SECTION
  2
BLOCKS
  0
BLOCK
  8
0
  2
$MODEL_SPACE
 70
     0
 10
0.0
 20
0.0
 30
0.0
  3
$MODEL_SPACE
  1

  0
ENDBLK
  5
21
  8
0
  0
BLOCK
 67
     1
  8
0
  2
$PAPER_SPACE
 70
     0
 10
0.0
 20
0.0
 30
0.0
  3
$PAPER_SPACE
  1

  0
ENDBLK
  5
1D
 67
     1
  8
0
  0
BLOCK
  8
0
  2
*D1
 70
     1
 10
0.0
 20
0.0
 30
0.0
  3
*D1
  1

  0
LINE
  5
72
  8
0
 62
     7
 10
810.0
 20
699.9375
 30
0.0
 11
810.0
 21
349.8199999999999
 31
0.0
  0
LINE
  5
73
  8
0
 62
     7
 10
810.0
 20
0.0624999999999775
 30
0.0
 11
810.0
 21
350.1799999999999
 31
0.0
  0
LINE
  5
74
  8
0
 62
     7
 10
810.0
 20
349.9999999999999
 30
0.0
 11
860.0
 21
349.9999999999999
 31
0.0
  0
LINE
  5
75
  8
0
 62
     7
 10
785.0
 20
349.9999999999999
 30
0.0
 11
760.0
 21
349.9999999999999
 31
0.0
  0
LINE
  5
76
  8
0
 62
     7
 10
835.0
 20
349.9999999999999
 30
0.0
 11
860.0
 21
349.9999999999999
 31
0.0
  0
SOLID
  5
77
  8
0
 62
     7
 10
785.0
 20
345.8333333333332
 30
0.0
 11
785.0
 21
354.1666666666666
 31
0.0
 12
810.0
 22
349.9999999999999
 32
0.0
 13
810.0
 23
349.9999999999999
 33
0.0
  0
SOLID
  5
78
  8
0
 62
     7
 10
835.0
 20
354.1666666666666
 30
0.0
 11
835.0
 21
345.8333333333332
 31
0.0
 12
810.0
 22
349.9999999999999
 32
0.0
 13
810.0
 23
349.9999999999999
 33
0.0
  0
TEXT
  5
79
  8
0
  6
CONTINUOUS
 62
     7
 10
858.2900000000001
 20
340.9999999999999
 30
0.0
 40
18.0
  1
0mm
  7
SPACECLAIM_ASME_CB
  0
POINT
  5
7A
  8
DEFPOINTS
 62
     0
 10
810.0
 20
700.0
 30
0.0
  0
POINT
  5
7B
  8
DEFPOINTS
 62
     0
 10
810.0
 20
-0.0000000000000225
 30
0.0
  0
POINT
  5
7C
  8
DEFPOINTS
 62
     0
 10
810.0
 20
349.9999999999999
 30
0.0
  0
ENDBLK
  5
71
  8
0
  0
BLOCK
  8
0
  2
*D2
 70
     1
 10
0.0
 20
0.0
 30
0.0
  3
*D2
  1

  0
LINE
  5
82
  8
0
 62
     7
 10
398.2300086926092
 20
750.0
 30
0.0
 11
373.2300086926092
 21
750.0
 31
0.0
  0
LINE
  5
83
  8
0
 62
     7
 10
373.2300086926092
 20
750.0
 30
0.0
 11
373.2300086926092
 21
700.0
 31
0.0
  0
LINE
  5
84
  8
0
 62
     7
 10
0.0625000000000194
 20
700.0
 30
0.0
 11
373.4100086926092
 21
700.0
 31
0.0
  0
LINE
  5
85
  8
0
 62
     7
 10
809.9375
 20
700.0
 30
0.0
 11
373.0500086926092
 21
700.0
 31
0.0
  0
LINE
  5
86
  8
0
 62
     7
 10
373.2300086926092
 20
725.0
 30
0.0
 11
373.2300086926092
 21
750.0
 31
0.0
  0
SOLID
  5
87
  8
0
 62
     7
 10
377.3966753592759
 20
675.0
 30
0.0
 11
369.0633420259425
 21
675.0
 31
0.0
 12
373.2300086926092
 22
700.0
 32
0.0
 13
373.2300086926092
 23
700.0
 33
0.0
  0
SOLID
  5
88
  8
0
 62
     7
 10
369.0633420259425
 20
725.0
 30
0.0
 11
377.3966753592759
 21
725.0
 31
0.0
 12
373.2300086926092
 22
700.0
 32
0.0
 13
373.2300086926092
 23
700.0
 33
0.0
  0
TEXT
  5
89
  8
0
  6
CONTINUOUS
 62
     7
 10
396.5200086926092
 20
741.0
 30
0.0
 40
18.0
  1
0mm
  7
SPACECLAIM_ASME_CB
  0
POINT
  5
8A
  8
DEFPOINTS
 62
     0
 10
0.0000000000000194
 20
700.0
 30
0.0
  0
POINT
  5
8B
  8
DEFPOINTS
 62
     0
 10
810.0
 20
700.0
 30
0.0
  0
POINT
  5
8C
  8
DEFPOINTS
 62
     0
 10
373.2300086926092
 20
700.0
 30
0.0
  0
ENDBLK
  5
81
  8
0
  0
BLOCK
  8
0
  2
*D3
 70
     1
 10
0.0
 20
0.0
 30
0.0
  3
*D3
  1

  0
LINE
  5
92
  8
0
 62
     7
 10
149.4320782950041
 20
431.0
 30
0.0
 11
124.4320782950041
 21
431.0
 31
0.0
  0
LINE
  5
93
  8
0
 62
     7
 10
124.4320782950041
 20
431.0
 30
0.0
 11
124.4320782950041
 21
381.0
 31
0.0
  0
LINE
  5
94
  8
0
 62
     7
 10
87.56250000000003
 20
381.0
 30
0.0
 11
124.6120782950041
 21
381.0
 31
0.0
  0
LINE
  5
95
  8
0
 62
     7
 10
247.4375
 20
381.0
 30
0.0
 11
124.2520782950041
 21
381.0
 31
0.0
  0
LINE
  5
96
  8
0
 62
     7
 10
124.4320782950041
 20
406.0
 30
0.0
 11
124.4320782950041
 21
431.0
 31
0.0
  0
SOLID
  5
97
  8
0
 62
     7
 10
128.5987449616708
 20
356.0
 30
0.0
 11
120.2654116283374
 21
356.0
 31
0.0
 12
124.4320782950041
 22
381.0
 32
0.0
 13
124.4320782950041
 23
381.0
 33
0.0
  0
SOLID
  5
98
  8
0
 62
     7
 10
120.2654116283374
 20
406.0
 30
0.0
 11
128.5987449616708
 21
406.0
 31
0.0
 12
124.4320782950041
 22
381.0
 32
0.0
 13
124.4320782950041
 23
381.0
 33
0.0
  0
TEXT
  5
99
  8
0
  6
CONTINUOUS
 62
     7
 10
147.7220782950041
 20
422.0
 30
0.0
 40
18.0
  1
0mm
  7
SPACECLAIM_ASME_CB
  0
POINT
  5
9A
  8
DEFPOINTS
 62
     0
 10
87.50000000000003
 20
381.0
 30
0.0
  0
POINT
  5
9B
  8
DEFPOINTS
 62
     0
 10
247.5
 20
381.0
 30
0.0
  0
POINT
  5
9C
  8
DEFPOINTS
 62
     0
 10
124.4320782950041
 20
381.0
 30
0.0
  0
ENDBLK
  5
91
  8
0
  0
BLOCK
  8
0
  2
*D4
 70
     1
 10
0.0
 20
0.0
 30
0.0
  3
*D4
  1

  0
LINE
  5
A2
  8
0
 62
     7
 10
247.5
 20
380.9375
 30
0.0
 11
247.5
 21
283.3015490334523
 31
0.0
  0
LINE
  5
A3
  8
0
 62
     7
 10
247.5
 20
408.9375000000001
 30
0.0
 11
247.5
 21
283.3015490334523
 31
0.0
  0
LINE
  5
A4
  8
0
 62
     7
 10
247.5
 20
283.4815490334523
 30
0.0
 11
197.5
 21
283.4815490334523
 31
0.0
  0
LINE
  5
A5
  8
0
 62
     7
 10
272.5
 20
283.4815490334523
 30
0.0
 11
297.5
 21
283.4815490334523
 31
0.0
  0
LINE
  5
A6
  8
0
 62
     7
 10
222.5
 20
283.4815490334523
 30
0.0
 11
197.5
 21
283.4815490334523
 31
0.0
  0
SOLID
  5
A7
  8
0
 62
     7
 10
272.5
 20
287.648215700119
 30
0.0
 11
272.5
 21
279.3148823667856
 31
0.0
 12
247.5
 22
283.4815490334523
 32
0.0
 13
247.5
 23
283.4815490334523
 33
0.0
  0
SOLID
  5
A8
  8
0
 62
     7
 10
222.5
 20
279.3148823667856
 30
0.0
 11
222.5
 21
287.648215700119
 31
0.0
 12
247.5
 22
283.4815490334523
 32
0.0
 13
247.5
 23
283.4815490334523
 33
0.0
  0
TEXT
  5
A9
  8
0
  6
CONTINUOUS
 62
     7
 10
154.21
 20
274.4815490334523
 30
0.0
 40
18.0
  1
0mm
  7
SPACECLAIM_ASME_CB
  0
POINT
  5
AA
  8
DEFPOINTS
 62
     0
 10
247.5
 20
381.0
 30
0.0
  0
POINT
  5
AB
  8
DEFPOINTS
 62
     0
 10
247.5
 20
409.0000000000001
 30
0.0
  0
POINT
  5
AC
  8
DEFPOINTS
 62
     0
 10
247.5
 20
283.4815490334523
 30
0.0
  0
ENDBLK
  5
A1
  8
0
  0
BLOCK
  8
0
  2
*D5
 70
     1
 10
0.0
 20
0.0
 30
0.0
  3
*D5
  1

  0
LINE
  5
B2
  8
0
 62
     7
 10
563.2629999999996
 20
440.0
 30
0.0
 11
538.2629999999996
 21
440.0
 31
0.0
  0
LINE
  5
B3
  8
0
 62
     7
 10
538.2629999999996
 20
440.0
 30
0.0
 11
538.2629999999996
 21
390.0
 31
0.0
  0
LINE
  5
B4
  8
0
 62
     7
 10
557.4375
 20
390.0
 30
0.0
 11
538.0829999999996
 21
390.0
 31
0.0
  0
LINE
  5
B5
  8
0
 62
     7
 10
617.4375
 20
390.0
 30
0.0
 11
538.0829999999996
 21
390.0
 31
0.0
  0
LINE
  5
B6
  8
0
 62
     7
 10
538.2629999999996
 20
415.0
 30
0.0
 11
538.2629999999996
 21
440.0
 31
0.0
  0
SOLID
  5
B7
  8
0
 62
     7
 10
542.4296666666662
 20
365.0
 30
0.0
 11
534.096333333333
 21
365.0
 31
0.0
 12
538.2629999999996
 22
390.0
 32
0.0
 13
538.2629999999996
 23
390.0
 33
0.0
  0
SOLID
  5
B8
  8
0
 62
     7
 10
534.096333333333
 20
415.0
 30
0.0
 11
542.4296666666662
 21
415.0
 31
0.0
 12
538.2629999999996
 22
390.0
 32
0.0
 13
538.2629999999996
 23
390.0
 33
0.0
  0
TEXT
  5
B9
  8
0
  6
CONTINUOUS
 62
     7
 10
561.5529999999997
 20
431.0
 30
0.0
 40
18.0
  1
0mm
  7
SPACECLAIM_ASME_CB
  0
POINT
  5
BA
  8
DEFPOINTS
 62
     0
 10
557.5
 20
390.0
 30
0.0
  0
POINT
  5
BB
  8
DEFPOINTS
 62
     0
 10
617.5
 20
390.0
 30
0.0
  0
POINT
  5
BC
  8
DEFPOINTS
 62
     0
 10
538.2629999999996
 20
390.0
 30
0.0
  0
ENDBLK
  5
B1
  8
0
  0
BLOCK
  8
0
  2
*D6
 70
     1
 10
0.0
 20
0.0
 30
0.0
  3
*D6
  1

  0
LINE
  5
C2
  8
0
 62
     7
 10
587.5
 20
390.0625
 30
0.0
 11
587.5000000000001
 21
481.6030102538324
 31
0.0
  0
LINE
  5
C3
  8
0
 62
     7
 10
587.5
 20
418.0625000000001
 30
0.0
 11
587.5
 21
481.6030102538324
 31
0.0
  0
LINE
  5
C4
  8
0
 62
     7
 10
587.5
 20
481.4230102538324
 30
0.0
 11
537.5
 21
481.4230102538324
 31
0.0
  0
LINE
  5
C5
  8
0
 62
     7
 10
612.5000000000001
 20
481.4230102538324
 30
0.0
 11
637.5000000000001
 21
481.4230102538324
 31
0.0
  0
LINE
  5
C6
  8
0
 62
     7
 10
562.5
 20
481.4230102538324
 30
0.0
 11
537.5
 21
481.4230102538324
 31
0.0
  0
SOLID
  5
C7
  8
0
 62
     7
 10
612.5000000000001
 20
485.5896769204991
 30
0.0
 11
612.5000000000001
 21
477.2563435871657
 31
0.0
 12
587.5000000000001
 22
481.4230102538324
 32
0.0
 13
587.5000000000001
 23
481.4230102538324
 33
0.0
  0
SOLID
  5
C8
  8
0
 62
     7
 10
562.5
 20
477.2563435871657
 30
0.0
 11
562.5
 21
485.5896769204991
 31
0.0
 12
587.5
 22
481.4230102538324
 32
0.0
 13
587.5
 23
481.4230102538324
 33
0.0
  0
TEXT
  5
C9
  8
0
  6
CONTINUOUS
 62
     7
 10
494.21
 20
472.4230102538324
 30
0.0
 40
18.0
  1
0mm
  7
SPACECLAIM_ASME_CB
  0
POINT
  5
CA
  8
DEFPOINTS
 62
     0
 10
587.5
 20
390.0
 30
0.0
  0
POINT
  5
CB
  8
DEFPOINTS
 62
     0
 10
587.5
 20
418.0000000000001
 30
0.0
  0
POINT
  5
CC
  8
DEFPOINTS
 62
     0
 10
587.5000000000001
 20
481.4230102538324
 30
0.0
  0
ENDBLK
  5
C1
  8
0
  0
BLOCK
  8
0
  2
*D7
 70
     1
 10
0.0
 20
0.0
 30
0.0
  3
*D7
  1

  0
LINE
  5
D2
  8
0
 62
     7
 10
174.7368805713888
 20
699.9375
 30
0.0
 11
174.7368805713888
 21
554.3200000000002
 31
0.0
  0
LINE
  5
D3
  8
0
 62
     7
 10
167.5
 20
409.0625000000001
 30
0.0
 11
167.5
 21
554.6800000000001
 31
0.0
  0
LINE
  5
D4
  8
0
 62
     7
 10
199.7368805713888
 20
554.5000000000001
 30
0.0
 11
224.7368805713888
 21
554.5000000000001
 31
0.0
  0
LINE
  5
D5
  8
0
 62
     7
 10
142.5
 20
554.5000000000001
 30
0.0
 11
117.5
 21
554.5000000000001
 31
0.0
  0
SOLID
  5
D6
  8
0
 62
     7
 10
199.7368805713888
 20
558.6666666666667
 30
0.0
 11
199.7368805713888
 21
550.3333333333335
 31
0.0
 12
174.7368805713888
 22
554.5000000000001
 32
0.0
 13
174.7368805713888
 23
554.5000000000001
 33
0.0
  0
SOLID
  5
D7
  8
0
 62
     7
 10
142.5
 20
550.3333333333335
 30
0.0
 11
142.5
 21
558.6666666666667
 31
0.0
 12
167.5
 22
554.5000000000001
 32
0.0
 13
167.5
 23
554.5000000000001
 33
0.0
  0
TEXT
  5
D8
  8
0
  6
CONTINUOUS
 62
     7
 10
127.1898805713888
 20
547.3360000000001
 30
0.0
 40
18.0
  1
7,237mm
  7
SPACECLAIM_ASME_CB
  0
POINT
  5
D9
  8
DEFPOINTS
 62
     0
 10
174.7368805713888
 20
700.0
 30
0.0
  0
POINT
  5
DA
  8
DEFPOINTS
 62
     0
 10
167.5
 20
409.0000000000001
 30
0.0
  0
POINT
  5
DB
  8
DEFPOINTS
 62
     0
 10
167.5
 20
554.5000000000001
 30
0.0
  0
ENDBLK
  5
D1
  8
0
  0
BLOCK
  8
0
  2
*D8
 70
     1
 10
0.0
 20
0.0
 30
0.0
  3
*D8
  1

  0
LINE
  5
E1
  8
0
 62
     7
 10
19.51300000000003
 20
397.9354126512192
 30
0.0
 11
-5.486999999999966
 21
397.9354126512192
 31
0.0
  0
LINE
  5
E2
  8
0
 62
     7
 10
-5.486999999999966
 20
397.9354126512192
 30
0.0
 11
-5.486999999999966
 21
397.9354126512188
 31
0.0
  0
LINE
  5
E3
  8
0
 62
     7
 10
87.43750000000003
 20
397.9354126512188
 30
0.0
 11
-5.666999999999966
 21
397.9354126512188
 31
0.0
  0
LINE
  5
E4
  8
0
 62
     7
 10
-0.062499999999989
 20
397.9354126512188
 30
0.0
 11
-5.666999999999966
 21
397.9354126512188
 31
0.0
  0
LINE
  5
E5
  8
0
 62
     7
 10
-5.486999999999965
 20
372.9354126512188
 30
0.0
 11
-5.486999999999963
 21
347.9354126512188
 31
0.0
  0
SOLID
  5
E6
  8
0
 62
     7
 10
-9.653666666666634
 20
422.9354126512188
 30
0.0
 11
-1.320333333333301
 21
422.9354126512188
 31
0.0
 12
-5.486999999999966
 22
397.9354126512188
 32
0.0
 13
-5.486999999999966
 23
397.9354126512188
 33
0.0
  0
SOLID
  5
E7
  8
0
 62
     7
 10
-1.320333333333298
 20
372.9354126512188
 30
0.0
 11
-9.65366666666663
 21
372.9354126512188
 31
0.0
 12
-5.486999999999966
 22
397.9354126512188
 32
0.0
 13
-5.486999999999966
 23
397.9354126512188
 33
0.0
  0
TEXT
  5
E8
  8
0
  6
CONTINUOUS
 62
     7
 10
17.80300000000003
 20
388.9354126512192
 30
0.0
 40
18.0
  1
0mm
  7
SPACECLAIM_ASME_CB
  0
POINT
  5
E9
  8
DEFPOINTS
 62
     0
 10
87.50000000000003
 20
397.9354126512188
 30
0.0
  0
POINT
  5
EA
  8
DEFPOINTS
 62
     0
 10
0.000000000000011
 20
397.9354126512188
 30
0.0
  0
POINT
  5
EB
  8
DEFPOINTS
 62
     0
 10
-5.486999999999966
 20
397.9354126512188
 30
0.0
  0
ENDBLK
  5
E0
  8
0
  0
BLOCK
  8
0
  2
*D9
 70
     1
 10
0.0
 20
0.0
 30
0.0
  3
*D9
  1

  0
LINE
  5
F1
  8
0
 62
     7
 10
591.179768361371
 20
699.9375
 30
0.0
 11
591.179768361371
 21
550.4511381742126
 31
0.0
  0
LINE
  5
F2
  8
0
 62
     7
 10
587.5
 20
418.0625000000001
 30
0.0
 11
587.5
 21
550.8111381742125
 31
0.0
  0
LINE
  5
F3
  8
0
 62
     7
 10
616.179768361371
 20
550.6311381742125
 30
0.0
 11
641.179768361371
 21
550.6311381742125
 31
0.0
  0
LINE
  5
F4
  8
0
 62
     7
 10
562.5
 20
550.6311381742125
 30
0.0
 11
537.5
 21
550.6311381742125
 31
0.0
  0
SOLID
  5
F5
  8
0
 62
     7
 10
616.179768361371
 20
554.7978048408792
 30
0.0
 11
616.179768361371
 21
546.4644715075459
 31
0.0
 12
591.179768361371
 22
550.6311381742125
 32
0.0
 13
591.179768361371
 23
550.6311381742125
 33
0.0
  0
SOLID
  5
F6
  8
0
 62
     7
 10
562.5
 20
546.4644715075459
 30
0.0
 11
562.5
 21
554.7978048408792
 31
0.0
 12
587.5
 22
550.6311381742125
 32
0.0
 13
587.5
 23
550.6311381742125
 33
0.0
  0
TEXT
  5
F7
  8
0
  6
CONTINUOUS
 62
     7
 10
549.9327683613707
 20
543.4671381742124
 30
0.0
 40
18.0
  1
3,68mm
  7
SPACECLAIM_ASME_CB
  0
POINT
  5
F8
  8
DEFPOINTS
 62
     0
 10
591.179768361371
 20
700.0
 30
0.0
  0
POINT
  5
F9
  8
DEFPOINTS
 62
     0
 10
587.5
 20
418.0000000000001
 30
0.0
  0
POINT
  5
FA
  8
DEFPOINTS
 62
     0
 10
587.5
 20
550.6311381742125
 30
0.0
  0
ENDBLK
  5
F0
  8
0
  0
BLOCK
  8
0
  2
*D10
 70
     1
 10
0.0
 20
0.0
 30
0.0
  3
*D10
  1

  0
LINE
  5
100
  8
0
 62
     7
 10
714.2994825024421
 20
404.3422263095262
 30
0.0
 11
689.2994825024421
 21
404.3422263095262
 31
0.0
  0
LINE
  5
101
  8
0
 62
     7
 10
689.2994825024421
 20
404.3422263095262
 30
0.0
 11
689.2994825024421
 21
404.3422263095263
 31
0.0
  0
LINE
  5
102
  8
0
 62
     7
 10
617.5625
 20
404.3422263095263
 30
0.0
 11
689.479482502442
 21
404.3422263095263
 31
0.0
  0
LINE
  5
103
  8
0
 62
     7
 10
809.9375
 20
404.3422263095263
 30
0.0
 11
689.1194825024421
 21
404.3422263095263
 31
0.0
  0
LINE
  5
104
  8
0
 62
     7
 10
689.2994825024421
 20
429.3422263095263
 30
0.0
 11
689.2994825024421
 21
454.3422263095263
 31
0.0
  0
SOLID
  5
105
  8
0
 62
     7
 10
693.4661491691087
 20
379.3422263095263
 30
0.0
 11
685.1328158357754
 21
379.3422263095263
 31
0.0
 12
689.2994825024421
 22
404.3422263095263
 32
0.0
 13
689.2994825024421
 23
404.3422263095263
 33
0.0
  0
SOLID
  5
106
  8
0
 62
     7
 10
685.1328158357754
 20
429.3422263095263
 30
0.0
 11
693.4661491691087
 21
429.3422263095263
 31
0.0
 12
689.2994825024421
 22
404.3422263095263
 32
0.0
 13
689.2994825024421
 23
404.3422263095263
 33
0.0
  0
TEXT
  5
107
  8
0
  6
CONTINUOUS
 62
     7
 10
712.5894825024421
 20
395.3422263095262
 30
0.0
 40
18.0
  1
0mm
  7
SPACECLAIM_ASME_CB
  0
POINT
  5
108
  8
DEFPOINTS
 62
     0
 10
617.5
 20
404.3422263095263
 30
0.0
  0
POINT
  5
109
  8
DEFPOINTS
 62
     0
 10
810.0
 20
404.3422263095263
 30
0.0
  0
POINT
  5
10A
  8
DEFPOINTS
 62
     0
 10
689.2994825024421
 20
404.3422263095263
 30
0.0
  0
ENDBLK
  5
FF
  8
0
  0
ENDSEC
  0
SECTION
  2
ENTITIES
  0
DIMENSION
  5
6A
  8
0
 62
     7
  2
*D1
 10
810.0
 20
349.9999999999999
 30
-0.0000000000000214
 11
880.7900000000001
 21
349.9999999999999
 31
-0.0000000000000214
 70
   160
  1
{\fSpaceClaim ASME CB|b0|i0;<>}
  3
SPACECLAIM_ASME_CB
 13
810.0
 23
700.0
 33
-0.0000000000000429
 14
810.0
 24
-0.0000000000000225
 34
0.0
1001
ACAD
1000
DSTYLE
1002
{
1070
   270
1070
     2
1070
     7
1000

1070
     6
1000

1070
   144
1040
1.0
1070
     4
1000
in
1070
   273
1070
     2
1070
   277
1070
     2
1070
   284
1070
     8
1070
   285
1070
     0
1070
    78
1070
     8
1070
   171
1070
     3
1070
   274
1070
     3
1070
   278
1070
    44
1070
    74
1070
     1
1070
   174
1070
     1
1070
    77
1070
     0
1070
    41
1040
25.0
1070
   173
1070
     1
1070
   140
1040
18.0
1070
   178
1070
     7
1070
   177
1070
     7
1070
   176
1070
     7
1070
   179
1070
     1
1070
   143
1040
0.0393700787401575
1070
   286
1070
     8
1070
   271
1070
     3
1070
     3
1000
mm
1070
   272
1070
     3
1070
    73
1070
     1
1002
}
  0
DIMENSION
  5
7D
  8
0
 62
     7
  2
*D2
 10
373.2300086926092
 20
700.0
 30
-0.0000000000000454
 11
419.0200086926092
 21
750.0
 31
-0.0000000000000454
 70
   160
  1
{\fSpaceClaim ASME CB|b0|i0;<>}
  3
SPACECLAIM_ASME_CB
 13
0.0000000000000194
 23
700.0
 33
-0.0000000000000429
 14
810.0
 24
700.0
 34
-0.0000000000000429
 50
90.0
1001
ACAD
1000
DSTYLE
1002
{
1070
   270
1070
     2
1070
     7
1000

1070
     6
1000

1070
   144
1040
1.0
1070
     4
1000
in
1070
   273
1070
     2
1070
   277
1070
     2
1070
   284
1070
     8
1070
   285
1070
     0
1070
    78
1070
     8
1070
   171
1070
     3
1070
   274
1070
     3
1070
   278
1070
    44
1070
    74
1070
     1
1070
   174
1070
     1
1070
    77
1070
     0
1070
    41
1040
25.0
1070
   173
1070
     1
1070
   140
1040
18.0
1070
   178
1070
     7
1070
   177
1070
     7
1070
   176
1070
     7
1070
   179
1070
     1
1070
   143
1040
0.0393700787401575
1070
   286
1070
     8
1070
   271
1070
     3
1070
     3
1000
mm
1070
   272
1070
     3
1070
    73
1070
     1
1002
}
  0
DIMENSION
  5
8D
  8
0
 62
     7
  2
*D3
 10
124.4320782950041
 20
381.0
 30
-0.0000000000000208
 11
170.2220782950041
 21
431.0
 31
-0.0000000000000208
 70
   160
  1
{\fSpaceClaim ASME CB|b0|i0;<>}
  3
SPACECLAIM_ASME_CB
 13
87.50000000000003
 23
381.0
 33
-0.0000000000000233
 14
247.5
 24
381.0
 34
-0.0000000000000233
 50
90.0
1001
ACAD
1000
DSTYLE
1002
{
1070
   270
1070
     2
1070
     7
1000

1070
     6
1000

1070
   144
1040
1.0
1070
     4
1000
in
1070
   273
1070
     2
1070
   277
1070
     2
1070
   284
1070
     8
1070
   285
1070
     0
1070
    78
1070
     8
1070
   171
1070
     3
1070
   274
1070
     3
1070
   278
1070
    44
1070
    74
1070
     1
1070
   174
1070
     1
1070
    77
1070
     0
1070
    41
1040
25.0
1070
   173
1070
     1
1070
   140
1040
18.0
1070
   178
1070
     7
1070
   177
1070
     7
1070
   176
1070
     7
1070
   179
1070
     1
1070
   143
1040
0.0393700787401575
1070
   286
1070
     8
1070
   271
1070
     3
1070
     3
1000
mm
1070
   272
1070
     3
1070
    73
1070
     1
1002
}
  0
DIMENSION
  5
9D
  8
0
 62
     7
  2
*D4
 10
247.5
 20
283.4815490334523
 30
-0.0000000000000174
 11
176.71
 21
283.4815490334523
 31
-0.0000000000000174
 70
   160
  1
{\fSpaceClaim ASME CB|b0|i0;<>}
  3
SPACECLAIM_ASME_CB
 13
247.5
 23
381.0
 33
-0.0000000000000233
 14
247.5
 24
409.0000000000001
 34
-0.000000000000025
 50
180.0
1001
ACAD
1000
DSTYLE
1002
{
1070
   270
1070
     2
1070
     7
1000

1070
     6
1000

1070
   144
1040
1.0
1070
     4
1000
in
1070
   273
1070
     2
1070
   277
1070
     2
1070
   284
1070
     8
1070
   285
1070
     0
1070
    78
1070
     8
1070
   171
1070
     3
1070
   274
1070
     3
1070
   278
1070
    44
1070
    74
1070
     1
1070
   174
1070
     1
1070
    77
1070
     0
1070
    41
1040
25.0
1070
   173
1070
     1
1070
   140
1040
18.0
1070
   178
1070
     7
1070
   177
1070
     7
1070
   176
1070
     7
1070
   179
1070
     1
1070
   143
1040
0.0393700787401575
1070
   286
1070
     8
1070
   271
1070
     3
1070
     3
1000
mm
1070
   272
1070
     3
1070
    73
1070
     1
1002
}
  0
DIMENSION
  5
AD
  8
0
 62
     7
  2
*D5
 10
538.2629999999996
 20
390.0
 30
-0.0000000000000215
 11
584.0529999999997
 21
440.0
 31
-0.0000000000000215
 70
   160
  1
{\fSpaceClaim ASME CB|b0|i0;<>}
  3
SPACECLAIM_ASME_CB
 13
557.5
 23
390.0
 33
-0.0000000000000239
 14
617.5
 24
390.0
 34
-0.0000000000000239
 50
90.0
1001
ACAD
1000
DSTYLE
1002
{
1070
   270
1070
     2
1070
     7
1000

1070
     6
1000

1070
   144
1040
1.0
1070
     4
1000
in
1070
   273
1070
     2
1070
   277
1070
     2
1070
   284
1070
     8
1070
   285
1070
     0
1070
    78
1070
     8
1070
   171
1070
     3
1070
   274
1070
     3
1070
   278
1070
    44
1070
    74
1070
     1
1070
   174
1070
     1
1070
    77
1070
     0
1070
    41
1040
25.0
1070
   173
1070
     1
1070
   140
1040
18.0
1070
   178
1070
     7
1070
   177
1070
     7
1070
   176
1070
     7
1070
   179
1070
     1
1070
   143
1040
0.0393700787401575
1070
   286
1070
     8
1070
   271
1070
     3
1070
     3
1000
mm
1070
   272
1070
     3
1070
    73
1070
     1
1002
}
  0
DIMENSION
  5
BD
  8
0
 62
     7
  2
*D6
 10
587.5
 20
481.4230102538324
 30
-0.0000000000000295
 11
516.71
 21
481.4230102538324
 31
-0.0000000000000295
 70
   160
  1
{\fSpaceClaim ASME CB|b0|i0;<>}
  3
SPACECLAIM_ASME_CB
 13
587.5
 23
390.0
 33
-0.0000000000000239
 14
587.5
 24
418.0000000000001
 34
-0.0000000000000256
 50
180.0
1001
ACAD
1000
DSTYLE
1002
{
1070
   270
1070
     2
1070
     7
1000

1070
     6
1000

1070
   144
1040
1.0
1070
     4
1000
in
1070
   273
1070
     2
1070
   277
1070
     2
1070
   284
1070
     8
1070
   285
1070
     0
1070
    78
1070
     8
1070
   171
1070
     3
1070
   274
1070
     3
1070
   278
1070
    44
1070
    74
1070
     1
1070
   174
1070
     1
1070
    77
1070
     0
1070
    41
1040
25.0
1070
   173
1070
     1
1070
   140
1040
18.0
1070
   178
1070
     7
1070
   177
1070
     7
1070
   176
1070
     7
1070
   179
1070
     1
1070
   143
1040
0.0393700787401575
1070
   286
1070
     8
1070
   271
1070
     3
1070
     3
1000
mm
1070
   272
1070
     3
1070
    73
1070
     1
1002
}
  0
DIMENSION
  5
CD
  8
0
 62
     7
  2
*D7
 10
167.5
 20
554.5000000000001
 30
-0.000000000000034
 11
171.2898805713888
 21
554.5000000000001
 31
-0.000000000000034
 70
   160
  1
{\fSpaceClaim ASME CB|b0|i0;<>}
  3
SPACECLAIM_ASME_CB
 13
174.7368805713888
 23
700.0
 33
-0.0000000000000429
 14
167.5
 24
409.0000000000001
 34
-0.000000000000025
1001
ACAD
1000
DSTYLE
1002
{
1070
   270
1070
     2
1070
     7
1000

1070
     6
1000

1070
   144
1040
1.0
1070
     4
1000
in
1070
   273
1070
     2
1070
   277
1070
     2
1070
   284
1070
     8
1070
   285
1070
     0
1070
    78
1070
     8
1070
   171
1070
     3
1070
   274
1070
     3
1070
   278
1070
    44
1070
    74
1070
     1
1070
   174
1070
     1
1070
    77
1070
     0
1070
    41
1040
25.0
1070
   173
1070
     1
1070
   140
1040
18.0
1070
   178
1070
     7
1070
   177
1070
     7
1070
   176
1070
     7
1070
   179
1070
     1
1070
   143
1040
0.0393700787401575
1070
   286
1070
     8
1070
   271
1070
     3
1070
     3
1000
mm
1070
   272
1070
     3
1070
    73
1070
     1
1002
}
  0
DIMENSION
  5
DC
  8
0
 62
     7
  2
*D8
 10
-5.486999999999966
 20
397.9354126512188
 30
-0.0000000000000244
 11
40.30300000000003
 21
397.9354126512192
 31
-0.0000000000000244
 70
   160
  1
{\fSpaceClaim ASME CB|b0|i0;<>}
  3
SPACECLAIM_ASME_CB
 13
87.50000000000003
 23
397.9354126512188
 33
-0.0000000000000244
 14
0.000000000000011
 24
397.9354126512188
 34
-0.0000000000000244
 50
-90.0
1001
ACAD
1000
DSTYLE
1002
{
1070
   270
1070
     2
1070
     7
1000

1070
     6
1000

1070
   144
1040
1.0
1070
     4
1000
in
1070
   273
1070
     2
1070
   277
1070
     2
1070
   284
1070
     8
1070
   285
1070
     0
1070
    78
1070
     8
1070
   171
1070
     3
1070
   274
1070
     3
1070
   278
1070
    44
1070
    74
1070
     1
1070
   174
1070
     1
1070
    77
1070
     0
1070
    41
1040
25.0
1070
   173
1070
     1
1070
   140
1040
18.0
1070
   178
1070
     7
1070
   177
1070
     7
1070
   176
1070
     7
1070
   179
1070
     1
1070
   143
1040
0.0393700787401575
1070
   286
1070
     8
1070
   271
1070
     3
1070
     3
1000
mm
1070
   272
1070
     3
1070
    73
1070
     1
1002
}
  0
DIMENSION
  5
EC
  8
0
 62
     7
  2
*D9
 10
587.5
 20
550.6311381742125
 30
-0.0000000000000337
 11
587.7327683613706
 21
550.6311381742125
 31
-0.0000000000000337
 70
   160
  1
{\fSpaceClaim ASME CB|b0|i0;<>}
  3
SPACECLAIM_ASME_CB
 13
591.179768361371
 23
700.0
 33
-0.0000000000000429
 14
587.5
 24
418.0000000000001
 34
-0.0000000000000256
1001
ACAD
1000
DSTYLE
1002
{
1070
   270
1070
     2
1070
     7
1000

1070
     6
1000

1070
   144
1040
1.0
1070
     4
1000
in
1070
   273
1070
     2
1070
   277
1070
     2
1070
   284
1070
     8
1070
   285
1070
     0
1070
    78
1070
     8
1070
   171
1070
     3
1070
   274
1070
     3
1070
   278
1070
    44
1070
    74
1070
     1
1070
   174
1070
     1
1070
    77
1070
     0
1070
    41
1040
25.0
1070
   173
1070
     1
1070
   140
1040
18.0
1070
   178
1070
     7
1070
   177
1070
     7
1070
   176
1070
     7
1070
   179
1070
     1
1070
   143
1040
0.0393700787401575
1070
   286
1070
     8
1070
   271
1070
     3
1070
     3
1000
mm
1070
   272
1070
     3
1070
    73
1070
     1
1002
}
  0
DIMENSION
  5
FB
  8
0
 62
     7
  2
*D10
 10
689.2994825024421
 20
404.3422263095263
 30
-0.0000000000000248
 11
735.0894825024421
 21
404.3422263095262
 31
-0.0000000000000248
 70
   160
  1
{\fSpaceClaim ASME CB|b0|i0;<>}
  3
SPACECLAIM_ASME_CB
 13
617.5
 23
404.3422263095263
 33
-0.0000000000000248
 14
810.0
 24
404.3422263095263
 34
-0.0000000000000248
 50
90.0
1001
ACAD
1000
DSTYLE
1002
{
1070
   270
1070
     2
1070
     7
1000

1070
     6
1000

1070
   144
1040
1.0
1070
     4
1000
in
1070
   273
1070
     2
1070
   277
1070
     2
1070
   284
1070
     8
1070
   285
1070
     0
1070
    78
1070
     8
1070
   171
1070
     3
1070
   274
1070
     3
1070
   278
1070
    44
1070
    74
1070
     1
1070
   174
1070
     1
1070
    77
1070
     0
1070
    41
1040
25.0
1070
   173
1070
     1
1070
   140
1040
18.0
1070
   178
1070
     7
1070
   177
1070
     7
1070
   176
1070
     7
1070
   179
1070
     1
1070
   143
1040
0.0393700787401575
1070
   286
1070
     8
1070
   271
1070
     3
1070
     3
1000
mm
1070
   272
1070
     3
1070
    73
1070
     1
1002
}
  0
LINE
  5
10B
  8
0
 10
0.0
 20
0.0
 30
0.0
 11
0.0000000000000194
 21
700.0
 31
0.0
  0
LINE
  5
10C
  8
0
 10
0.0000000000000194
 20
700.0
 30
0.0
 11
810.0
 21
700.0
 31
0.0
  0
LINE
  5
10D
  8
0
 10
810.0
 20
700.0
 30
0.0
 11
810.0
 21
0.0
 31
0.0
  0
LINE
  5
10E
  8
0
 10
810.0
 20
-0.0000000000000225
 30
0.0
 11
0.0
 21
0.0
 31
0.0
  0
LINE
  5
10F
  8
0
 10
810.0
 20
-0.0000000000000225
 30
0.0
 11
810.0
 21
390.0
 31
0.0
  0
LINE
  5
110
  8
0
 10
365.0000000000001
 20
-0.0000000000000101
 30
0.0
 11
810.0
 21
-0.0000000000000225
 31
0.0
  0
LINE
  5
111
  8
0
 62
     7
 10
587.5
 20
418.0000000000001
 30
0.0
 11
617.5
 21
418.0000000000001
 31
0.0
  0
LINE
  5
112
  8
0
 62
     7
 10
617.5
 20
418.0000000000001
 30
0.0
 11
617.5
 21
390.0
 31
0.0
  0
LINE
  5
113
  8
0
 62
     7
 10
617.5
 20
390.0
 30
0.0
 11
587.5
 21
390.0
 31
0.0
  0
LINE
  5
114
  8
0
 62
     7
 10
587.5
 20
418.0000000000001
 30
0.0
 11
557.5
 21
418.0000000000001
 31
0.0
  0
LINE
  5
115
  8
0
 62
     7
 10
557.5
 20
418.0000000000001
 30
0.0
 11
557.5
 21
390.0
 31
0.0
  0
LINE
  5
116
  8
0
 62
     7
 10
557.5
 20
390.0
 30
0.0
 11
587.5
 21
390.0
 31
0.0
  0
LINE
  5
117
  8
0
 10
0.0
 20
0.0
 30
0.0
 11
0.0000000000000106
 21
381.0
 31
0.0
  0
LINE
  5
118
  8
0
 10
335.0
 20
-0.0000000000000093
 30
0.0
 11
0.0
 21
0.0
 31
0.0
  0
LINE
  5
119
  8
0
 62
     7
 10
167.5
 20
409.0000000000001
 30
0.0
 11
247.5
 21
409.0000000000001
 31
0.0
  0
LINE
  5
11A
  8
0
 62
     7
 10
247.5
 20
409.0000000000001
 30
0.0
 11
247.5
 21
381.0
 31
0.0
  0
LINE
  5
11B
  8
0
 62
     7
 10
247.5
 20
381.0
 30
0.0
 11
167.5
 21
381.0
 31
0.0
  0
LINE
  5
11C
  8
0
 62
     7
 10
167.5
 20
409.0000000000001
 30
0.0
 11
87.50000000000001
 21
409.0000000000001
 31
0.0
  0
LINE
  5
11D
  8
0
 62
     7
 10
87.50000000000003
 20
409.0000000000001
 30
0.0
 11
87.50000000000003
 21
381.0
 31
0.0
  0
LINE
  5
11E
  8
0
 62
     7
 10
87.50000000000004
 20
381.0
 30
0.0
 11
167.5
 21
381.0
 31
0.0
  0
ENDSEC
  0
EOF
