  0
SECTION
  2
HEADER
  9
$ACADVER
  1
AC1009
  9
$DWGCODEPAGE
  3
ansi_1252
  9
$INSBASE
 10
0.0
 20
0.0
 30
0.0
  9
$EXTMIN
 10
0.0
 20
-0.0000000000000164
 30
-0.0000000000000429
  9
$EXTMAX
 10
590.0
 20
700.0
 30
0.0
  9
$LIMMIN
 10
0.0
 20
0.0
  9
$LIMMAX
 10
420.0
 20
297.0
  9
$ORTHOMODE
 70
     0
  9
$REGENMODE
 70
     1
  9
$FILLMODE
 70
     1
  9
$QTEXTMODE
 70
     0
  9
$MIRRTEXT
 70
     1
  9
$DRAGMODE
 70
     2
  9
$LTSCALE
 40
1.0
  9
$OSMODE
 70
    37
  9
$ATTMODE
 70
     1
  9
$TEXTSIZE
 40
2.5
  9
$TRACEWID
 40
1.0
  9
$TEXTSTYLE
  7
STANDARD
  9
$CLAYER
  8
0
  9
$CELTYPE
  6
BYLAYER
  9
$CECOLOR
 62
   256
  9
$DIMSCALE
 40
1.0
  9
$DIMASZ
 40
2.5
  9
$DIMEXO
 40
0.625
  9
$DIMDLI
 40
3.75
  9
$DIMRND
 40
0.0
  9
$DIMDLE
 40
0.0
  9
$DIMEXE
 40
1.25
  9
$DIMTP
 40
0.0
  9
$DIMTM
 40
0.0
  9
$DIMTXT
 40
2.5
  9
$DIMCEN
 40
2.5
  9
$DIMTSZ
 40
0.0
  9
$DIMTOL
 70
     0
  9
$DIMLIM
 70
     0
  9
$DIMTIH
 70
     1
  9
$DIMTOH
 70
     0
  9
$DIMSE1
 70
     0
  9
$DIMSE2
 70
     0
  9
$DIMTAD
 70
     1
  9
$DIMZIN
 70
     8
  9
$DIMBLK
  1

  9
$DIMASO
 70
     1
  9
$DIMSHO
 70
     1
  9
$DIMPOST
  1
mm
  9
$DIMAPOST
  1

  9
$DIMALT
 70
     0
  9
$DIMALTD
 70
     3
  9
$DIMALTF
 40
0.0393700787401575
  9
$DIMLFAC
 40
1.0
  9
$DIMTOFL
 70
     1
  9
$DIMTVP
 40
0.0
  9
$DIMTIX
 70
     0
  9
$DIMSOXD
 70
     0
  9
$DIMSAH
 70
     0
  9
$DIMBLK1
  1

  9
$DIMBLK2
  1

  9
$DIMSTYLE
  2
ISO-25
  9
$DIMCLRD
 70
     0
  9
$DIMCLRE
 70
     0
  9
$DIMCLRT
 70
     0
  9
$DIMTFAC
 40
1.0
  9
$DIMGAP
 40
0.625
  9
$LUNITS
 70
     2
  9
$LUPREC
 70
     4
  9
$SKETCHINC
 40
1.0
  9
$FILLETRAD
 40
10.0
  9
$AUNITS
 70
     0
  9
$AUPREC
 70
     0
  9
$MENU
  1
.
  9
$ELEVATION
 40
0.0
  9
$PELEVATION
 40
0.0
  9
$THICKNESS
 40
0.0
  9
$LIMCHECK
 70
     0
  9
$CHAMFERA
 40
0.0
  9
$CHAMFERB
 40
0.0
  9
$SKPOLY
 70
     0
  9
$TDCREATE
 40
2458316.414939468
  9
$TDUPDATE
 40
2458316.41494037
  9
$TDINDWG
 40
0.0000000116
  9
$TDUSRTIMER
 40
0.0000000116
  9
$USRTIMER
 70
     1
  9
$ANGBASE
 50
0.0
  9
$ANGDIR
 70
     0
  9
$PDMODE
 70
     0
  9
$PDSIZE
 40
0.0
  9
$PLINEWID
 40
0.0
  9
$COORDS
 70
     1
  9
$SPLFRAME
 70
     0
  9
$SPLINETYPE
 70
     6
  9
$SPLINESEGS
 70
     8
  9
$ATTDIA
 70
     0
  9
$ATTREQ
 70
     1
  9
$HANDLING
 70
     1
  9
$HANDSEED
  5
156
  9
$SURFTAB1
 70
     6
  9
$SURFTAB2
 70
     6
  9
$SURFTYPE
 70
     6
  9
$SURFU
 70
     6
  9
$SURFV
 70
     6
  9
$UCSNAME
  2

  9
$UCSORG
 10
0.0
 20
0.0
 30
0.0
  9
$UCSXDIR
 10
1.0
 20
0.0
 30
0.0
  9
$UCSYDIR
 10
0.0
 20
1.0
 30
0.0
  9
$PUCSNAME
  2

  9
$PUCSORG
 10
0.0
 20
0.0
 30
0.0
  9
$PUCSXDIR
 10
1.0
 20
0.0
 30
0.0
  9
$PUCSYDIR
 10
0.0
 20
1.0
 30
0.0
  9
$USERI1
 70
     0
  9
$USERI2
 70
     0
  9
$USERI3
 70
     0
  9
$USERI4
 70
     0
  9
$USERI5
 70
     0
  9
$USERR1
 40
0.0
  9
$USERR2
 40
0.0
  9
$USERR3
 40
0.0
  9
$USERR4
 40
0.0
  9
$USERR5
 40
0.0
  9
$WORLDVIEW
 70
     1
  9
$SHADEDGE
 70
     3
  9
$SHADEDIF
 70
    70
  9
$TILEMODE
 70
     1
  9
$MAXACTVP
 70
    64
  9
$PLIMCHECK
 70
     0
  9
$PEXTMIN
 10
1.000000000000000E+20
 20
1.000000000000000E+20
 30
1.000000000000000E+20
  9
$PEXTMAX
 10
-1.000000000000000E+20
 20
-1.000000000000000E+20
 30
-1.000000000000000E+20
  9
$PLIMMIN
 10
0.0
 20
0.0
  9
$PLIMMAX
 10
420.0
 20
297.0
  9
$UNITMODE
 70
     0
  9
$VISRETAIN
 70
     1
  9
$PLINEGEN
 70
     0
  9
$PSLTSCALE
 70
     1
  0
ENDSEC
  0
SECTION
  2
TABLES
  0
TABLE
  2
VPORT
 70
     1
  0
VPORT
  2
*ACTIVE
 70
     0
 10
0.0
 20
0.0
 11
1.0
 21
1.0
 12
295.0
 22
350.0
 13
0.0
 23
0.0
 14
10.0
 24
10.0
 15
10.0
 25
10.0
 16
0.0
 26
0.0
 36
1.0
 17
0.0
 27
0.0
 37
0.0
 40
700.0
 41
0.8428571428571429
 42
50.0
 43
0.0
 44
0.0
 50
0.0
 51
0.0
 71
     0
 72
   100
 73
     1
 74
     3
 75
     0
 76
     0
 77
     0
 78
     0
  0
ENDTAB
  0
TABLE
  2
LTYPE
 70
     1
  0
LTYPE
  2
CONTINUOUS
 70
     0
  3
Solid line
 72
    65
 73
     0
 40
0.0
  0
ENDTAB
  0
TABLE
  2
LAYER
 70
     2
  0
LAYER
  2
0
 70
     0
 62
     7
  6
CONTINUOUS
  0
LAYER
  2
DEFPOINTS
 70
     0
 62
     7
  6
CONTINUOUS
  0
ENDTAB
  0
TABLE
  2
STYLE
 70
     2
  0
STYLE
  2
STANDARD
 70
     0
 40
0.0
 41
1.0
 50
0.0
 71
     0
 42
2.5
  3
txt
  4

  0
STYLE
  2
SPACECLAIM_ASME_CB
 70
     0
 40
0.0
 41
1.0
 50
0.0
 71
     0
 42
2.5
  3
SpaceClaim ASME.ttf
  4

  0
ENDTAB
  0
TABLE
  2
VIEW
 70
     0
  0
ENDTAB
  0
TABLE
  2
UCS
 70
     0
  0
ENDTAB
  0
TABLE
  2
APPID
 70
     1
  0
APPID
  2
ACAD
 70
     0
  0
ENDTAB
  0
TABLE
  2
DIMSTYLE
 70
     2
  0
DIMSTYLE
  2
ISO-25
 70
     0
  3

  4

  5

  6

  7

 40
1.0
 41
2.5
 42
0.625
 43
3.75
 44
1.25
 45
0.0
 46
0.0
 47
0.0
 48
0.0
140
2.5
141
2.5
142
0.0
143
0.03937007874016
144
1.0
145
0.0
146
1.0
147
0.625
 71
     0
 72
     0
 73
     0
 74
     0
 75
     0
 76
     0
 77
     1
 78
     8
170
     0
171
     3
172
     1
173
     0
174
     0
175
     0
176
     0
177
     0
178
     0
  0
DIMSTYLE
  2
SPACECLAIM_ASME_CB
 70
     0
  3

  4

  5

  6

  7

 40
1.0
 41
0.18
 42
0.0625
 43
0.38
 44
0.18
 45
0.0
 46
0.0
 47
0.0
 48
0.0
140
0.18
141
0.09
142
0.0
143
25.4
144
1.0
145
0.0
146
1.0
147
0.09
 71
     0
 72
     0
 73
     1
 74
     1
 75
     0
 76
     0
 77
     0
 78
     0
170
     0
171
     2
172
     0
173
     0
174
     0
175
     0
176
     0
177
     0
178
     0
  0
ENDTAB
  0
ENDSEC
  0
SECTION
  2
BLOCKS
  0
BLOCK
  8
0
  2
$MODEL_SPACE
 70
     0
 10
0.0
 20
0.0
 30
0.0
  3
$MODEL_SPACE
  1

  0
ENDBLK
  5
21
  8
0
  0
BLOCK
 67
     1
  8
0
  2
$PAPER_SPACE
 70
     0
 10
0.0
 20
0.0
 30
0.0
  3
$PAPER_SPACE
  1

  0
ENDBLK
  5
1D
 67
     1
  8
0
  0
BLOCK
  8
0
  2
*D1
 70
     1
 10
0.0
 20
0.0
 30
0.0
  3
*D1
  1

  0
LINE
  5
72
  8
0
 62
     7
 10
0.0000000000000194
 20
699.9375
 30
0.0
 11
0.0000000000000178
 21
364.3105598876043
 31
0.0
  0
LINE
  5
73
  8
0
 62
     7
 10
0.0
 20
0.0624999999999913
 30
0.0
 11
0.0
 21
364.6705598876043
 31
0.0
  0
LINE
  5
74
  8
0
 62
     7
 10
0.0000000000000178
 20
364.4905598876043
 30
0.0
 11
50.0
 21
364.4905598876043
 31
0.0
  0
LINE
  5
75
  8
0
 62
     7
 10
-24.99999999999998
 20
364.4905598876043
 30
0.0
 11
-49.99999999999999
 21
364.4905598876043
 31
0.0
  0
LINE
  5
76
  8
0
 62
     7
 10
25.0
 20
364.4905598876043
 30
0.0
 11
50.0
 21
364.4905598876043
 31
0.0
  0
SOLID
  5
77
  8
0
 62
     7
 10
-24.99999999999998
 20
360.3238932209376
 30
0.0
 11
-24.99999999999998
 21
368.6572265542709
 31
0.0
 12
0.0000000000000178
 22
364.4905598876043
 32
0.0
 13
0.0000000000000178
 23
364.4905598876043
 33
0.0
  0
SOLID
  5
78
  8
0
 62
     7
 10
25.0
 20
368.6572265542709
 30
0.0
 11
25.0
 21
360.3238932209376
 31
0.0
 12
0.0
 22
364.4905598876043
 32
0.0
 13
0.0
 23
364.4905598876043
 33
0.0
  0
TEXT
  5
79
  8
0
  6
CONTINUOUS
 62
     7
 10
6.710000000000002
 20
355.4905598876043
 30
0.0
 40
18.0
  1
0mm
  7
SPACECLAIM_ASME_CB
  0
POINT
  5
7A
  8
DEFPOINTS
 62
     0
 10
0.0000000000000194
 20
700.0
 30
0.0
  0
POINT
  5
7B
  8
DEFPOINTS
 62
     0
 10
0.0
 20
-0.0000000000000087
 30
0.0
  0
POINT
  5
7C
  8
DEFPOINTS
 62
     0
 10
0.0
 20
364.4905598876043
 30
0.0
  0
ENDBLK
  5
71
  8
0
  0
BLOCK
  8
0
  2
*D2
 70
     1
 10
0.0
 20
0.0
 30
0.0
  3
*D2
  1

  0
LINE
  5
82
  8
0
 62
     7
 10
270.7629999999998
 20
750.0
 30
0.0
 11
245.7629999999998
 21
750.0
 31
0.0
  0
LINE
  5
83
  8
0
 62
     7
 10
245.7629999999998
 20
750.0
 30
0.0
 11
245.7629999999998
 21
700.0
 31
0.0
  0
LINE
  5
84
  8
0
 62
     7
 10
0.0625000000000194
 20
700.0
 30
0.0
 11
245.9429999999998
 21
700.0
 31
0.0
  0
LINE
  5
85
  8
0
 62
     7
 10
589.9375
 20
700.0
 30
0.0
 11
245.5829999999998
 21
700.0
 31
0.0
  0
LINE
  5
86
  8
0
 62
     7
 10
245.7629999999998
 20
725.0
 30
0.0
 11
245.7629999999998
 21
750.0
 31
0.0
  0
SOLID
  5
87
  8
0
 62
     7
 10
249.9296666666665
 20
675.0
 30
0.0
 11
241.5963333333331
 21
675.0
 31
0.0
 12
245.7629999999998
 22
700.0
 32
0.0
 13
245.7629999999998
 23
700.0
 33
0.0
  0
SOLID
  5
88
  8
0
 62
     7
 10
241.5963333333331
 20
725.0
 30
0.0
 11
249.9296666666665
 21
725.0
 31
0.0
 12
245.7629999999998
 22
700.0
 32
0.0
 13
245.7629999999998
 23
700.0
 33
0.0
  0
TEXT
  5
89
  8
0
  6
CONTINUOUS
 62
     7
 10
269.0529999999998
 20
741.0
 30
0.0
 40
18.0
  1
0mm
  7
SPACECLAIM_ASME_CB
  0
POINT
  5
8A
  8
DEFPOINTS
 62
     0
 10
0.0000000000000194
 20
700.0
 30
0.0
  0
POINT
  5
8B
  8
DEFPOINTS
 62
     0
 10
590.0
 20
700.0
 30
0.0
  0
POINT
  5
8C
  8
DEFPOINTS
 62
     0
 10
245.7629999999998
 20
700.0
 30
0.0
  0
ENDBLK
  5
81
  8
0
  0
BLOCK
  8
0
  2
*D3
 70
     1
 10
0.0
 20
0.0
 30
0.0
  3
*D3
  1

  0
LINE
  5
92
  8
0
 62
     7
 10
0.0000000000000194
 20
699.9375
 30
0.0
 11
0.0000000000000178
 21
363.82
 31
0.0
  0
LINE
  5
93
  8
0
 62
     7
 10
0.0000000000000008
 20
28.06249999999999
 30
0.0
 11
0.0
 21
364.18
 31
0.0
  0
LINE
  5
94
  8
0
 62
     7
 10
0.0000000000000178
 20
364.0
 30
0.0
 11
50.0
 21
364.0
 31
0.0
  0
LINE
  5
95
  8
0
 62
     7
 10
-24.99999999999998
 20
364.0
 30
0.0
 11
-49.99999999999999
 21
364.0
 31
0.0
  0
LINE
  5
96
  8
0
 62
     7
 10
25.0
 20
364.0
 30
0.0
 11
50.0
 21
364.0
 31
0.0
  0
SOLID
  5
97
  8
0
 62
     7
 10
-24.99999999999998
 20
359.8333333333333
 30
0.0
 11
-24.99999999999998
 21
368.1666666666667
 31
0.0
 12
0.0000000000000178
 22
364.0
 32
0.0
 13
0.0000000000000178
 23
364.0
 33
0.0
  0
SOLID
  5
98
  8
0
 62
     7
 10
25.0
 20
368.1666666666667
 30
0.0
 11
25.0
 21
359.8333333333333
 31
0.0
 12
0.0
 22
364.0
 32
0.0
 13
0.0
 23
364.0
 33
0.0
  0
TEXT
  5
99
  8
0
  6
CONTINUOUS
 62
     7
 10
6.710000000000002
 20
355.0
 30
0.0
 40
18.0
  1
0mm
  7
SPACECLAIM_ASME_CB
  0
POINT
  5
9A
  8
DEFPOINTS
 62
     0
 10
0.0000000000000194
 20
700.0
 30
0.0
  0
POINT
  5
9B
  8
DEFPOINTS
 62
     0
 10
0.0000000000000008
 20
27.99999999999999
 30
0.0
  0
POINT
  5
9C
  8
DEFPOINTS
 62
     0
 10
0.0000000000000008
 20
364.0
 30
0.0
  0
ENDBLK
  5
91
  8
0
  0
BLOCK
  8
0
  2
*D4
 70
     1
 10
0.0
 20
0.0
 30
0.0
  3
*D4
  1

  0
LINE
  5
A2
  8
0
 62
     7
 10
277.4986497688951
 20
328.0000000000002
 30
0.0
 11
252.4986497688951
 21
328.0000000000002
 31
0.0
  0
LINE
  5
A3
  8
0
 62
     7
 10
252.4986497688951
 20
328.0000000000002
 30
0.0
 11
252.4986497688951
 21
377.9999999999997
 31
0.0
  0
LINE
  5
A4
  8
0
 62
     7
 10
28.06250000000001
 20
378.0
 30
0.0
 11
252.6786497688951
 21
378.0000000000002
 31
0.0
  0
LINE
  5
A5
  8
0
 62
     7
 10
589.9374999999999
 20
378.0
 30
0.0
 11
252.3186497688951
 21
377.9999999999997
 31
0.0
  0
LINE
  5
A6
  8
0
 62
     7
 10
252.4986497688951
 20
353.0000000000002
 30
0.0
 11
252.4986497688951
 21
328.0000000000002
 31
0.0
  0
SOLID
  5
A7
  8
0
 62
     7
 10
256.6653164355618
 20
353.0000000000002
 30
0.0
 11
248.3319831022285
 21
353.0000000000002
 31
0.0
 12
252.4986497688951
 22
378.0000000000002
 32
0.0
 13
252.4986497688951
 23
378.0000000000002
 33
0.0
  0
SOLID
  5
A8
  8
0
 62
     7
 10
248.3319831022284
 20
402.9999999999997
 30
0.0
 11
256.6653164355617
 21
402.9999999999997
 31
0.0
 12
252.4986497688951
 22
377.9999999999997
 32
0.0
 13
252.4986497688951
 23
377.9999999999997
 33
0.0
  0
TEXT
  5
A9
  8
0
  6
CONTINUOUS
 62
     7
 10
275.7886497688951
 20
319.0000000000002
 30
0.0
 40
18.0
  1
0mm
  7
SPACECLAIM_ASME_CB
  0
POINT
  5
AA
  8
DEFPOINTS
 62
     0
 10
28.00000000000001
 20
378.0
 30
0.0
  0
POINT
  5
AB
  8
DEFPOINTS
 62
     0
 10
589.9999999999999
 20
378.0
 30
0.0
  0
POINT
  5
AC
  8
DEFPOINTS
 62
     0
 10
344.078649768895
 20
377.9999999999998
 30
0.0
  0
ENDBLK
  5
A1
  8
0
  0
BLOCK
  8
0
  2
*D5
 70
     1
 10
0.0
 20
0.0
 30
0.0
  3
*D5
  1

  0
LINE
  5
B2
  8
0
 62
     7
 10
561.9999999999999
 20
28.06249999999998
 30
0.0
 11
561.9999999999999
 21
183.1441729022276
 31
0.0
  0
LINE
  5
B3
  8
0
 62
     7
 10
521.7029187041167
 20
349.9375
 30
0.0
 11
521.7029187041167
 21
182.7841729022275
 31
0.0
  0
LINE
  5
B4
  8
0
 62
     7
 10
521.7029187041167
 20
182.9641729022275
 30
0.0
 11
566.9909187041167
 21
182.9641729022275
 31
0.0
  0
LINE
  5
B5
  8
0
 62
     7
 10
586.9999999999999
 20
182.9641729022275
 30
0.0
 11
611.9999999999999
 21
182.9641729022275
 31
0.0
  0
LINE
  5
B6
  8
0
 62
     7
 10
496.7029187041167
 20
182.9641729022275
 30
0.0
 11
471.7029187041167
 21
182.9641729022275
 31
0.0
  0
SOLID
  5
B7
  8
0
 62
     7
 10
586.9999999999999
 20
187.1308395688942
 30
0.0
 11
586.9999999999999
 21
178.7975062355609
 31
0.0
 12
561.9999999999999
 22
182.9641729022275
 32
0.0
 13
561.9999999999999
 23
182.9641729022275
 33
0.0
  0
SOLID
  5
B8
  8
0
 62
     7
 10
496.7029187041167
 20
178.7975062355609
 30
0.0
 11
496.7029187041167
 21
187.1308395688942
 31
0.0
 12
521.7029187041167
 22
182.9641729022275
 32
0.0
 13
521.7029187041167
 23
182.9641729022275
 33
0.0
  0
TEXT
  5
B9
  8
0
  6
CONTINUOUS
 62
     7
 10
467.9009187041167
 20
175.8001729022275
 30
0.0
 40
18.0
  1
40,297mm
  7
SPACECLAIM_ASME_CB
  0
POINT
  5
BA
  8
DEFPOINTS
 62
     0
 10
561.9999999999999
 20
27.99999999999998
 30
0.0
  0
POINT
  5
BB
  8
DEFPOINTS
 62
     0
 10
521.7029187041167
 20
350.0
 30
0.0
  0
POINT
  5
BC
  8
DEFPOINTS
 62
     0
 10
521.7029187041167
 20
182.9641729022275
 30
0.0
  0
ENDBLK
  5
B1
  8
0
  0
BLOCK
  8
0
  2
*D6
 70
     1
 10
0.0
 20
0.0
 30
0.0
  3
*D6
  1

  0
LINE
  5
C2
  8
0
 62
     7
 10
590.0
 20
0.0624999999999836
 30
0.0
 11
590.0
 21
175.18
 31
0.0
  0
LINE
  5
C3
  8
0
 62
     7
 10
590.0
 20
349.9375
 30
0.0
 11
590.0
 21
174.82
 31
0.0
  0
LINE
  5
C4
  8
0
 62
     7
 10
590.0
 20
175.0
 30
0.0
 11
540.0
 21
175.0
 31
0.0
  0
LINE
  5
C5
  8
0
 62
     7
 10
615.0
 20
175.0
 30
0.0
 11
640.0
 21
175.0
 31
0.0
  0
LINE
  5
C6
  8
0
 62
     7
 10
565.0
 20
175.0
 30
0.0
 11
540.0
 21
175.0
 31
0.0
  0
SOLID
  5
C7
  8
0
 62
     7
 10
615.0
 20
179.1666666666667
 30
0.0
 11
615.0
 21
170.8333333333333
 31
0.0
 12
590.0
 22
175.0
 32
0.0
 13
590.0
 23
175.0
 33
0.0
  0
SOLID
  5
C8
  8
0
 62
     7
 10
565.0
 20
170.8333333333333
 30
0.0
 11
565.0
 21
179.1666666666667
 31
0.0
 12
590.0
 22
175.0
 32
0.0
 13
590.0
 23
175.0
 33
0.0
  0
TEXT
  5
C9
  8
0
  6
CONTINUOUS
 62
     7
 10
496.71
 20
166.0
 30
0.0
 40
18.0
  1
0mm
  7
SPACECLAIM_ASME_CB
  0
POINT
  5
CA
  8
DEFPOINTS
 62
     0
 10
590.0
 20
-0.0000000000000164
 30
0.0
  0
POINT
  5
CB
  8
DEFPOINTS
 62
     0
 10
590.0
 20
350.0
 30
0.0
  0
POINT
  5
CC
  8
DEFPOINTS
 62
     0
 10
590.0
 20
175.0
 30
0.0
  0
ENDBLK
  5
C1
  8
0
  0
BLOCK
  8
0
  2
*D7
 70
     1
 10
0.0
 20
0.0
 30
0.0
  3
*D7
  1

  0
LINE
  5
D2
  8
0
 62
     7
 10
577.2286370761145
 20
27.93749999999997
 30
0.0
 11
577.2286370761145
 21
-73.6873934746866
 31
0.0
  0
LINE
  5
D3
  8
0
 62
     7
 10
577.2286370761145
 20
-0.062500000000016
 30
0.0
 11
577.2286370761145
 21
-73.6873934746866
 31
0.0
  0
LINE
  5
D4
  8
0
 62
     7
 10
577.2286370761145
 20
-73.5073934746866
 30
0.0
 11
627.2286370761145
 21
-73.5073934746866
 31
0.0
  0
LINE
  5
D5
  8
0
 62
     7
 10
552.2286370761145
 20
-73.5073934746866
 30
0.0
 11
527.2286370761145
 21
-73.5073934746866
 31
0.0
  0
LINE
  5
D6
  8
0
 62
     7
 10
602.2286370761145
 20
-73.5073934746866
 30
0.0
 11
627.2286370761145
 21
-73.5073934746866
 31
0.0
  0
SOLID
  5
D7
  8
0
 62
     7
 10
552.2286370761145
 20
-77.67406014135327
 30
0.0
 11
552.2286370761145
 21
-69.34072680801992
 31
0.0
 12
577.2286370761145
 22
-73.5073934746866
 32
0.0
 13
577.2286370761145
 23
-73.5073934746866
 33
0.0
  0
SOLID
  5
D8
  8
0
 62
     7
 10
602.2286370761145
 20
-69.34072680801992
 30
0.0
 11
602.2286370761145
 21
-77.67406014135327
 31
0.0
 12
577.2286370761145
 22
-73.5073934746866
 32
0.0
 13
577.2286370761145
 23
-73.5073934746866
 33
0.0
  0
TEXT
  5
D9
  8
0
  6
CONTINUOUS
 62
     7
 10
625.5186370761146
 20
-82.5073934746866
 30
0.0
 40
18.0
  1
0mm
  7
SPACECLAIM_ASME_CB
  0
POINT
  5
DA
  8
DEFPOINTS
 62
     0
 10
577.2286370761145
 20
27.99999999999997
 30
0.0
  0
POINT
  5
DB
  8
DEFPOINTS
 62
     0
 10
577.2286370761145
 20
-0.000000000000016
 30
0.0
  0
POINT
  5
DC
  8
DEFPOINTS
 62
     0
 10
577.2286370761145
 20
-73.5073934746866
 30
0.0
  0
ENDBLK
  5
D1
  8
0
  0
BLOCK
  8
0
  2
*D8
 70
     1
 10
0.0
 20
0.0
 30
0.0
  3
*D8
  1

  0
LINE
  5
E2
  8
0
 62
     7
 10
19.83584880336868
 20
27.93749999999999
 30
0.0
 11
19.83584880336868
 21
-74.75519575107117
 31
0.0
  0
LINE
  5
E3
  8
0
 62
     7
 10
19.83584880336868
 20
-0.0625000000000092
 30
0.0
 11
19.83584880336868
 21
-74.75519575107117
 31
0.0
  0
LINE
  5
E4
  8
0
 62
     7
 10
19.83584880336868
 20
-74.57519575107116
 30
0.0
 11
69.83584880336868
 21
-74.57519575107116
 31
0.0
  0
LINE
  5
E5
  8
0
 62
     7
 10
-5.16415119663132
 20
-74.57519575107116
 30
0.0
 11
-30.16415119663132
 21
-74.57519575107116
 31
0.0
  0
LINE
  5
E6
  8
0
 62
     7
 10
44.83584880336868
 20
-74.57519575107116
 30
0.0
 11
69.83584880336868
 21
-74.57519575107116
 31
0.0
  0
SOLID
  5
E7
  8
0
 62
     7
 10
-5.16415119663132
 20
-78.74186241773783
 30
0.0
 11
-5.16415119663132
 21
-70.40852908440449
 31
0.0
 12
19.83584880336868
 22
-74.57519575107116
 32
0.0
 13
19.83584880336868
 23
-74.57519575107116
 33
0.0
  0
SOLID
  5
E8
  8
0
 62
     7
 10
44.83584880336868
 20
-70.40852908440449
 30
0.0
 11
44.83584880336868
 21
-78.74186241773783
 31
0.0
 12
19.83584880336868
 22
-74.57519575107116
 32
0.0
 13
19.83584880336868
 23
-74.57519575107116
 33
0.0
  0
TEXT
  5
E9
  8
0
  6
CONTINUOUS
 62
     7
 10
68.12584880336868
 20
-83.57519575107116
 30
0.0
 40
18.0
  1
0mm
  7
SPACECLAIM_ASME_CB
  0
POINT
  5
EA
  8
DEFPOINTS
 62
     0
 10
19.83584880336868
 20
27.99999999999999
 30
0.0
  0
POINT
  5
EB
  8
DEFPOINTS
 62
     0
 10
19.83584880336868
 20
-0.0000000000000092
 30
0.0
  0
POINT
  5
EC
  8
DEFPOINTS
 62
     0
 10
19.83584880336868
 20
-74.57519575107116
 30
0.0
  0
ENDBLK
  5
E1
  8
0
  0
BLOCK
  8
0
  2
*D9
 70
     1
 10
0.0
 20
0.0
 30
0.0
  3
*D9
  1

  0
LINE
  5
F2
  8
0
 62
     7
 10
562.0
 20
671.9375
 30
0.0
 11
562.0
 21
644.3200021082292
 31
0.0
  0
LINE
  5
F3
  8
0
 62
     7
 10
562.0
 20
617.0625042164575
 30
0.0
 11
562.0
 21
644.6800021082291
 31
0.0
  0
LINE
  5
F4
  8
0
 62
     7
 10
562.0
 20
644.5000021082292
 30
0.0
 11
612.0
 21
644.5000021082292
 31
0.0
  0
LINE
  5
F5
  8
0
 62
     7
 10
537.0
 20
644.5000021082292
 30
0.0
 11
512.0
 21
644.5000021082292
 31
0.0
  0
LINE
  5
F6
  8
0
 62
     7
 10
587.0
 20
644.5000021082292
 30
0.0
 11
612.0
 21
644.5000021082292
 31
0.0
  0
SOLID
  5
F7
  8
0
 62
     7
 10
537.0
 20
640.3333354415626
 30
0.0
 11
537.0
 21
648.6666687748958
 31
0.0
 12
562.0
 22
644.5000021082292
 32
0.0
 13
562.0
 23
644.5000021082292
 33
0.0
  0
SOLID
  5
F8
  8
0
 62
     7
 10
587.0
 20
648.6666687748958
 30
0.0
 11
587.0
 21
640.3333354415626
 31
0.0
 12
562.0
 22
644.5000021082292
 32
0.0
 13
562.0
 23
644.5000021082292
 33
0.0
  0
TEXT
  5
F9
  8
0
  6
CONTINUOUS
 62
     7
 10
610.2900000000001
 20
635.5000021082292
 30
0.0
 40
18.0
  1
0mm
  7
SPACECLAIM_ASME_CB
  0
POINT
  5
FA
  8
DEFPOINTS
 62
     0
 10
562.0
 20
672.0
 30
0.0
  0
POINT
  5
FB
  8
DEFPOINTS
 62
     0
 10
562.0
 20
617.0000042164575
 30
0.0
  0
POINT
  5
FC
  8
DEFPOINTS
 62
     0
 10
562.0
 20
644.5000021082292
 30
0.0
  0
ENDBLK
  5
F1
  8
0
  0
BLOCK
  8
0
  2
*D10
 70
     1
 10
0.0
 20
0.0
 30
0.0
  3
*D10
  1

  0
LINE
  5
102
  8
0
 62
     7
 10
590.0
 20
699.9375
 30
0.0
 11
590.0
 21
594.7568315420544
 31
0.0
  0
LINE
  5
103
  8
0
 62
     7
 10
590.0
 20
671.9375
 30
0.0
 11
590.0
 21
594.7568315420544
 31
0.0
  0
LINE
  5
104
  8
0
 62
     7
 10
590.0
 20
594.9368315420544
 30
0.0
 11
640.0
 21
594.9368315420544
 31
0.0
  0
LINE
  5
105
  8
0
 62
     7
 10
565.0
 20
594.9368315420544
 30
0.0
 11
540.0
 21
594.9368315420544
 31
0.0
  0
LINE
  5
106
  8
0
 62
     7
 10
615.0
 20
594.9368315420544
 30
0.0
 11
640.0
 21
594.9368315420544
 31
0.0
  0
SOLID
  5
107
  8
0
 62
     7
 10
565.0
 20
590.7701648753878
 30
0.0
 11
565.0
 21
599.103498208721
 31
0.0
 12
590.0
 22
594.9368315420544
 32
0.0
 13
590.0
 23
594.9368315420544
 33
0.0
  0
SOLID
  5
108
  8
0
 62
     7
 10
615.0
 20
599.103498208721
 30
0.0
 11
615.0
 21
590.7701648753878
 31
0.0
 12
590.0
 22
594.9368315420544
 32
0.0
 13
590.0
 23
594.9368315420544
 33
0.0
  0
TEXT
  5
109
  8
0
  6
CONTINUOUS
 62
     7
 10
638.2900000000001
 20
585.9368315420544
 30
0.0
 40
18.0
  1
0mm
  7
SPACECLAIM_ASME_CB
  0
POINT
  5
10A
  8
DEFPOINTS
 62
     0
 10
590.0
 20
700.0
 30
0.0
  0
POINT
  5
10B
  8
DEFPOINTS
 62
     0
 10
590.0
 20
672.0
 30
0.0
  0
POINT
  5
10C
  8
DEFPOINTS
 62
     0
 10
590.0
 20
594.9368315420544
 30
0.0
  0
ENDBLK
  5
101
  8
0
  0
BLOCK
  8
0
  2
*D11
 70
     1
 10
0.0
 20
0.0
 30
0.0
  3
*D11
  1

  0
LINE
  5
112
  8
0
 62
     7
 10
590.0
 20
547.9375
 30
0.0
 11
590.0
 21
456.1415556566776
 31
0.0
  0
LINE
  5
113
  8
0
 62
     7
 10
562.0
 20
378.0625
 30
0.0
 11
562.0
 21
456.5015556566776
 31
0.0
  0
LINE
  5
114
  8
0
 62
     7
 10
590.0
 20
456.3215556566776
 30
0.0
 11
640.0
 21
456.3215556566776
 31
0.0
  0
LINE
  5
115
  8
0
 62
     7
 10
615.0
 20
456.3215556566776
 30
0.0
 11
640.0
 21
456.3215556566776
 31
0.0
  0
LINE
  5
116
  8
0
 62
     7
 10
537.0
 20
456.3215556566776
 30
0.0
 11
512.0
 21
456.3215556566776
 31
0.0
  0
SOLID
  5
117
  8
0
 62
     7
 10
615.0
 20
460.4882223233442
 30
0.0
 11
615.0
 21
452.1548889900109
 31
0.0
 12
590.0
 22
456.3215556566776
 32
0.0
 13
590.0
 23
456.3215556566776
 33
0.0
  0
SOLID
  5
118
  8
0
 62
     7
 10
537.0
 20
452.1548889900109
 30
0.0
 11
537.0
 21
460.4882223233442
 31
0.0
 12
562.0
 22
456.3215556566776
 32
0.0
 13
562.0
 23
456.3215556566776
 33
0.0
  0
TEXT
  5
119
  8
0
  6
CONTINUOUS
 62
     7
 10
638.308
 20
447.3215556566776
 30
0.0
 40
18.0
  1
28mm
  7
SPACECLAIM_ASME_CB
  0
POINT
  5
11A
  8
DEFPOINTS
 62
     0
 10
590.0
 20
548.0
 30
0.0
  0
POINT
  5
11B
  8
DEFPOINTS
 62
     0
 10
562.0
 20
378.0
 30
0.0
  0
POINT
  5
11C
  8
DEFPOINTS
 62
     0
 10
562.0
 20
456.3215556566776
 30
0.0
  0
ENDBLK
  5
111
  8
0
  0
BLOCK
  8
0
  2
*D12
 70
     1
 10
0.0
 20
0.0
 30
0.0
  3
*D12
  1

  0
LINE
  5
122
  8
0
 62
     7
 10
249.8539821546674
 20
511.2050558203619
 30
0.0
 11
224.8539821546674
 21
511.2050558203619
 31
0.0
  0
LINE
  5
123
  8
0
 62
     7
 10
224.8539821546674
 20
511.2050558203619
 30
0.0
 11
224.8539821546674
 21
511.205055820362
 31
0.0
  0
LINE
  5
124
  8
0
 62
     7
 10
589.9375
 20
511.205055820362
 30
0.0
 11
224.6739821546674
 21
511.205055820362
 31
0.0
  0
LINE
  5
125
  8
0
 62
     7
 10
170.0625
 20
548.0
 30
0.0
 11
225.0339821546675
 21
548.0
 31
0.0
  0
LINE
  5
126
  8
0
 62
     7
 10
224.8539821546674
 20
573.0
 30
0.0
 11
224.8539821546674
 21
598.0
 31
0.0
  0
SOLID
  5
127
  8
0
 62
     7
 10
229.0206488213341
 20
486.205055820362
 30
0.0
 11
220.6873154880008
 21
486.205055820362
 31
0.0
 12
224.8539821546674
 22
511.205055820362
 32
0.0
 13
224.8539821546674
 23
511.205055820362
 33
0.0
  0
SOLID
  5
128
  8
0
 62
     7
 10
220.6873154880008
 20
573.0
 30
0.0
 11
229.0206488213341
 21
573.0
 31
0.0
 12
224.8539821546674
 22
548.0
 32
0.0
 13
224.8539821546674
 23
548.0
 33
0.0
  0
TEXT
  5
129
  8
0
  6
CONTINUOUS
 62
     7
 10
248.1439821546674
 20
504.0410558203619
 30
0.0
 40
18.0
  1
36,795mm
  7
SPACECLAIM_ASME_CB
  0
POINT
  5
12A
  8
DEFPOINTS
 62
     0
 10
590.0
 20
511.205055820362
 30
0.0
  0
POINT
  5
12B
  8
DEFPOINTS
 62
     0
 10
170.0
 20
548.0
 30
0.0
  0
POINT
  5
12C
  8
DEFPOINTS
 62
     0
 10
224.8539821546674
 20
548.0
 30
0.0
  0
ENDBLK
  5
121
  8
0
  0
ENDSEC
  0
SECTION
  2
ENTITIES
  0
DIMENSION
  5
6A
  8
0
 62
     7
  2
*D1
 10
0.0
 20
364.4905598876043
 30
-0.0000000000000223
 11
29.21
 21
364.4905598876043
 31
-0.0000000000000223
 70
   160
  1
{\fSpaceClaim ASME CB|b0|i0;<>}
  3
SPACECLAIM_ASME_CB
 13
0.0000000000000194
 23
700.0
 33
-0.0000000000000429
 14
0.0
 24
-0.0000000000000087
 34
0.0
1001
ACAD
1000
DSTYLE
1002
{
1070
   270
1070
     2
1070
     7
1000

1070
     6
1000

1070
   144
1040
1.0
1070
     4
1000
in
1070
   273
1070
     2
1070
   277
1070
     2
1070
   284
1070
     8
1070
   285
1070
     0
1070
    78
1070
     8
1070
   171
1070
     3
1070
   274
1070
     3
1070
   278
1070
    44
1070
    74
1070
     1
1070
   174
1070
     1
1070
    77
1070
     0
1070
    41
1040
25.0
1070
   173
1070
     1
1070
   140
1040
18.0
1070
   178
1070
     7
1070
   177
1070
     7
1070
   176
1070
     7
1070
   179
1070
     1
1070
   143
1040
0.0393700787401575
1070
   286
1070
     8
1070
   271
1070
     3
1070
     3
1000
mm
1070
   272
1070
     3
1070
    73
1070
     1
1002
}
  0
DIMENSION
  5
7D
  8
0
 62
     7
  2
*D2
 10
245.7629999999998
 20
700.0
 30
-0.0000000000000458
 11
291.5529999999998
 21
750.0
 31
-0.0000000000000458
 70
   160
  1
{\fSpaceClaim ASME CB|b0|i0;<>}
  3
SPACECLAIM_ASME_CB
 13
0.0000000000000194
 23
700.0
 33
-0.0000000000000429
 14
590.0
 24
700.0
 34
-0.0000000000000429
 50
90.0
1001
ACAD
1000
DSTYLE
1002
{
1070
   270
1070
     2
1070
     7
1000

1070
     6
1000

1070
   144
1040
1.0
1070
     4
1000
in
1070
   273
1070
     2
1070
   277
1070
     2
1070
   284
1070
     8
1070
   285
1070
     0
1070
    78
1070
     8
1070
   171
1070
     3
1070
   274
1070
     3
1070
   278
1070
    44
1070
    74
1070
     1
1070
   174
1070
     1
1070
    77
1070
     0
1070
    41
1040
25.0
1070
   173
1070
     1
1070
   140
1040
18.0
1070
   178
1070
     7
1070
   177
1070
     7
1070
   176
1070
     7
1070
   179
1070
     1
1070
   143
1040
0.0393700787401575
1070
   286
1070
     8
1070
   271
1070
     3
1070
     3
1000
mm
1070
   272
1070
     3
1070
    73
1070
     1
1002
}
  0
DIMENSION
  5
8D
  8
0
 62
     7
  2
*D3
 10
0.0
 20
364.0
 30
-0.0000000000000223
 11
29.21
 21
364.0
 31
-0.0000000000000223
 70
   160
  1
{\fSpaceClaim ASME CB|b0|i0;<>}
  3
SPACECLAIM_ASME_CB
 13
0.0000000000000194
 23
700.0
 33
-0.0000000000000429
 14
0.0000000000000008
 24
27.99999999999999
 34
-0.0000000000000017
1001
ACAD
1000
DSTYLE
1002
{
1070
   270
1070
     2
1070
     7
1000

1070
     6
1000

1070
   144
1040
1.0
1070
     4
1000
in
1070
   273
1070
     2
1070
   277
1070
     2
1070
   284
1070
     8
1070
   285
1070
     0
1070
    78
1070
     8
1070
   171
1070
     3
1070
   274
1070
     3
1070
   278
1070
    44
1070
    74
1070
     1
1070
   174
1070
     1
1070
    77
1070
     0
1070
    41
1040
25.0
1070
   173
1070
     1
1070
   140
1040
18.0
1070
   178
1070
     7
1070
   177
1070
     7
1070
   176
1070
     7
1070
   179
1070
     1
1070
   143
1040
0.0393700787401575
1070
   286
1070
     8
1070
   271
1070
     3
1070
     3
1000
mm
1070
   272
1070
     3
1070
    73
1070
     1
1002
}
  0
DIMENSION
  5
9D
  8
0
 62
     7
  2
*D4
 10
252.4986497688951
 20
377.9999999999997
 30
-0.0000000000000262
 11
298.2886497688951
 21
328.0000000000002
 31
-0.0000000000000262
 70
   160
  1
{\fSpaceClaim ASME CB|b0|i0;<>}
  3
SPACECLAIM_ASME_CB
 13
28.00000000000001
 23
378.0
 33
-0.0000000000000231
 14
589.9999999999999
 24
378.0
 34
-0.0000000000000231
 50
90.00000000000006
1001
ACAD
1000
DSTYLE
1002
{
1070
   270
1070
     2
1070
     7
1000

1070
     6
1000

1070
   144
1040
1.0
1070
     4
1000
in
1070
   273
1070
     2
1070
   277
1070
     2
1070
   284
1070
     8
1070
   285
1070
     0
1070
    78
1070
     8
1070
   171
1070
     3
1070
   274
1070
     3
1070
   278
1070
    44
1070
    74
1070
     1
1070
   174
1070
     1
1070
    77
1070
     0
1070
    41
1040
25.0
1070
   173
1070
     1
1070
   140
1040
18.0
1070
   178
1070
     7
1070
   177
1070
     7
1070
   176
1070
     7
1070
   179
1070
     1
1070
   143
1040
0.0393700787401575
1070
   286
1070
     8
1070
   271
1070
     3
1070
     3
1000
mm
1070
   272
1070
     3
1070
    73
1070
     1
1002
}
  0
DIMENSION
  5
AD
  8
0
 62
     7
  2
*D5
 10
521.7029187041167
 20
182.9641729022275
 30
-0.0000000000000112
 11
518.2559187041167
 21
182.9641729022275
 31
-0.0000000000000112
 70
   160
  1
{\fSpaceClaim ASME CB|b0|i0;<>}
  3
SPACECLAIM_ASME_CB
 13
561.9999999999999
 23
27.99999999999998
 33
-0.0000000000000017
 14
521.7029187041167
 24
350.0
 34
-0.0000000000000214
 50
-180.0
1001
ACAD
1000
DSTYLE
1002
{
1070
   270
1070
     2
1070
     7
1000

1070
     6
1000

1070
   144
1040
1.0
1070
     4
1000
in
1070
   273
1070
     2
1070
   277
1070
     2
1070
   284
1070
     8
1070
   285
1070
     0
1070
    78
1070
     8
1070
   171
1070
     3
1070
   274
1070
     3
1070
   278
1070
    44
1070
    74
1070
     1
1070
   174
1070
     1
1070
    77
1070
     0
1070
    41
1040
25.0
1070
   173
1070
     1
1070
   140
1040
18.0
1070
   178
1070
     7
1070
   177
1070
     7
1070
   176
1070
     7
1070
   179
1070
     1
1070
   143
1040
0.0393700787401575
1070
   286
1070
     8
1070
   271
1070
     3
1070
     3
1000
mm
1070
   272
1070
     3
1070
    73
1070
     1
1002
}
  0
DIMENSION
  5
BD
  8
0
 62
     7
  2
*D6
 10
590.0
 20
175.0
 30
-0.0000000000000107
 11
519.21
 21
175.0
 31
-0.0000000000000107
 70
   160
  1
{\fSpaceClaim ASME CB|b0|i0;<>}
  3
SPACECLAIM_ASME_CB
 13
590.0
 23
-0.0000000000000164
 33
0.0
 14
590.0
 24
350.0
 34
-0.0000000000000214
 50
-180.0
1001
ACAD
1000
DSTYLE
1002
{
1070
   270
1070
     2
1070
     7
1000

1070
     6
1000

1070
   144
1040
1.0
1070
     4
1000
in
1070
   273
1070
     2
1070
   277
1070
     2
1070
   284
1070
     8
1070
   285
1070
     0
1070
    78
1070
     8
1070
   171
1070
     3
1070
   274
1070
     3
1070
   278
1070
    44
1070
    74
1070
     1
1070
   174
1070
     1
1070
    77
1070
     0
1070
    41
1040
25.0
1070
   173
1070
     1
1070
   140
1040
18.0
1070
   178
1070
     7
1070
   177
1070
     7
1070
   176
1070
     7
1070
   179
1070
     1
1070
   143
1040
0.0393700787401575
1070
   286
1070
     8
1070
   271
1070
     3
1070
     3
1000
mm
1070
   272
1070
     3
1070
    73
1070
     1
1002
}
  0
DIMENSION
  5
CD
  8
0
 62
     7
  2
*D7
 10
577.2286370761145
 20
-73.5073934746866
 30
0.0000000000000045
 11
648.0186370761146
 21
-73.5073934746866
 31
0.0000000000000045
 70
   160
  1
{\fSpaceClaim ASME CB|b0|i0;<>}
  3
SPACECLAIM_ASME_CB
 13
577.2286370761145
 23
27.99999999999997
 33
-0.0000000000000017
 14
577.2286370761145
 24
-0.000000000000016
 34
0.0
1001
ACAD
1000
DSTYLE
1002
{
1070
   270
1070
     2
1070
     7
1000

1070
     6
1000

1070
   144
1040
1.0
1070
     4
1000
in
1070
   273
1070
     2
1070
   277
1070
     2
1070
   284
1070
     8
1070
   285
1070
     0
1070
    78
1070
     8
1070
   171
1070
     3
1070
   274
1070
     3
1070
   278
1070
    44
1070
    74
1070
     1
1070
   174
1070
     1
1070
    77
1070
     0
1070
    41
1040
25.0
1070
   173
1070
     1
1070
   140
1040
18.0
1070
   178
1070
     7
1070
   177
1070
     7
1070
   176
1070
     7
1070
   179
1070
     1
1070
   143
1040
0.0393700787401575
1070
   286
1070
     8
1070
   271
1070
     3
1070
     3
1000
mm
1070
   272
1070
     3
1070
    73
1070
     1
1002
}
  0
DIMENSION
  5
DD
  8
0
 62
     7
  2
*D8
 10
19.83584880336868
 20
-74.57519575107116
 30
0.0000000000000046
 11
90.62584880336868
 21
-74.57519575107116
 31
0.0000000000000046
 70
   160
  1
{\fSpaceClaim ASME CB|b0|i0;<>}
  3
SPACECLAIM_ASME_CB
 13
19.83584880336868
 23
27.99999999999999
 33
-0.0000000000000017
 14
19.83584880336868
 24
-0.0000000000000092
 34
0.0
1001
ACAD
1000
DSTYLE
1002
{
1070
   270
1070
     2
1070
     7
1000

1070
     6
1000

1070
   144
1040
1.0
1070
     4
1000
in
1070
   273
1070
     2
1070
   277
1070
     2
1070
   284
1070
     8
1070
   285
1070
     0
1070
    78
1070
     8
1070
   171
1070
     3
1070
   274
1070
     3
1070
   278
1070
    44
1070
    74
1070
     1
1070
   174
1070
     1
1070
    77
1070
     0
1070
    41
1040
25.0
1070
   173
1070
     1
1070
   140
1040
18.0
1070
   178
1070
     7
1070
   177
1070
     7
1070
   176
1070
     7
1070
   179
1070
     1
1070
   143
1040
0.0393700787401575
1070
   286
1070
     8
1070
   271
1070
     3
1070
     3
1000
mm
1070
   272
1070
     3
1070
    73
1070
     1
1002
}
  0
DIMENSION
  5
ED
  8
0
 62
     7
  2
*D9
 10
562.0
 20
644.5000021082292
 30
-0.0000000000000395
 11
632.7900000000001
 21
644.5000021082292
 31
-0.0000000000000395
 70
   160
  1
{\fSpaceClaim ASME CB|b0|i0;<>}
  3
SPACECLAIM_ASME_CB
 13
562.0
 23
672.0
 33
-0.0000000000000411
 14
562.0
 24
617.0000042164575
 34
-0.0000000000000378
1001
ACAD
1000
DSTYLE
1002
{
1070
   270
1070
     2
1070
     7
1000

1070
     6
1000

1070
   144
1040
1.0
1070
     4
1000
in
1070
   273
1070
     2
1070
   277
1070
     2
1070
   284
1070
     8
1070
   285
1070
     0
1070
    78
1070
     8
1070
   171
1070
     3
1070
   274
1070
     3
1070
   278
1070
    44
1070
    74
1070
     1
1070
   174
1070
     1
1070
    77
1070
     0
1070
    41
1040
25.0
1070
   173
1070
     1
1070
   140
1040
18.0
1070
   178
1070
     7
1070
   177
1070
     7
1070
   176
1070
     7
1070
   179
1070
     1
1070
   143
1040
0.0393700787401575
1070
   286
1070
     8
1070
   271
1070
     3
1070
     3
1000
mm
1070
   272
1070
     3
1070
    73
1070
     1
1002
}
  0
DIMENSION
  5
FD
  8
0
 62
     7
  2
*D10
 10
590.0
 20
594.9368315420544
 30
-0.0000000000000364
 11
660.7900000000001
 21
594.9368315420544
 31
-0.0000000000000364
 70
   160
  1
{\fSpaceClaim ASME CB|b0|i0;<>}
  3
SPACECLAIM_ASME_CB
 13
590.0
 23
700.0
 33
-0.0000000000000429
 14
590.0
 24
672.0
 34
-0.0000000000000411
1001
ACAD
1000
DSTYLE
1002
{
1070
   270
1070
     2
1070
     7
1000

1070
     6
1000

1070
   144
1040
1.0
1070
     4
1000
in
1070
   273
1070
     2
1070
   277
1070
     2
1070
   284
1070
     8
1070
   285
1070
     0
1070
    78
1070
     8
1070
   171
1070
     3
1070
   274
1070
     3
1070
   278
1070
    44
1070
    74
1070
     1
1070
   174
1070
     1
1070
    77
1070
     0
1070
    41
1040
25.0
1070
   173
1070
     1
1070
   140
1040
18.0
1070
   178
1070
     7
1070
   177
1070
     7
1070
   176
1070
     7
1070
   179
1070
     1
1070
   143
1040
0.0393700787401575
1070
   286
1070
     8
1070
   271
1070
     3
1070
     3
1000
mm
1070
   272
1070
     3
1070
    73
1070
     1
1002
}
  0
DIMENSION
  5
10D
  8
0
 62
     7
  2
*D11
 10
562.0
 20
456.3215556566776
 30
-0.0000000000000279
 11
667.099
 21
456.3215556566776
 31
-0.0000000000000279
 70
   160
  1
{\fSpaceClaim ASME CB|b0|i0;<>}
  3
SPACECLAIM_ASME_CB
 13
590.0
 23
548.0
 33
-0.0000000000000336
 14
562.0
 24
378.0
 34
-0.0000000000000231
1001
ACAD
1000
DSTYLE
1002
{
1070
   270
1070
     2
1070
     7
1000

1070
     6
1000

1070
   144
1040
1.0
1070
     4
1000
in
1070
   273
1070
     2
1070
   277
1070
     2
1070
   284
1070
     8
1070
   285
1070
     0
1070
    78
1070
     8
1070
   171
1070
     3
1070
   274
1070
     3
1070
   278
1070
    44
1070
    74
1070
     1
1070
   174
1070
     1
1070
    77
1070
     0
1070
    41
1040
25.0
1070
   173
1070
     1
1070
   140
1040
18.0
1070
   178
1070
     7
1070
   177
1070
     7
1070
   176
1070
     7
1070
   179
1070
     1
1070
   143
1040
0.0393700787401575
1070
   286
1070
     8
1070
   271
1070
     3
1070
     3
1000
mm
1070
   272
1070
     3
1070
    73
1070
     1
1002
}
  0
DIMENSION
  5
11D
  8
0
 62
     7
  2
*D12
 10
224.8539821546674
 20
548.0
 30
-0.0000000000000313
 11
298.5439821546674
 21
511.2050558203619
 31
-0.0000000000000313
 70
   160
  1
{\fSpaceClaim ASME CB|b0|i0;<>}
  3
SPACECLAIM_ASME_CB
 13
590.0
 23
511.205055820362
 33
-0.0000000000000313
 14
170.0
 24
548.0
 34
-0.0000000000000336
 50
-90.0
1001
ACAD
1000
DSTYLE
1002
{
1070
   270
1070
     2
1070
     7
1000

1070
     6
1000

1070
   144
1040
1.0
1070
     4
1000
in
1070
   273
1070
     2
1070
   277
1070
     2
1070
   284
1070
     8
1070
   285
1070
     0
1070
    78
1070
     8
1070
   171
1070
     3
1070
   274
1070
     3
1070
   278
1070
    44
1070
    74
1070
     1
1070
   174
1070
     1
1070
    77
1070
     0
1070
    41
1040
25.0
1070
   173
1070
     1
1070
   140
1040
18.0
1070
   178
1070
     7
1070
   177
1070
     7
1070
   176
1070
     7
1070
   179
1070
     1
1070
   143
1040
0.0393700787401575
1070
   286
1070
     8
1070
   271
1070
     3
1070
     3
1000
mm
1070
   272
1070
     3
1070
    73
1070
     1
1002
}
  0
LINE
  5
12D
  8
0
 10
28.00000000000002
 20
700.0
 30
0.0
 11
562.0
 21
700.0
 31
0.0
  0
LINE
  5
12E
  8
0
 10
561.9999999999999
 20
-0.0000000000000156
 30
0.0
 11
28.00000000000002
 21
-0.0000000000000008
 31
0.0
  0
LINE
  5
12F
  8
0
 10
0.0
 20
-0.0000000000000087
 30
0.0
 11
0.0000000000000008
 21
27.99999999999999
 31
0.0
  0
LINE
  5
130
  8
0
 10
28.0
 20
-0.0000000000000095
 30
0.0
 11
0.0
 21
-0.0000000000000087
 31
0.0
  0
LINE
  5
131
  8
0
 10
561.9999999999999
 20
-0.0000000000000156
 30
0.0
 11
590.0
 21
-0.0000000000000164
 31
0.0
  0
LINE
  5
132
  8
0
 10
590.0
 20
27.99999999999997
 30
0.0
 11
590.0
 21
350.0
 31
0.0
  0
LINE
  5
133
  8
0
 62
     7
 10
561.9999999999999
 20
350.0
 30
0.0
 11
561.9999999999999
 21
27.99999999999997
 31
0.0
  0
LINE
  5
134
  8
0
 62
     7
 10
561.9999999999999
 20
27.99999999999998
 30
0.0
 11
590.0
 21
27.99999999999998
 31
0.0
  0
LINE
  5
135
  8
0
 62
     7
 10
28.00000000000002
 20
700.0
 30
0.0
 11
0.0000000000000208
 21
700.0
 31
0.0
  0
LINE
  5
136
  8
0
 62
     7
 10
0.0000000000000194
 20
700.0
 30
0.0
 11
0.0000000000000008
 21
28.00000000000002
 31
0.0
  0
LINE
  5
137
  8
0
 62
     7
 10
0.0000000000000008
 20
27.99999999999999
 30
0.0
 11
28.0
 21
27.99999999999999
 31
0.0
  0
LINE
  5
138
  8
0
 62
     7
 10
562.0
 20
378.0
 30
0.0
 11
28.00000000000002
 21
378.0
 31
0.0
  0
LINE
  5
139
  8
0
 62
     7
 10
28.00000000000001
 20
378.0
 30
0.0
 11
28.00000000000004
 21
350.0
 31
0.0
  0
LINE
  5
13A
  8
0
 62
     7
 10
28.00000000000004
 20
350.0
 30
0.0
 11
590.0
 21
350.0
 31
0.0
  0
LINE
  5
13B
  8
0
 10
590.0
 20
378.0
 30
0.0
 11
590.0
 21
548.0
 31
0.0
  0
LINE
  5
13C
  8
0
 62
     7
 10
562.0
 20
378.0
 30
0.0
 11
590.0
 21
378.0
 31
0.0
  0
LINE
  5
13D
  8
0
 62
     7
 10
590.0
 20
576.0000000000001
 30
0.0
 11
169.9999999999999
 21
576.0000000000001
 31
0.0
  0
LINE
  5
13E
  8
0
 62
     7
 10
170.0
 20
576.0000000000001
 30
0.0
 11
170.0
 21
548.0
 31
0.0
  0
LINE
  5
13F
  8
0
 62
     7
 10
170.0
 20
548.0
 30
0.0
 11
590.0
 21
548.0
 31
0.0
  0
LINE
  5
140
  8
0
 10
562.0
 20
700.0
 30
0.0
 11
590.0
 21
700.0
 31
0.0
  0
LINE
  5
141
  8
0
 62
     7
 10
590.0
 20
617.0000084329146
 30
0.0
 11
562.0
 21
617.0000000000001
 31
0.0
  0
LINE
  5
142
  8
0
 62
     7
 10
562.0
 20
617.0
 30
0.0
 11
562.0
 21
672.0
 31
0.0
  0
LINE
  5
143
  8
0
 62
     7
 10
562.0
 20
672.0
 30
0.0
 11
590.0
 21
672.0
 31
0.0
  0
LINE
  5
144
  8
0
 62
     7
 10
28.0
 20
27.99999999999999
 30
0.0
 11
28.00000000000001
 21
350.0
 31
0.0
  0
LINE
  5
145
  8
0
 62
     7
 10
28.00000000000001
 20
378.0000000000001
 30
0.0
 11
28.00000000000002
 21
700.0
 31
0.0
  0
LINE
  5
146
  8
0
 62
     7
 10
590.0
 20
378.0
 30
0.0
 11
590.0
 21
0.0
 31
0.0
  0
LINE
  5
147
  8
0
 10
590.0
 20
700.0
 30
0.0
 11
590.0
 21
672.0
 31
0.0
  0
LINE
  5
148
  8
0
 62
     7
 10
590.0
 20
576.0000000000001
 30
0.0
 11
590.0
 21
548.0
 31
0.0
  0
LINE
  5
149
  8
0
 62
     7
 10
590.0
 20
672.0
 30
0.0
 11
590.0
 21
617.0000084329146
 31
0.0
  0
LINE
  5
14A
  8
0
 10
590.0
 20
576.0000000000001
 30
0.0
 11
590.0
 21
617.0000084329146
 31
0.0
  0
ENDSEC
  0
EOF
