  0
SECTION
  2
HEADER
  9
$ACADVER
  1
AC1009
  9
$DWGCODEPAGE
  3
ansi_1252
  9
$INSBASE
 10
0.0
 20
0.0
 30
0.0
  9
$EXTMIN
 10
0.0000000000000008
 20
-0.0000000000004414
 30
-0.0000000000000429
  9
$EXTMAX
 10
590.0
 20
700.0
 30
0.0
  9
$LIMMIN
 10
0.0
 20
0.0
  9
$LIMMAX
 10
420.0
 20
297.0
  9
$ORTHOMODE
 70
     0
  9
$REGENMODE
 70
     1
  9
$FILLMODE
 70
     1
  9
$QTEXTMODE
 70
     0
  9
$MIRRTEXT
 70
     1
  9
$DRAGMODE
 70
     2
  9
$LTSCALE
 40
1.0
  9
$OSMODE
 70
    37
  9
$ATTMODE
 70
     1
  9
$TEXTSIZE
 40
2.5
  9
$TRACEWID
 40
1.0
  9
$TEXTSTYLE
  7
STANDARD
  9
$CLAYER
  8
0
  9
$CELTYPE
  6
BYLAYER
  9
$CECOLOR
 62
   256
  9
$DIMSCALE
 40
1.0
  9
$DIMASZ
 40
2.5
  9
$DIMEXO
 40
0.625
  9
$DIMDLI
 40
3.75
  9
$DIMRND
 40
0.0
  9
$DIMDLE
 40
0.0
  9
$DIMEXE
 40
1.25
  9
$DIMTP
 40
0.0
  9
$DIMTM
 40
0.0
  9
$DIMTXT
 40
2.5
  9
$DIMCEN
 40
2.5
  9
$DIMTSZ
 40
0.0
  9
$DIMTOL
 70
     0
  9
$DIMLIM
 70
     0
  9
$DIMTIH
 70
     1
  9
$DIMTOH
 70
     0
  9
$DIMSE1
 70
     0
  9
$DIMSE2
 70
     0
  9
$DIMTAD
 70
     1
  9
$DIMZIN
 70
     8
  9
$DIMBLK
  1

  9
$DIMASO
 70
     1
  9
$DIMSHO
 70
     1
  9
$DIMPOST
  1
mm
  9
$DIMAPOST
  1

  9
$DIMALT
 70
     0
  9
$DIMALTD
 70
     3
  9
$DIMALTF
 40
0.0393700787401575
  9
$DIMLFAC
 40
1.0
  9
$DIMTOFL
 70
     1
  9
$DIMTVP
 40
0.0
  9
$DIMTIX
 70
     0
  9
$DIMSOXD
 70
     0
  9
$DIMSAH
 70
     0
  9
$DIMBLK1
  1

  9
$DIMBLK2
  1

  9
$DIMSTYLE
  2
ISO-25
  9
$DIMCLRD
 70
     0
  9
$DIMCLRE
 70
     0
  9
$DIMCLRT
 70
     0
  9
$DIMTFAC
 40
1.0
  9
$DIMGAP
 40
0.625
  9
$LUNITS
 70
     2
  9
$LUPREC
 70
     4
  9
$SKETCHINC
 40
1.0
  9
$FILLETRAD
 40
10.0
  9
$AUNITS
 70
     0
  9
$AUPREC
 70
     0
  9
$MENU
  1
.
  9
$ELEVATION
 40
0.0
  9
$PELEVATION
 40
0.0
  9
$THICKNESS
 40
0.0
  9
$LIMCHECK
 70
     0
  9
$CHAMFERA
 40
0.0
  9
$CHAMFERB
 40
0.0
  9
$SKPOLY
 70
     0
  9
$TDCREATE
 40
2458316.415489236
  9
$TDUPDATE
 40
2458316.415489953
  9
$TDINDWG
 40
0.0000000116
  9
$TDUSRTIMER
 40
0.0000000116
  9
$USRTIMER
 70
     1
  9
$ANGBASE
 50
0.0
  9
$ANGDIR
 70
     0
  9
$PDMODE
 70
     0
  9
$PDSIZE
 40
0.0
  9
$PLINEWID
 40
0.0
  9
$COORDS
 70
     1
  9
$SPLFRAME
 70
     0
  9
$SPLINETYPE
 70
     6
  9
$SPLINESEGS
 70
     8
  9
$ATTDIA
 70
     0
  9
$ATTREQ
 70
     1
  9
$HANDLING
 70
     1
  9
$HANDSEED
  5
13F
  9
$SURFTAB1
 70
     6
  9
$SURFTAB2
 70
     6
  9
$SURFTYPE
 70
     6
  9
$SURFU
 70
     6
  9
$SURFV
 70
     6
  9
$UCSNAME
  2

  9
$UCSORG
 10
0.0
 20
0.0
 30
0.0
  9
$UCSXDIR
 10
1.0
 20
0.0
 30
0.0
  9
$UCSYDIR
 10
0.0
 20
1.0
 30
0.0
  9
$PUCSNAME
  2

  9
$PUCSORG
 10
0.0
 20
0.0
 30
0.0
  9
$PUCSXDIR
 10
1.0
 20
0.0
 30
0.0
  9
$PUCSYDIR
 10
0.0
 20
1.0
 30
0.0
  9
$USERI1
 70
     0
  9
$USERI2
 70
     0
  9
$USERI3
 70
     0
  9
$USERI4
 70
     0
  9
$USERI5
 70
     0
  9
$USERR1
 40
0.0
  9
$USERR2
 40
0.0
  9
$USERR3
 40
0.0
  9
$USERR4
 40
0.0
  9
$USERR5
 40
0.0
  9
$WORLDVIEW
 70
     1
  9
$SHADEDGE
 70
     3
  9
$SHADEDIF
 70
    70
  9
$TILEMODE
 70
     1
  9
$MAXACTVP
 70
    64
  9
$PLIMCHECK
 70
     0
  9
$PEXTMIN
 10
1.000000000000000E+20
 20
1.000000000000000E+20
 30
1.000000000000000E+20
  9
$PEXTMAX
 10
-1.000000000000000E+20
 20
-1.000000000000000E+20
 30
-1.000000000000000E+20
  9
$PLIMMIN
 10
0.0
 20
0.0
  9
$PLIMMAX
 10
420.0
 20
297.0
  9
$UNITMODE
 70
     0
  9
$VISRETAIN
 70
     1
  9
$PLINEGEN
 70
     0
  9
$PSLTSCALE
 70
     1
  0
ENDSEC
  0
SECTION
  2
TABLES
  0
TABLE
  2
VPORT
 70
     1
  0
VPORT
  2
*ACTIVE
 70
     0
 10
0.0
 20
0.0
 11
1.0
 21
1.0
 12
295.0
 22
349.9999999999998
 13
0.0
 23
0.0
 14
10.0
 24
10.0
 15
10.0
 25
10.0
 16
0.0
 26
0.0
 36
1.0
 17
0.0
 27
0.0
 37
0.0
 40
700.0000000000005
 41
0.8428571428571423
 42
50.0
 43
0.0
 44
0.0
 50
0.0
 51
0.0
 71
     0
 72
   100
 73
     1
 74
     3
 75
     0
 76
     0
 77
     0
 78
     0
  0
ENDTAB
  0
TABLE
  2
LTYPE
 70
     1
  0
LTYPE
  2
CONTINUOUS
 70
     0
  3
Solid line
 72
    65
 73
     0
 40
0.0
  0
ENDTAB
  0
TABLE
  2
LAYER
 70
     2
  0
LAYER
  2
0
 70
     0
 62
     7
  6
CONTINUOUS
  0
LAYER
  2
DEFPOINTS
 70
     0
 62
     7
  6
CONTINUOUS
  0
ENDTAB
  0
TABLE
  2
STYLE
 70
     2
  0
STYLE
  2
STANDARD
 70
     0
 40
0.0
 41
1.0
 50
0.0
 71
     0
 42
2.5
  3
txt
  4

  0
STYLE
  2
SPACECLAIM_ASME_CB
 70
     0
 40
0.0
 41
1.0
 50
0.0
 71
     0
 42
2.5
  3
SpaceClaim ASME.ttf
  4

  0
ENDTAB
  0
TABLE
  2
VIEW
 70
     0
  0
ENDTAB
  0
TABLE
  2
UCS
 70
     0
  0
ENDTAB
  0
TABLE
  2
APPID
 70
     1
  0
APPID
  2
ACAD
 70
     0
  0
ENDTAB
  0
TABLE
  2
DIMSTYLE
 70
     2
  0
DIMSTYLE
  2
ISO-25
 70
     0
  3

  4

  5

  6

  7

 40
1.0
 41
2.5
 42
0.625
 43
3.75
 44
1.25
 45
0.0
 46
0.0
 47
0.0
 48
0.0
140
2.5
141
2.5
142
0.0
143
0.03937007874016
144
1.0
145
0.0
146
1.0
147
0.625
 71
     0
 72
     0
 73
     0
 74
     0
 75
     0
 76
     0
 77
     1
 78
     8
170
     0
171
     3
172
     1
173
     0
174
     0
175
     0
176
     0
177
     0
178
     0
  0
DIMSTYLE
  2
SPACECLAIM_ASME_CB
 70
     0
  3

  4

  5

  6

  7

 40
1.0
 41
0.18
 42
0.0625
 43
0.38
 44
0.18
 45
0.0
 46
0.0
 47
0.0
 48
0.0
140
0.18
141
0.09
142
0.0
143
25.4
144
1.0
145
0.0
146
1.0
147
0.09
 71
     0
 72
     0
 73
     1
 74
     1
 75
     0
 76
     0
 77
     0
 78
     0
170
     0
171
     2
172
     0
173
     0
174
     0
175
     0
176
     0
177
     0
178
     0
  0
ENDTAB
  0
ENDSEC
  0
SECTION
  2
BLOCKS
  0
BLOCK
  8
0
  2
$MODEL_SPACE
 70
     0
 10
0.0
 20
0.0
 30
0.0
  3
$MODEL_SPACE
  1

  0
ENDBLK
  5
21
  8
0
  0
BLOCK
 67
     1
  8
0
  2
$PAPER_SPACE
 70
     0
 10
0.0
 20
0.0
 30
0.0
  3
$PAPER_SPACE
  1

  0
ENDBLK
  5
1D
 67
     1
  8
0
  0
BLOCK
  8
0
  2
*D1
 70
     1
 10
0.0
 20
0.0
 30
0.0
  3
*D1
  1

  0
LINE
  5
72
  8
0
 62
     7
 10
276.6891623998422
 20
751.707000542703
 30
0.0
 11
251.6891623998422
 21
751.707000542703
 31
0.0
  0
LINE
  5
73
  8
0
 62
     7
 10
251.6891623998422
 20
751.707000542703
 30
0.0
 11
251.6891623998422
 21
700.0
 31
0.0
  0
LINE
  5
74
  8
0
 62
     7
 10
0.0625000000000194
 20
700.0
 30
0.0
 11
251.8691623998423
 21
700.0
 31
0.0
  0
LINE
  5
75
  8
0
 62
     7
 10
589.9375
 20
700.0
 30
0.0
 11
251.5091623998422
 21
700.0
 31
0.0
  0
LINE
  5
76
  8
0
 62
     7
 10
251.6891623998422
 20
725.0
 30
0.0
 11
251.6891623998422
 21
750.0
 31
0.0
  0
SOLID
  5
77
  8
0
 62
     7
 10
255.8558290665089
 20
675.0
 30
0.0
 11
247.5224957331756
 21
675.0
 31
0.0
 12
251.6891623998422
 22
700.0
 32
0.0
 13
251.6891623998422
 23
700.0
 33
0.0
  0
SOLID
  5
78
  8
0
 62
     7
 10
247.5224957331756
 20
725.0
 30
0.0
 11
255.8558290665089
 21
725.0
 31
0.0
 12
251.6891623998422
 22
700.0
 32
0.0
 13
251.6891623998422
 23
700.0
 33
0.0
  0
TEXT
  5
79
  8
0
  6
CONTINUOUS
 62
     7
 10
274.9791623998422
 20
742.707000542703
 30
0.0
 40
18.0
  1
0mm
  7
SPACECLAIM_ASME_CB
  0
POINT
  5
7A
  8
DEFPOINTS
 62
     0
 10
0.0000000000000194
 20
700.0
 30
0.0
  0
POINT
  5
7B
  8
DEFPOINTS
 62
     0
 10
590.0
 20
700.0
 30
0.0
  0
POINT
  5
7C
  8
DEFPOINTS
 62
     0
 10
251.6891623998422
 20
700.0
 30
0.0
  0
ENDBLK
  5
71
  8
0
  0
BLOCK
  8
0
  2
*D2
 70
     1
 10
0.0
 20
0.0
 30
0.0
  3
*D2
  1

  0
LINE
  5
82
  8
0
 62
     7
 10
0.0000000000000194
 20
699.9375
 30
0.0
 11
0.0000000000000178
 21
349.8199999999999
 31
0.0
  0
LINE
  5
83
  8
0
 62
     7
 10
27.99999999999997
 20
0.0624999999999992
 30
0.0
 11
27.99999999999997
 21
350.1799999999999
 31
0.0
  0
LINE
  5
84
  8
0
 62
     7
 10
0.0000000000000178
 20
349.9999999999999
 30
0.0
 11
-49.99999999999999
 21
349.9999999999999
 31
0.0
  0
LINE
  5
85
  8
0
 62
     7
 10
-24.99999999999998
 20
349.9999999999999
 30
0.0
 11
-49.99999999999999
 21
349.9999999999999
 31
0.0
  0
LINE
  5
86
  8
0
 62
     7
 10
52.99999999999997
 20
349.9999999999999
 30
0.0
 11
77.99999999999997
 21
349.9999999999999
 31
0.0
  0
SOLID
  5
87
  8
0
 62
     7
 10
-24.99999999999998
 20
345.8333333333332
 30
0.0
 11
-24.99999999999998
 21
354.1666666666666
 31
0.0
 12
0.0000000000000178
 22
349.9999999999999
 32
0.0
 13
0.0000000000000178
 23
349.9999999999999
 33
0.0
  0
SOLID
  5
88
  8
0
 62
     7
 10
52.99999999999997
 20
354.1666666666666
 30
0.0
 11
52.99999999999997
 21
345.8333333333332
 31
0.0
 12
27.99999999999997
 22
349.9999999999999
 32
0.0
 13
27.99999999999997
 23
349.9999999999999
 33
0.0
  0
TEXT
  5
89
  8
0
  6
CONTINUOUS
 62
     7
 10
-105.89
 20
340.9999999999999
 30
0.0
 40
18.0
  1
28mm
  7
SPACECLAIM_ASME_CB
  0
POINT
  5
8A
  8
DEFPOINTS
 62
     0
 10
0.0000000000000194
 20
700.0
 30
0.0
  0
POINT
  5
8B
  8
DEFPOINTS
 62
     0
 10
27.99999999999997
 20
-0.0000000000000008
 30
0.0
  0
POINT
  5
8C
  8
DEFPOINTS
 62
     0
 10
27.99999999999997
 20
349.9999999999999
 30
0.0
  0
ENDBLK
  5
81
  8
0
  0
BLOCK
  8
0
  2
*D3
 70
     1
 10
0.0
 20
0.0
 30
0.0
  3
*D3
  1

  0
LINE
  5
92
  8
0
 62
     7
 10
562.0
 20
0.0624999999999844
 30
0.0
 11
562.0
 21
164.1799999999998
 31
0.0
  0
LINE
  5
93
  8
0
 62
     7
 10
590.0
 20
327.9374999999999
 30
0.0
 11
590.0
 21
163.8199999999998
 31
0.0
  0
LINE
  5
94
  8
0
 62
     7
 10
590.0
 20
163.9999999999998
 30
0.0
 11
640.0
 21
163.9999999999998
 31
0.0
  0
LINE
  5
95
  8
0
 62
     7
 10
537.0
 20
163.9999999999998
 30
0.0
 11
512.0
 21
163.9999999999998
 31
0.0
  0
LINE
  5
96
  8
0
 62
     7
 10
615.0
 20
163.9999999999998
 30
0.0
 11
640.0
 21
163.9999999999998
 31
0.0
  0
SOLID
  5
97
  8
0
 62
     7
 10
537.0
 20
159.8333333333331
 30
0.0
 11
537.0
 21
168.1666666666665
 31
0.0
 12
562.0
 22
163.9999999999998
 32
0.0
 13
562.0
 23
163.9999999999998
 33
0.0
  0
SOLID
  5
98
  8
0
 62
     7
 10
615.0
 20
168.1666666666665
 30
0.0
 11
615.0
 21
159.8333333333331
 31
0.0
 12
590.0
 22
163.9999999999998
 32
0.0
 13
590.0
 23
163.9999999999998
 33
0.0
  0
TEXT
  5
99
  8
0
  6
CONTINUOUS
 62
     7
 10
638.308
 20
154.9999999999998
 30
0.0
 40
18.0
  1
28mm
  7
SPACECLAIM_ASME_CB
  0
POINT
  5
9A
  8
DEFPOINTS
 62
     0
 10
562.0
 20
-0.0000000000000156
 30
0.0
  0
POINT
  5
9B
  8
DEFPOINTS
 62
     0
 10
590.0
 20
327.9999999999999
 30
0.0
  0
POINT
  5
9C
  8
DEFPOINTS
 62
     0
 10
590.0
 20
163.9999999999998
 30
0.0
  0
ENDBLK
  5
91
  8
0
  0
BLOCK
  8
0
  2
*D4
 70
     1
 10
0.0
 20
0.0
 30
0.0
  3
*D4
  1

  0
LINE
  5
A2
  8
0
 62
     7
 10
278.8247669526116
 20
106.7544256064222
 30
0.0
 11
253.8247669526116
 21
106.7544256064222
 31
0.0
  0
LINE
  5
A3
  8
0
 62
     7
 10
253.8247669526116
 20
106.7544256064222
 30
0.0
 11
253.8247669526116
 21
50.00000000000007
 31
0.0
  0
LINE
  5
A4
  8
0
 62
     7
 10
153.0625
 20
49.99999999994865
 30
0.0
 11
254.0047669526116
 21
49.9999999999486
 31
0.0
  0
LINE
  5
A5
  8
0
 62
     7
 10
436.9374999999999
 20
49.99999999999999
 30
0.0
 11
253.6447669526115
 21
50.00000000000007
 31
0.0
  0
LINE
  5
A6
  8
0
 62
     7
 10
253.8247669526116
 20
24.9999999999486
 30
0.0
 11
253.8247669526116
 21
-0.0000000000514007
 31
0.0
  0
SOLID
  5
A7
  8
0
 62
     7
 10
257.9914336192782
 20
24.9999999999486
 30
0.0
 11
249.6581002859449
 21
24.9999999999486
 31
0.0
 12
253.8247669526116
 22
49.9999999999486
 32
0.0
 13
253.8247669526116
 23
49.9999999999486
 33
0.0
  0
SOLID
  5
A8
  8
0
 62
     7
 10
249.6581002859449
 20
75.00000000000007
 30
0.0
 11
257.9914336192782
 21
75.00000000000007
 31
0.0
 12
253.8247669526116
 22
50.00000000000007
 32
0.0
 13
253.8247669526116
 23
50.00000000000007
 33
0.0
  0
TEXT
  5
A9
  8
0
  6
CONTINUOUS
 62
     7
 10
277.1147669526115
 20
97.75442560642219
 30
0.0
 40
18.0
  1
0mm
  7
SPACECLAIM_ASME_CB
  0
POINT
  5
AA
  8
DEFPOINTS
 62
     0
 10
153.0
 20
49.99999999994865
 30
0.0
  0
POINT
  5
AB
  8
DEFPOINTS
 62
     0
 10
436.9999999999999
 20
49.99999999999999
 30
0.0
  0
POINT
  5
AC
  8
DEFPOINTS
 62
     0
 10
253.8247669526116
 20
50.00000000000008
 30
0.0
  0
ENDBLK
  5
A1
  8
0
  0
BLOCK
  8
0
  2
*D5
 70
     1
 10
0.0
 20
0.0
 30
0.0
  3
*D5
  1

  0
LINE
  5
B2
  8
0
 62
     7
 10
153.0
 20
-0.0625000000000042
 30
0.0
 11
153.0
 21
-83.69339963464861
 31
0.0
  0
LINE
  5
B3
  8
0
 62
     7
 10
212.2985734599232
 20
47.93749999999989
 30
0.0
 11
212.2985734599232
 21
-83.69339963464863
 31
0.0
  0
LINE
  5
B4
  8
0
 62
     7
 10
128.0
 20
-83.51339963464861
 30
0.0
 11
103.0
 21
-83.51339963464861
 31
0.0
  0
LINE
  5
B5
  8
0
 62
     7
 10
237.2985734599232
 20
-83.51339963464862
 30
0.0
 11
262.2985734599232
 21
-83.51339963464862
 31
0.0
  0
SOLID
  5
B6
  8
0
 62
     7
 10
128.0
 20
-87.68006630131528
 30
0.0
 11
128.0
 21
-79.34673296798194
 31
0.0
 12
153.0
 22
-83.51339963464861
 32
0.0
 13
153.0
 23
-83.51339963464861
 33
0.0
  0
SOLID
  5
B7
  8
0
 62
     7
 10
237.2985734599232
 20
-79.34673296798195
 30
0.0
 11
237.2985734599232
 21
-87.68006630131529
 31
0.0
 12
212.2985734599232
 22
-83.51339963464862
 32
0.0
 13
212.2985734599232
 23
-83.51339963464862
 33
0.0
  0
TEXT
  5
B8
  8
0
  6
CONTINUOUS
 62
     7
 10
158.4515734599232
 20
-90.67739963464862
 30
0.0
 40
18.0
  1
59,299mm
  7
SPACECLAIM_ASME_CB
  0
POINT
  5
B9
  8
DEFPOINTS
 62
     0
 10
153.0
 20
-0.0000000000000042
 30
0.0
  0
POINT
  5
BA
  8
DEFPOINTS
 62
     0
 10
212.2985734599232
 20
47.99999999999989
 30
0.0
  0
POINT
  5
BB
  8
DEFPOINTS
 62
     0
 10
212.2985734599232
 20
-83.51339963464862
 30
0.0
  0
ENDBLK
  5
B1
  8
0
  0
BLOCK
  8
0
  2
*D6
 70
     1
 10
0.0
 20
0.0
 30
0.0
  3
*D6
  1

  0
LINE
  5
C1
  8
0
 62
     7
 10
599.6519999999999
 20
-50.00000000000001
 30
0.0
 11
624.6519999999999
 21
-50.00000000000001
 31
0.0
  0
LINE
  5
C2
  8
0
 62
     7
 10
624.6519999999999
 20
-50.00000000000001
 30
0.0
 11
624.6519999999999
 21
-0.0000000000000071
 31
0.0
  0
LINE
  5
C3
  8
0
 62
     7
 10
590.0625
 20
27.99999999999998
 30
0.0
 11
624.8319999999999
 21
27.99999999999999
 31
0.0
  0
LINE
  5
C4
  8
0
 62
     7
 10
562.0625
 20
-0.0000000000000156
 30
0.0
 11
624.8319999999999
 21
-0.0000000000000071
 31
0.0
  0
LINE
  5
C5
  8
0
 62
     7
 10
624.6519999999999
 20
52.99999999999999
 30
0.0
 11
624.6519999999999
 21
77.99999999999999
 31
0.0
  0
SOLID
  5
C6
  8
0
 62
     7
 10
620.4853333333333
 20
52.99999999999999
 30
0.0
 11
628.8186666666666
 21
52.99999999999999
 31
0.0
 12
624.6519999999999
 22
27.99999999999999
 32
0.0
 13
624.6519999999999
 23
27.99999999999999
 33
0.0
  0
SOLID
  5
C7
  8
0
 62
     7
 10
628.8186666666666
 20
-25.00000000000001
 30
0.0
 11
620.4853333333333
 21
-25.00000000000001
 31
0.0
 12
624.6519999999999
 22
-0.0000000000000071
 32
0.0
 13
624.6519999999999
 23
-0.0000000000000071
 33
0.0
  0
TEXT
  5
C8
  8
0
  6
CONTINUOUS
 62
     7
 10
543.7619999999998
 20
-59.00000000000001
 30
0.0
 40
18.0
  1
28mm
  7
SPACECLAIM_ASME_CB
  0
POINT
  5
C9
  8
DEFPOINTS
 62
     0
 10
590.0
 20
27.99999999999998
 30
0.0
  0
POINT
  5
CA
  8
DEFPOINTS
 62
     0
 10
562.0
 20
-0.0000000000000156
 30
0.0
  0
POINT
  5
CB
  8
DEFPOINTS
 62
     0
 10
624.6519999999999
 20
-0.0000000000000118
 30
0.0
  0
ENDBLK
  5
C0
  8
0
  0
BLOCK
  8
0
  2
*D7
 70
     1
 10
0.0
 20
0.0
 30
0.0
  3
*D7
  1

  0
LINE
  5
D1
  8
0
 62
     7
 10
37.652
 20
-50.0
 30
0.0
 11
62.652
 21
-50.0
 31
0.0
  0
LINE
  5
D2
  8
0
 62
     7
 10
62.652
 20
-50.0
 30
0.0
 11
62.652
 21
0.0
 31
0.0
  0
LINE
  5
D3
  8
0
 62
     7
 10
0.0625000000000008
 20
27.99999999999997
 30
0.0
 11
62.832
 21
27.99999999999997
 31
0.0
  0
LINE
  5
D4
  8
0
 62
     7
 10
28.06249999999997
 20
-0.0000000000000008
 30
0.0
 11
62.832
 21
0.0
 31
0.0
  0
LINE
  5
D5
  8
0
 62
     7
 10
62.652
 20
52.99999999999997
 30
0.0
 11
62.652
 21
77.99999999999997
 31
0.0
  0
SOLID
  5
D6
  8
0
 62
     7
 10
58.48533333333334
 20
52.99999999999997
 30
0.0
 11
66.81866666666667
 21
52.99999999999997
 31
0.0
 12
62.652
 22
27.99999999999997
 32
0.0
 13
62.652
 23
27.99999999999997
 33
0.0
  0
SOLID
  5
D7
  8
0
 62
     7
 10
66.81866666666667
 20
-25.0
 30
0.0
 11
58.48533333333334
 21
-25.0
 31
0.0
 12
62.652
 22
0.0
 32
0.0
 13
62.652
 23
0.0
 33
0.0
  0
TEXT
  5
D8
  8
0
  6
CONTINUOUS
 62
     7
 10
-18.238
 20
-59.0
 30
0.0
 40
18.0
  1
28mm
  7
SPACECLAIM_ASME_CB
  0
POINT
  5
D9
  8
DEFPOINTS
 62
     0
 10
0.0000000000000008
 20
27.99999999999997
 30
0.0
  0
POINT
  5
DA
  8
DEFPOINTS
 62
     0
 10
27.99999999999997
 20
-0.0000000000000008
 30
0.0
  0
POINT
  5
DB
  8
DEFPOINTS
 62
     0
 10
62.652
 20
-0.0000000000000029
 30
0.0
  0
ENDBLK
  5
D0
  8
0
  0
BLOCK
  8
0
  2
*D8
 70
     1
 10
0.0
 20
0.0
 30
0.0
  3
*D8
  1

  0
LINE
  5
E1
  8
0
 62
     7
 10
276.6891623998422
 20
580.858636321171
 30
0.0
 11
251.6891623998422
 21
580.858636321171
 31
0.0
  0
LINE
  5
E2
  8
0
 62
     7
 10
251.6891623998422
 20
580.858636321171
 30
0.0
 11
251.6891623998422
 21
527.9999999999999
 31
0.0
  0
LINE
  5
E3
  8
0
 62
     7
 10
589.9375
 20
527.9999999999999
 30
0.0
 11
251.5091623998422
 21
527.9999999999999
 31
0.0
  0
LINE
  5
E4
  8
0
 62
     7
 10
28.06250000000007
 20
527.9999999999999
 30
0.0
 11
251.8691623998423
 21
527.9999999999999
 31
0.0
  0
LINE
  5
E5
  8
0
 62
     7
 10
251.6891623998422
 20
502.9999999999999
 30
0.0
 11
251.6891623998422
 21
477.9999999999999
 31
0.0
  0
SOLID
  5
E6
  8
0
 62
     7
 10
247.5224957331756
 20
552.9999999999999
 30
0.0
 11
255.8558290665089
 21
552.9999999999999
 31
0.0
 12
251.6891623998422
 22
527.9999999999999
 32
0.0
 13
251.6891623998422
 23
527.9999999999999
 33
0.0
  0
SOLID
  5
E7
  8
0
 62
     7
 10
255.8558290665089
 20
502.9999999999999
 30
0.0
 11
247.5224957331756
 21
502.9999999999999
 31
0.0
 12
251.6891623998422
 22
527.9999999999999
 32
0.0
 13
251.6891623998422
 23
527.9999999999999
 33
0.0
  0
TEXT
  5
E8
  8
0
  6
CONTINUOUS
 62
     7
 10
274.9791623998422
 20
571.858636321171
 30
0.0
 40
18.0
  1
0mm
  7
SPACECLAIM_ASME_CB
  0
POINT
  5
E9
  8
DEFPOINTS
 62
     0
 10
590.0
 20
527.9999999999999
 30
0.0
  0
POINT
  5
EA
  8
DEFPOINTS
 62
     0
 10
28.00000000000007
 20
527.9999999999999
 30
0.0
  0
POINT
  5
EB
  8
DEFPOINTS
 62
     0
 10
251.6891623998422
 20
527.9999999999999
 30
0.0
  0
ENDBLK
  5
E0
  8
0
  0
BLOCK
  8
0
  2
*D9
 70
     1
 10
0.0
 20
0.0
 30
0.0
  3
*D9
  1

  0
LINE
  5
F1
  8
0
 62
     7
 10
152.9375
 20
49.99999999994865
 30
0.0
 11
81.60310257015928
 21
49.9999999999487
 31
0.0
  0
LINE
  5
F2
  8
0
 62
     7
 10
0.0624999999999634
 20
106.7544256064223
 30
0.0
 11
81.96310257015932
 21
106.7544256064222
 31
0.0
  0
LINE
  5
F3
  8
0
 62
     7
 10
81.78310257015927
 20
24.9999999999487
 30
0.0
 11
81.78310257015926
 21
-0.0000000000513012
 31
0.0
  0
LINE
  5
F4
  8
0
 62
     7
 10
81.78310257015933
 20
131.7544256064222
 30
0.0
 11
81.78310257015934
 21
156.7544256064222
 31
0.0
  0
SOLID
  5
F5
  8
0
 62
     7
 10
85.94976923682594
 20
24.9999999999487
 30
0.0
 11
77.6164359034926
 21
24.9999999999487
 31
0.0
 12
81.78310257015929
 22
49.9999999999487
 32
0.0
 13
81.78310257015929
 23
49.9999999999487
 33
0.0
  0
SOLID
  5
F6
  8
0
 62
     7
 10
77.61643590349266
 20
131.7544256064222
 30
0.0
 11
85.949769236826
 21
131.7544256064222
 31
0.0
 12
81.78310257015931
 22
106.7544256064222
 32
0.0
 13
81.78310257015931
 23
106.7544256064222
 33
0.0
  0
TEXT
  5
F7
  8
0
  6
CONTINUOUS
 62
     7
 10
31.38310257015931
 20
99.5904256064222
 30
0.0
 40
18.0
  1
56,754mm
  7
SPACECLAIM_ASME_CB
  0
POINT
  5
F8
  8
DEFPOINTS
 62
     0
 10
153.0
 20
49.99999999994865
 30
0.0
  0
POINT
  5
F9
  8
DEFPOINTS
 62
     0
 10
-0.0000000000000366
 20
106.7544256064223
 30
0.0
  0
POINT
  5
FA
  8
DEFPOINTS
 62
     0
 10
81.78310257015931
 20
106.7544256064223
 30
0.0
  0
ENDBLK
  5
F0
  8
0
  0
BLOCK
  8
0
  2
*D10
 70
     1
 10
0.0
 20
0.0
 30
0.0
  3
*D10
  1

  0
LINE
  5
100
  8
0
 62
     7
 10
461.3630000000001
 20
106.7544256064227
 30
0.0
 11
436.3630000000001
 21
106.7544256064227
 31
0.0
  0
LINE
  5
101
  8
0
 62
     7
 10
436.3630000000001
 20
106.7544256064227
 30
0.0
 11
436.3630000000001
 21
106.754425606421
 31
0.0
  0
LINE
  5
102
  8
0
 62
     7
 10
436.9374999999999
 20
49.99999999999999
 30
0.0
 11
436.1830000000001
 21
49.99999999999999
 31
0.0
  0
LINE
  5
103
  8
0
 62
     7
 10
589.9375000000001
 20
106.7544256064227
 30
0.0
 11
436.183
 21
106.754425606421
 31
0.0
  0
LINE
  5
104
  8
0
 62
     7
 10
436.3630000000001
 20
74.99999999999999
 30
0.0
 11
436.3630000000001
 21
81.75442560642098
 31
0.0
  0
SOLID
  5
105
  8
0
 62
     7
 10
432.1963333333334
 20
74.99999999999999
 30
0.0
 11
440.5296666666668
 21
74.99999999999999
 31
0.0
 12
436.3630000000001
 22
49.99999999999999
 32
0.0
 13
436.3630000000001
 23
49.99999999999999
 33
0.0
  0
SOLID
  5
106
  8
0
 62
     7
 10
440.5296666666667
 20
81.75442560642098
 30
0.0
 11
432.1963333333334
 21
81.75442560642098
 31
0.0
 12
436.3630000000001
 22
106.754425606421
 32
0.0
 13
436.3630000000001
 23
106.754425606421
 33
0.0
  0
TEXT
  5
107
  8
0
  6
CONTINUOUS
 62
     7
 10
459.6530000000001
 20
99.59042560642274
 30
0.0
 40
18.0
  1
56,754mm
  7
SPACECLAIM_ASME_CB
  0
POINT
  5
108
  8
DEFPOINTS
 62
     0
 10
436.9999999999999
 20
49.99999999999999
 30
0.0
  0
POINT
  5
109
  8
DEFPOINTS
 62
     0
 10
590.0000000000001
 20
106.7544256064227
 30
0.0
  0
POINT
  5
10A
  8
DEFPOINTS
 62
     0
 10
436.3630000000001
 20
106.7544256064225
 30
0.0
  0
ENDBLK
  5
FF
  8
0
  0
BLOCK
  8
0
  2
*D11
 70
     1
 10
0.0
 20
0.0
 30
0.0
  3
*D11
  1

  0
LINE
  5
110
  8
0
 62
     7
 10
590.0
 20
528.0624999999999
 30
0.0
 11
590.0
 21
614.1800000000002
 31
0.0
  0
LINE
  5
111
  8
0
 62
     7
 10
590.0
 20
699.9375
 30
0.0
 11
590.0
 21
613.8200000000003
 31
0.0
  0
LINE
  5
112
  8
0
 62
     7
 10
590.0
 20
614.0000000000002
 30
0.0
 11
540.0
 21
614.0000000000002
 31
0.0
  0
LINE
  5
113
  8
0
 62
     7
 10
615.0
 20
614.0000000000002
 30
0.0
 11
640.0
 21
614.0000000000002
 31
0.0
  0
LINE
  5
114
  8
0
 62
     7
 10
565.0
 20
614.0000000000002
 30
0.0
 11
540.0
 21
614.0000000000002
 31
0.0
  0
SOLID
  5
115
  8
0
 62
     7
 10
615.0
 20
618.1666666666669
 30
0.0
 11
615.0
 21
609.8333333333336
 31
0.0
 12
590.0
 22
614.0000000000002
 32
0.0
 13
590.0
 23
614.0000000000002
 33
0.0
  0
SOLID
  5
116
  8
0
 62
     7
 10
565.0
 20
609.8333333333336
 30
0.0
 11
565.0
 21
618.1666666666669
 31
0.0
 12
590.0
 22
614.0000000000002
 32
0.0
 13
590.0
 23
614.0000000000002
 33
0.0
  0
TEXT
  5
117
  8
0
  6
CONTINUOUS
 62
     7
 10
496.71
 20
605.0000000000002
 30
0.0
 40
18.0
  1
0mm
  7
SPACECLAIM_ASME_CB
  0
POINT
  5
118
  8
DEFPOINTS
 62
     0
 10
590.0
 20
527.9999999999999
 30
0.0
  0
POINT
  5
119
  8
DEFPOINTS
 62
     0
 10
590.0
 20
700.0
 30
0.0
  0
POINT
  5
11A
  8
DEFPOINTS
 62
     0
 10
590.0
 20
614.0000000000002
 30
0.0
  0
ENDBLK
  5
10F
  8
0
  0
ENDSEC
  0
SECTION
  2
ENTITIES
  0
DIMENSION
  5
6A
  8
0
 62
     7
  2
*D1
 10
251.6891623998422
 20
700.0
 30
-0.000000000000046
 11
297.4791623998422
 21
751.707000542703
 31
-0.000000000000046
 70
   160
  1
{\fSpaceClaim ASME CB|b0|i0;<>}
  3
SPACECLAIM_ASME_CB
 13
0.0000000000000194
 23
700.0
 33
-0.0000000000000429
 14
590.0
 24
700.0
 34
-0.0000000000000429
 50
90.0
1001
ACAD
1000
DSTYLE
1002
{
1070
   270
1070
     2
1070
     7
1000

1070
     6
1000

1070
   144
1040
1.0
1070
     4
1000
in
1070
   273
1070
     2
1070
   277
1070
     2
1070
   284
1070
     8
1070
   285
1070
     0
1070
    78
1070
     8
1070
   171
1070
     3
1070
   274
1070
     3
1070
   278
1070
    44
1070
    74
1070
     1
1070
   174
1070
     1
1070
    77
1070
     0
1070
    41
1040
25.0
1070
   173
1070
     1
1070
   140
1040
18.0
1070
   178
1070
     7
1070
   177
1070
     7
1070
   176
1070
     7
1070
   179
1070
     1
1070
   143
1040
0.0393700787401575
1070
   286
1070
     8
1070
   271
1070
     3
1070
     3
1000
mm
1070
   272
1070
     3
1070
    73
1070
     1
1002
}
  0
DIMENSION
  5
7D
  8
0
 62
     7
  2
*D2
 10
27.99999999999997
 20
349.9999999999999
 30
-0.0000000000000214
 11
-77.09899999999999
 21
349.9999999999999
 31
-0.0000000000000214
 70
   160
  1
{\fSpaceClaim ASME CB|b0|i0;<>}
  3
SPACECLAIM_ASME_CB
 13
0.0000000000000194
 23
700.0
 33
-0.0000000000000429
 14
27.99999999999997
 24
-0.0000000000000008
 34
0.0
1001
ACAD
1000
DSTYLE
1002
{
1070
   270
1070
     2
1070
     7
1000

1070
     6
1000

1070
   144
1040
1.0
1070
     4
1000
in
1070
   273
1070
     2
1070
   277
1070
     2
1070
   284
1070
     8
1070
   285
1070
     0
1070
    78
1070
     8
1070
   171
1070
     3
1070
   274
1070
     3
1070
   278
1070
    44
1070
    74
1070
     1
1070
   174
1070
     1
1070
    77
1070
     0
1070
    41
1040
25.0
1070
   173
1070
     1
1070
   140
1040
18.0
1070
   178
1070
     7
1070
   177
1070
     7
1070
   176
1070
     7
1070
   179
1070
     1
1070
   143
1040
0.0393700787401575
1070
   286
1070
     8
1070
   271
1070
     3
1070
     3
1000
mm
1070
   272
1070
     3
1070
    73
1070
     1
1002
}
  0
DIMENSION
  5
8D
  8
0
 62
     7
  2
*D3
 10
590.0
 20
163.9999999999998
 30
-0.00000000000001
 11
667.099
 21
163.9999999999998
 31
-0.00000000000001
 70
   160
  1
{\fSpaceClaim ASME CB|b0|i0;<>}
  3
SPACECLAIM_ASME_CB
 13
562.0
 23
-0.0000000000000156
 33
0.0
 14
590.0
 24
327.9999999999999
 34
-0.0000000000000201
 50
-180.0
1001
ACAD
1000
DSTYLE
1002
{
1070
   270
1070
     2
1070
     7
1000

1070
     6
1000

1070
   144
1040
1.0
1070
     4
1000
in
1070
   273
1070
     2
1070
   277
1070
     2
1070
   284
1070
     8
1070
   285
1070
     0
1070
    78
1070
     8
1070
   171
1070
     3
1070
   274
1070
     3
1070
   278
1070
    44
1070
    74
1070
     1
1070
   174
1070
     1
1070
    77
1070
     0
1070
    41
1040
25.0
1070
   173
1070
     1
1070
   140
1040
18.0
1070
   178
1070
     7
1070
   177
1070
     7
1070
   176
1070
     7
1070
   179
1070
     1
1070
   143
1040
0.0393700787401575
1070
   286
1070
     8
1070
   271
1070
     3
1070
     3
1000
mm
1070
   272
1070
     3
1070
    73
1070
     1
1002
}
  0
DIMENSION
  5
9D
  8
0
 62
     7
  2
*D4
 10
253.8247669526116
 20
50.00000000000007
 30
-0.0000000000000065
 11
299.6147669526115
 21
106.7544256064222
 31
-0.0000000000000065
 70
   160
  1
{\fSpaceClaim ASME CB|b0|i0;<>}
  3
SPACECLAIM_ASME_CB
 13
153.0
 23
49.99999999994865
 33
-0.0000000000000031
 14
436.9999999999999
 24
49.99999999999999
 34
-0.0000000000000031
 50
89.99999999999997
1001
ACAD
1000
DSTYLE
1002
{
1070
   270
1070
     2
1070
     7
1000

1070
     6
1000

1070
   144
1040
1.0
1070
     4
1000
in
1070
   273
1070
     2
1070
   277
1070
     2
1070
   284
1070
     8
1070
   285
1070
     0
1070
    78
1070
     8
1070
   171
1070
     3
1070
   274
1070
     3
1070
   278
1070
    44
1070
    74
1070
     1
1070
   174
1070
     1
1070
    77
1070
     0
1070
    41
1040
25.0
1070
   173
1070
     1
1070
   140
1040
18.0
1070
   178
1070
     7
1070
   177
1070
     7
1070
   176
1070
     7
1070
   179
1070
     1
1070
   143
1040
0.0393700787401575
1070
   286
1070
     8
1070
   271
1070
     3
1070
     3
1000
mm
1070
   272
1070
     3
1070
    73
1070
     1
1002
}
  0
DIMENSION
  5
AD
  8
0
 62
     7
  2
*D5
 10
212.2985734599232
 20
-83.51339963464862
 30
0.0000000000000051
 11
208.8515734599232
 21
-83.51339963464862
 31
0.0000000000000051
 70
   160
  1
{\fSpaceClaim ASME CB|b0|i0;<>}
  3
SPACECLAIM_ASME_CB
 13
153.0
 23
-0.0000000000000042
 33
0.0
 14
212.2985734599232
 24
47.99999999999989
 34
-0.0000000000000029
 50
180.0
1001
ACAD
1000
DSTYLE
1002
{
1070
   270
1070
     2
1070
     7
1000

1070
     6
1000

1070
   144
1040
1.0
1070
     4
1000
in
1070
   273
1070
     2
1070
   277
1070
     2
1070
   284
1070
     8
1070
   285
1070
     0
1070
    78
1070
     8
1070
   171
1070
     3
1070
   274
1070
     3
1070
   278
1070
    44
1070
    74
1070
     1
1070
   174
1070
     1
1070
    77
1070
     0
1070
    41
1040
25.0
1070
   173
1070
     1
1070
   140
1040
18.0
1070
   178
1070
     7
1070
   177
1070
     7
1070
   176
1070
     7
1070
   179
1070
     1
1070
   143
1040
0.0393700787401575
1070
   286
1070
     8
1070
   271
1070
     3
1070
     3
1000
mm
1070
   272
1070
     3
1070
    73
1070
     1
1002
}
  0
DIMENSION
  5
BC
  8
0
 62
     7
  2
*D6
 10
624.6519999999999
 20
-0.0000000000000071
 30
0.0000000000000025
 11
572.5529999999999
 21
-50.00000000000001
 31
0.0000000000000025
 70
   160
  1
{\fSpaceClaim ASME CB|b0|i0;<>}
  3
SPACECLAIM_ASME_CB
 13
590.0
 23
27.99999999999998
 33
-0.0000000000000017
 14
562.0
 24
-0.0000000000000156
 34
0.0
 50
-90.0
1001
ACAD
1000
DSTYLE
1002
{
1070
   270
1070
     2
1070
     7
1000

1070
     6
1000

1070
   144
1040
1.0
1070
     4
1000
in
1070
   273
1070
     2
1070
   277
1070
     2
1070
   284
1070
     8
1070
   285
1070
     0
1070
    78
1070
     8
1070
   171
1070
     3
1070
   274
1070
     3
1070
   278
1070
    44
1070
    74
1070
     1
1070
   174
1070
     1
1070
    77
1070
     0
1070
    41
1040
25.0
1070
   173
1070
     1
1070
   140
1040
18.0
1070
   178
1070
     7
1070
   177
1070
     7
1070
   176
1070
     7
1070
   179
1070
     1
1070
   143
1040
0.0393700787401575
1070
   286
1070
     8
1070
   271
1070
     3
1070
     3
1000
mm
1070
   272
1070
     3
1070
    73
1070
     1
1002
}
  0
DIMENSION
  5
CC
  8
0
 62
     7
  2
*D7
 10
62.652
 20
0.0
 30
0.0000000000000027
 11
10.553
 21
-50.0
 31
0.0000000000000027
 70
   160
  1
{\fSpaceClaim ASME CB|b0|i0;<>}
  3
SPACECLAIM_ASME_CB
 13
0.0000000000000008
 23
27.99999999999997
 33
-0.0000000000000017
 14
27.99999999999997
 24
-0.0000000000000008
 34
0.0
 50
90.0
1001
ACAD
1000
DSTYLE
1002
{
1070
   270
1070
     2
1070
     7
1000

1070
     6
1000

1070
   144
1040
1.0
1070
     4
1000
in
1070
   273
1070
     2
1070
   277
1070
     2
1070
   284
1070
     8
1070
   285
1070
     0
1070
    78
1070
     8
1070
   171
1070
     3
1070
   274
1070
     3
1070
   278
1070
    44
1070
    74
1070
     1
1070
   174
1070
     1
1070
    77
1070
     0
1070
    41
1040
25.0
1070
   173
1070
     1
1070
   140
1040
18.0
1070
   178
1070
     7
1070
   177
1070
     7
1070
   176
1070
     7
1070
   179
1070
     1
1070
   143
1040
0.0393700787401575
1070
   286
1070
     8
1070
   271
1070
     3
1070
     3
1000
mm
1070
   272
1070
     3
1070
    73
1070
     1
1002
}
  0
DIMENSION
  5
DC
  8
0
 62
     7
  2
*D8
 10
251.6891623998422
 20
527.9999999999999
 30
-0.0000000000000356
 11
297.4791623998422
 21
580.858636321171
 31
-0.0000000000000356
 70
   160
  1
{\fSpaceClaim ASME CB|b0|i0;<>}
  3
SPACECLAIM_ASME_CB
 13
590.0
 23
527.9999999999999
 33
-0.0000000000000323
 14
28.00000000000007
 24
527.9999999999999
 34
-0.0000000000000323
 50
-90.0
1001
ACAD
1000
DSTYLE
1002
{
1070
   270
1070
     2
1070
     7
1000

1070
     6
1000

1070
   144
1040
1.0
1070
     4
1000
in
1070
   273
1070
     2
1070
   277
1070
     2
1070
   284
1070
     8
1070
   285
1070
     0
1070
    78
1070
     8
1070
   171
1070
     3
1070
   274
1070
     3
1070
   278
1070
    44
1070
    74
1070
     1
1070
   174
1070
     1
1070
    77
1070
     0
1070
    41
1040
25.0
1070
   173
1070
     1
1070
   140
1040
18.0
1070
   178
1070
     7
1070
   177
1070
     7
1070
   176
1070
     7
1070
   179
1070
     1
1070
   143
1040
0.0393700787401575
1070
   286
1070
     8
1070
   271
1070
     3
1070
     3
1000
mm
1070
   272
1070
     3
1070
    73
1070
     1
1002
}
  0
DIMENSION
  5
EC
  8
0
 62
     7
  2
*D9
 10
81.78310257015931
 20
106.7544256064222
 30
-0.0000000000000065
 11
81.78310257015931
 21
106.7544256064222
 31
-0.0000000000000065
 70
   160
  1
{\fSpaceClaim ASME CB|b0|i0;<>}
  3
SPACECLAIM_ASME_CB
 13
153.0
 23
49.99999999994865
 33
-0.0000000000000031
 14
-0.0000000000000366
 24
106.7544256064223
 34
-0.0000000000000065
 50
-90.00000000000004
1001
ACAD
1000
DSTYLE
1002
{
1070
   270
1070
     2
1070
     7
1000

1070
     6
1000

1070
   144
1040
1.0
1070
     4
1000
in
1070
   273
1070
     2
1070
   277
1070
     2
1070
   284
1070
     8
1070
   285
1070
     0
1070
    78
1070
     8
1070
   171
1070
     3
1070
   274
1070
     3
1070
   278
1070
    44
1070
    74
1070
     1
1070
   174
1070
     1
1070
    77
1070
     0
1070
    41
1040
25.0
1070
   173
1070
     1
1070
   140
1040
18.0
1070
   178
1070
     7
1070
   177
1070
     7
1070
   176
1070
     7
1070
   179
1070
     1
1070
   143
1040
0.0393700787401575
1070
   286
1070
     8
1070
   271
1070
     3
1070
     3
1000
mm
1070
   272
1070
     3
1070
    73
1070
     1
1002
}
  0
DIMENSION
  5
FB
  8
0
 62
     7
  2
*D10
 10
436.3630000000001
 20
106.754425606421
 30
-0.0000000000000065
 11
510.0530000000001
 21
106.7544256064227
 31
-0.0000000000000065
 70
   160
  1
{\fSpaceClaim ASME CB|b0|i0;<>}
  3
SPACECLAIM_ASME_CB
 13
436.9999999999999
 23
49.99999999999999
 33
-0.0000000000000031
 14
590.0000000000001
 24
106.7544256064227
 34
-0.0000000000000065
 50
90.00000000000006
1001
ACAD
1000
DSTYLE
1002
{
1070
   270
1070
     2
1070
     7
1000

1070
     6
1000

1070
   144
1040
1.0
1070
     4
1000
in
1070
   273
1070
     2
1070
   277
1070
     2
1070
   284
1070
     8
1070
   285
1070
     0
1070
    78
1070
     8
1070
   171
1070
     3
1070
   274
1070
     3
1070
   278
1070
    44
1070
    74
1070
     1
1070
   174
1070
     1
1070
    77
1070
     0
1070
    41
1040
25.0
1070
   173
1070
     1
1070
   140
1040
18.0
1070
   178
1070
     7
1070
   177
1070
     7
1070
   176
1070
     7
1070
   179
1070
     1
1070
   143
1040
0.0393700787401575
1070
   286
1070
     8
1070
   271
1070
     3
1070
     3
1000
mm
1070
   272
1070
     3
1070
    73
1070
     1
1002
}
  0
DIMENSION
  5
10B
  8
0
 62
     7
  2
*D11
 10
590.0
 20
614.0000000000002
 30
-0.0000000000000376
 11
519.21
 21
614.0000000000002
 31
-0.0000000000000376
 70
   160
  1
{\fSpaceClaim ASME CB|b0|i0;<>}
  3
SPACECLAIM_ASME_CB
 13
590.0
 23
527.9999999999999
 33
-0.0000000000000323
 14
590.0
 24
700.0
 34
-0.0000000000000429
 50
-180.0
1001
ACAD
1000
DSTYLE
1002
{
1070
   270
1070
     2
1070
     7
1000

1070
     6
1000

1070
   144
1040
1.0
1070
     4
1000
in
1070
   273
1070
     2
1070
   277
1070
     2
1070
   284
1070
     8
1070
   285
1070
     0
1070
    78
1070
     8
1070
   171
1070
     3
1070
   274
1070
     3
1070
   278
1070
    44
1070
    74
1070
     1
1070
   174
1070
     1
1070
    77
1070
     0
1070
    41
1040
25.0
1070
   173
1070
     1
1070
   140
1040
18.0
1070
   178
1070
     7
1070
   177
1070
     7
1070
   176
1070
     7
1070
   179
1070
     1
1070
   143
1040
0.0393700787401575
1070
   286
1070
     8
1070
   271
1070
     3
1070
     3
1000
mm
1070
   272
1070
     3
1070
    73
1070
     1
1002
}
  0
LINE
  5
11B
  8
0
 10
0.0000000000000194
 20
700.0
 30
0.0
 11
590.0
 21
700.0
 31
0.0
  0
LINE
  5
11C
  8
0
 10
153.0000000000001
 20
49.99999999994865
 30
0.0
 11
153.0
 21
-0.0000000000004441
 31
0.0
  0
LINE
  5
11D
  8
0
 10
153.0
 20
-0.0000000000000042
 30
0.0
 11
27.99999999999997
 21
-0.0000000000000008
 31
0.0
  0
LINE
  5
11E
  8
0
 10
436.9999999999999
 20
49.99999999999999
 30
0.0
 11
437.0
 21
-0.0000000000000208
 31
0.0
  0
LINE
  5
11F
  8
0
 10
437.0
 20
-0.0000000000000121
 30
0.0
 11
562.0
 21
-0.0000000000000156
 31
0.0
  0
LINE
  5
120
  8
0
 10
153.0
 20
47.99999999999989
 30
0.0
 11
436.9999999999999
 21
47.99999999999988
 31
0.0
  0
LINE
  5
121
  8
0
 10
27.99999999999997
 20
28.0
 30
0.0
 11
27.99999999999997
 21
0.0
 31
0.0
  0
LINE
  5
122
  8
0
 10
562.0
 20
27.99999999999999
 30
0.0
 11
562.0
 21
-0.0000000000000139
 31
0.0
  0
LINE
  5
123
  8
0
 10
590.0
 20
27.99999999999998
 30
0.0
 11
590.0
 21
327.9999999999999
 31
0.0
  0
LINE
  5
124
  8
0
 10
0.0000000000000091
 20
327.9999999999999
 30
0.0
 11
0.0000000000000008
 21
27.99999999999997
 31
0.0
  0
LINE
  5
125
  8
0
 10
0.0000000000000008
 20
28.0
 30
0.0
 11
27.99999999999997
 21
28.0
 31
0.0
  0
LINE
  5
126
  8
0
 10
562.0
 20
27.99999999999998
 30
0.0
 11
590.0
 21
27.99999999999998
 31
0.0
  0
LINE
  5
127
  8
0
 62
     7
 10
0.0000000000000091
 20
327.9999999999999
 30
0.0
 11
0.0000000000000099
 21
355.9999999999999
 31
0.0
  0
LINE
  5
128
  8
0
 62
     7
 10
0.0000000000000099
 20
355.9999999999999
 30
0.0
 11
590.0
 21
355.9999999999999
 31
0.0
  0
LINE
  5
129
  8
0
 62
     7
 10
590.0
 20
355.9999999999999
 30
0.0
 11
590.0
 21
327.9999999999999
 31
0.0
  0
LINE
  5
12A
  8
0
 62
     7
 10
590.0
 20
327.9999999999999
 30
0.0
 11
0.0
 21
327.9999999999999
 31
0.0
  0
LINE
  5
12B
  8
0
 62
     7
 10
590.0
 20
527.9999999999999
 30
0.0
 11
590.0
 21
499.9999999999999
 31
0.0
  0
LINE
  5
12C
  8
0
 62
     7
 10
590.0
 20
499.9999999999999
 30
0.0
 11
28.00000000000002
 21
499.9999999999999
 31
0.0
  0
LINE
  5
12D
  8
0
 62
     7
 10
28.00000000000007
 20
527.9999999999999
 30
0.0
 11
590.0
 21
527.9999999999999
 31
0.0
  0
LINE
  5
12E
  8
0
 10
0.0000000000000099
 20
355.9999999999999
 30
0.0
 11
0.0000000000000139
 21
499.9999999999999
 31
0.0
  0
LINE
  5
12F
  8
0
 10
0.0000000000000147
 20
527.9999999999999
 30
0.0
 11
0.0000000000000194
 21
700.0
 31
0.0
  0
LINE
  5
130
  8
0
 10
590.0
 20
700.0
 30
0.0
 11
590.0
 21
527.9999999999999
 31
0.0
  0
LINE
  5
131
  8
0
 10
590.0
 20
499.9999999999999
 30
0.0
 11
590.0
 21
355.9999999999999
 31
0.0
  0
LINE
  5
132
  8
0
 10
0.0000000000000147
 20
527.9999999999999
 30
0.0
 11
0.0000000000000139
 21
499.9999999999999
 31
0.0
  0
LINE
  5
133
  8
0
 62
     7
 10
28.00000000000007
 20
499.9999999999999
 30
0.0
 11
28.00000000000007
 21
527.9999999999999
 31
0.0
  0
ENDSEC
  0
EOF
